<svg xmlns="http://www.w3.org/2000/svg" xmlns:xlink="http://www.w3.org/1999/xlink" viewBox="0 0 44.11 20.07"><defs><style>.cls-1,.cls-2,.cls-51{fill:none;}.cls-2,.cls-51{stroke:#515151;stroke-miterlimit:10;}.cls-3{fill:#515151;}.cls-4{isolation:isolate;}.cls-5{clip-path:url(#clip-path);}.cls-6{fill:#a42828;}.cls-7{fill:#9f2727;}.cls-8{fill:#9a2626;}.cls-9{fill:#952525;}.cls-10{fill:#902323;}.cls-11{fill:#8b2222;}.cls-12{fill:#862121;}.cls-13{fill:#812020;}.cls-14{fill:#a92929;}.cls-15{fill:#ae2b2b;}.cls-16{fill:#b32c2c;}.cls-17{fill:#b82d2d;}.cls-18{fill:#bd2e2e;}.cls-19{fill:#c23030;}.cls-20{fill:#c73131;}.cls-21{fill:#cc3232;}.cls-22{fill:#d13333;}.cls-23{fill:#d63434;}.cls-24{fill:#db3636;}.cls-25{fill:#e03737;}.cls-26{fill:#e53838;}.cls-27{fill:#ea3939;}.cls-28{fill:#ef3b3b;}.cls-29{fill:#f43c3c;}.cls-30{fill:#f93d3d;}.cls-31{fill:#fa5454;}.cls-32{fill:#fa5e5e;}.cls-33{fill:#fa6565;}.cls-34{fill:#fa6c6c;}.cls-35{fill:#fb7171;}.cls-36{fill:#fb7676;}.cls-37{fill:#fb7b7b;}.cls-38{fill:#fb7f7f;}.cls-39{fill:#fb8383;}.cls-40{fill:#fb8787;}.cls-41{fill:#fb8a8a;}.cls-42{fill:#fb8e8e;}.cls-43{fill:#fc9191;}.cls-44{fill:#fc9494;}.cls-45{fill:#fc9797;}.cls-46{fill:#fc9a9a;}.cls-47{fill:#fc9d9d;}.cls-48{fill:#fca0a0;}.cls-49{fill:#fca2a2;}.cls-50{clip-path:url(#clip-path-2);}.cls-51{stroke-width:0.5px;}</style><clipPath id="clip-path"><path class="cls-1" d="M36.36,16.18a3.9,3.9,0,0,1,.49-1.9,4.35,4.35,0,0,1,.56-.75,3.82,3.82,0,0,1,1-.74,3.89,3.89,0,0,1,3.78,0,3.25,3.25,0,0,1,1.57,2.91,4.27,4.27,0,0,1-3.49,4.18,4.27,4.27,0,0,0,3.49-4.18,3.25,3.25,0,0,0-1.57-2.91,3.91,3.91,0,0,1,1.91,2.73,4.06,4.06,0,0,1,0,1,3.81,3.81,0,0,1-.87,2.09,3.94,3.94,0,0,1-1.93,1.25,3.87,3.87,0,0,1-3.3-.58,3.85,3.85,0,0,1-1.62-3.15Z"/></clipPath><clipPath id="clip-path-2"><path class="cls-1" d="M38.32,19.55A4,4,0,0,1,36.78,18a3.89,3.89,0,0,1-.41-2.09c0-.1,0-.24,0-.34a4.36,4.36,0,0,1,.16-.62,5.1,5.1,0,0,1,.26-.58,4.12,4.12,0,0,1,.35-.52,3.9,3.9,0,0,1,2-1.35,3.84,3.84,0,0,1,1.51-.11,4,4,0,0,1,1.44.47,3,3,0,0,0-1.9-.35,3,3,0,0,1,1.9.35,4.19,4.19,0,0,1,.92.73,4.1,4.1,0,0,1,.71,1.06,4.51,4.51,0,0,1,.28.94A3.87,3.87,0,0,1,41.1,20,3.87,3.87,0,0,1,38.32,19.55Z"/></clipPath></defs><g id="Layer_2" data-name="Layer 2"><g id="Layer_1-2" data-name="Layer 1"><line class="cls-2" x1="25.7" y1="16.25" x2="32.62" y2="16.25"/><polygon class="cls-3" points="32.03 17.12 35.28 16.25 32.03 15.38 32.03 17.12"/><g class="cls-4"><g class="cls-4"><g class="cls-5"><g class="cls-4"><path class="cls-6" d="M36.36,16.18a3.87,3.87,0,1,0,5.78-3.37,3.25,3.25,0,0,1,1.57,2.91,4.27,4.27,0,0,1-3.49,4.18,4.27,4.27,0,0,0,3.49-4.18,3.25,3.25,0,0,0-1.57-2.91,3.89,3.89,0,0,0-5.78,3.37"/><path class="cls-6" d="M43.71,15.72a4.27,4.27,0,0,1-3.49,4.18h0c-3.36.17-4.65-3.47-3.16-5.17,1.63-1.86,5.07-.31,5.26,2.37a2.55,2.55,0,0,1-2.09,2.8,4.27,4.27,0,0,0,3.49-4.18,3.25,3.25,0,0,0-1.57-2.91l-.2-.1-.3-.13-.16-.06-.19-.06-.13,0-.14,0-.11,0-.11,0H39.71l-.12,0a3.92,3.92,0,0,0-.83.24l-.2.09a2.87,2.87,0,0,0-.43.24l-.21.15-.31.25-.2.2-.23.27L37,14l-.18.29-.13.27-.13.31-.09.29-.07.33,0,.31c0,.11,0,.24,0,.35v.31c0,.17.05.39.08.55l.08.3.11.31.13.27c0,.09.11.21.16.29l.16.24.22.27.19.21c.08.07.18.17.27.24l.21.16a4,4,0,0,0,.34.22l.2.1.3.14.16.06.19.06.13,0,.14,0,.11,0,.11,0h1.09l.12,0a3.78,3.78,0,0,0,.79-.22l.19-.08a3.8,3.8,0,0,0,.44-.24l.22-.15.31-.25.2-.19.24-.27.17-.24.18-.29.14-.26c0-.09.09-.22.12-.31l.1-.29.07-.33,0-.31c0-.11,0-.27,0-.38v-.32c0-.1,0-.23,0-.33L44,15.23l-.1-.31-.11-.29-.14-.29-.15-.26-.2-.27-.18-.22-.25-.25-.21-.18a4.3,4.3,0,0,0-.51-.35,3.25,3.25,0,0,1,1.57,2.91"/><path class="cls-7" d="M43.71,15.72a4.36,4.36,0,0,1-2.54,3.91l-.17.09c-2.57,1.08-5.43-1.83-4.37-4.46.85-2.1,4.36-2,5.54.72a2.8,2.8,0,0,1-1,3.65,4.36,4.36,0,0,0,2.54-3.91,3.25,3.25,0,0,0-1.57-2.91l-.2-.1-.3-.13-.16-.06-.19-.06-.13,0-.14,0-.11,0-.11,0H39.71l-.12,0a3.92,3.92,0,0,0-.83.24l-.2.09a2.87,2.87,0,0,0-.43.24l-.21.15-.31.25-.2.2-.23.27L37,14l-.18.29-.13.27-.13.31-.09.29-.07.33,0,.31c0,.11,0,.24,0,.35v.31c0,.17.05.39.08.55l.08.3.11.31.13.27c0,.09.11.21.16.29l.16.24.22.27.19.21c.08.07.18.17.27.24l.21.16a4,4,0,0,0,.34.22l.2.1.3.14.16.06.19.06.13,0,.14,0,.11,0,.11,0h1.09l.12,0a3.78,3.78,0,0,0,.79-.22l.19-.08a3.8,3.8,0,0,0,.44-.24l.22-.15.31-.25.2-.19.24-.27.17-.24.18-.29.14-.26c0-.09.09-.22.12-.31l.1-.29.07-.33,0-.31c0-.11,0-.27,0-.38v-.32c0-.1,0-.23,0-.33L44,15.23l-.1-.31-.11-.29-.14-.29-.15-.26-.2-.27-.18-.22-.25-.25-.21-.18a4.3,4.3,0,0,0-.51-.35,3.25,3.25,0,0,1,1.57,2.91"/><path class="cls-8" d="M36.52,17.29c-.76-2.69,1.72-4.56,4.2-3.17,1.82,1,2.64,3.72,1,5.21a4.41,4.41,0,0,0,2-3.61,3.25,3.25,0,0,0-1.57-2.91l-.2-.1-.3-.13-.16-.06-.19-.06-.13,0-.14,0-.11,0-.11,0H39.71l-.12,0a3.92,3.92,0,0,0-.83.24l-.2.09a2.87,2.87,0,0,0-.43.24l-.21.15-.31.25-.2.2-.23.27L37,14l-.18.29-.13.27-.13.31-.09.29-.07.33,0,.31c0,.11,0,.24,0,.35v.31c0,.17.05.39.08.55l.08.3.09.24-.1-.28h0"/><path class="cls-8" d="M43.71,15.72a4.41,4.41,0,0,1-2,3.61l-.16.14a2.94,2.94,0,0,1-3.39,0l.34.18.3.14.16.06.19.06.13,0,.14,0,.11,0,.11,0h1.09l.12,0a3.78,3.78,0,0,0,.79-.22l.19-.08a3.8,3.8,0,0,0,.44-.24l.22-.15.31-.25.2-.19.24-.27.17-.24.18-.29.14-.26c0-.09.09-.22.12-.31l.1-.29.07-.33,0-.31c0-.11,0-.27,0-.38v-.32c0-.1,0-.23,0-.33L44,15.23l-.1-.31-.11-.29-.14-.29-.15-.26-.2-.27-.18-.22-.25-.25-.21-.18a4.3,4.3,0,0,0-.51-.35,3.25,3.25,0,0,1,1.57,2.91"/><path class="cls-9" d="M36.4,16.79c-.36-3.09,2.79-4.19,4.93-2.44A3.47,3.47,0,0,1,42.15,19a4.4,4.4,0,0,0,1.56-3.29,3.25,3.25,0,0,0-1.57-2.91l-.2-.1-.3-.13-.16-.06-.19-.06-.13,0-.14,0-.11,0-.11,0H39.71l-.12,0a3.92,3.92,0,0,0-.83.24l-.2.09a2.87,2.87,0,0,0-.43.24l-.21.15-.31.25-.2.2-.23.27L37,14l-.18.29-.13.27-.13.31-.09.29-.07.33,0,.31c0,.11,0,.24,0,.35v.31c0,.11,0,.25,0,.35v-.05"/><path class="cls-9" d="M43.71,15.72A4.4,4.4,0,0,1,42.15,19l-.06.09a2.83,2.83,0,0,1-3.17.72l.16.06.09,0,.13,0,.14,0,.11,0,.11,0h1.09l.12,0a3.78,3.78,0,0,0,.79-.22l.19-.08a3.8,3.8,0,0,0,.44-.24l.22-.15.31-.25.2-.19.24-.27.17-.24.18-.29.14-.26c0-.09.09-.22.12-.31l.1-.29.07-.33,0-.31c0-.11,0-.27,0-.38v-.32c0-.1,0-.23,0-.33L44,15.23l-.1-.31-.11-.29-.14-.29-.15-.26-.2-.27-.18-.22-.25-.25-.21-.18a4.3,4.3,0,0,0-.51-.35,3.25,3.25,0,0,1,1.57,2.91"/><path class="cls-10" d="M36.36,16.17c.15-3.29,3.72-3.48,5.46-1.6a3.54,3.54,0,0,1,.7,4.1,4.46,4.46,0,0,0,1.19-3,3.25,3.25,0,0,0-1.57-2.91l-.2-.1-.3-.13-.16-.06-.19-.06-.13,0-.14,0-.11,0-.11,0H39.71l-.12,0a3.92,3.92,0,0,0-.83.24l-.2.09a2.87,2.87,0,0,0-.43.24l-.21.15-.31.25-.2.2-.23.27L37,14l-.18.29-.13.27-.13.31-.09.29-.07.33,0,.31c0,.11,0,.24,0,.35h0"/><path class="cls-10" d="M43.71,15.72a4.46,4.46,0,0,1-1.19,3l-.12.2A2.77,2.77,0,0,1,39.53,20l.11,0h1.11l.12,0a3.78,3.78,0,0,0,.79-.22l.19-.08a3.8,3.8,0,0,0,.44-.24l.22-.15.31-.25.2-.19.24-.27.17-.24.18-.29.14-.26c0-.09.09-.22.12-.31l.1-.29.07-.33,0-.31c0-.11,0-.27,0-.38v-.32c0-.1,0-.23,0-.33L44,15.23l-.1-.31-.11-.29-.14-.29-.15-.26-.2-.27-.18-.22-.25-.25-.21-.18a4.3,4.3,0,0,0-.51-.35,3.25,3.25,0,0,1,1.57,2.91"/><path class="cls-11" d="M36.44,15.38c.66-2.82,4.41-2.93,6.08-.19a3.51,3.51,0,0,1,.32,3.1,4.35,4.35,0,0,0,.87-2.57,3.25,3.25,0,0,0-1.57-2.91l-.2-.1-.3-.13-.16-.06-.19-.06-.13,0-.14,0-.11,0-.11,0H39.71l-.12,0a3.92,3.92,0,0,0-.83.24l-.2.09a2.87,2.87,0,0,0-.43.24l-.21.15-.31.25-.2.2-.23.27L37,14l-.18.29-.13.27-.13.31-.09.29-.07.33v.1c0-.07,0-.17,0-.24"/><path class="cls-11" d="M43.71,15.72a4.35,4.35,0,0,1-.87,2.57l0,.07a2.74,2.74,0,0,1-2.68,1.69h.62l.12,0a3.78,3.78,0,0,0,.79-.22l.19-.08a3.8,3.8,0,0,0,.44-.24l.22-.15.31-.25.2-.19.24-.27.17-.24.18-.29.14-.26c0-.09.09-.22.12-.31l.1-.29.07-.33,0-.31c0-.11,0-.27,0-.38v-.32c0-.1,0-.23,0-.33L44,15.23l-.1-.31-.11-.29-.14-.29-.15-.26-.2-.27-.18-.22-.25-.25-.21-.18a4.3,4.3,0,0,0-.51-.35,3.25,3.25,0,0,1,1.57,2.91"/><path class="cls-12" d="M36.55,15c1.13-3,5-2.31,6.31.42a3.55,3.55,0,0,1,.27,2.44,4.35,4.35,0,0,0,.58-2.12,3.25,3.25,0,0,0-1.57-2.91l-.2-.1-.3-.13-.16-.06-.19-.06-.13,0-.14,0-.11,0-.11,0H39.71l-.12,0a3.92,3.92,0,0,0-.83.24l-.2.09a2.87,2.87,0,0,0-.43.24l-.21.15-.31.25-.2.2-.23.27L37,14l-.18.29-.13.27-.13.31,0,.12,0,0"/><path class="cls-12" d="M43.71,15.72a4.35,4.35,0,0,1-.58,2.12l-.05.23A2.82,2.82,0,0,1,40.77,20l.13,0a4.84,4.84,0,0,0,.76-.22l.19-.08a3.8,3.8,0,0,0,.44-.24l.22-.15.31-.25.2-.19.24-.27.17-.24.18-.29.14-.26c0-.09.09-.22.12-.31l.1-.29.07-.33,0-.31c0-.11,0-.27,0-.38v-.32c0-.1,0-.23,0-.33L44,15.23l-.1-.31-.11-.29-.14-.29-.15-.26-.2-.27-.18-.22-.25-.25-.21-.18a4.3,4.3,0,0,0-.51-.35,3.25,3.25,0,0,1,1.57,2.91"/><path class="cls-13" d="M37,14.08c1.83-2.61,5.87-.81,6.39,2.12a3,3,0,0,1,0,1.06,4.26,4.26,0,0,0,.3-1.54,3.25,3.25,0,0,0-1.57-2.91l-.2-.1-.3-.13-.16-.06-.19-.06-.13,0-.14,0-.11,0-.11,0H39.71l-.12,0a3.92,3.92,0,0,0-.83.24l-.2.09a2.87,2.87,0,0,0-.43.24l-.21.15-.31.25-.2.2-.23.27L37,14l-.18.29.11-.17,0-.07"/><path class="cls-13" d="M43.71,15.72a4.26,4.26,0,0,1-.3,1.54v.23a2.9,2.9,0,0,1-2,2.39l.14-.05.14,0,.19-.08a3.8,3.8,0,0,0,.44-.24l.22-.15.31-.25.2-.19.24-.27.17-.24.18-.29.14-.26c0-.09.09-.22.12-.31l.1-.29.07-.33,0-.31c0-.11,0-.27,0-.38v-.32c0-.1,0-.23,0-.33L44,15.23l-.1-.31-.11-.29-.14-.29-.15-.26-.2-.27-.18-.22-.25-.25-.21-.18a4.3,4.3,0,0,0-.51-.35,3.25,3.25,0,0,1,1.57,2.91"/><path class="cls-14" d="M39.16,19.81c2.43.48,3.9-2.12,2.42-4.27s-4.69-1.92-5.08.58a3.44,3.44,0,0,0,2.66,3.69"/><path class="cls-15" d="M38.81,19.68c2.52.78,4-1.73,2.83-3.77-1.39-2.47-4.49-2.16-5-.07a3.29,3.29,0,0,0,2.2,3.84"/><path class="cls-16" d="M38.32,19.44a2.37,2.37,0,0,0,3.47-2.79c-.72-2.47-3.87-3.22-4.95-1.18a3.06,3.06,0,0,0,1.48,4"/><path class="cls-17" d="M38.17,19.31a2.3,2.3,0,0,0,3.48-2.68c-.57-2.12-3.79-3.15-4.82-1a3,3,0,0,0,1.34,3.65"/><path class="cls-18" d="M37.94,19.11c1.86,1.27,3.94.05,3.66-2.13s-3.24-3.27-4.49-1.6a2.72,2.72,0,0,0,.83,3.73"/><path class="cls-19" d="M37.91,19A2.17,2.17,0,0,0,41.48,17c-.39-2.32-3.4-2.94-4.38-1.41A2.63,2.63,0,0,0,37.91,19"/><path class="cls-20" d="M37.94,19a2.1,2.1,0,0,0,3.42-2c-.44-2.29-3.27-2.78-4.25-1.2A2.49,2.49,0,0,0,37.94,19"/><path class="cls-21" d="M37.71,18.72a2,2,0,0,0,3.56-1.43,2.34,2.34,0,0,0-3.83-1.77,2.25,2.25,0,0,0,.27,3.2"/><path class="cls-22" d="M37.76,18.68a2,2,0,0,0,3.39-1.74,2.2,2.2,0,0,0-3.81-1.11,2.18,2.18,0,0,0,.42,2.85"/><path class="cls-23" d="M37.83,18.63a1.92,1.92,0,0,0,3.24-1.7,2.09,2.09,0,0,0-3.61-1.06,2.06,2.06,0,0,0,.37,2.76"/><path class="cls-24" d="M37.66,18.33A1.86,1.86,0,0,0,41,17.27a2,2,0,0,0-3.19-1.57,1.84,1.84,0,0,0-.15,2.63"/><path class="cls-25" d="M37.75,18.29a1.79,1.79,0,0,0,3.17-1,1.84,1.84,0,0,0-3.06-1.45,1.76,1.76,0,0,0-.11,2.48"/><path class="cls-26" d="M37.86,18.24a1.7,1.7,0,0,0,3-1,1.73,1.73,0,0,0-3-1.3,1.68,1.68,0,0,0,0,2.28"/><path class="cls-27" d="M38,18.19a1.61,1.61,0,1,0,.09-2.28A1.56,1.56,0,0,0,38,18.19"/><path class="cls-28" d="M37.89,17.87a1.52,1.52,0,1,0,.41-2,1.51,1.51,0,0,0-.41,2"/><path class="cls-29" d="M38,17.83a1.45,1.45,0,0,0,2.62-.58,1.47,1.47,0,0,0-2.33-1.33A1.39,1.39,0,0,0,38,17.83"/><path class="cls-30" d="M38.13,17.8a1.38,1.38,0,0,0,2.45-.55,1.34,1.34,0,0,0-.76-1.4,1.31,1.31,0,0,0-1.43.11,1.3,1.3,0,0,0-.26,1.84"/><path class="cls-31" d="M38.24,17.77a1.29,1.29,0,0,0,2.28-.52,1.32,1.32,0,0,0-2-1.31,1.22,1.22,0,0,0-.32,1.83"/><path class="cls-32" d="M38.26,17.61A1.19,1.19,0,1,0,39.88,16a1.3,1.3,0,0,0-1.15-.09c-.53.31-.55.4-.68.83a1.12,1.12,0,0,0,.21.86"/><path class="cls-33" d="M38.43,17.73a1.38,1.38,0,0,0,1.14.37c.46-.19.47-.2.7-.53a1,1,0,0,0,.15-.67,1.26,1.26,0,0,0-.38-.71c-.2-.18-.2-.18-.73-.32-.34-.09-.92.32-1,.47a1.14,1.14,0,0,0,.14,1.39"/><path class="cls-34" d="M38.29,17.41a1.23,1.23,0,0,0,1.27.63,1.18,1.18,0,0,0,.79-.8,1.14,1.14,0,0,0-.38-1,1.5,1.5,0,0,0-.66-.27,1,1,0,0,0-.5.08,1.12,1.12,0,0,0-.42.33,3.66,3.66,0,0,0-.2.39,1.18,1.18,0,0,0,.1.69"/><path class="cls-35" d="M38.36,17.4a1.17,1.17,0,0,0,1.18.57l.37-.16a1.09,1.09,0,0,0,.39-.57,1,1,0,0,0-.4-1,1.62,1.62,0,0,0-.59-.23,1,1,0,0,0-.5.09,1,1,0,0,0-.55.65,1.06,1.06,0,0,0,.1.69"/><path class="cls-36" d="M38.42,17.39s.24.27.27.3a3.1,3.1,0,0,0,.45.21.85.85,0,0,0,.39,0,.76.76,0,0,0,.38-.16,1.18,1.18,0,0,0,.33-.51,1,1,0,0,0-.41-1,1.17,1.17,0,0,0-.51-.19,1.21,1.21,0,0,0-.5.1.93.93,0,0,0-.4,1.28"/><path class="cls-37" d="M38.49,17.38a1,1,0,0,0,1,.48.68.68,0,0,0,.38-.18,1.34,1.34,0,0,0,.29-.44.93.93,0,0,0-.36-1,3.69,3.69,0,0,0-.51-.2,1.25,1.25,0,0,0-.5.11.91.91,0,0,0-.33,1.21"/><path class="cls-38" d="M38.56,17.37a1.37,1.37,0,0,0,.54.41.94.94,0,0,0,.41,0,.82.82,0,0,0,.39-.18,2,2,0,0,0,.23-.38.89.89,0,0,0-.29-.91,1.21,1.21,0,0,0-.52-.22,1.07,1.07,0,0,0-.49.12.87.87,0,0,0-.27,1.14"/><path class="cls-39" d="M38.63,17.36a1.55,1.55,0,0,0,.46.35.81.81,0,0,0,.41,0l.39-.2a.89.89,0,0,0,.19-.31.81.81,0,0,0-.24-.85,2.59,2.59,0,0,0-.52-.23,4.27,4.27,0,0,0-.48.13.68.68,0,0,0-.3.37.82.82,0,0,0,.09.7"/><path class="cls-40" d="M38.69,17.35s.34.28.38.3a1,1,0,0,0,.43.05,3.82,3.82,0,0,0,.39-.23.59.59,0,0,0,.14-.23.74.74,0,0,0-.19-.78,4.85,4.85,0,0,0-.51-.25l-.49.14a.73.73,0,0,0-.15,1"/><path class="cls-41" d="M38.76,17.34a.89.89,0,0,0,.3.24,1,1,0,0,0,.43.06,3.31,3.31,0,0,0,.39-.25.38.38,0,0,0,.09-.15.76.76,0,0,0-.13-.72,1.3,1.3,0,0,0-.51-.26.84.84,0,0,0-.48.16.67.67,0,0,0-.09.92"/><path class="cls-42" d="M38.82,17.33a.62.62,0,0,0,.22.17,1,1,0,0,0,.44.09c.14,0,.28-.19.4-.28s0,0,0-.06a.84.84,0,0,0,0-.35,1.22,1.22,0,0,0-.16-.34,1,1,0,0,0-.46-.24,1.2,1.2,0,0,0-.48.17c-.17.06-.19.51-.19.51a1,1,0,0,0,.15.33"/><path class="cls-43" d="M38.89,17.32a.35.35,0,0,0,.13.11,1,1,0,0,0,.45.09c.14,0,.27-.18.38-.27s0,0,0-.06a.57.57,0,0,0,0-.29.81.81,0,0,0-.21-.34.72.72,0,0,0-.36-.18,1.16,1.16,0,0,0-.47.17s0,.05-.06.08a.61.61,0,0,0,.08.69"/><path class="cls-44" d="M39,17.31s0,0,0,0a1.11,1.11,0,0,0,.46.11.59.59,0,0,0,.29-.21.89.89,0,0,0,.11-.31v-.05a1.64,1.64,0,0,0-.26-.33.52.52,0,0,0-.26-.12.6.6,0,0,0-.46.18.5.5,0,0,0-.09.36.8.8,0,0,0,.17.33"/><path class="cls-45" d="M39,17.22a.23.23,0,0,0,.09.08.86.86,0,0,0,.38.1.38.38,0,0,0,.19-.14.61.61,0,0,0,.13-.35c0-.13-.17-.25-.27-.34a.22.22,0,0,0-.15-.08c-.13,0-.75.25-.37.73"/><path class="cls-46" d="M38.94,17a1.13,1.13,0,0,0,.31.26.26.26,0,0,0,.19,0,.14.14,0,0,0,.1-.07c.05-.1.16-.24.14-.35s-.25-.36-.33-.36-.09,0-.43.38a.1.1,0,0,0,0,.09"/><path class="cls-47" d="M39.43,17.27h0a2.72,2.72,0,0,0,.16-.35c0-.11-.12-.27-.23-.28a.37.37,0,0,0-.31.32c0,.14.25.24.38.31"/><path class="cls-48" d="M39.41,17.11c.06,0,.09-.13.08-.19s-.06-.14-.12-.14a.2.2,0,0,0-.16.16c0,.08.13.19.2.17"/><path class="cls-49" d="M39.39,16.94a0,0,0,0,0,0,0h0"/></g></g></g><g class="cls-4"><g class="cls-50"><g class="cls-4"><path class="cls-6" d="M38.32,19.55a3.87,3.87,0,0,1,3.82-6.74,3,3,0,0,0-1.9-.35,3,3,0,0,1,1.9.35,3.87,3.87,0,0,1-3.82,6.74"/><path class="cls-6" d="M42.14,12.81a3.88,3.88,0,0,1,.72.53l.2.2.23.27.17.24.18.29.13.26c0,.1.09.22.12.32l.09.29.07.33,0,.31c0,.1,0,.24,0,.34v.32c0,.11,0,.26-.05.37l-.07.3c0,.1-.06.22-.1.32l-.11.28c0,.08-.1.21-.15.29l-.15.25-.2.28-.19.21a3,3,0,0,1-.25.25l-.21.17-.32.23-.19.11-.44.21-.14,0a4.07,4.07,0,0,1-.77.19H39.66l-.1,0-.12,0-.13,0-.14,0L39,19.86l-.19-.07-.2-.09-.3-.15-.22-.14a4,4,0,0,1-.33-.24L37.56,19l-.25-.26-.19-.23-.19-.28L36.78,18l-.14-.3-.1-.28c0-.1-.07-.23-.09-.33l-.05-.3a5.27,5.27,0,0,1,0-.56v-.32c0-.1,0-.24,0-.34l.07-.3c0-.09.06-.22.09-.32l.11-.28.15-.3.15-.25.2-.27.18-.22.25-.25.21-.18.31-.22.2-.12a2.63,2.63,0,0,1,.43-.21l.14-.06a5,5,0,0,1,.81-.2H40.8l.1,0,.12,0,.12,0,.15,0,.16,0,.19.07.2.08.3.15a3,3,0,0,0-1.9-.35h0c-3.34.95-2.15,4.65-.11,5.65a2.6,2.6,0,0,0,3.71-3.3,3.45,3.45,0,0,0-3.59-2.35,3,3,0,0,1,1.9.35"/><path class="cls-7" d="M42.14,12.81a3.88,3.88,0,0,1,.72.53l.2.2.23.27.17.24.18.29.13.26c0,.1.09.22.12.32l.09.29.07.33,0,.31c0,.1,0,.24,0,.34v.32c0,.11,0,.26-.05.37l-.07.3c0,.1-.06.22-.1.32l-.11.28c0,.08-.1.21-.15.29l-.15.25-.2.28-.19.21a3,3,0,0,1-.25.25l-.21.17-.32.23-.19.11-.44.21-.14,0a4.07,4.07,0,0,1-.77.19H39.66l-.1,0-.12,0-.13,0-.14,0L39,19.86l-.19-.07-.2-.09-.3-.15-.22-.14a4,4,0,0,1-.33-.24L37.56,19l-.25-.26-.19-.23-.19-.28L36.78,18l-.14-.3-.1-.28c0-.1-.07-.23-.09-.33l-.05-.3a5.27,5.27,0,0,1,0-.56v-.32c0-.1,0-.24,0-.34l.07-.3c0-.09.06-.22.09-.32l.11-.28.15-.3.15-.25.2-.27.18-.22.25-.25.21-.18.31-.22.2-.12a2.63,2.63,0,0,1,.43-.21l.14-.06a5,5,0,0,1,.81-.2H40.8l.1,0,.12,0,.12,0,.15,0,.16,0,.19.07.2.08.3.15a3.16,3.16,0,0,0-.6-.25h0c-2.84-.79-4.34,2-3,4.23,1.48,2.52,4.93,2.4,5.5-.19a3.65,3.65,0,0,0-2.45-4,3.16,3.16,0,0,1,.6.25"/><path class="cls-8" d="M43.89,14.92a3.45,3.45,0,0,1,.16.62l0,.31c0,.1,0,.24,0,.34v.32c0,.11,0,.26-.05.37l-.07.3c0,.1-.06.22-.1.32l-.11.28c0,.08-.1.21-.15.29l-.15.25-.2.28-.19.21a3,3,0,0,1-.25.25l-.21.17-.32.23-.19.11-.44.21-.14,0a4.07,4.07,0,0,1-.77.19H39.66l-.1,0-.12,0-.13,0-.14,0L39,19.86l-.19-.07-.2-.09-.3-.15-.22-.14a4,4,0,0,1-.33-.24L37.56,19l-.25-.26-.19-.23-.19-.28L36.78,18l-.14-.3-.1-.28c0-.1-.07-.23-.09-.33l-.05-.3a5.27,5.27,0,0,1,0-.56v-.32c0-.1,0-.24,0-.34l.07-.3c0-.09.06-.22.09-.32l.11-.28.15-.3.15-.25.2-.27.18-.22.25-.25.21-.18.31-.22.2-.12a2.63,2.63,0,0,1,.43-.21l.14-.06a5,5,0,0,1,.81-.2H40.8l.1,0,.12,0,.12,0,.15,0,.16,0,.19.07.2.08.3.15-.07,0-.23-.12c-2.75-1.19-4.71,1.29-3.73,3.69,1.19,2.9,4.77,3.06,5.72.88a3.23,3.23,0,0,0,0-2.45.58.58,0,0,1,0,.14"/><path class="cls-8" d="M42.14,12.81l.19.12-.23-.14h0l.07,0"/><path class="cls-9" d="M44.05,15.54a3.56,3.56,0,0,1,.05.65v.32c0,.11,0,.26-.05.37l-.07.3c0,.1-.06.22-.1.32l-.11.28c0,.08-.1.21-.15.29l-.15.25-.2.28-.19.21a3,3,0,0,1-.25.25l-.21.17-.32.23-.19.11-.44.21-.14,0a4.07,4.07,0,0,1-.77.19H39.66l-.1,0-.12,0-.13,0-.14,0L39,19.86l-.19-.07-.2-.09-.3-.15-.22-.14a4,4,0,0,1-.33-.24L37.56,19l-.25-.26-.19-.23-.19-.28L36.78,18l-.14-.3-.1-.28c0-.1-.07-.23-.09-.33l-.05-.3a5.27,5.27,0,0,1,0-.56v-.32c0-.1,0-.24,0-.34l.07-.3c0-.09.06-.22.09-.32l.11-.28.15-.3.15-.25.2-.27.18-.22.25-.25.21-.18.31-.22.2-.12a2.63,2.63,0,0,1,.43-.21l.14-.06a5,5,0,0,1,.81-.2H40.8l.1,0,.12,0,.12,0,.15,0,.16,0,.09,0-.2-.07c-2.87-.81-4.47,2-3.17,4.37,1.53,2.76,5,2.51,5.77.23a3.28,3.28,0,0,0,.11-1.55v0"/><path class="cls-10" d="M44.1,16.19a3.19,3.19,0,0,1-.06.69l-.07.3c0,.1-.06.22-.1.32l-.11.28c0,.08-.1.21-.15.29l-.15.25-.2.28-.19.21a3,3,0,0,1-.25.25l-.21.17-.32.23-.19.11-.44.21-.14,0a4.07,4.07,0,0,1-.77.19H39.66l-.1,0-.12,0-.13,0-.14,0L39,19.86l-.19-.07-.2-.09-.3-.15-.22-.14a4,4,0,0,1-.33-.24L37.56,19l-.25-.26-.19-.23-.19-.28L36.78,18l-.14-.3-.1-.28c0-.1-.07-.23-.09-.33l-.05-.3a5.27,5.27,0,0,1,0-.56v-.32c0-.1,0-.24,0-.34l.07-.3c0-.09.06-.22.09-.32l.11-.28.15-.3.15-.25.2-.27.18-.22.25-.25.21-.18.31-.22.2-.12a2.63,2.63,0,0,1,.43-.21l.14-.06a5,5,0,0,1,.81-.2H40.8l.1,0h0c-3.06-.48-4.26,2.89-2.54,5.1,1.85,2.38,5.38,1.86,5.71-.84a3.42,3.42,0,0,0,0-.47v0"/><path class="cls-11" d="M44,16.88a3.8,3.8,0,0,1-.17.62l-.11.28c0,.08-.1.21-.15.29l-.15.25-.2.28-.19.21a3,3,0,0,1-.25.25l-.21.17-.32.23-.19.11-.44.21-.14,0a4.07,4.07,0,0,1-.77.19H39.66l-.1,0-.12,0-.13,0-.14,0L39,19.86l-.19-.07-.2-.09-.3-.15-.22-.14a4,4,0,0,1-.33-.24L37.56,19l-.25-.26-.19-.23-.19-.28L36.78,18l-.14-.3-.1-.28c0-.1-.07-.23-.09-.33l-.05-.3a5.27,5.27,0,0,1,0-.56v-.32c0-.1,0-.24,0-.34l.07-.3c0-.09.06-.22.09-.32l.11-.28.15-.3.15-.25.2-.27.18-.22.25-.25.21-.18.31-.22.2-.12a2.63,2.63,0,0,1,.43-.21l.14-.06a5,5,0,0,1,.81-.2h.56c-2.89,0-3.89,3.49-1.66,5.72,1.83,1.82,4.91,1.51,5.45-1.29a.68.68,0,0,1,0,.14"/><path class="cls-12" d="M43.87,17.5a3.69,3.69,0,0,1-.26.57l-.15.25-.2.28-.19.21a3,3,0,0,1-.25.25l-.21.17-.32.23-.19.11-.44.21-.14,0a4.07,4.07,0,0,1-.77.19H39.66l-.1,0-.12,0-.13,0-.14,0L39,19.86l-.19-.07-.2-.09-.3-.15-.22-.14a4,4,0,0,1-.33-.24L37.56,19l-.25-.26-.19-.23-.19-.28L36.78,18l-.14-.3-.1-.28c0-.1-.07-.23-.09-.33l-.05-.3a5.27,5.27,0,0,1,0-.56v-.32c0-.1,0-.24,0-.34l.07-.3c0-.09.06-.22.09-.32l.11-.28.15-.3.15-.25.2-.27.18-.22.25-.25.21-.18.31-.22.2-.12a2.63,2.63,0,0,1,.43-.21l.14-.06a4.36,4.36,0,0,1,.79-.19h-.06c-3,.51-3.32,4.38-.58,6.27,1.91,1.32,4.23.71,4.88-1.29l-.06.16"/><path class="cls-13" d="M43.61,18.07a4.62,4.62,0,0,1-.35.53l-.19.21a3,3,0,0,1-.25.25l-.21.17-.32.23-.19.11-.44.21-.14,0a4.07,4.07,0,0,1-.77.19H39.66l-.1,0-.12,0-.13,0-.14,0L39,19.86l-.19-.07-.2-.09-.3-.15-.22-.14a4,4,0,0,1-.33-.24L37.56,19l-.25-.26-.19-.23-.19-.28L36.78,18l-.14-.3-.1-.28c0-.1-.07-.23-.09-.33l-.05-.3a5.27,5.27,0,0,1,0-.56v-.32c0-.1,0-.24,0-.34l.07-.3c0-.09.06-.22.09-.32l.11-.28.15-.3.15-.25.2-.27.18-.22.25-.25.21-.18.31-.22.2-.12a2.63,2.63,0,0,1,.43-.21l.14-.06.2-.06h0c-2.91.92-2.8,5,.17,6.57a3.11,3.11,0,0,0,4.37-1l0,.06"/><path class="cls-14" d="M41.94,12.76c2.44,1.15,2.79,4.52.57,5.39s-5-1.86-4-4.18a2.5,2.5,0,0,1,3.46-1.21"/><path class="cls-15" d="M42.28,13c2.34,1.43,2.22,4.72-.18,5.18s-4.69-2.66-3.2-4.68a2.52,2.52,0,0,1,3.38-.5"/><path class="cls-16" d="M42.58,13.2c2.11,1.62,1.52,4.42-.46,4.81-2.21.43-4.54-2.31-3.12-4.48a2.48,2.48,0,0,1,3.58-.33"/><path class="cls-17" d="M42.85,13.47c1.78,1.7,1,4.45-1.2,4.45-2.42,0-3.92-3-2.3-4.64a2.56,2.56,0,0,1,3.5.19"/><path class="cls-18" d="M42.84,13.51c1.73,1.62,1,4.26-1.18,4.28-2.36,0-3.75-2.88-2.16-4.49a2.44,2.44,0,0,1,3.34.21"/><path class="cls-19" d="M43.06,13.81c1.42,1.74.42,4-1.68,3.82-2.43-.24-3.18-3.21-1.61-4.41a2.44,2.44,0,0,1,3.29.59"/><path class="cls-20" d="M43,13.85c1.41,1.74.24,4-1.87,3.64A2.42,2.42,0,0,1,40,13.21a2.33,2.33,0,0,1,3.05.64"/><path class="cls-21" d="M43.19,14.18a2,2,0,0,1-2,3.2,2.33,2.33,0,0,1-1.17-4,2.25,2.25,0,0,1,3.19.84"/><path class="cls-22" d="M43.14,14.22a1.93,1.93,0,0,1-2,3,2.1,2.1,0,1,1,2-3"/><path class="cls-23" d="M43.08,14.27a1.89,1.89,0,0,1-1.91,2.9,2,2,0,0,1-1-3.64,2,2,0,0,1,2.9.74"/><path class="cls-24" d="M43.16,14.63a1.84,1.84,0,0,1-2.52,2.3,1.92,1.92,0,0,1,0-3.54,2,2,0,0,1,2.48,1.24"/><path class="cls-25" d="M43.06,14.68a1.75,1.75,0,0,1-2.42,2.17,1.8,1.8,0,0,1,.07-3.33,1.85,1.85,0,0,1,2.35,1.16"/><path class="cls-26" d="M43,14.72a1.7,1.7,0,1,1-2.21-1.08A1.73,1.73,0,0,1,43,14.72"/><path class="cls-27" d="M42.84,14.77a1.6,1.6,0,1,1-2.06-1,1.62,1.62,0,0,1,2.06,1"/><path class="cls-28" d="M42.79,15.15a1.43,1.43,0,0,1-.9,1.51,1.49,1.49,0,0,1-1.65-.32,1.45,1.45,0,0,1,.87-2.53,1.51,1.51,0,0,1,1.68,1.34"/><path class="cls-29" d="M42.68,15.18a1.46,1.46,0,0,1-.53,1.26,1.37,1.37,0,0,1-1,.29,2.88,2.88,0,0,1-.59-.2A1.38,1.38,0,0,1,40.83,14a1.47,1.47,0,0,1,1.85,1.22"/><path class="cls-30" d="M42.59,15.21a1.32,1.32,0,0,1-2.19,1.12A1.29,1.29,0,0,1,41.18,14a1.46,1.46,0,0,1,1.41,1.21"/><path class="cls-31" d="M42.5,15.23a1.24,1.24,0,0,1-.84,1.32,1.34,1.34,0,0,1-1.38-.38,1.22,1.22,0,0,1,.93-2.07,1.38,1.38,0,0,1,1.29,1.13"/><path class="cls-32" d="M42.41,15.25a1.19,1.19,0,0,1-2.06.92,1.16,1.16,0,0,1,.88-2,1.3,1.3,0,0,1,1.18,1.08"/><path class="cls-33" d="M42.33,15.27c.1.66-.31.92-.68,1.15a1.22,1.22,0,0,1-1-.08,1.12,1.12,0,0,1,.26-2.08,1.28,1.28,0,0,1,1.44,1"/><path class="cls-34" d="M42.27,15.64a3.67,3.67,0,0,1-.2.4,2.78,2.78,0,0,1-.42.33,1.35,1.35,0,0,1-.5.08,1.29,1.29,0,0,1-.94-.64,1,1,0,0,1,1.07-1.49,1.19,1.19,0,0,1,1,1.32"/><path class="cls-35" d="M42.2,15.66a1.05,1.05,0,0,1-1.05.74,1,1,0,0,1-.52-.18,2.34,2.34,0,0,1-.37-.41,1,1,0,0,1,1-1.42l.46.2a1.12,1.12,0,0,1,.34.37,1.1,1.1,0,0,1,.1.7"/><path class="cls-36" d="M42.13,15.67a1.17,1.17,0,0,1-.49.58,1,1,0,0,1-.5.1,1.08,1.08,0,0,1-.51-.18,1.24,1.24,0,0,1-.32-.36.89.89,0,0,1,.08-1,.93.93,0,0,1,.93-.33,1.26,1.26,0,0,1,.45.22S42,15,42,15a1,1,0,0,1,.09.7"/><path class="cls-37" d="M42.06,15.68a1.27,1.27,0,0,1-.42.51,1.08,1.08,0,0,1-.5.11,2.64,2.64,0,0,1-.51-.2.91.91,0,0,1-.26-.29.86.86,0,0,1,.08-1,.89.89,0,0,1,.49-.29.91.91,0,0,1,.4,0s1,.32.72,1.16"/><path class="cls-38" d="M42,15.5c0,.06,0,.14,0,.19a1.45,1.45,0,0,1-.3.4c-.06.06-.07.07-.55.16a1.07,1.07,0,0,1-.71-.43.83.83,0,0,1,.09-1,1.3,1.3,0,0,1,.43-.23.9.9,0,0,1,.4,0,1.3,1.3,0,0,1,.55.42.66.66,0,0,1,.11.5"/><path class="cls-39" d="M41.92,15.7a.85.85,0,0,1-.3.38,4.8,4.8,0,0,1-.48.12,1.11,1.11,0,0,1-.66-.39.81.81,0,0,1,.09-1l.39-.2a1,1,0,0,1,.41,0c.24.07.76.55.55,1"/><path class="cls-40" d="M41.86,15.71a.71.71,0,0,1-.24.3,3.32,3.32,0,0,1-.49.14s-.51-.24-.51-.24a1.33,1.33,0,0,1-.2-.37.7.7,0,0,1,.15-.65,2,2,0,0,1,.39-.22,1.05,1.05,0,0,1,.43,0s.38.31.38.31a1.2,1.2,0,0,1,.13.33.73.73,0,0,1,0,.36"/><path class="cls-41" d="M41.79,15.72a.49.49,0,0,1-.18.22.79.79,0,0,1-.48.16,1.08,1.08,0,0,1-.51-.26,1.27,1.27,0,0,1-.17-.38s0-.4.13-.49a2.64,2.64,0,0,1,.39-.25.78.78,0,0,1,.43.06.91.91,0,0,1,.3.25,1.66,1.66,0,0,1,.15.33.52.52,0,0,1-.06.36"/><path class="cls-42" d="M41.72,15.73a.35.35,0,0,1-.12.15.86.86,0,0,1-.48.16,1.17,1.17,0,0,1-.46-.23,1,1,0,0,1-.16-.35.87.87,0,0,1,.08-.41.78.78,0,0,1,.4-.27.84.84,0,0,1,.44.08.55.55,0,0,1,.22.18.94.94,0,0,1,.15.32.79.79,0,0,1-.07.37"/><path class="cls-43" d="M41.65,15.74s0,.06-.06.07a1,1,0,0,1-.47.17.69.69,0,0,1-.36-.18.7.7,0,0,1-.15-.19.55.55,0,0,1,0-.49.77.77,0,0,1,.39-.28,1,1,0,0,1,.45.09.35.35,0,0,1,.13.11.84.84,0,0,1,.16.33.8.8,0,0,1-.08.37"/><path class="cls-44" d="M41.59,15.74a.68.68,0,0,1-.47.19.5.5,0,0,1-.26-.13,1.23,1.23,0,0,1-.26-.33,1.4,1.4,0,0,1,.11-.36A.51.51,0,0,1,41,14.9a1.11,1.11,0,0,1,.46.11l0,0a.87.87,0,0,1,.17.33.9.9,0,0,1-.08.36"/><path class="cls-45" d="M41.56,15.59a.67.67,0,0,1-.45.28A.26.26,0,0,1,41,15.8c-.1-.1-.25-.22-.27-.34a.57.57,0,0,1,.12-.35A.43.43,0,0,1,41,15a.86.86,0,0,1,.38.1.24.24,0,0,1,.09.08.46.46,0,0,1,.08.45"/><path class="cls-46" d="M41.54,15.43a1.61,1.61,0,0,1-.34.35.1.1,0,0,1-.09,0c-.08,0-.33-.35-.33-.36s.08-.25.14-.35A.14.14,0,0,1,41,15a.29.29,0,0,1,.2.05,3.85,3.85,0,0,1,.3.27.08.08,0,0,1,0,.08"/><path class="cls-47" d="M41.1,15.72c-.11,0-.21-.17-.23-.27a2.32,2.32,0,0,1,.16-.36h0c.11.1.36.17.37.32a.38.38,0,0,1-.31.31"/><path class="cls-48" d="M41.08,15.58s-.1-.08-.11-.14,0-.17.08-.19.19.09.2.17-.1.17-.17.16"/><path class="cls-49" d="M41.07,15.45h0s0,0,0,0v0h0"/></g></g></g></g><circle cx="20.61" cy="16.25" r="3.67"/><line class="cls-51" x1="12.51" y1="10.25" x2="14.88" y2="11.91"/><path class="cls-3" d="M14.44,11.6l.08-1.28h0l1.06,1.6,1.29,1.41-1.76-.74-1.87-.44,0,0Z"/><path class="cls-51" d="M.14.2c1,.67-.36,2.55.6,3.22S3,2.21,4,2.88s-.36,2.55.6,3.22,2.27-1.21,3.23-.54-.36,2.55.6,3.22,2.28-1.21,3.23-.54.19,1.53.92,2"/></g></g></svg>