G75*
%MOIN*%
%OFA0B0*%
%FSLAX25Y25*%
%IPPOS*%
%LPD*%
%AMOC8*
5,1,8,0,0,1.08239X$1,22.5*
%
%ADD10OC8,0.06300*%
%ADD11C,0.05543*%
%ADD12OC8,0.05200*%
%ADD13C,0.05200*%
%ADD14C,0.06300*%
%ADD15C,0.06000*%
%ADD16OC8,0.08500*%
%ADD17C,0.09450*%
%ADD18C,0.10000*%
%ADD19C,0.05000*%
%ADD20OC8,0.05600*%
%ADD21C,0.04400*%
%ADD22C,0.02400*%
%ADD23R,0.03962X0.03962*%
D10*
X0201006Y0108600D03*
X0201006Y0118600D03*
X0201006Y0128600D03*
X0201006Y0138600D03*
X0231006Y0138600D03*
X0231006Y0128600D03*
X0231006Y0118600D03*
X0231006Y0108600D03*
X0231006Y0173600D03*
X0231006Y0183600D03*
X0231006Y0193600D03*
X0231006Y0203600D03*
X0201006Y0203600D03*
X0201006Y0193600D03*
X0201006Y0183600D03*
X0201006Y0173600D03*
X0571006Y0204100D03*
X0611006Y0168100D03*
D11*
X0133506Y0178600D03*
X0133506Y0188600D03*
X0133506Y0131100D03*
X0133506Y0121100D03*
X0133506Y0401100D03*
X0133506Y0411100D03*
D12*
X0166006Y0418600D03*
X0221006Y0391100D03*
X0221006Y0381100D03*
X0221006Y0371100D03*
X0221006Y0361100D03*
X0221006Y0351100D03*
X0241006Y0351100D03*
X0241006Y0361100D03*
X0241006Y0371100D03*
X0241006Y0381100D03*
X0241006Y0391100D03*
X0166006Y0378600D03*
X0311006Y0293600D03*
X0311006Y0283600D03*
X0321006Y0238600D03*
X0361006Y0238600D03*
X0391006Y0223600D03*
X0391006Y0263600D03*
X0366006Y0283600D03*
X0366006Y0293600D03*
X0241006Y0203600D03*
X0241006Y0193600D03*
X0263506Y0183600D03*
X0263506Y0173600D03*
X0303506Y0173600D03*
X0303506Y0183600D03*
X0241006Y0138600D03*
X0241006Y0128600D03*
X0201006Y0156100D03*
X0191006Y0156100D03*
X0186006Y0168600D03*
X0186006Y0178600D03*
X0171006Y0178600D03*
X0171006Y0168600D03*
X0156006Y0168600D03*
X0156006Y0178600D03*
X0146006Y0178600D03*
X0146006Y0188600D03*
X0146006Y0131100D03*
X0146006Y0121100D03*
X0156006Y0121100D03*
X0156006Y0111100D03*
X0171006Y0111100D03*
X0171006Y0121100D03*
X0186006Y0121100D03*
X0186006Y0111100D03*
X0191006Y0098600D03*
X0201006Y0098600D03*
X0536006Y0133600D03*
X0571006Y0148600D03*
X0581006Y0148600D03*
X0593506Y0183600D03*
X0603506Y0183600D03*
X0536006Y0173600D03*
X0628506Y0113600D03*
X0628506Y0103600D03*
D13*
X0358606Y0253600D02*
X0353406Y0253600D01*
X0353406Y0263600D02*
X0358606Y0263600D01*
X0358606Y0273600D02*
X0353406Y0273600D01*
X0353406Y0283600D02*
X0358606Y0283600D01*
X0358606Y0293600D02*
X0353406Y0293600D01*
X0353406Y0303600D02*
X0358606Y0303600D01*
X0358606Y0313600D02*
X0353406Y0313600D01*
X0328606Y0313600D02*
X0323406Y0313600D01*
X0323406Y0303600D02*
X0328606Y0303600D01*
X0328606Y0293600D02*
X0323406Y0293600D01*
X0323406Y0283600D02*
X0328606Y0283600D01*
X0328606Y0273600D02*
X0323406Y0273600D01*
X0323406Y0263600D02*
X0328606Y0263600D01*
X0328606Y0253600D02*
X0323406Y0253600D01*
X0286106Y0351100D02*
X0280906Y0351100D01*
X0280906Y0361100D02*
X0286106Y0361100D01*
X0286106Y0371100D02*
X0280906Y0371100D01*
X0280906Y0381100D02*
X0286106Y0381100D01*
X0286106Y0391100D02*
X0280906Y0391100D01*
X0256106Y0391100D02*
X0250906Y0391100D01*
X0250906Y0381100D02*
X0256106Y0381100D01*
X0256106Y0371100D02*
X0250906Y0371100D01*
X0250906Y0361100D02*
X0256106Y0361100D01*
X0256106Y0351100D02*
X0250906Y0351100D01*
X0178506Y0386000D02*
X0178506Y0391200D01*
X0178506Y0416000D02*
X0178506Y0421200D01*
X0151006Y0421200D02*
X0151006Y0416000D01*
X0151006Y0391200D02*
X0151006Y0386000D01*
X0116106Y0341100D02*
X0110906Y0341100D01*
X0096106Y0331100D02*
X0090906Y0331100D01*
X0110906Y0318600D02*
X0116106Y0318600D01*
X0096106Y0308600D02*
X0090906Y0308600D01*
X0140906Y0308600D02*
X0146106Y0308600D01*
X0146106Y0331100D02*
X0140906Y0331100D01*
X0116106Y0266100D02*
X0110906Y0266100D01*
X0096106Y0256100D02*
X0090906Y0256100D01*
X0140906Y0256100D02*
X0146106Y0256100D01*
D14*
X0571006Y0218100D03*
X0611006Y0154100D03*
D15*
X0608006Y0133600D02*
X0614006Y0133600D01*
X0614006Y0123600D02*
X0608006Y0123600D01*
X0608006Y0113600D02*
X0614006Y0113600D01*
X0584006Y0113600D02*
X0578006Y0113600D01*
X0578006Y0123600D02*
X0584006Y0123600D01*
X0584006Y0133600D02*
X0578006Y0133600D01*
X0590506Y0201100D02*
X0596506Y0201100D01*
X0596506Y0211100D02*
X0590506Y0211100D01*
X0590506Y0221100D02*
X0596506Y0221100D01*
D16*
X0553506Y0171100D03*
X0553506Y0151100D03*
X0553506Y0133600D03*
X0648506Y0123600D03*
X0648506Y0143600D03*
X0648506Y0163600D03*
X0631006Y0436100D03*
X0263506Y0158600D03*
X0248506Y0118600D03*
X0231006Y0276100D03*
X0213506Y0276100D03*
X0203506Y0383600D03*
X0188506Y0383600D03*
D17*
X0188506Y0368325D02*
X0188506Y0358875D01*
X0168506Y0358875D02*
X0168506Y0368325D01*
X0148506Y0368325D02*
X0148506Y0358875D01*
X0148506Y0293325D02*
X0148506Y0283875D01*
X0168506Y0283875D02*
X0168506Y0293325D01*
X0188506Y0293325D02*
X0188506Y0283875D01*
X0188506Y0238325D02*
X0188506Y0228875D01*
X0168506Y0228875D02*
X0168506Y0238325D01*
X0148506Y0238325D02*
X0148506Y0228875D01*
D18*
X0088506Y0223600D03*
X0088506Y0243600D03*
X0088506Y0278600D03*
X0088506Y0298600D03*
X0088506Y0353600D03*
X0088506Y0373600D03*
D19*
X0088506Y0071700D02*
X0111006Y0071700D01*
X0081006Y0081100D02*
X0081006Y0101700D01*
X0081006Y0440500D02*
X0081006Y0461100D01*
X0088506Y0470500D02*
X0111006Y0470500D01*
X0686006Y0470500D02*
X0708506Y0470500D01*
X0716006Y0461100D02*
X0716006Y0440500D01*
X0716006Y0101700D02*
X0716006Y0081100D01*
X0708506Y0071700D02*
X0686006Y0071700D01*
D20*
X0691006Y0116100D03*
X0691006Y0126100D03*
X0691006Y0136100D03*
X0691006Y0146100D03*
X0691006Y0156100D03*
X0691006Y0166100D03*
X0691006Y0176100D03*
X0691006Y0186100D03*
X0691006Y0196100D03*
X0691006Y0206100D03*
X0691006Y0216100D03*
X0691006Y0226100D03*
X0691006Y0236100D03*
X0691006Y0246100D03*
X0691006Y0256100D03*
X0691006Y0266100D03*
X0691006Y0276100D03*
X0691006Y0286100D03*
X0691006Y0296100D03*
X0691006Y0306100D03*
X0691006Y0316100D03*
X0691006Y0326100D03*
X0691006Y0336100D03*
X0691006Y0346100D03*
X0691006Y0356100D03*
X0691006Y0366100D03*
X0691006Y0376100D03*
X0691006Y0386100D03*
X0691006Y0396100D03*
X0691006Y0406100D03*
X0691006Y0416100D03*
X0691006Y0426100D03*
X0671006Y0426100D03*
X0671006Y0416100D03*
X0671006Y0406100D03*
X0671006Y0396100D03*
X0671006Y0386100D03*
X0671006Y0376100D03*
X0671006Y0366100D03*
X0671006Y0356100D03*
X0671006Y0346100D03*
X0671006Y0336100D03*
X0671006Y0326100D03*
X0671006Y0316100D03*
X0671006Y0306100D03*
X0671006Y0296100D03*
X0671006Y0286100D03*
X0671006Y0276100D03*
X0671006Y0266100D03*
X0671006Y0256100D03*
X0671006Y0246100D03*
X0671006Y0236100D03*
X0671006Y0226100D03*
X0671006Y0216100D03*
X0671006Y0206100D03*
X0671006Y0196100D03*
X0671006Y0186100D03*
X0671006Y0176100D03*
X0671006Y0166100D03*
X0671006Y0156100D03*
X0671006Y0146100D03*
X0671006Y0136100D03*
X0671006Y0126100D03*
X0671006Y0116100D03*
D21*
X0176006Y0443600D03*
X0166006Y0443600D03*
X0156006Y0443600D03*
D22*
X0156006Y0443600D01*
X0151606Y0443600D01*
X0151606Y0443254D01*
X0151715Y0442570D01*
X0151929Y0441911D01*
X0152243Y0441294D01*
X0152650Y0440734D01*
X0153140Y0440244D01*
X0153700Y0439837D01*
X0154317Y0439522D01*
X0154976Y0439308D01*
X0155660Y0439200D01*
X0156006Y0439200D01*
X0156006Y0443600D01*
X0151606Y0443600D01*
X0151606Y0443946D01*
X0151715Y0444630D01*
X0151929Y0445289D01*
X0152243Y0445906D01*
X0152650Y0446466D01*
X0153140Y0446956D01*
X0153700Y0447363D01*
X0154317Y0447678D01*
X0154976Y0447892D01*
X0155660Y0448000D01*
X0156006Y0448000D01*
X0156006Y0443600D01*
X0156006Y0443600D01*
X0156006Y0443600D01*
X0156006Y0448000D01*
X0156353Y0448000D01*
X0157037Y0447892D01*
X0157695Y0447678D01*
X0158312Y0447363D01*
X0158873Y0446956D01*
X0159362Y0446466D01*
X0159770Y0445906D01*
X0160084Y0445289D01*
X0160235Y0444823D01*
X0161089Y0446885D01*
X0162721Y0448517D01*
X0164853Y0449400D01*
X0167160Y0449400D01*
X0169292Y0448517D01*
X0170923Y0446885D01*
X0171006Y0446685D01*
X0171089Y0446885D01*
X0172721Y0448517D01*
X0174853Y0449400D01*
X0177160Y0449400D01*
X0179292Y0448517D01*
X0180923Y0446885D01*
X0181806Y0444754D01*
X0181806Y0442446D01*
X0180923Y0440315D01*
X0179292Y0438683D01*
X0177160Y0437800D01*
X0174853Y0437800D01*
X0172721Y0438683D01*
X0171089Y0440315D01*
X0171006Y0440515D01*
X0170923Y0440315D01*
X0169292Y0438683D01*
X0167160Y0437800D01*
X0164853Y0437800D01*
X0162721Y0438683D01*
X0161089Y0440315D01*
X0160235Y0442377D01*
X0160084Y0441911D01*
X0159770Y0441294D01*
X0159362Y0440734D01*
X0158873Y0440244D01*
X0158312Y0439837D01*
X0157695Y0439522D01*
X0157037Y0439308D01*
X0156353Y0439200D01*
X0156006Y0439200D01*
X0156006Y0443600D01*
X0156006Y0443478D02*
X0156006Y0443478D01*
X0156006Y0441080D02*
X0156006Y0441080D01*
X0152399Y0441080D02*
X0112829Y0441080D01*
X0112603Y0440237D02*
X0113606Y0443980D01*
X0113606Y0448220D01*
X0112509Y0452314D01*
X0111812Y0453521D01*
X0686798Y0453521D01*
X0686501Y0453086D01*
X0686501Y0453086D01*
X0685086Y0448500D01*
X0685086Y0443700D01*
X0686501Y0439114D01*
X0689204Y0435149D01*
X0689204Y0435149D01*
X0692526Y0432500D01*
X0688355Y0432500D01*
X0684606Y0428751D01*
X0684606Y0423449D01*
X0686955Y0421100D01*
X0684606Y0418751D01*
X0684606Y0413449D01*
X0687945Y0410110D01*
X0686006Y0408171D01*
X0686006Y0406100D01*
X0686006Y0404029D01*
X0688935Y0401100D01*
X0686006Y0398171D01*
X0686006Y0396100D01*
X0686006Y0394029D01*
X0687945Y0392090D01*
X0684606Y0388751D01*
X0684606Y0383449D01*
X0686955Y0381100D01*
X0684606Y0378751D01*
X0684606Y0373449D01*
X0686955Y0371100D01*
X0684606Y0368751D01*
X0684606Y0363449D01*
X0686955Y0361100D01*
X0684606Y0358751D01*
X0684606Y0353449D01*
X0686955Y0351100D01*
X0684606Y0348751D01*
X0684606Y0343449D01*
X0686955Y0341100D01*
X0684606Y0338751D01*
X0684606Y0333449D01*
X0686955Y0331100D01*
X0684606Y0328751D01*
X0684606Y0323449D01*
X0686955Y0321100D01*
X0684606Y0318751D01*
X0684606Y0313449D01*
X0686955Y0311100D01*
X0684606Y0308751D01*
X0684606Y0303449D01*
X0686955Y0301100D01*
X0684606Y0298751D01*
X0684606Y0293449D01*
X0686955Y0291100D01*
X0684606Y0288751D01*
X0684606Y0283449D01*
X0686955Y0281100D01*
X0684606Y0278751D01*
X0684606Y0273449D01*
X0686955Y0271100D01*
X0684606Y0268751D01*
X0684606Y0263449D01*
X0686955Y0261100D01*
X0684606Y0258751D01*
X0684606Y0253449D01*
X0686955Y0251100D01*
X0684606Y0248751D01*
X0684606Y0243449D01*
X0686955Y0241100D01*
X0684606Y0238751D01*
X0684606Y0233449D01*
X0686955Y0231100D01*
X0684606Y0228751D01*
X0684606Y0223449D01*
X0686955Y0221100D01*
X0684606Y0218751D01*
X0684606Y0213449D01*
X0686955Y0211100D01*
X0684606Y0208751D01*
X0684606Y0203449D01*
X0686955Y0201100D01*
X0684606Y0198751D01*
X0684606Y0193449D01*
X0686955Y0191100D01*
X0684606Y0188751D01*
X0684606Y0183449D01*
X0686955Y0181100D01*
X0684606Y0178751D01*
X0684606Y0173449D01*
X0686955Y0171100D01*
X0684606Y0168751D01*
X0684606Y0163449D01*
X0686955Y0161100D01*
X0684606Y0158751D01*
X0684606Y0153449D01*
X0686955Y0151100D01*
X0684606Y0148751D01*
X0684606Y0143449D01*
X0686955Y0141100D01*
X0684606Y0138751D01*
X0684606Y0133449D01*
X0686955Y0131100D01*
X0684606Y0128751D01*
X0684606Y0123449D01*
X0686955Y0121100D01*
X0684606Y0118751D01*
X0684606Y0113449D01*
X0688355Y0109700D01*
X0692526Y0109700D01*
X0689204Y0107051D01*
X0689204Y0107051D01*
X0689204Y0107051D01*
X0686501Y0103086D01*
X0686501Y0103086D01*
X0685086Y0098500D01*
X0685086Y0093700D01*
X0686501Y0089114D01*
X0687684Y0087380D01*
X0111062Y0087380D01*
X0112509Y0089886D01*
X0113606Y0093980D01*
X0113606Y0098220D01*
X0112603Y0101963D01*
X0115324Y0101963D01*
X0118682Y0103354D01*
X0121252Y0105924D01*
X0122643Y0109283D01*
X0122643Y0112917D01*
X0121252Y0116276D01*
X0118682Y0118846D01*
X0115324Y0120237D01*
X0111689Y0120237D01*
X0108331Y0118846D01*
X0105760Y0116276D01*
X0104369Y0112917D01*
X0104369Y0110728D01*
X0103721Y0111103D01*
X0099626Y0112200D01*
X0095387Y0112200D01*
X0091292Y0111103D01*
X0088706Y0109610D01*
X0088706Y0215000D01*
X0090217Y0215000D01*
X0093378Y0216309D01*
X0095797Y0218728D01*
X0097106Y0221889D01*
X0097106Y0225311D01*
X0095797Y0228472D01*
X0093378Y0230891D01*
X0090217Y0232200D01*
X0088706Y0232200D01*
X0088706Y0235000D01*
X0090217Y0235000D01*
X0093378Y0236309D01*
X0095797Y0238728D01*
X0097106Y0241889D01*
X0097106Y0245311D01*
X0096823Y0245995D01*
X0099437Y0243381D01*
X0100787Y0242031D01*
X0102552Y0241300D01*
X0140728Y0241300D01*
X0140181Y0239981D01*
X0140181Y0227219D01*
X0141449Y0224159D01*
X0143791Y0221817D01*
X0146850Y0220550D01*
X0150162Y0220550D01*
X0153222Y0221817D01*
X0153361Y0221957D01*
X0170787Y0204531D01*
X0172552Y0203800D01*
X0194256Y0203800D01*
X0194256Y0200804D01*
X0196460Y0198600D01*
X0196260Y0198400D01*
X0150052Y0198400D01*
X0148287Y0197669D01*
X0146937Y0196319D01*
X0145418Y0194800D01*
X0143438Y0194800D01*
X0142038Y0193400D01*
X0137717Y0193400D01*
X0137116Y0194002D01*
X0134774Y0194972D01*
X0132239Y0194972D01*
X0129897Y0194002D01*
X0128105Y0192209D01*
X0127135Y0189867D01*
X0127135Y0187333D01*
X0128105Y0184991D01*
X0129495Y0183600D01*
X0128105Y0182209D01*
X0127135Y0179867D01*
X0127135Y0177333D01*
X0128105Y0174991D01*
X0129897Y0173198D01*
X0132239Y0172228D01*
X0134774Y0172228D01*
X0137116Y0173198D01*
X0137717Y0173800D01*
X0142038Y0173800D01*
X0143438Y0172400D01*
X0148574Y0172400D01*
X0149974Y0173800D01*
X0152038Y0173800D01*
X0153228Y0172610D01*
X0151206Y0170588D01*
X0151206Y0168600D01*
X0156006Y0168600D01*
X0156006Y0168600D01*
X0151206Y0168600D01*
X0151206Y0166612D01*
X0154018Y0163800D01*
X0156006Y0163800D01*
X0156006Y0168600D01*
X0156006Y0168600D01*
X0156006Y0163800D01*
X0157995Y0163800D01*
X0160806Y0166612D01*
X0160806Y0168600D01*
X0160806Y0170588D01*
X0158784Y0172610D01*
X0159974Y0173800D01*
X0167038Y0173800D01*
X0168228Y0172610D01*
X0166206Y0170588D01*
X0166206Y0168600D01*
X0171006Y0168600D01*
X0171006Y0168600D01*
X0166206Y0168600D01*
X0166206Y0166612D01*
X0169018Y0163800D01*
X0171006Y0163800D01*
X0171006Y0168600D01*
X0171006Y0168600D01*
X0171006Y0163800D01*
X0172995Y0163800D01*
X0175806Y0166612D01*
X0175806Y0168600D01*
X0175806Y0170588D01*
X0173784Y0172610D01*
X0174974Y0173800D01*
X0182038Y0173800D01*
X0183228Y0172610D01*
X0181206Y0170588D01*
X0181206Y0168600D01*
X0186006Y0168600D01*
X0186006Y0168600D01*
X0181206Y0168600D01*
X0181206Y0166612D01*
X0184018Y0163800D01*
X0186006Y0163800D01*
X0186006Y0168600D01*
X0186006Y0168600D01*
X0186006Y0163800D01*
X0187995Y0163800D01*
X0190806Y0166612D01*
X0190806Y0168600D01*
X0190806Y0170588D01*
X0188784Y0172610D01*
X0192206Y0176032D01*
X0192206Y0178012D01*
X0192995Y0178800D01*
X0196260Y0178800D01*
X0196460Y0178600D01*
X0194256Y0176396D01*
X0194256Y0170804D01*
X0198210Y0166850D01*
X0203802Y0166850D01*
X0207756Y0170804D01*
X0207756Y0175062D01*
X0239418Y0143400D01*
X0239018Y0143400D01*
X0237385Y0141767D01*
X0233802Y0145350D01*
X0228210Y0145350D01*
X0224256Y0141396D01*
X0224256Y0135804D01*
X0226460Y0133600D01*
X0224256Y0131396D01*
X0224256Y0125804D01*
X0226460Y0123600D01*
X0224256Y0121396D01*
X0224256Y0115804D01*
X0227450Y0112610D01*
X0225656Y0110816D01*
X0225656Y0108600D01*
X0225656Y0106384D01*
X0228640Y0103400D01*
X0212760Y0103400D01*
X0212527Y0103633D01*
X0211203Y0104181D01*
X0206133Y0104181D01*
X0207756Y0105804D01*
X0207756Y0111396D01*
X0205552Y0113600D01*
X0207756Y0115804D01*
X0207756Y0121396D01*
X0205552Y0123600D01*
X0207756Y0125804D01*
X0207756Y0131396D01*
X0205552Y0133600D01*
X0207756Y0135804D01*
X0207756Y0141396D01*
X0203802Y0145350D01*
X0198210Y0145350D01*
X0194256Y0141396D01*
X0194256Y0135804D01*
X0196460Y0133600D01*
X0194256Y0131396D01*
X0194256Y0129638D01*
X0188725Y0135169D01*
X0186961Y0135900D01*
X0149974Y0135900D01*
X0148574Y0137300D01*
X0143438Y0137300D01*
X0142038Y0135900D01*
X0137717Y0135900D01*
X0137116Y0136502D01*
X0134774Y0137472D01*
X0132239Y0137472D01*
X0129897Y0136502D01*
X0128105Y0134709D01*
X0127135Y0132367D01*
X0127135Y0129833D01*
X0128105Y0127491D01*
X0129495Y0126100D01*
X0128105Y0124709D01*
X0127135Y0122367D01*
X0127135Y0119833D01*
X0128105Y0117491D01*
X0129897Y0115698D01*
X0132239Y0114728D01*
X0134774Y0114728D01*
X0137116Y0115698D01*
X0137717Y0116300D01*
X0142038Y0116300D01*
X0143438Y0114900D01*
X0148574Y0114900D01*
X0149974Y0116300D01*
X0152038Y0116300D01*
X0153228Y0115110D01*
X0151206Y0113088D01*
X0151206Y0111100D01*
X0156006Y0111100D01*
X0156006Y0111100D01*
X0151206Y0111100D01*
X0151206Y0109112D01*
X0154018Y0106300D01*
X0156006Y0106300D01*
X0156006Y0111100D01*
X0156006Y0111100D01*
X0156006Y0106300D01*
X0157995Y0106300D01*
X0160806Y0109112D01*
X0160806Y0111100D01*
X0160806Y0113088D01*
X0158784Y0115110D01*
X0159974Y0116300D01*
X0167038Y0116300D01*
X0168228Y0115110D01*
X0166206Y0113088D01*
X0166206Y0111100D01*
X0171006Y0111100D01*
X0171006Y0111100D01*
X0166206Y0111100D01*
X0166206Y0109112D01*
X0169018Y0106300D01*
X0171006Y0106300D01*
X0171006Y0111100D01*
X0171006Y0111100D01*
X0171006Y0106300D01*
X0172995Y0106300D01*
X0175806Y0109112D01*
X0175806Y0111100D01*
X0175806Y0113088D01*
X0173784Y0115110D01*
X0174974Y0116300D01*
X0182038Y0116300D01*
X0183228Y0115110D01*
X0181206Y0113088D01*
X0181206Y0111100D01*
X0186006Y0111100D01*
X0186006Y0111100D01*
X0181206Y0111100D01*
X0181206Y0109112D01*
X0184018Y0106300D01*
X0186006Y0106300D01*
X0186006Y0111100D01*
X0186006Y0111100D01*
X0186006Y0106300D01*
X0187995Y0106300D01*
X0190806Y0109112D01*
X0190806Y0111100D01*
X0190806Y0113088D01*
X0188784Y0115110D01*
X0191996Y0118322D01*
X0194256Y0116062D01*
X0194256Y0115804D01*
X0196460Y0113600D01*
X0194256Y0111396D01*
X0194256Y0105804D01*
X0196849Y0103211D01*
X0195016Y0101378D01*
X0192995Y0103400D01*
X0191006Y0103400D01*
X0189018Y0103400D01*
X0186206Y0100588D01*
X0186206Y0098600D01*
X0186206Y0096612D01*
X0189018Y0093800D01*
X0191006Y0093800D01*
X0191006Y0098600D01*
X0191006Y0098600D01*
X0186206Y0098600D01*
X0191006Y0098600D01*
X0191006Y0103400D01*
X0191006Y0098600D01*
X0191006Y0098600D01*
X0191006Y0098600D01*
X0191006Y0093800D01*
X0192995Y0093800D01*
X0195016Y0095822D01*
X0198438Y0092400D01*
X0203574Y0092400D01*
X0204667Y0093492D01*
X0205809Y0093019D01*
X0211203Y0093019D01*
X0212527Y0093567D01*
X0212760Y0093800D01*
X0215425Y0093800D01*
X0215425Y0090903D01*
X0215973Y0089580D01*
X0216986Y0088567D01*
X0218309Y0088019D01*
X0223703Y0088019D01*
X0225027Y0088567D01*
X0225260Y0088800D01*
X0289461Y0088800D01*
X0291225Y0089531D01*
X0310495Y0108800D01*
X0331753Y0108800D01*
X0331986Y0108567D01*
X0333309Y0108019D01*
X0338703Y0108019D01*
X0340027Y0108567D01*
X0340260Y0108800D01*
X0573472Y0108800D01*
X0574268Y0108005D01*
X0576693Y0107000D01*
X0585319Y0107000D01*
X0587745Y0108005D01*
X0588540Y0108800D01*
X0603472Y0108800D01*
X0604268Y0108005D01*
X0606693Y0107000D01*
X0615319Y0107000D01*
X0617745Y0108005D01*
X0618540Y0108800D01*
X0624538Y0108800D01*
X0625728Y0107610D01*
X0623706Y0105588D01*
X0623706Y0103600D01*
X0623706Y0101612D01*
X0626518Y0098800D01*
X0628506Y0098800D01*
X0628506Y0103600D01*
X0628506Y0103600D01*
X0623706Y0103600D01*
X0628506Y0103600D01*
X0628506Y0103600D01*
X0628506Y0098800D01*
X0630495Y0098800D01*
X0633306Y0101612D01*
X0633306Y0103600D01*
X0633306Y0105588D01*
X0631284Y0107610D01*
X0634706Y0111032D01*
X0634706Y0116168D01*
X0631074Y0119800D01*
X0625938Y0119800D01*
X0624538Y0118400D01*
X0618540Y0118400D01*
X0617745Y0119195D01*
X0617137Y0119447D01*
X0617394Y0119634D01*
X0617973Y0120212D01*
X0618454Y0120875D01*
X0618825Y0121604D01*
X0619078Y0122382D01*
X0619206Y0123191D01*
X0619206Y0123600D01*
X0619206Y0124009D01*
X0619078Y0124818D01*
X0618825Y0125596D01*
X0618454Y0126325D01*
X0617973Y0126988D01*
X0617394Y0127566D01*
X0617137Y0127753D01*
X0617745Y0128005D01*
X0619602Y0129861D01*
X0620606Y0132287D01*
X0620606Y0134913D01*
X0619602Y0137339D01*
X0618140Y0138800D01*
X0629018Y0138800D01*
X0634437Y0133381D01*
X0635787Y0132031D01*
X0637552Y0131300D01*
X0659461Y0131300D01*
X0661225Y0132031D01*
X0662576Y0133381D01*
X0663306Y0135145D01*
X0663306Y0371612D01*
X0664875Y0373180D01*
X0666955Y0371100D01*
X0664606Y0368751D01*
X0664606Y0363449D01*
X0666955Y0361100D01*
X0664606Y0358751D01*
X0664606Y0353449D01*
X0666955Y0351100D01*
X0664606Y0348751D01*
X0664606Y0343449D01*
X0666955Y0341100D01*
X0664606Y0338751D01*
X0664606Y0333449D01*
X0666955Y0331100D01*
X0664606Y0328751D01*
X0664606Y0323449D01*
X0666955Y0321100D01*
X0664606Y0318751D01*
X0664606Y0313449D01*
X0666955Y0311100D01*
X0664606Y0308751D01*
X0664606Y0303449D01*
X0666955Y0301100D01*
X0664606Y0298751D01*
X0664606Y0293449D01*
X0666955Y0291100D01*
X0664606Y0288751D01*
X0664606Y0283449D01*
X0666955Y0281100D01*
X0664606Y0278751D01*
X0664606Y0273449D01*
X0666955Y0271100D01*
X0664606Y0268751D01*
X0664606Y0263449D01*
X0666955Y0261100D01*
X0664606Y0258751D01*
X0664606Y0253449D01*
X0666955Y0251100D01*
X0664606Y0248751D01*
X0664606Y0243449D01*
X0666955Y0241100D01*
X0664606Y0238751D01*
X0664606Y0233449D01*
X0666955Y0231100D01*
X0664606Y0228751D01*
X0664606Y0223449D01*
X0666955Y0221100D01*
X0664606Y0218751D01*
X0664606Y0213449D01*
X0666955Y0211100D01*
X0664606Y0208751D01*
X0664606Y0203449D01*
X0666955Y0201100D01*
X0664606Y0198751D01*
X0664606Y0193449D01*
X0666955Y0191100D01*
X0664606Y0188751D01*
X0664606Y0183449D01*
X0666955Y0181100D01*
X0664606Y0178751D01*
X0664606Y0173449D01*
X0666955Y0171100D01*
X0664606Y0168751D01*
X0664606Y0163449D01*
X0666955Y0161100D01*
X0664606Y0158751D01*
X0664606Y0153449D01*
X0666955Y0151100D01*
X0664606Y0148751D01*
X0664606Y0143449D01*
X0666955Y0141100D01*
X0664606Y0138751D01*
X0664606Y0133449D01*
X0666955Y0131100D01*
X0664606Y0128751D01*
X0664606Y0123449D01*
X0666955Y0121100D01*
X0664606Y0118751D01*
X0664606Y0113449D01*
X0668355Y0109700D01*
X0673657Y0109700D01*
X0677406Y0113449D01*
X0677406Y0118751D01*
X0675057Y0121100D01*
X0677406Y0123449D01*
X0677406Y0128751D01*
X0675057Y0131100D01*
X0677406Y0133449D01*
X0677406Y0138751D01*
X0675057Y0141100D01*
X0677406Y0143449D01*
X0677406Y0148751D01*
X0675057Y0151100D01*
X0677406Y0153449D01*
X0677406Y0158751D01*
X0675057Y0161100D01*
X0677406Y0163449D01*
X0677406Y0168751D01*
X0675057Y0171100D01*
X0677406Y0173449D01*
X0677406Y0178751D01*
X0675057Y0181100D01*
X0677406Y0183449D01*
X0677406Y0188751D01*
X0675057Y0191100D01*
X0677406Y0193449D01*
X0677406Y0198751D01*
X0675057Y0201100D01*
X0677406Y0203449D01*
X0677406Y0208751D01*
X0675057Y0211100D01*
X0677406Y0213449D01*
X0677406Y0218751D01*
X0675057Y0221100D01*
X0677406Y0223449D01*
X0677406Y0228751D01*
X0675057Y0231100D01*
X0677406Y0233449D01*
X0677406Y0238751D01*
X0675057Y0241100D01*
X0677406Y0243449D01*
X0677406Y0248751D01*
X0675057Y0251100D01*
X0677406Y0253449D01*
X0677406Y0258751D01*
X0675057Y0261100D01*
X0677406Y0263449D01*
X0677406Y0268751D01*
X0675057Y0271100D01*
X0677406Y0273449D01*
X0677406Y0278751D01*
X0675057Y0281100D01*
X0677406Y0283449D01*
X0677406Y0288751D01*
X0675057Y0291100D01*
X0677406Y0293449D01*
X0677406Y0298751D01*
X0675057Y0301100D01*
X0677406Y0303449D01*
X0677406Y0308751D01*
X0675057Y0311100D01*
X0677406Y0313449D01*
X0677406Y0318751D01*
X0675057Y0321100D01*
X0677406Y0323449D01*
X0677406Y0328751D01*
X0675057Y0331100D01*
X0677406Y0333449D01*
X0677406Y0338751D01*
X0675057Y0341100D01*
X0677406Y0343449D01*
X0677406Y0348751D01*
X0675057Y0351100D01*
X0677406Y0353449D01*
X0677406Y0358751D01*
X0675057Y0361100D01*
X0677406Y0363449D01*
X0677406Y0368751D01*
X0675057Y0371100D01*
X0677406Y0373449D01*
X0677406Y0378751D01*
X0675057Y0381100D01*
X0677406Y0383449D01*
X0677406Y0388751D01*
X0674067Y0392090D01*
X0676006Y0394029D01*
X0676006Y0396100D01*
X0676006Y0398171D01*
X0673077Y0401100D01*
X0676006Y0404029D01*
X0676006Y0406100D01*
X0676006Y0408171D01*
X0674067Y0410110D01*
X0677406Y0413449D01*
X0677406Y0418751D01*
X0675057Y0421100D01*
X0677406Y0423449D01*
X0677406Y0428751D01*
X0673657Y0432500D01*
X0668355Y0432500D01*
X0664606Y0428751D01*
X0664606Y0423449D01*
X0666955Y0421100D01*
X0664606Y0418751D01*
X0664606Y0416488D01*
X0633287Y0385169D01*
X0631937Y0383819D01*
X0631206Y0382055D01*
X0631206Y0168288D01*
X0630179Y0168282D01*
X0625806Y0172593D01*
X0625806Y0202055D01*
X0625076Y0203819D01*
X0613725Y0215169D01*
X0611961Y0215900D01*
X0601040Y0215900D01*
X0600245Y0216695D01*
X0599637Y0216947D01*
X0599894Y0217134D01*
X0600473Y0217712D01*
X0600954Y0218375D01*
X0601325Y0219104D01*
X0601578Y0219882D01*
X0601706Y0220691D01*
X0601706Y0221100D01*
X0601706Y0221509D01*
X0601578Y0222318D01*
X0601325Y0223096D01*
X0600954Y0223825D01*
X0600473Y0224488D01*
X0599894Y0225066D01*
X0599232Y0225547D01*
X0598502Y0225919D01*
X0597724Y0226172D01*
X0596916Y0226300D01*
X0593506Y0226300D01*
X0590097Y0226300D01*
X0589289Y0226172D01*
X0588510Y0225919D01*
X0587781Y0225547D01*
X0587119Y0225066D01*
X0586540Y0224488D01*
X0586059Y0223825D01*
X0585687Y0223096D01*
X0585434Y0222318D01*
X0585306Y0221509D01*
X0585306Y0221100D01*
X0585306Y0220691D01*
X0585434Y0219882D01*
X0585687Y0219104D01*
X0586059Y0218375D01*
X0586540Y0217712D01*
X0587119Y0217134D01*
X0587376Y0216947D01*
X0586768Y0216695D01*
X0586226Y0216154D01*
X0580120Y0216364D01*
X0580115Y0216367D01*
X0579169Y0216397D01*
X0578217Y0216430D01*
X0578212Y0216428D01*
X0578207Y0216428D01*
X0577319Y0216094D01*
X0576429Y0215761D01*
X0576425Y0215757D01*
X0576420Y0215755D01*
X0575726Y0215104D01*
X0575033Y0214458D01*
X0575031Y0214453D01*
X0571188Y0210850D01*
X0568210Y0210850D01*
X0564256Y0206896D01*
X0564256Y0201304D01*
X0568210Y0197350D01*
X0573802Y0197350D01*
X0577756Y0201304D01*
X0577756Y0203849D01*
X0580834Y0206734D01*
X0585706Y0206566D01*
X0586172Y0206100D01*
X0584911Y0204839D01*
X0583906Y0202413D01*
X0583906Y0199787D01*
X0584911Y0197361D01*
X0586768Y0195505D01*
X0588706Y0194702D01*
X0588706Y0188400D01*
X0495052Y0188400D01*
X0493287Y0187669D01*
X0429799Y0124181D01*
X0428309Y0124181D01*
X0426986Y0123633D01*
X0426753Y0123400D01*
X0347760Y0123400D01*
X0347527Y0123633D01*
X0346203Y0124181D01*
X0340809Y0124181D01*
X0339486Y0123633D01*
X0339253Y0123400D01*
X0300052Y0123400D01*
X0298287Y0122669D01*
X0296937Y0121319D01*
X0279018Y0103400D01*
X0233372Y0103400D01*
X0236356Y0106384D01*
X0236356Y0108600D01*
X0236356Y0110816D01*
X0234562Y0112610D01*
X0235752Y0113800D01*
X0242205Y0113800D01*
X0245255Y0110750D01*
X0251758Y0110750D01*
X0256356Y0115348D01*
X0256356Y0121852D01*
X0253306Y0124902D01*
X0253306Y0142055D01*
X0252576Y0143819D01*
X0210956Y0185438D01*
X0210956Y0206688D01*
X0210226Y0208452D01*
X0208875Y0209802D01*
X0207729Y0210949D01*
X0207576Y0211319D01*
X0206225Y0212669D01*
X0204461Y0213400D01*
X0204456Y0213400D01*
X0204094Y0213550D01*
X0202185Y0213550D01*
X0201823Y0213400D01*
X0175495Y0213400D01*
X0168344Y0220550D01*
X0170162Y0220550D01*
X0173222Y0221817D01*
X0175564Y0224159D01*
X0176831Y0227219D01*
X0176831Y0239981D01*
X0176285Y0241300D01*
X0180728Y0241300D01*
X0180181Y0239981D01*
X0180181Y0227219D01*
X0181449Y0224159D01*
X0183791Y0221817D01*
X0186850Y0220550D01*
X0190162Y0220550D01*
X0193222Y0221817D01*
X0195564Y0224159D01*
X0196831Y0227219D01*
X0196831Y0239981D01*
X0196285Y0241300D01*
X0259018Y0241300D01*
X0369437Y0130881D01*
X0370787Y0129531D01*
X0372552Y0128800D01*
X0384253Y0128800D01*
X0384486Y0128567D01*
X0385809Y0128019D01*
X0391203Y0128019D01*
X0392527Y0128567D01*
X0393539Y0129580D01*
X0394087Y0130903D01*
X0394087Y0136297D01*
X0393539Y0137620D01*
X0392527Y0138633D01*
X0391203Y0139181D01*
X0385809Y0139181D01*
X0384486Y0138633D01*
X0384253Y0138400D01*
X0375495Y0138400D01*
X0265094Y0248800D01*
X0319438Y0248800D01*
X0319894Y0248344D01*
X0322173Y0247400D01*
X0329840Y0247400D01*
X0332118Y0248344D01*
X0333862Y0250088D01*
X0334806Y0252367D01*
X0334806Y0254833D01*
X0334578Y0255384D01*
X0347995Y0268800D01*
X0349438Y0268800D01*
X0349638Y0268600D01*
X0348150Y0267112D01*
X0347206Y0264833D01*
X0347206Y0262367D01*
X0348150Y0260088D01*
X0349638Y0258600D01*
X0348150Y0257112D01*
X0347206Y0254833D01*
X0347206Y0252367D01*
X0348150Y0250088D01*
X0349894Y0248344D01*
X0351206Y0247800D01*
X0351206Y0242645D01*
X0351937Y0240881D01*
X0354806Y0238012D01*
X0354806Y0236032D01*
X0358438Y0232400D01*
X0363574Y0232400D01*
X0367206Y0236032D01*
X0367206Y0241168D01*
X0363574Y0244800D01*
X0361595Y0244800D01*
X0360806Y0245588D01*
X0360806Y0247800D01*
X0362118Y0248344D01*
X0363862Y0250088D01*
X0364806Y0252367D01*
X0364806Y0254833D01*
X0363862Y0257112D01*
X0362374Y0258600D01*
X0363862Y0260088D01*
X0364806Y0262367D01*
X0364806Y0263012D01*
X0368287Y0259531D01*
X0370052Y0258800D01*
X0387038Y0258800D01*
X0388438Y0257400D01*
X0393574Y0257400D01*
X0397206Y0261032D01*
X0397206Y0266168D01*
X0393574Y0269800D01*
X0388438Y0269800D01*
X0387038Y0268400D01*
X0372995Y0268400D01*
X0363994Y0277400D01*
X0368574Y0277400D01*
X0372206Y0281032D01*
X0372206Y0286168D01*
X0368784Y0289590D01*
X0370806Y0291612D01*
X0370806Y0293600D01*
X0370806Y0295588D01*
X0367995Y0298400D01*
X0366006Y0298400D01*
X0364018Y0298400D01*
X0363296Y0297678D01*
X0362374Y0298600D01*
X0363862Y0300088D01*
X0364806Y0302367D01*
X0364806Y0304833D01*
X0363862Y0307112D01*
X0362374Y0308600D01*
X0363862Y0310088D01*
X0364806Y0312367D01*
X0364806Y0314833D01*
X0363862Y0317112D01*
X0362118Y0318856D01*
X0359840Y0319800D01*
X0352173Y0319800D01*
X0349894Y0318856D01*
X0348150Y0317112D01*
X0347206Y0314833D01*
X0347206Y0312367D01*
X0348150Y0310088D01*
X0349638Y0308600D01*
X0348150Y0307112D01*
X0347206Y0304833D01*
X0347206Y0302367D01*
X0348150Y0300088D01*
X0349638Y0298600D01*
X0348150Y0297112D01*
X0347206Y0294833D01*
X0347206Y0292367D01*
X0348150Y0290088D01*
X0349638Y0288600D01*
X0348150Y0287112D01*
X0347206Y0284833D01*
X0347206Y0282367D01*
X0348150Y0280088D01*
X0349638Y0278600D01*
X0349438Y0278400D01*
X0345052Y0278400D01*
X0343287Y0277669D01*
X0341937Y0276319D01*
X0333296Y0267678D01*
X0332118Y0268856D01*
X0330877Y0269370D01*
X0331122Y0269495D01*
X0331733Y0269939D01*
X0332268Y0270473D01*
X0332712Y0271084D01*
X0333055Y0271757D01*
X0333288Y0272476D01*
X0333406Y0273222D01*
X0333406Y0273600D01*
X0333406Y0273978D01*
X0333288Y0274724D01*
X0333055Y0275443D01*
X0332712Y0276116D01*
X0332268Y0276727D01*
X0331733Y0277261D01*
X0331122Y0277705D01*
X0330877Y0277830D01*
X0332118Y0278344D01*
X0333862Y0280088D01*
X0334806Y0282367D01*
X0334806Y0284833D01*
X0333862Y0287112D01*
X0332118Y0288856D01*
X0330877Y0289370D01*
X0331122Y0289495D01*
X0331733Y0289939D01*
X0332268Y0290473D01*
X0332712Y0291084D01*
X0333055Y0291757D01*
X0333288Y0292476D01*
X0333406Y0293222D01*
X0333406Y0293600D01*
X0333406Y0293978D01*
X0333288Y0294724D01*
X0333055Y0295443D01*
X0332712Y0296116D01*
X0332268Y0296727D01*
X0331733Y0297261D01*
X0331122Y0297705D01*
X0330877Y0297830D01*
X0332118Y0298344D01*
X0333862Y0300088D01*
X0334806Y0302367D01*
X0334806Y0304833D01*
X0333862Y0307112D01*
X0332374Y0308600D01*
X0333862Y0310088D01*
X0334806Y0312367D01*
X0334806Y0314833D01*
X0333862Y0317112D01*
X0332118Y0318856D01*
X0329840Y0319800D01*
X0322173Y0319800D01*
X0319894Y0318856D01*
X0318150Y0317112D01*
X0317206Y0314833D01*
X0317206Y0312367D01*
X0318150Y0310088D01*
X0319638Y0308600D01*
X0319438Y0308400D01*
X0288306Y0308400D01*
X0288306Y0345300D01*
X0289618Y0345844D01*
X0291362Y0347588D01*
X0292306Y0349867D01*
X0292306Y0352333D01*
X0291362Y0354612D01*
X0289874Y0356100D01*
X0291362Y0357588D01*
X0292306Y0359867D01*
X0292306Y0362333D01*
X0291362Y0364612D01*
X0289874Y0366100D01*
X0291362Y0367588D01*
X0292306Y0369867D01*
X0292306Y0372333D01*
X0291362Y0374612D01*
X0289874Y0376100D01*
X0291362Y0377588D01*
X0292306Y0379867D01*
X0292306Y0382333D01*
X0291362Y0384612D01*
X0289874Y0386100D01*
X0291362Y0387588D01*
X0292306Y0389867D01*
X0292306Y0392333D01*
X0291362Y0394612D01*
X0289618Y0396356D01*
X0287340Y0397300D01*
X0279673Y0397300D01*
X0277394Y0396356D01*
X0275650Y0394612D01*
X0274706Y0392333D01*
X0274706Y0389867D01*
X0275650Y0387588D01*
X0277138Y0386100D01*
X0275650Y0384612D01*
X0274706Y0382333D01*
X0274706Y0379867D01*
X0275650Y0377588D01*
X0277138Y0376100D01*
X0275650Y0374612D01*
X0274706Y0372333D01*
X0274706Y0369867D01*
X0275650Y0367588D01*
X0277138Y0366100D01*
X0275650Y0364612D01*
X0274706Y0362333D01*
X0274706Y0359867D01*
X0275650Y0357588D01*
X0277138Y0356100D01*
X0275650Y0354612D01*
X0274706Y0352333D01*
X0274706Y0349867D01*
X0275650Y0347588D01*
X0277394Y0345844D01*
X0278706Y0345300D01*
X0278706Y0307853D01*
X0278473Y0307620D01*
X0277925Y0306297D01*
X0277925Y0300903D01*
X0278473Y0299580D01*
X0279486Y0298567D01*
X0280809Y0298019D01*
X0286203Y0298019D01*
X0287527Y0298567D01*
X0287760Y0298800D01*
X0319438Y0298800D01*
X0319894Y0298344D01*
X0321135Y0297830D01*
X0320891Y0297705D01*
X0320279Y0297261D01*
X0319745Y0296727D01*
X0319301Y0296116D01*
X0318958Y0295443D01*
X0318724Y0294724D01*
X0318606Y0293978D01*
X0318606Y0293600D01*
X0318606Y0293222D01*
X0318724Y0292476D01*
X0318958Y0291757D01*
X0319301Y0291084D01*
X0319745Y0290473D01*
X0320279Y0289939D01*
X0320891Y0289495D01*
X0321135Y0289370D01*
X0319894Y0288856D01*
X0318150Y0287112D01*
X0317206Y0284833D01*
X0317206Y0282367D01*
X0318150Y0280088D01*
X0319894Y0278344D01*
X0321135Y0277830D01*
X0320891Y0277705D01*
X0320279Y0277261D01*
X0319745Y0276727D01*
X0319301Y0276116D01*
X0318958Y0275443D01*
X0318724Y0274724D01*
X0318606Y0273978D01*
X0318606Y0273600D01*
X0318606Y0273222D01*
X0318724Y0272476D01*
X0318958Y0271757D01*
X0319301Y0271084D01*
X0319745Y0270473D01*
X0320279Y0269939D01*
X0320891Y0269495D01*
X0321135Y0269370D01*
X0319894Y0268856D01*
X0319438Y0268400D01*
X0280260Y0268400D01*
X0280027Y0268633D01*
X0278703Y0269181D01*
X0277213Y0269181D01*
X0223725Y0322669D01*
X0221961Y0323400D01*
X0192760Y0323400D01*
X0192527Y0323633D01*
X0191203Y0324181D01*
X0185809Y0324181D01*
X0184486Y0323633D01*
X0184253Y0323400D01*
X0120074Y0323400D01*
X0119618Y0323856D01*
X0117340Y0324800D01*
X0109673Y0324800D01*
X0107394Y0323856D01*
X0105650Y0322112D01*
X0104706Y0319833D01*
X0104706Y0317367D01*
X0104934Y0316816D01*
X0101518Y0313400D01*
X0100074Y0313400D01*
X0099618Y0313856D01*
X0097340Y0314800D01*
X0089673Y0314800D01*
X0088706Y0314400D01*
X0088706Y0325300D01*
X0089673Y0324900D01*
X0097340Y0324900D01*
X0099618Y0325844D01*
X0100074Y0326300D01*
X0104461Y0326300D01*
X0106225Y0327031D01*
X0114095Y0334900D01*
X0117340Y0334900D01*
X0119618Y0335844D01*
X0120074Y0336300D01*
X0137338Y0336300D01*
X0135650Y0334612D01*
X0134706Y0332333D01*
X0134706Y0329867D01*
X0135650Y0327588D01*
X0137394Y0325844D01*
X0139673Y0324900D01*
X0147340Y0324900D01*
X0149618Y0325844D01*
X0151362Y0327588D01*
X0152306Y0329867D01*
X0152306Y0332333D01*
X0151362Y0334612D01*
X0149674Y0336300D01*
X0200227Y0336300D01*
X0200394Y0336244D01*
X0201177Y0336300D01*
X0201961Y0336300D01*
X0202124Y0336367D01*
X0202299Y0336380D01*
X0203001Y0336731D01*
X0203725Y0337031D01*
X0203850Y0337155D01*
X0219339Y0344900D01*
X0223574Y0344900D01*
X0227206Y0348532D01*
X0227206Y0353668D01*
X0225806Y0355068D01*
X0225806Y0357132D01*
X0227206Y0358532D01*
X0227206Y0363668D01*
X0225806Y0365068D01*
X0225806Y0367132D01*
X0227206Y0368532D01*
X0227206Y0373668D01*
X0225806Y0375068D01*
X0225806Y0377132D01*
X0227206Y0378532D01*
X0227206Y0383668D01*
X0225806Y0385068D01*
X0225806Y0387132D01*
X0227206Y0388532D01*
X0227206Y0393668D01*
X0223574Y0397300D01*
X0218438Y0397300D01*
X0214806Y0393668D01*
X0214806Y0388532D01*
X0216206Y0387132D01*
X0216206Y0385068D01*
X0214806Y0383668D01*
X0214806Y0378532D01*
X0216206Y0377132D01*
X0216206Y0375068D01*
X0214806Y0373668D01*
X0214806Y0368532D01*
X0216206Y0367132D01*
X0216206Y0365068D01*
X0214806Y0363668D01*
X0214806Y0358532D01*
X0216206Y0357132D01*
X0216206Y0355068D01*
X0214806Y0353668D01*
X0214806Y0353367D01*
X0199873Y0345900D01*
X0120074Y0345900D01*
X0119618Y0346356D01*
X0117340Y0347300D01*
X0109673Y0347300D01*
X0107394Y0346356D01*
X0105650Y0344612D01*
X0104706Y0342333D01*
X0104706Y0339867D01*
X0104934Y0339316D01*
X0101518Y0335900D01*
X0100074Y0335900D01*
X0099618Y0336356D01*
X0097340Y0337300D01*
X0089673Y0337300D01*
X0088706Y0336900D01*
X0088706Y0353225D01*
X0088881Y0353225D01*
X0088881Y0346400D01*
X0088978Y0346400D01*
X0089914Y0346523D01*
X0090826Y0346767D01*
X0091698Y0347129D01*
X0092515Y0347601D01*
X0093264Y0348175D01*
X0093931Y0348843D01*
X0094506Y0349591D01*
X0094978Y0350409D01*
X0095339Y0351281D01*
X0095583Y0352192D01*
X0095706Y0353128D01*
X0095706Y0353225D01*
X0088881Y0353225D01*
X0088881Y0353975D01*
X0088706Y0353975D01*
X0088706Y0373225D01*
X0088881Y0373225D01*
X0088881Y0366400D01*
X0088978Y0366400D01*
X0089914Y0366523D01*
X0090826Y0366767D01*
X0091698Y0367129D01*
X0092515Y0367601D01*
X0093264Y0368175D01*
X0093931Y0368843D01*
X0094506Y0369591D01*
X0094978Y0370409D01*
X0095339Y0371281D01*
X0095583Y0372192D01*
X0095706Y0373128D01*
X0095706Y0373225D01*
X0088881Y0373225D01*
X0088881Y0373975D01*
X0088706Y0373975D01*
X0088706Y0432590D01*
X0091292Y0431097D01*
X0095387Y0430000D01*
X0099626Y0430000D01*
X0103721Y0431097D01*
X0104369Y0431472D01*
X0104369Y0429283D01*
X0105760Y0425924D01*
X0108331Y0423354D01*
X0111689Y0421963D01*
X0115324Y0421963D01*
X0118682Y0423354D01*
X0121252Y0425924D01*
X0122643Y0429283D01*
X0122643Y0432917D01*
X0121252Y0436276D01*
X0118682Y0438846D01*
X0115324Y0440237D01*
X0112603Y0440237D01*
X0113472Y0443478D02*
X0151606Y0443478D01*
X0152228Y0445877D02*
X0113606Y0445877D01*
X0113591Y0448275D02*
X0162479Y0448275D01*
X0160671Y0445877D02*
X0159784Y0445877D01*
X0156006Y0445877D02*
X0156006Y0445877D01*
X0159614Y0441080D02*
X0160772Y0441080D01*
X0162725Y0438681D02*
X0118847Y0438681D01*
X0121245Y0436283D02*
X0624556Y0436283D01*
X0624556Y0436100D02*
X0631006Y0436100D01*
X0631006Y0436100D01*
X0624556Y0436100D01*
X0624556Y0433428D01*
X0628335Y0429650D01*
X0631006Y0429650D01*
X0631006Y0436100D01*
X0631006Y0442550D01*
X0628335Y0442550D01*
X0624556Y0438772D01*
X0624556Y0436100D01*
X0624556Y0433884D02*
X0122243Y0433884D01*
X0122643Y0431486D02*
X0626499Y0431486D01*
X0631006Y0431486D02*
X0631006Y0431486D01*
X0631006Y0429650D02*
X0633678Y0429650D01*
X0637456Y0433428D01*
X0637456Y0436100D01*
X0637456Y0438772D01*
X0633678Y0442550D01*
X0631006Y0442550D01*
X0631006Y0436100D01*
X0631006Y0436100D01*
X0631006Y0436100D01*
X0631006Y0429650D01*
X0631006Y0433884D02*
X0631006Y0433884D01*
X0631006Y0436100D02*
X0631006Y0436100D01*
X0637456Y0436100D01*
X0631006Y0436100D01*
X0631006Y0436283D02*
X0631006Y0436283D01*
X0631006Y0438681D02*
X0631006Y0438681D01*
X0631006Y0441080D02*
X0631006Y0441080D01*
X0626864Y0441080D02*
X0181240Y0441080D01*
X0181806Y0443478D02*
X0685155Y0443478D01*
X0685086Y0445877D02*
X0181341Y0445877D01*
X0179534Y0448275D02*
X0685086Y0448275D01*
X0685757Y0450674D02*
X0112949Y0450674D01*
X0112072Y0453072D02*
X0686497Y0453072D01*
X0685895Y0441080D02*
X0635148Y0441080D01*
X0637456Y0438681D02*
X0686796Y0438681D01*
X0688431Y0436283D02*
X0637456Y0436283D01*
X0637456Y0433884D02*
X0690791Y0433884D01*
X0687341Y0431486D02*
X0674672Y0431486D01*
X0677070Y0429087D02*
X0684942Y0429087D01*
X0684606Y0426689D02*
X0677406Y0426689D01*
X0677406Y0424290D02*
X0684606Y0424290D01*
X0686164Y0421892D02*
X0675849Y0421892D01*
X0676664Y0419493D02*
X0685348Y0419493D01*
X0684606Y0417095D02*
X0677406Y0417095D01*
X0677406Y0414696D02*
X0684606Y0414696D01*
X0685758Y0412298D02*
X0676255Y0412298D01*
X0674278Y0409899D02*
X0687734Y0409899D01*
X0686006Y0407501D02*
X0676006Y0407501D01*
X0676006Y0406100D02*
X0671006Y0406100D01*
X0671006Y0406100D01*
X0671006Y0401100D01*
X0668935Y0401100D01*
X0666006Y0404029D01*
X0666006Y0404312D01*
X0640806Y0379112D01*
X0640806Y0168350D01*
X0642164Y0168359D01*
X0645255Y0171450D01*
X0651758Y0171450D01*
X0653706Y0169502D01*
X0653706Y0374555D01*
X0654437Y0376319D01*
X0655787Y0377669D01*
X0664606Y0386488D01*
X0664606Y0388751D01*
X0667945Y0392090D01*
X0666006Y0394029D01*
X0666006Y0396100D01*
X0671006Y0396100D01*
X0671006Y0396100D01*
X0666006Y0396100D01*
X0666006Y0398171D01*
X0668935Y0401100D01*
X0671006Y0401100D01*
X0671006Y0396100D01*
X0671006Y0396100D01*
X0671006Y0401100D01*
X0673077Y0401100D01*
X0671006Y0401100D01*
X0671006Y0406100D01*
X0671006Y0406100D01*
X0676006Y0406100D01*
X0676006Y0405102D02*
X0686006Y0405102D01*
X0686006Y0406100D02*
X0691006Y0406100D01*
X0691006Y0406100D01*
X0686006Y0406100D01*
X0687332Y0402703D02*
X0674681Y0402703D01*
X0673872Y0400305D02*
X0688140Y0400305D01*
X0688935Y0401100D02*
X0691006Y0401100D01*
X0691006Y0396100D01*
X0691006Y0396100D01*
X0686006Y0396100D01*
X0691006Y0396100D01*
X0691006Y0396100D01*
X0691006Y0401100D01*
X0691006Y0406100D01*
X0691006Y0406100D01*
X0691006Y0401100D01*
X0688935Y0401100D01*
X0691006Y0401100D02*
X0693077Y0401100D01*
X0696006Y0398171D01*
X0696006Y0396100D01*
X0691006Y0396100D01*
X0691006Y0396100D01*
X0696006Y0396100D01*
X0696006Y0394029D01*
X0694067Y0392090D01*
X0697406Y0388751D01*
X0697406Y0383449D01*
X0695057Y0381100D01*
X0697406Y0378751D01*
X0697406Y0373449D01*
X0695057Y0371100D01*
X0697406Y0368751D01*
X0697406Y0363449D01*
X0695057Y0361100D01*
X0697406Y0358751D01*
X0697406Y0353449D01*
X0695057Y0351100D01*
X0697406Y0348751D01*
X0697406Y0343449D01*
X0695057Y0341100D01*
X0697406Y0338751D01*
X0697406Y0333449D01*
X0695057Y0331100D01*
X0697406Y0328751D01*
X0697406Y0323449D01*
X0695057Y0321100D01*
X0697406Y0318751D01*
X0697406Y0313449D01*
X0695057Y0311100D01*
X0697406Y0308751D01*
X0697406Y0303449D01*
X0695057Y0301100D01*
X0697406Y0298751D01*
X0697406Y0293449D01*
X0695057Y0291100D01*
X0697406Y0288751D01*
X0697406Y0283449D01*
X0695057Y0281100D01*
X0697406Y0278751D01*
X0697406Y0273449D01*
X0695057Y0271100D01*
X0697406Y0268751D01*
X0697406Y0263449D01*
X0695057Y0261100D01*
X0697406Y0258751D01*
X0697406Y0253449D01*
X0695057Y0251100D01*
X0697406Y0248751D01*
X0697406Y0243449D01*
X0695057Y0241100D01*
X0697406Y0238751D01*
X0697406Y0233449D01*
X0695057Y0231100D01*
X0697406Y0228751D01*
X0697406Y0223449D01*
X0695057Y0221100D01*
X0697406Y0218751D01*
X0697406Y0213449D01*
X0695057Y0211100D01*
X0697406Y0208751D01*
X0697406Y0203449D01*
X0695057Y0201100D01*
X0697406Y0198751D01*
X0697406Y0193449D01*
X0695057Y0191100D01*
X0697406Y0188751D01*
X0697406Y0183449D01*
X0695057Y0181100D01*
X0697406Y0178751D01*
X0697406Y0173449D01*
X0695057Y0171100D01*
X0697406Y0168751D01*
X0697406Y0163449D01*
X0695057Y0161100D01*
X0697406Y0158751D01*
X0697406Y0153449D01*
X0695057Y0151100D01*
X0697406Y0148751D01*
X0697406Y0143449D01*
X0695057Y0141100D01*
X0697406Y0138751D01*
X0697406Y0133449D01*
X0695057Y0131100D01*
X0697406Y0128751D01*
X0697406Y0123449D01*
X0695057Y0121100D01*
X0697406Y0118751D01*
X0697406Y0113449D01*
X0694675Y0110717D01*
X0697424Y0111796D01*
X0697424Y0111796D01*
X0702209Y0112155D01*
X0702209Y0112155D01*
X0706806Y0111106D01*
X0706806Y0431094D01*
X0702209Y0430045D01*
X0702209Y0430045D01*
X0697424Y0430404D01*
X0697424Y0430404D01*
X0694675Y0431483D01*
X0697406Y0428751D01*
X0697406Y0423449D01*
X0695057Y0421100D01*
X0697406Y0418751D01*
X0697406Y0413449D01*
X0694067Y0410110D01*
X0696006Y0408171D01*
X0696006Y0406100D01*
X0691006Y0406100D01*
X0691006Y0406100D01*
X0696006Y0406100D01*
X0696006Y0404029D01*
X0693077Y0401100D01*
X0691006Y0401100D01*
X0691006Y0400305D02*
X0691006Y0400305D01*
X0691006Y0402703D02*
X0691006Y0402703D01*
X0691006Y0405102D02*
X0691006Y0405102D01*
X0694681Y0402703D02*
X0706806Y0402703D01*
X0706806Y0400305D02*
X0693872Y0400305D01*
X0696006Y0397906D02*
X0706806Y0397906D01*
X0706806Y0395508D02*
X0696006Y0395508D01*
X0695087Y0393109D02*
X0706806Y0393109D01*
X0706806Y0390711D02*
X0695446Y0390711D01*
X0697406Y0388312D02*
X0706806Y0388312D01*
X0706806Y0385914D02*
X0697406Y0385914D01*
X0697406Y0383515D02*
X0706806Y0383515D01*
X0706806Y0381117D02*
X0695074Y0381117D01*
X0697406Y0378718D02*
X0706806Y0378718D01*
X0706806Y0376320D02*
X0697406Y0376320D01*
X0697406Y0373921D02*
X0706806Y0373921D01*
X0706806Y0371523D02*
X0695480Y0371523D01*
X0697033Y0369124D02*
X0706806Y0369124D01*
X0706806Y0366726D02*
X0697406Y0366726D01*
X0697406Y0364327D02*
X0706806Y0364327D01*
X0706806Y0361929D02*
X0695886Y0361929D01*
X0696627Y0359530D02*
X0706806Y0359530D01*
X0706806Y0357132D02*
X0697406Y0357132D01*
X0697406Y0354733D02*
X0706806Y0354733D01*
X0706806Y0352335D02*
X0696292Y0352335D01*
X0696221Y0349936D02*
X0706806Y0349936D01*
X0706806Y0347538D02*
X0697406Y0347538D01*
X0697406Y0345139D02*
X0706806Y0345139D01*
X0706806Y0342741D02*
X0696698Y0342741D01*
X0695815Y0340342D02*
X0706806Y0340342D01*
X0706806Y0337944D02*
X0697406Y0337944D01*
X0697406Y0335545D02*
X0706806Y0335545D01*
X0706806Y0333147D02*
X0697104Y0333147D01*
X0695409Y0330748D02*
X0706806Y0330748D01*
X0706806Y0328350D02*
X0697406Y0328350D01*
X0697406Y0325951D02*
X0706806Y0325951D01*
X0706806Y0323553D02*
X0697406Y0323553D01*
X0695111Y0321154D02*
X0706806Y0321154D01*
X0706806Y0318756D02*
X0697402Y0318756D01*
X0697406Y0316357D02*
X0706806Y0316357D01*
X0706806Y0313959D02*
X0697406Y0313959D01*
X0695517Y0311560D02*
X0706806Y0311560D01*
X0706806Y0309162D02*
X0696996Y0309162D01*
X0697406Y0306763D02*
X0706806Y0306763D01*
X0706806Y0304365D02*
X0697406Y0304365D01*
X0695923Y0301966D02*
X0706806Y0301966D01*
X0706806Y0299568D02*
X0696590Y0299568D01*
X0697406Y0297169D02*
X0706806Y0297169D01*
X0706806Y0294770D02*
X0697406Y0294770D01*
X0696329Y0292372D02*
X0706806Y0292372D01*
X0706806Y0289973D02*
X0696184Y0289973D01*
X0697406Y0287575D02*
X0706806Y0287575D01*
X0706806Y0285176D02*
X0697406Y0285176D01*
X0696735Y0282778D02*
X0706806Y0282778D01*
X0706806Y0280379D02*
X0695778Y0280379D01*
X0697406Y0277981D02*
X0706806Y0277981D01*
X0706806Y0275582D02*
X0697406Y0275582D01*
X0697141Y0273184D02*
X0706806Y0273184D01*
X0706806Y0270785D02*
X0695372Y0270785D01*
X0697406Y0268387D02*
X0706806Y0268387D01*
X0706806Y0265988D02*
X0697406Y0265988D01*
X0697406Y0263590D02*
X0706806Y0263590D01*
X0706806Y0261191D02*
X0695149Y0261191D01*
X0697364Y0258793D02*
X0706806Y0258793D01*
X0706806Y0256394D02*
X0697406Y0256394D01*
X0697406Y0253996D02*
X0706806Y0253996D01*
X0706806Y0251597D02*
X0695555Y0251597D01*
X0696958Y0249199D02*
X0706806Y0249199D01*
X0706806Y0246800D02*
X0697406Y0246800D01*
X0697406Y0244402D02*
X0706806Y0244402D01*
X0706806Y0242003D02*
X0695960Y0242003D01*
X0696553Y0239605D02*
X0706806Y0239605D01*
X0706806Y0237206D02*
X0697406Y0237206D01*
X0697406Y0234808D02*
X0706806Y0234808D01*
X0706806Y0232409D02*
X0696366Y0232409D01*
X0696147Y0230011D02*
X0706806Y0230011D01*
X0706806Y0227612D02*
X0697406Y0227612D01*
X0697406Y0225214D02*
X0706806Y0225214D01*
X0706806Y0222815D02*
X0696772Y0222815D01*
X0695741Y0220417D02*
X0706806Y0220417D01*
X0706806Y0218018D02*
X0697406Y0218018D01*
X0697406Y0215620D02*
X0706806Y0215620D01*
X0706806Y0213221D02*
X0697178Y0213221D01*
X0695335Y0210823D02*
X0706806Y0210823D01*
X0706806Y0208424D02*
X0697406Y0208424D01*
X0697406Y0206026D02*
X0706806Y0206026D01*
X0706806Y0203627D02*
X0697406Y0203627D01*
X0695186Y0201229D02*
X0706806Y0201229D01*
X0706806Y0198830D02*
X0697327Y0198830D01*
X0697406Y0196432D02*
X0706806Y0196432D01*
X0706806Y0194033D02*
X0697406Y0194033D01*
X0695592Y0191634D02*
X0706806Y0191634D01*
X0706806Y0189236D02*
X0696921Y0189236D01*
X0697406Y0186837D02*
X0706806Y0186837D01*
X0706806Y0184439D02*
X0697406Y0184439D01*
X0695998Y0182040D02*
X0706806Y0182040D01*
X0706806Y0179642D02*
X0696515Y0179642D01*
X0697406Y0177243D02*
X0706806Y0177243D01*
X0706806Y0174845D02*
X0697406Y0174845D01*
X0696404Y0172446D02*
X0706806Y0172446D01*
X0706806Y0170048D02*
X0696109Y0170048D01*
X0697406Y0167649D02*
X0706806Y0167649D01*
X0706806Y0165251D02*
X0697406Y0165251D01*
X0696810Y0162852D02*
X0706806Y0162852D01*
X0706806Y0160454D02*
X0695703Y0160454D01*
X0697406Y0158055D02*
X0706806Y0158055D01*
X0706806Y0155657D02*
X0697406Y0155657D01*
X0697216Y0153258D02*
X0706806Y0153258D01*
X0706806Y0150860D02*
X0695297Y0150860D01*
X0697406Y0148461D02*
X0706806Y0148461D01*
X0706806Y0146063D02*
X0697406Y0146063D01*
X0697406Y0143664D02*
X0706806Y0143664D01*
X0706806Y0141266D02*
X0695223Y0141266D01*
X0697290Y0138867D02*
X0706806Y0138867D01*
X0706806Y0136469D02*
X0697406Y0136469D01*
X0697406Y0134070D02*
X0706806Y0134070D01*
X0706806Y0131672D02*
X0695629Y0131672D01*
X0696884Y0129273D02*
X0706806Y0129273D01*
X0706806Y0126875D02*
X0697406Y0126875D01*
X0697406Y0124476D02*
X0706806Y0124476D01*
X0706806Y0122078D02*
X0696035Y0122078D01*
X0696478Y0119679D02*
X0706806Y0119679D01*
X0706806Y0117281D02*
X0697406Y0117281D01*
X0697406Y0114882D02*
X0706806Y0114882D01*
X0706806Y0112484D02*
X0696441Y0112484D01*
X0690001Y0107687D02*
X0631361Y0107687D01*
X0633306Y0105288D02*
X0688002Y0105288D01*
X0686440Y0102890D02*
X0633306Y0102890D01*
X0633306Y0103600D02*
X0628506Y0103600D01*
X0633306Y0103600D01*
X0632186Y0100491D02*
X0685700Y0100491D01*
X0685086Y0098093D02*
X0299787Y0098093D01*
X0302186Y0100491D02*
X0624827Y0100491D01*
X0623706Y0102890D02*
X0304584Y0102890D01*
X0306983Y0105288D02*
X0623706Y0105288D01*
X0625652Y0107687D02*
X0616977Y0107687D01*
X0611006Y0113600D02*
X0628506Y0113600D01*
X0633594Y0117281D02*
X0645704Y0117281D01*
X0645835Y0117150D02*
X0648506Y0117150D01*
X0648506Y0123600D01*
X0648506Y0123600D01*
X0642056Y0123600D01*
X0642056Y0120928D01*
X0645835Y0117150D01*
X0648506Y0117150D02*
X0648506Y0123600D01*
X0642056Y0123600D01*
X0642056Y0126272D01*
X0645835Y0130050D01*
X0648506Y0130050D01*
X0648506Y0123600D01*
X0648506Y0123600D01*
X0648506Y0123600D01*
X0648506Y0130050D01*
X0651178Y0130050D01*
X0654956Y0126272D01*
X0654956Y0123600D01*
X0648506Y0123600D01*
X0648506Y0123600D01*
X0654956Y0123600D01*
X0654956Y0120928D01*
X0651178Y0117150D01*
X0648506Y0117150D01*
X0648506Y0117281D02*
X0648506Y0117281D01*
X0648506Y0119679D02*
X0648506Y0119679D01*
X0648506Y0122078D02*
X0648506Y0122078D01*
X0648506Y0124476D02*
X0648506Y0124476D01*
X0648506Y0126875D02*
X0648506Y0126875D01*
X0648506Y0129273D02*
X0648506Y0129273D01*
X0645058Y0129273D02*
X0619013Y0129273D01*
X0618055Y0126875D02*
X0642659Y0126875D01*
X0642056Y0124476D02*
X0619132Y0124476D01*
X0619206Y0123600D02*
X0611006Y0123600D01*
X0611006Y0123600D01*
X0602806Y0123600D01*
X0602806Y0123191D01*
X0602934Y0122382D01*
X0603187Y0121604D01*
X0603559Y0120875D01*
X0604040Y0120212D01*
X0604619Y0119634D01*
X0604876Y0119447D01*
X0604268Y0119195D01*
X0603472Y0118400D01*
X0588540Y0118400D01*
X0587745Y0119195D01*
X0587137Y0119447D01*
X0587394Y0119634D01*
X0587973Y0120212D01*
X0588454Y0120875D01*
X0588825Y0121604D01*
X0589078Y0122382D01*
X0589206Y0123191D01*
X0589206Y0123600D01*
X0589206Y0124009D01*
X0589078Y0124818D01*
X0588825Y0125596D01*
X0588454Y0126325D01*
X0587973Y0126988D01*
X0587394Y0127566D01*
X0587137Y0127753D01*
X0587745Y0128005D01*
X0589602Y0129861D01*
X0590606Y0132287D01*
X0590606Y0134913D01*
X0589602Y0137339D01*
X0587745Y0139195D01*
X0585319Y0140200D01*
X0576693Y0140200D01*
X0574268Y0139195D01*
X0573472Y0138400D01*
X0559808Y0138400D01*
X0556758Y0141450D01*
X0550255Y0141450D01*
X0547205Y0138400D01*
X0539974Y0138400D01*
X0538574Y0139800D01*
X0533438Y0139800D01*
X0529806Y0136168D01*
X0529806Y0131032D01*
X0533438Y0127400D01*
X0538574Y0127400D01*
X0539974Y0128800D01*
X0547205Y0128800D01*
X0550255Y0125750D01*
X0556758Y0125750D01*
X0559808Y0128800D01*
X0573472Y0128800D01*
X0574268Y0128005D01*
X0574876Y0127753D01*
X0574619Y0127566D01*
X0574040Y0126988D01*
X0573559Y0126325D01*
X0573187Y0125596D01*
X0572934Y0124818D01*
X0572806Y0124009D01*
X0572806Y0123600D01*
X0572806Y0123191D01*
X0572934Y0122382D01*
X0573187Y0121604D01*
X0573559Y0120875D01*
X0574040Y0120212D01*
X0574619Y0119634D01*
X0574876Y0119447D01*
X0574268Y0119195D01*
X0573472Y0118400D01*
X0437594Y0118400D01*
X0497995Y0178800D01*
X0532438Y0178800D01*
X0529806Y0176168D01*
X0529806Y0171032D01*
X0533438Y0167400D01*
X0538574Y0167400D01*
X0539974Y0168800D01*
X0545656Y0168800D01*
X0545656Y0167848D01*
X0550255Y0163250D01*
X0556758Y0163250D01*
X0561356Y0167848D01*
X0561356Y0174352D01*
X0556908Y0178800D01*
X0589538Y0178800D01*
X0590938Y0177400D01*
X0596074Y0177400D01*
X0599496Y0180822D01*
X0601518Y0178800D01*
X0603506Y0178800D01*
X0603506Y0183600D01*
X0603506Y0188400D01*
X0601518Y0188400D01*
X0599496Y0186378D01*
X0598306Y0187568D01*
X0598306Y0194702D01*
X0600245Y0195505D01*
X0602102Y0197361D01*
X0603106Y0199787D01*
X0603106Y0202413D01*
X0602102Y0204839D01*
X0600840Y0206100D01*
X0601040Y0206300D01*
X0609018Y0206300D01*
X0616206Y0199112D01*
X0616206Y0171614D01*
X0616173Y0171532D01*
X0616180Y0170492D01*
X0613222Y0173450D01*
X0611006Y0173450D01*
X0608790Y0173450D01*
X0605656Y0170316D01*
X0605656Y0168100D01*
X0605656Y0165884D01*
X0608790Y0162750D01*
X0611006Y0162750D01*
X0611006Y0168100D01*
X0611006Y0168100D01*
X0605656Y0168100D01*
X0611006Y0168100D01*
X0611006Y0173450D01*
X0611006Y0168100D01*
X0611006Y0168100D01*
X0611006Y0168100D01*
X0611006Y0162750D01*
X0613222Y0162750D01*
X0616356Y0165884D01*
X0616356Y0168100D01*
X0616356Y0169220D01*
X0616930Y0167863D01*
X0624846Y0160059D01*
X0625531Y0159382D01*
X0625532Y0159382D01*
X0625534Y0159380D01*
X0626411Y0159024D01*
X0627300Y0158663D01*
X0627301Y0158663D01*
X0627303Y0158662D01*
X0628261Y0158669D01*
X0642245Y0158759D01*
X0645255Y0155750D01*
X0651758Y0155750D01*
X0653706Y0157698D01*
X0653706Y0149502D01*
X0651758Y0151450D01*
X0645255Y0151450D01*
X0642205Y0148400D01*
X0615806Y0148400D01*
X0615806Y0149354D01*
X0616729Y0150276D01*
X0617756Y0152757D01*
X0617756Y0155443D01*
X0616729Y0157924D01*
X0614830Y0159822D01*
X0612349Y0160850D01*
X0609664Y0160850D01*
X0607183Y0159822D01*
X0605284Y0157924D01*
X0604256Y0155443D01*
X0604256Y0152757D01*
X0605284Y0150276D01*
X0606206Y0149354D01*
X0606206Y0139998D01*
X0604268Y0139195D01*
X0602411Y0137339D01*
X0601406Y0134913D01*
X0601406Y0132287D01*
X0602411Y0129861D01*
X0604268Y0128005D01*
X0604876Y0127753D01*
X0604619Y0127566D01*
X0604040Y0126988D01*
X0603559Y0126325D01*
X0603187Y0125596D01*
X0602934Y0124818D01*
X0602806Y0124009D01*
X0602806Y0123600D01*
X0611006Y0123600D01*
X0611006Y0123600D01*
X0619206Y0123600D01*
X0618979Y0122078D02*
X0642056Y0122078D01*
X0643305Y0119679D02*
X0631195Y0119679D01*
X0625817Y0119679D02*
X0617439Y0119679D01*
X0611006Y0113600D02*
X0581006Y0113600D01*
X0336006Y0113600D01*
X0308506Y0113600D01*
X0288506Y0093600D01*
X0221006Y0093600D01*
X0215425Y0093296D02*
X0211871Y0093296D01*
X0215428Y0090897D02*
X0112780Y0090897D01*
X0113423Y0093296D02*
X0197543Y0093296D01*
X0195144Y0095694D02*
X0194889Y0095694D01*
X0191006Y0095694D02*
X0191006Y0095694D01*
X0191006Y0098093D02*
X0191006Y0098093D01*
X0191006Y0100491D02*
X0191006Y0100491D01*
X0191006Y0102890D02*
X0191006Y0102890D01*
X0188508Y0102890D02*
X0117561Y0102890D01*
X0120616Y0105288D02*
X0194772Y0105288D01*
X0194256Y0107687D02*
X0189381Y0107687D01*
X0190806Y0110085D02*
X0194256Y0110085D01*
X0195344Y0112484D02*
X0190806Y0112484D01*
X0190806Y0111100D02*
X0186006Y0111100D01*
X0186006Y0111100D01*
X0190806Y0111100D01*
X0189012Y0114882D02*
X0195178Y0114882D01*
X0193037Y0117281D02*
X0190955Y0117281D01*
X0186006Y0121100D02*
X0171006Y0121100D01*
X0156006Y0121100D01*
X0133506Y0121100D01*
X0131868Y0114882D02*
X0121830Y0114882D01*
X0122643Y0112484D02*
X0151206Y0112484D01*
X0151206Y0110085D02*
X0122643Y0110085D01*
X0121982Y0107687D02*
X0152631Y0107687D01*
X0156006Y0107687D02*
X0156006Y0107687D01*
X0156006Y0110085D02*
X0156006Y0110085D01*
X0156006Y0111100D02*
X0156006Y0111100D01*
X0160806Y0111100D01*
X0156006Y0111100D01*
X0159381Y0107687D02*
X0167631Y0107687D01*
X0166206Y0110085D02*
X0160806Y0110085D01*
X0160806Y0112484D02*
X0166206Y0112484D01*
X0168000Y0114882D02*
X0159012Y0114882D01*
X0153000Y0114882D02*
X0135145Y0114882D01*
X0128315Y0117281D02*
X0120247Y0117281D01*
X0116671Y0119679D02*
X0127198Y0119679D01*
X0127135Y0122078D02*
X0088706Y0122078D01*
X0088706Y0124476D02*
X0128008Y0124476D01*
X0128721Y0126875D02*
X0088706Y0126875D01*
X0088706Y0129273D02*
X0127366Y0129273D01*
X0127135Y0131672D02*
X0088706Y0131672D01*
X0088706Y0134070D02*
X0127840Y0134070D01*
X0129864Y0136469D02*
X0088706Y0136469D01*
X0088706Y0138867D02*
X0194256Y0138867D01*
X0194256Y0136469D02*
X0149406Y0136469D01*
X0142607Y0136469D02*
X0137148Y0136469D01*
X0133506Y0131100D02*
X0186006Y0131100D01*
X0198506Y0118600D01*
X0201006Y0118600D01*
X0207756Y0119679D02*
X0224256Y0119679D01*
X0224256Y0117281D02*
X0207756Y0117281D01*
X0206834Y0114882D02*
X0225178Y0114882D01*
X0227324Y0112484D02*
X0206669Y0112484D01*
X0207756Y0110085D02*
X0225656Y0110085D01*
X0225656Y0108600D02*
X0231006Y0108600D01*
X0231006Y0108600D01*
X0225656Y0108600D01*
X0225656Y0107687D02*
X0207756Y0107687D01*
X0207240Y0105288D02*
X0226752Y0105288D01*
X0231006Y0108600D02*
X0231006Y0108600D01*
X0236356Y0108600D01*
X0231006Y0108600D01*
X0234689Y0112484D02*
X0243521Y0112484D01*
X0236356Y0110085D02*
X0285703Y0110085D01*
X0283305Y0107687D02*
X0236356Y0107687D01*
X0235260Y0105288D02*
X0280906Y0105288D01*
X0281006Y0098600D02*
X0301006Y0118600D01*
X0343506Y0118600D01*
X0431006Y0118600D01*
X0496006Y0183600D01*
X0593506Y0183600D01*
X0593506Y0201100D01*
X0586098Y0206026D02*
X0580078Y0206026D01*
X0577756Y0203627D02*
X0584409Y0203627D01*
X0583906Y0201229D02*
X0577681Y0201229D01*
X0575282Y0198830D02*
X0584303Y0198830D01*
X0585841Y0196432D02*
X0317463Y0196432D01*
X0315064Y0198830D02*
X0566730Y0198830D01*
X0564332Y0201229D02*
X0312666Y0201229D01*
X0310267Y0203627D02*
X0564256Y0203627D01*
X0564256Y0206026D02*
X0307869Y0206026D01*
X0305470Y0208424D02*
X0565784Y0208424D01*
X0568183Y0210823D02*
X0303072Y0210823D01*
X0300673Y0213221D02*
X0568797Y0213221D01*
X0568953Y0213142D02*
X0569753Y0212882D01*
X0570585Y0212750D01*
X0571006Y0212750D01*
X0571006Y0218100D01*
X0571006Y0218100D01*
X0565656Y0218100D01*
X0565656Y0217679D01*
X0565788Y0216847D01*
X0566048Y0216046D01*
X0566431Y0215296D01*
X0566926Y0214615D01*
X0567521Y0214019D01*
X0568202Y0213524D01*
X0568953Y0213142D01*
X0571006Y0213221D02*
X0571006Y0213221D01*
X0571006Y0212750D02*
X0571427Y0212750D01*
X0572259Y0212882D01*
X0573060Y0213142D01*
X0573810Y0213524D01*
X0574492Y0214019D01*
X0575087Y0214615D01*
X0575582Y0215296D01*
X0575964Y0216046D01*
X0576225Y0216847D01*
X0576356Y0217679D01*
X0576356Y0218100D01*
X0576356Y0218521D01*
X0576225Y0219353D01*
X0575964Y0220154D01*
X0575582Y0220904D01*
X0575087Y0221585D01*
X0574492Y0222181D01*
X0573810Y0222676D01*
X0573060Y0223058D01*
X0572259Y0223318D01*
X0571427Y0223450D01*
X0571006Y0223450D01*
X0570585Y0223450D01*
X0569753Y0223318D01*
X0568953Y0223058D01*
X0568202Y0222676D01*
X0567521Y0222181D01*
X0566926Y0221585D01*
X0566431Y0220904D01*
X0566048Y0220154D01*
X0565788Y0219353D01*
X0565656Y0218521D01*
X0565656Y0218100D01*
X0571006Y0218100D01*
X0571006Y0223450D01*
X0571006Y0218100D01*
X0571006Y0218100D01*
X0571006Y0218100D01*
X0571006Y0212750D01*
X0573215Y0213221D02*
X0573717Y0213221D01*
X0575747Y0215620D02*
X0576276Y0215620D01*
X0576356Y0218018D02*
X0586318Y0218018D01*
X0585350Y0220417D02*
X0575830Y0220417D01*
X0576356Y0218100D02*
X0571006Y0218100D01*
X0571006Y0218100D01*
X0576356Y0218100D01*
X0571006Y0218018D02*
X0571006Y0218018D01*
X0571006Y0215620D02*
X0571006Y0215620D01*
X0566266Y0215620D02*
X0298275Y0215620D01*
X0295876Y0218018D02*
X0565656Y0218018D01*
X0566182Y0220417D02*
X0394611Y0220417D01*
X0395806Y0221612D02*
X0395806Y0223600D01*
X0395806Y0225588D01*
X0392995Y0228400D01*
X0391006Y0228400D01*
X0389018Y0228400D01*
X0386206Y0225588D01*
X0386206Y0223600D01*
X0391006Y0223600D01*
X0391006Y0223600D01*
X0386206Y0223600D01*
X0386206Y0221612D01*
X0389018Y0218800D01*
X0391006Y0218800D01*
X0391006Y0223600D01*
X0391006Y0228400D01*
X0391006Y0223600D01*
X0391006Y0223600D01*
X0391006Y0223600D01*
X0391006Y0218800D01*
X0392995Y0218800D01*
X0395806Y0221612D01*
X0395806Y0222815D02*
X0568476Y0222815D01*
X0571006Y0222815D02*
X0571006Y0222815D01*
X0571006Y0220417D02*
X0571006Y0220417D01*
X0573537Y0222815D02*
X0585596Y0222815D01*
X0585306Y0221100D02*
X0593506Y0221100D01*
X0593506Y0221100D01*
X0585306Y0221100D01*
X0587322Y0225214D02*
X0395806Y0225214D01*
X0395806Y0223600D02*
X0391006Y0223600D01*
X0391006Y0223600D01*
X0395806Y0223600D01*
X0393782Y0227612D02*
X0631206Y0227612D01*
X0631206Y0225214D02*
X0599691Y0225214D01*
X0601417Y0222815D02*
X0631206Y0222815D01*
X0631206Y0220417D02*
X0601663Y0220417D01*
X0601706Y0221100D02*
X0593506Y0221100D01*
X0593506Y0226300D01*
X0593506Y0221100D01*
X0593506Y0221100D01*
X0601706Y0221100D01*
X0600695Y0218018D02*
X0631206Y0218018D01*
X0631206Y0215620D02*
X0612638Y0215620D01*
X0615673Y0213221D02*
X0631206Y0213221D01*
X0631206Y0210823D02*
X0618072Y0210823D01*
X0620470Y0208424D02*
X0631206Y0208424D01*
X0631206Y0206026D02*
X0622869Y0206026D01*
X0625155Y0203627D02*
X0631206Y0203627D01*
X0631206Y0201229D02*
X0625806Y0201229D01*
X0625806Y0198830D02*
X0631206Y0198830D01*
X0631206Y0196432D02*
X0625806Y0196432D01*
X0625806Y0194033D02*
X0631206Y0194033D01*
X0631206Y0191634D02*
X0625806Y0191634D01*
X0625806Y0189236D02*
X0631206Y0189236D01*
X0631206Y0186837D02*
X0625806Y0186837D01*
X0625806Y0184439D02*
X0631206Y0184439D01*
X0631206Y0182040D02*
X0625806Y0182040D01*
X0625806Y0179642D02*
X0631206Y0179642D01*
X0631206Y0177243D02*
X0625806Y0177243D01*
X0625806Y0174845D02*
X0631206Y0174845D01*
X0631206Y0172446D02*
X0625955Y0172446D01*
X0628388Y0170048D02*
X0631206Y0170048D01*
X0628224Y0163469D02*
X0648506Y0163600D01*
X0642949Y0158055D02*
X0616597Y0158055D01*
X0617668Y0155657D02*
X0653706Y0155657D01*
X0653706Y0153258D02*
X0617756Y0153258D01*
X0616970Y0150860D02*
X0644665Y0150860D01*
X0642266Y0148461D02*
X0615806Y0148461D01*
X0611006Y0143600D02*
X0631006Y0143600D01*
X0638506Y0136100D01*
X0658506Y0136100D01*
X0658506Y0373600D01*
X0671006Y0386100D01*
X0666566Y0390711D02*
X0652405Y0390711D01*
X0650007Y0388312D02*
X0664606Y0388312D01*
X0664032Y0385914D02*
X0647608Y0385914D01*
X0645210Y0383515D02*
X0661633Y0383515D01*
X0659235Y0381117D02*
X0642811Y0381117D01*
X0640806Y0378718D02*
X0656836Y0378718D01*
X0654438Y0376320D02*
X0640806Y0376320D01*
X0640806Y0373921D02*
X0653706Y0373921D01*
X0653706Y0371523D02*
X0640806Y0371523D01*
X0640806Y0369124D02*
X0653706Y0369124D01*
X0653706Y0366726D02*
X0640806Y0366726D01*
X0640806Y0364327D02*
X0653706Y0364327D01*
X0653706Y0361929D02*
X0640806Y0361929D01*
X0640806Y0359530D02*
X0653706Y0359530D01*
X0653706Y0357132D02*
X0640806Y0357132D01*
X0640806Y0354733D02*
X0653706Y0354733D01*
X0653706Y0352335D02*
X0640806Y0352335D01*
X0640806Y0349936D02*
X0653706Y0349936D01*
X0653706Y0347538D02*
X0640806Y0347538D01*
X0640806Y0345139D02*
X0653706Y0345139D01*
X0653706Y0342741D02*
X0640806Y0342741D01*
X0640806Y0340342D02*
X0653706Y0340342D01*
X0653706Y0337944D02*
X0640806Y0337944D01*
X0640806Y0335545D02*
X0653706Y0335545D01*
X0653706Y0333147D02*
X0640806Y0333147D01*
X0640806Y0330748D02*
X0653706Y0330748D01*
X0653706Y0328350D02*
X0640806Y0328350D01*
X0640806Y0325951D02*
X0653706Y0325951D01*
X0653706Y0323553D02*
X0640806Y0323553D01*
X0640806Y0321154D02*
X0653706Y0321154D01*
X0653706Y0318756D02*
X0640806Y0318756D01*
X0640806Y0316357D02*
X0653706Y0316357D01*
X0653706Y0313959D02*
X0640806Y0313959D01*
X0640806Y0311560D02*
X0653706Y0311560D01*
X0653706Y0309162D02*
X0640806Y0309162D01*
X0640806Y0306763D02*
X0653706Y0306763D01*
X0653706Y0304365D02*
X0640806Y0304365D01*
X0640806Y0301966D02*
X0653706Y0301966D01*
X0653706Y0299568D02*
X0640806Y0299568D01*
X0640806Y0297169D02*
X0653706Y0297169D01*
X0653706Y0294770D02*
X0640806Y0294770D01*
X0640806Y0292372D02*
X0653706Y0292372D01*
X0653706Y0289973D02*
X0640806Y0289973D01*
X0640806Y0287575D02*
X0653706Y0287575D01*
X0653706Y0285176D02*
X0640806Y0285176D01*
X0640806Y0282778D02*
X0653706Y0282778D01*
X0653706Y0280379D02*
X0640806Y0280379D01*
X0640806Y0277981D02*
X0653706Y0277981D01*
X0653706Y0275582D02*
X0640806Y0275582D01*
X0640806Y0273184D02*
X0653706Y0273184D01*
X0653706Y0270785D02*
X0640806Y0270785D01*
X0640806Y0268387D02*
X0653706Y0268387D01*
X0653706Y0265988D02*
X0640806Y0265988D01*
X0640806Y0263590D02*
X0653706Y0263590D01*
X0653706Y0261191D02*
X0640806Y0261191D01*
X0640806Y0258793D02*
X0653706Y0258793D01*
X0653706Y0256394D02*
X0640806Y0256394D01*
X0640806Y0253996D02*
X0653706Y0253996D01*
X0653706Y0251597D02*
X0640806Y0251597D01*
X0640806Y0249199D02*
X0653706Y0249199D01*
X0653706Y0246800D02*
X0640806Y0246800D01*
X0640806Y0244402D02*
X0653706Y0244402D01*
X0653706Y0242003D02*
X0640806Y0242003D01*
X0640806Y0239605D02*
X0653706Y0239605D01*
X0653706Y0237206D02*
X0640806Y0237206D01*
X0640806Y0234808D02*
X0653706Y0234808D01*
X0653706Y0232409D02*
X0640806Y0232409D01*
X0640806Y0230011D02*
X0653706Y0230011D01*
X0653706Y0227612D02*
X0640806Y0227612D01*
X0640806Y0225214D02*
X0653706Y0225214D01*
X0653706Y0222815D02*
X0640806Y0222815D01*
X0640806Y0220417D02*
X0653706Y0220417D01*
X0653706Y0218018D02*
X0640806Y0218018D01*
X0640806Y0215620D02*
X0653706Y0215620D01*
X0653706Y0213221D02*
X0640806Y0213221D01*
X0640806Y0210823D02*
X0653706Y0210823D01*
X0653706Y0208424D02*
X0640806Y0208424D01*
X0640806Y0206026D02*
X0653706Y0206026D01*
X0653706Y0203627D02*
X0640806Y0203627D01*
X0640806Y0201229D02*
X0653706Y0201229D01*
X0653706Y0198830D02*
X0640806Y0198830D01*
X0640806Y0196432D02*
X0653706Y0196432D01*
X0653706Y0194033D02*
X0640806Y0194033D01*
X0640806Y0191634D02*
X0653706Y0191634D01*
X0653706Y0189236D02*
X0640806Y0189236D01*
X0640806Y0186837D02*
X0653706Y0186837D01*
X0653706Y0184439D02*
X0640806Y0184439D01*
X0640806Y0182040D02*
X0653706Y0182040D01*
X0653706Y0179642D02*
X0640806Y0179642D01*
X0640806Y0177243D02*
X0653706Y0177243D01*
X0653706Y0174845D02*
X0640806Y0174845D01*
X0640806Y0172446D02*
X0653706Y0172446D01*
X0653706Y0170048D02*
X0653160Y0170048D01*
X0643853Y0170048D02*
X0640806Y0170048D01*
X0636006Y0163600D02*
X0636006Y0381100D01*
X0671006Y0416100D01*
X0664606Y0417095D02*
X0183306Y0417095D01*
X0183306Y0415622D02*
X0183306Y0418600D01*
X0183306Y0421578D01*
X0183188Y0422324D01*
X0182955Y0423043D01*
X0182612Y0423716D01*
X0182168Y0424327D01*
X0181633Y0424861D01*
X0181022Y0425305D01*
X0180349Y0425648D01*
X0179630Y0425882D01*
X0178884Y0426000D01*
X0178506Y0426000D01*
X0178129Y0426000D01*
X0177382Y0425882D01*
X0176664Y0425648D01*
X0175991Y0425305D01*
X0175379Y0424861D01*
X0174845Y0424327D01*
X0174401Y0423716D01*
X0174058Y0423043D01*
X0173824Y0422324D01*
X0173706Y0421578D01*
X0173706Y0418600D01*
X0178506Y0418600D01*
X0178506Y0418600D01*
X0173706Y0418600D01*
X0173706Y0415622D01*
X0173824Y0414876D01*
X0174058Y0414157D01*
X0174401Y0413484D01*
X0174845Y0412873D01*
X0175379Y0412339D01*
X0175991Y0411895D01*
X0176664Y0411552D01*
X0177382Y0411318D01*
X0178129Y0411200D01*
X0178506Y0411200D01*
X0178506Y0418600D01*
X0178506Y0426000D01*
X0178506Y0418600D01*
X0178506Y0418600D01*
X0178506Y0418600D01*
X0178506Y0411200D01*
X0178884Y0411200D01*
X0179630Y0411318D01*
X0180349Y0411552D01*
X0181022Y0411895D01*
X0181633Y0412339D01*
X0182168Y0412873D01*
X0182612Y0413484D01*
X0182955Y0414157D01*
X0183188Y0414876D01*
X0183306Y0415622D01*
X0183130Y0414696D02*
X0662814Y0414696D01*
X0660416Y0412298D02*
X0181577Y0412298D01*
X0178506Y0412298D02*
X0178506Y0412298D01*
X0178506Y0414696D02*
X0178506Y0414696D01*
X0178506Y0417095D02*
X0178506Y0417095D01*
X0178506Y0418600D02*
X0178506Y0418600D01*
X0183306Y0418600D01*
X0178506Y0418600D01*
X0178506Y0419493D02*
X0178506Y0419493D01*
X0178506Y0421892D02*
X0178506Y0421892D01*
X0178506Y0424290D02*
X0178506Y0424290D01*
X0174818Y0424290D02*
X0169084Y0424290D01*
X0168574Y0424800D02*
X0163438Y0424800D01*
X0162038Y0423400D01*
X0156806Y0423400D01*
X0156262Y0424712D01*
X0154518Y0426456D01*
X0152240Y0427400D01*
X0149773Y0427400D01*
X0147494Y0426456D01*
X0145750Y0424712D01*
X0145207Y0423400D01*
X0140052Y0423400D01*
X0138287Y0422669D01*
X0136937Y0421319D01*
X0133090Y0417472D01*
X0132239Y0417472D01*
X0129897Y0416502D01*
X0128105Y0414709D01*
X0127135Y0412367D01*
X0127135Y0409833D01*
X0128105Y0407491D01*
X0129897Y0405698D01*
X0130840Y0405308D01*
X0130267Y0404892D01*
X0129714Y0404339D01*
X0129254Y0403706D01*
X0128899Y0403008D01*
X0128657Y0402264D01*
X0128535Y0401491D01*
X0128535Y0401100D01*
X0128535Y0400709D01*
X0128657Y0399936D01*
X0128899Y0399192D01*
X0129254Y0398494D01*
X0129714Y0397861D01*
X0130267Y0397308D01*
X0130901Y0396848D01*
X0131598Y0396493D01*
X0132342Y0396251D01*
X0133115Y0396128D01*
X0133506Y0396128D01*
X0133506Y0401100D01*
X0133506Y0401100D01*
X0128535Y0401100D01*
X0133506Y0401100D01*
X0133506Y0401100D01*
X0133506Y0396128D01*
X0133898Y0396128D01*
X0134670Y0396251D01*
X0135415Y0396493D01*
X0136112Y0396848D01*
X0136745Y0397308D01*
X0137298Y0397861D01*
X0137758Y0398494D01*
X0138114Y0399192D01*
X0138356Y0399936D01*
X0138478Y0400709D01*
X0138478Y0401100D01*
X0138478Y0401491D01*
X0138356Y0402264D01*
X0138114Y0403008D01*
X0137758Y0403706D01*
X0137298Y0404339D01*
X0136745Y0404892D01*
X0136173Y0405308D01*
X0137116Y0405698D01*
X0138908Y0407491D01*
X0139878Y0409833D01*
X0139878Y0410683D01*
X0142995Y0413800D01*
X0145207Y0413800D01*
X0145750Y0412488D01*
X0147494Y0410744D01*
X0149773Y0409800D01*
X0152240Y0409800D01*
X0154518Y0410744D01*
X0156262Y0412488D01*
X0156806Y0413800D01*
X0162038Y0413800D01*
X0163438Y0412400D01*
X0168574Y0412400D01*
X0172206Y0416032D01*
X0172206Y0421168D01*
X0168574Y0424800D01*
X0171483Y0421892D02*
X0173756Y0421892D01*
X0173706Y0419493D02*
X0172206Y0419493D01*
X0172206Y0417095D02*
X0173706Y0417095D01*
X0173883Y0414696D02*
X0170870Y0414696D01*
X0175436Y0412298D02*
X0156072Y0412298D01*
X0152479Y0409899D02*
X0658017Y0409899D01*
X0655619Y0407501D02*
X0138912Y0407501D01*
X0139878Y0409899D02*
X0149534Y0409899D01*
X0145941Y0412298D02*
X0141492Y0412298D01*
X0141006Y0418600D02*
X0166006Y0418600D01*
X0162928Y0424290D02*
X0156437Y0424290D01*
X0153957Y0426689D02*
X0664606Y0426689D01*
X0664606Y0424290D02*
X0182194Y0424290D01*
X0183257Y0421892D02*
X0666164Y0421892D01*
X0665348Y0419493D02*
X0183306Y0419493D01*
X0179287Y0438681D02*
X0624556Y0438681D01*
X0635514Y0431486D02*
X0667341Y0431486D01*
X0664942Y0429087D02*
X0122562Y0429087D01*
X0121569Y0426689D02*
X0148056Y0426689D01*
X0145575Y0424290D02*
X0119618Y0424290D01*
X0107395Y0424290D02*
X0088706Y0424290D01*
X0088706Y0421892D02*
X0137510Y0421892D01*
X0135111Y0419493D02*
X0088706Y0419493D01*
X0088706Y0417095D02*
X0131329Y0417095D01*
X0128099Y0414696D02*
X0088706Y0414696D01*
X0088706Y0412298D02*
X0127135Y0412298D01*
X0127135Y0409899D02*
X0088706Y0409899D01*
X0088706Y0407501D02*
X0128101Y0407501D01*
X0130556Y0405102D02*
X0088706Y0405102D01*
X0088706Y0402703D02*
X0128800Y0402703D01*
X0128599Y0400305D02*
X0088706Y0400305D01*
X0088706Y0397906D02*
X0107391Y0397906D01*
X0108331Y0398846D02*
X0105760Y0396276D01*
X0104369Y0392917D01*
X0104369Y0389283D01*
X0105760Y0385924D01*
X0108331Y0383354D01*
X0111689Y0381963D01*
X0115324Y0381963D01*
X0118682Y0383354D01*
X0121252Y0385924D01*
X0122643Y0389283D01*
X0122643Y0392917D01*
X0121252Y0396276D01*
X0118682Y0398846D01*
X0115324Y0400237D01*
X0111689Y0400237D01*
X0108331Y0398846D01*
X0105442Y0395508D02*
X0088706Y0395508D01*
X0088706Y0393109D02*
X0104449Y0393109D01*
X0104369Y0390711D02*
X0088706Y0390711D01*
X0088706Y0388312D02*
X0104771Y0388312D01*
X0105771Y0385914D02*
X0088706Y0385914D01*
X0088706Y0383515D02*
X0108169Y0383515D01*
X0118843Y0383515D02*
X0145325Y0383515D01*
X0145750Y0382488D02*
X0147494Y0380744D01*
X0149773Y0379800D01*
X0152240Y0379800D01*
X0154518Y0380744D01*
X0156262Y0382488D01*
X0156806Y0383800D01*
X0162438Y0383800D01*
X0159806Y0381168D01*
X0159806Y0376032D01*
X0162123Y0373715D01*
X0161449Y0373041D01*
X0160181Y0369981D01*
X0160181Y0357219D01*
X0161449Y0354159D01*
X0163791Y0351817D01*
X0166850Y0350550D01*
X0170162Y0350550D01*
X0173222Y0351817D01*
X0175564Y0354159D01*
X0176831Y0357219D01*
X0176831Y0369981D01*
X0175564Y0373041D01*
X0173222Y0375383D01*
X0172919Y0375508D01*
X0172876Y0375594D01*
X0172576Y0376319D01*
X0172451Y0376443D01*
X0172206Y0376933D01*
X0172206Y0381168D01*
X0169574Y0383800D01*
X0172707Y0383800D01*
X0173250Y0382488D01*
X0174994Y0380744D01*
X0177273Y0379800D01*
X0179740Y0379800D01*
X0180776Y0380229D01*
X0183706Y0377298D01*
X0183706Y0375298D01*
X0181449Y0373041D01*
X0180181Y0369981D01*
X0180181Y0357219D01*
X0181449Y0354159D01*
X0183791Y0351817D01*
X0186850Y0350550D01*
X0190162Y0350550D01*
X0193222Y0351817D01*
X0195564Y0354159D01*
X0196831Y0357219D01*
X0196831Y0369981D01*
X0195564Y0373041D01*
X0193306Y0375298D01*
X0193306Y0377298D01*
X0196356Y0380348D01*
X0196356Y0386852D01*
X0191758Y0391450D01*
X0185255Y0391450D01*
X0184706Y0390902D01*
X0184706Y0392433D01*
X0183762Y0394712D01*
X0182018Y0396456D01*
X0179740Y0397400D01*
X0177273Y0397400D01*
X0174994Y0396456D01*
X0173250Y0394712D01*
X0172707Y0393400D01*
X0156806Y0393400D01*
X0156262Y0394712D01*
X0154518Y0396456D01*
X0152240Y0397400D01*
X0149773Y0397400D01*
X0147494Y0396456D01*
X0145750Y0394712D01*
X0144806Y0392433D01*
X0144806Y0384767D01*
X0145750Y0382488D01*
X0147121Y0381117D02*
X0088706Y0381117D01*
X0088881Y0380800D02*
X0088881Y0373975D01*
X0095706Y0373975D01*
X0095706Y0374072D01*
X0095583Y0375008D01*
X0095339Y0375919D01*
X0094978Y0376791D01*
X0094506Y0377609D01*
X0093931Y0378357D01*
X0093264Y0379025D01*
X0092515Y0379599D01*
X0091698Y0380071D01*
X0090826Y0380433D01*
X0089914Y0380677D01*
X0088978Y0380800D01*
X0088881Y0380800D01*
X0088881Y0378718D02*
X0088706Y0378718D01*
X0088706Y0376320D02*
X0088881Y0376320D01*
X0088881Y0373921D02*
X0142329Y0373921D01*
X0141449Y0373041D02*
X0140181Y0369981D01*
X0140181Y0357219D01*
X0141449Y0354159D01*
X0143791Y0351817D01*
X0146850Y0350550D01*
X0150162Y0350550D01*
X0153222Y0351817D01*
X0155564Y0354159D01*
X0156831Y0357219D01*
X0156831Y0369981D01*
X0155564Y0373041D01*
X0153222Y0375383D01*
X0150162Y0376650D01*
X0146850Y0376650D01*
X0143791Y0375383D01*
X0141449Y0373041D01*
X0140820Y0371523D02*
X0095404Y0371523D01*
X0094147Y0369124D02*
X0140181Y0369124D01*
X0140181Y0366726D02*
X0090670Y0366726D01*
X0088881Y0366726D02*
X0088706Y0366726D01*
X0088706Y0369124D02*
X0088881Y0369124D01*
X0088881Y0371523D02*
X0088706Y0371523D01*
X0088706Y0364327D02*
X0140181Y0364327D01*
X0140181Y0361929D02*
X0088706Y0361929D01*
X0088881Y0360800D02*
X0088881Y0353975D01*
X0095706Y0353975D01*
X0095706Y0354072D01*
X0095583Y0355008D01*
X0095339Y0355919D01*
X0094978Y0356791D01*
X0094506Y0357609D01*
X0093931Y0358357D01*
X0093264Y0359025D01*
X0092515Y0359599D01*
X0091698Y0360071D01*
X0090826Y0360433D01*
X0089914Y0360677D01*
X0088978Y0360800D01*
X0088881Y0360800D01*
X0088881Y0359530D02*
X0088706Y0359530D01*
X0088706Y0357132D02*
X0088881Y0357132D01*
X0088881Y0354733D02*
X0088706Y0354733D01*
X0088706Y0352335D02*
X0088881Y0352335D01*
X0088881Y0349936D02*
X0088706Y0349936D01*
X0088706Y0347538D02*
X0088881Y0347538D01*
X0088706Y0345139D02*
X0106177Y0345139D01*
X0104875Y0342741D02*
X0088706Y0342741D01*
X0088706Y0340342D02*
X0104706Y0340342D01*
X0103562Y0337944D02*
X0088706Y0337944D01*
X0093506Y0331100D02*
X0103506Y0331100D01*
X0113506Y0341100D01*
X0201006Y0341100D01*
X0221006Y0351100D01*
X0221006Y0361100D01*
X0221006Y0371100D01*
X0221006Y0381100D01*
X0221006Y0391100D01*
X0216646Y0395508D02*
X0182966Y0395508D01*
X0184426Y0393109D02*
X0214806Y0393109D01*
X0214806Y0390711D02*
X0192497Y0390711D01*
X0194895Y0388312D02*
X0199097Y0388312D01*
X0200835Y0390050D02*
X0197056Y0386272D01*
X0197056Y0383600D01*
X0197056Y0380928D01*
X0200835Y0377150D01*
X0203506Y0377150D01*
X0203506Y0383600D01*
X0203506Y0383600D01*
X0197056Y0383600D01*
X0203506Y0383600D01*
X0203506Y0390050D01*
X0200835Y0390050D01*
X0203506Y0390050D02*
X0203506Y0383600D01*
X0203506Y0383600D01*
X0203506Y0383600D01*
X0203506Y0377150D01*
X0206178Y0377150D01*
X0209956Y0380928D01*
X0209956Y0383600D01*
X0209956Y0386272D01*
X0206178Y0390050D01*
X0203506Y0390050D01*
X0203506Y0388312D02*
X0203506Y0388312D01*
X0203506Y0385914D02*
X0203506Y0385914D01*
X0203506Y0383600D02*
X0209956Y0383600D01*
X0203506Y0383600D01*
X0203506Y0383600D01*
X0203506Y0383515D02*
X0203506Y0383515D01*
X0203506Y0381117D02*
X0203506Y0381117D01*
X0203506Y0378718D02*
X0203506Y0378718D01*
X0199266Y0378718D02*
X0194726Y0378718D01*
X0193306Y0376320D02*
X0216206Y0376320D01*
X0215060Y0373921D02*
X0194683Y0373921D01*
X0196193Y0371523D02*
X0214806Y0371523D01*
X0214806Y0369124D02*
X0196831Y0369124D01*
X0196831Y0366726D02*
X0216206Y0366726D01*
X0215466Y0364327D02*
X0196831Y0364327D01*
X0196831Y0361929D02*
X0214806Y0361929D01*
X0214806Y0359530D02*
X0196831Y0359530D01*
X0196795Y0357132D02*
X0216206Y0357132D01*
X0215871Y0354733D02*
X0195802Y0354733D01*
X0193739Y0352335D02*
X0212743Y0352335D01*
X0207946Y0349936D02*
X0094705Y0349936D01*
X0095602Y0352335D02*
X0143273Y0352335D01*
X0141211Y0354733D02*
X0095619Y0354733D01*
X0094781Y0357132D02*
X0140217Y0357132D01*
X0140181Y0359530D02*
X0092605Y0359530D01*
X0092406Y0347538D02*
X0203149Y0347538D01*
X0215021Y0342741D02*
X0278706Y0342741D01*
X0278706Y0345139D02*
X0257917Y0345139D01*
X0257340Y0344900D02*
X0259618Y0345844D01*
X0261362Y0347588D01*
X0262306Y0349867D01*
X0262306Y0352333D01*
X0261362Y0354612D01*
X0259874Y0356100D01*
X0261362Y0357588D01*
X0262306Y0359867D01*
X0262306Y0362333D01*
X0261362Y0364612D01*
X0259874Y0366100D01*
X0261362Y0367588D01*
X0262306Y0369867D01*
X0262306Y0372333D01*
X0261362Y0374612D01*
X0259874Y0376100D01*
X0261362Y0377588D01*
X0262306Y0379867D01*
X0262306Y0382333D01*
X0261362Y0384612D01*
X0259874Y0386100D01*
X0261362Y0387588D01*
X0262306Y0389867D01*
X0262306Y0392333D01*
X0261362Y0394612D01*
X0259618Y0396356D01*
X0257340Y0397300D01*
X0249673Y0397300D01*
X0247394Y0396356D01*
X0246938Y0395900D01*
X0244974Y0395900D01*
X0243574Y0397300D01*
X0238438Y0397300D01*
X0234806Y0393668D01*
X0234806Y0388532D01*
X0237238Y0386100D01*
X0234806Y0383668D01*
X0234806Y0378532D01*
X0237238Y0376100D01*
X0234806Y0373668D01*
X0234806Y0368532D01*
X0237238Y0366100D01*
X0234806Y0363668D01*
X0234806Y0358532D01*
X0237238Y0356100D01*
X0234806Y0353668D01*
X0234806Y0348532D01*
X0238438Y0344900D01*
X0243574Y0344900D01*
X0244974Y0346300D01*
X0246938Y0346300D01*
X0247394Y0345844D01*
X0249673Y0344900D01*
X0257340Y0344900D01*
X0261312Y0347538D02*
X0275700Y0347538D01*
X0274706Y0349936D02*
X0262306Y0349936D01*
X0262306Y0352335D02*
X0274707Y0352335D01*
X0275771Y0354733D02*
X0261241Y0354733D01*
X0260906Y0357132D02*
X0276106Y0357132D01*
X0274846Y0359530D02*
X0262167Y0359530D01*
X0262306Y0361929D02*
X0274706Y0361929D01*
X0275532Y0364327D02*
X0261480Y0364327D01*
X0260500Y0366726D02*
X0276512Y0366726D01*
X0275014Y0369124D02*
X0261999Y0369124D01*
X0262306Y0371523D02*
X0274706Y0371523D01*
X0275364Y0373921D02*
X0261648Y0373921D01*
X0260094Y0376320D02*
X0276918Y0376320D01*
X0275182Y0378718D02*
X0261831Y0378718D01*
X0262306Y0381117D02*
X0274706Y0381117D01*
X0275196Y0383515D02*
X0261817Y0383515D01*
X0260060Y0385914D02*
X0276952Y0385914D01*
X0275350Y0388312D02*
X0261662Y0388312D01*
X0262306Y0390711D02*
X0274706Y0390711D01*
X0275028Y0393109D02*
X0261985Y0393109D01*
X0260466Y0395508D02*
X0276546Y0395508D01*
X0283506Y0391100D02*
X0283506Y0381100D01*
X0283506Y0371100D01*
X0283506Y0361100D01*
X0283506Y0351100D01*
X0283506Y0303600D01*
X0326006Y0303600D01*
X0333342Y0299568D02*
X0348671Y0299568D01*
X0348207Y0297169D02*
X0331826Y0297169D01*
X0333273Y0294770D02*
X0347206Y0294770D01*
X0347206Y0292372D02*
X0333254Y0292372D01*
X0333406Y0293600D02*
X0326006Y0293600D01*
X0326006Y0293600D01*
X0318606Y0293600D01*
X0326006Y0293600D01*
X0333406Y0293600D01*
X0331768Y0289973D02*
X0348265Y0289973D01*
X0348613Y0287575D02*
X0333399Y0287575D01*
X0334664Y0285176D02*
X0347348Y0285176D01*
X0347206Y0282778D02*
X0334806Y0282778D01*
X0333983Y0280379D02*
X0348029Y0280379D01*
X0344040Y0277981D02*
X0331242Y0277981D01*
X0332983Y0275582D02*
X0341200Y0275582D01*
X0338802Y0273184D02*
X0333400Y0273184D01*
X0333406Y0273600D02*
X0326006Y0273600D01*
X0326006Y0273600D01*
X0318606Y0273600D01*
X0326006Y0273600D01*
X0333406Y0273600D01*
X0332494Y0270785D02*
X0336403Y0270785D01*
X0334005Y0268387D02*
X0332588Y0268387D01*
X0326006Y0263600D02*
X0276006Y0263600D01*
X0221006Y0318600D01*
X0188506Y0318600D01*
X0113506Y0318600D01*
X0103506Y0308600D01*
X0093506Y0308600D01*
X0096241Y0302400D02*
X0097340Y0302400D01*
X0099618Y0303344D01*
X0100074Y0303800D01*
X0104461Y0303800D01*
X0106225Y0304531D01*
X0114095Y0312400D01*
X0117340Y0312400D01*
X0119618Y0313344D01*
X0120074Y0313800D01*
X0137338Y0313800D01*
X0135650Y0312112D01*
X0134706Y0309833D01*
X0134706Y0307367D01*
X0135650Y0305088D01*
X0137394Y0303344D01*
X0139673Y0302400D01*
X0147340Y0302400D01*
X0149618Y0303344D01*
X0150074Y0303800D01*
X0206518Y0303800D01*
X0226206Y0284112D01*
X0226206Y0282402D01*
X0223156Y0279352D01*
X0223156Y0272848D01*
X0227755Y0268250D01*
X0232068Y0268250D01*
X0249418Y0250900D01*
X0105495Y0250900D01*
X0102078Y0254316D01*
X0102306Y0254867D01*
X0102306Y0257333D01*
X0101362Y0259612D01*
X0099618Y0261356D01*
X0097340Y0262300D01*
X0089673Y0262300D01*
X0088706Y0261900D01*
X0088706Y0270000D01*
X0090217Y0270000D01*
X0093378Y0271309D01*
X0095797Y0273728D01*
X0097106Y0276889D01*
X0097106Y0280311D01*
X0095797Y0283472D01*
X0093378Y0285891D01*
X0090217Y0287200D01*
X0088706Y0287200D01*
X0088706Y0290000D01*
X0090217Y0290000D01*
X0093378Y0291309D01*
X0095797Y0293728D01*
X0097106Y0296889D01*
X0097106Y0300311D01*
X0096241Y0302400D01*
X0096421Y0301966D02*
X0208352Y0301966D01*
X0210751Y0299568D02*
X0194037Y0299568D01*
X0193222Y0300383D02*
X0190162Y0301650D01*
X0186850Y0301650D01*
X0183791Y0300383D01*
X0181449Y0298041D01*
X0180181Y0294981D01*
X0180181Y0282219D01*
X0181449Y0279159D01*
X0183791Y0276817D01*
X0186850Y0275550D01*
X0190162Y0275550D01*
X0193222Y0276817D01*
X0195564Y0279159D01*
X0196831Y0282219D01*
X0196831Y0294981D01*
X0195564Y0298041D01*
X0193222Y0300383D01*
X0195925Y0297169D02*
X0213149Y0297169D01*
X0215548Y0294770D02*
X0196831Y0294770D01*
X0196831Y0292372D02*
X0217946Y0292372D01*
X0220345Y0289973D02*
X0196831Y0289973D01*
X0196831Y0287575D02*
X0222743Y0287575D01*
X0225142Y0285176D02*
X0196831Y0285176D01*
X0196831Y0282778D02*
X0226206Y0282778D01*
X0224184Y0280379D02*
X0218349Y0280379D01*
X0219956Y0278772D02*
X0216178Y0282550D01*
X0213506Y0282550D01*
X0210835Y0282550D01*
X0207056Y0278772D01*
X0207056Y0276100D01*
X0207056Y0273428D01*
X0210835Y0269650D01*
X0213506Y0269650D01*
X0213506Y0276100D01*
X0213506Y0276100D01*
X0207056Y0276100D01*
X0213506Y0276100D01*
X0213506Y0282550D01*
X0213506Y0276100D01*
X0213506Y0276100D01*
X0213506Y0276100D01*
X0213506Y0269650D01*
X0216178Y0269650D01*
X0219956Y0273428D01*
X0219956Y0276100D01*
X0219956Y0278772D01*
X0219956Y0277981D02*
X0223156Y0277981D01*
X0223156Y0275582D02*
X0219956Y0275582D01*
X0219956Y0276100D02*
X0213506Y0276100D01*
X0219956Y0276100D01*
X0219712Y0273184D02*
X0223156Y0273184D01*
X0225219Y0270785D02*
X0217313Y0270785D01*
X0213506Y0270785D02*
X0213506Y0270785D01*
X0213506Y0273184D02*
X0213506Y0273184D01*
X0213506Y0275582D02*
X0213506Y0275582D01*
X0213506Y0276100D02*
X0213506Y0276100D01*
X0213506Y0277981D02*
X0213506Y0277981D01*
X0213506Y0280379D02*
X0213506Y0280379D01*
X0208664Y0280379D02*
X0196069Y0280379D01*
X0194386Y0277981D02*
X0207056Y0277981D01*
X0207056Y0275582D02*
X0190240Y0275582D01*
X0186772Y0275582D02*
X0170240Y0275582D01*
X0170162Y0275550D02*
X0173222Y0276817D01*
X0175564Y0279159D01*
X0176831Y0282219D01*
X0176831Y0294981D01*
X0175564Y0298041D01*
X0173222Y0300383D01*
X0170162Y0301650D01*
X0166850Y0301650D01*
X0163791Y0300383D01*
X0161449Y0298041D01*
X0160181Y0294981D01*
X0160181Y0282219D01*
X0161449Y0279159D01*
X0163791Y0276817D01*
X0166850Y0275550D01*
X0170162Y0275550D01*
X0166772Y0275582D02*
X0150240Y0275582D01*
X0150162Y0275550D02*
X0153222Y0276817D01*
X0155564Y0279159D01*
X0156831Y0282219D01*
X0156831Y0294981D01*
X0155564Y0298041D01*
X0153222Y0300383D01*
X0150162Y0301650D01*
X0146850Y0301650D01*
X0143791Y0300383D01*
X0141449Y0298041D01*
X0140181Y0294981D01*
X0140181Y0282219D01*
X0141449Y0279159D01*
X0143791Y0276817D01*
X0146850Y0275550D01*
X0150162Y0275550D01*
X0146772Y0275582D02*
X0096565Y0275582D01*
X0097106Y0277981D02*
X0142627Y0277981D01*
X0140943Y0280379D02*
X0097078Y0280379D01*
X0096084Y0282778D02*
X0140181Y0282778D01*
X0140181Y0285176D02*
X0094092Y0285176D01*
X0088706Y0287575D02*
X0140181Y0287575D01*
X0140181Y0289973D02*
X0088706Y0289973D01*
X0094441Y0292372D02*
X0140181Y0292372D01*
X0140181Y0294770D02*
X0096229Y0294770D01*
X0097106Y0297169D02*
X0141088Y0297169D01*
X0142975Y0299568D02*
X0097106Y0299568D01*
X0105824Y0304365D02*
X0136374Y0304365D01*
X0134956Y0306763D02*
X0108458Y0306763D01*
X0110856Y0309162D02*
X0134706Y0309162D01*
X0135422Y0311560D02*
X0113255Y0311560D01*
X0104475Y0316357D02*
X0088706Y0316357D01*
X0088706Y0318756D02*
X0104706Y0318756D01*
X0105253Y0321154D02*
X0088706Y0321154D01*
X0088706Y0323553D02*
X0107091Y0323553D01*
X0107544Y0328350D02*
X0135335Y0328350D01*
X0134706Y0330748D02*
X0109943Y0330748D01*
X0112341Y0333147D02*
X0135043Y0333147D01*
X0136583Y0335545D02*
X0118897Y0335545D01*
X0119922Y0323553D02*
X0184406Y0323553D01*
X0192607Y0323553D02*
X0278706Y0323553D01*
X0278706Y0325951D02*
X0149726Y0325951D01*
X0151678Y0328350D02*
X0278706Y0328350D01*
X0278706Y0330748D02*
X0152306Y0330748D01*
X0151969Y0333147D02*
X0278706Y0333147D01*
X0278706Y0335545D02*
X0150429Y0335545D01*
X0137287Y0325951D02*
X0099726Y0325951D01*
X0099371Y0313959D02*
X0102077Y0313959D01*
X0143506Y0308600D02*
X0208506Y0308600D01*
X0231006Y0286100D01*
X0231006Y0276100D01*
X0253506Y0253600D01*
X0326006Y0253600D01*
X0346006Y0273600D01*
X0356006Y0273600D01*
X0361006Y0273600D01*
X0371006Y0263600D01*
X0391006Y0263600D01*
X0397206Y0263590D02*
X0631206Y0263590D01*
X0631206Y0265988D02*
X0397206Y0265988D01*
X0394988Y0268387D02*
X0631206Y0268387D01*
X0631206Y0270785D02*
X0370609Y0270785D01*
X0368211Y0273184D02*
X0631206Y0273184D01*
X0631206Y0275582D02*
X0365812Y0275582D01*
X0369155Y0277981D02*
X0631206Y0277981D01*
X0631206Y0280379D02*
X0371554Y0280379D01*
X0372206Y0282778D02*
X0631206Y0282778D01*
X0631206Y0285176D02*
X0372206Y0285176D01*
X0370799Y0287575D02*
X0631206Y0287575D01*
X0631206Y0289973D02*
X0369168Y0289973D01*
X0370806Y0292372D02*
X0631206Y0292372D01*
X0631206Y0294770D02*
X0370806Y0294770D01*
X0370806Y0293600D02*
X0366006Y0293600D01*
X0366006Y0298400D01*
X0366006Y0293600D01*
X0366006Y0293600D01*
X0366006Y0293600D01*
X0370806Y0293600D01*
X0369226Y0297169D02*
X0631206Y0297169D01*
X0631206Y0299568D02*
X0363342Y0299568D01*
X0364640Y0301966D02*
X0631206Y0301966D01*
X0631206Y0304365D02*
X0364806Y0304365D01*
X0364007Y0306763D02*
X0631206Y0306763D01*
X0631206Y0309162D02*
X0362936Y0309162D01*
X0364472Y0311560D02*
X0631206Y0311560D01*
X0631206Y0313959D02*
X0364806Y0313959D01*
X0364175Y0316357D02*
X0631206Y0316357D01*
X0631206Y0318756D02*
X0362219Y0318756D01*
X0349794Y0318756D02*
X0332219Y0318756D01*
X0334175Y0316357D02*
X0347837Y0316357D01*
X0347206Y0313959D02*
X0334806Y0313959D01*
X0334472Y0311560D02*
X0347540Y0311560D01*
X0349077Y0309162D02*
X0332936Y0309162D01*
X0334007Y0306763D02*
X0348006Y0306763D01*
X0347206Y0304365D02*
X0334806Y0304365D01*
X0334640Y0301966D02*
X0347372Y0301966D01*
X0366006Y0297169D02*
X0366006Y0297169D01*
X0366006Y0294770D02*
X0366006Y0294770D01*
X0349425Y0268387D02*
X0347581Y0268387D01*
X0347685Y0265988D02*
X0345183Y0265988D01*
X0347206Y0263590D02*
X0342784Y0263590D01*
X0340386Y0261191D02*
X0347693Y0261191D01*
X0349445Y0258793D02*
X0337987Y0258793D01*
X0335589Y0256394D02*
X0347853Y0256394D01*
X0347206Y0253996D02*
X0334806Y0253996D01*
X0334488Y0251597D02*
X0347525Y0251597D01*
X0349039Y0249199D02*
X0332973Y0249199D01*
X0326371Y0242003D02*
X0351472Y0242003D01*
X0351206Y0244402D02*
X0323973Y0244402D01*
X0323574Y0244800D02*
X0318438Y0244800D01*
X0314806Y0241168D01*
X0314806Y0236032D01*
X0318438Y0232400D01*
X0323574Y0232400D01*
X0327206Y0236032D01*
X0327206Y0241168D01*
X0323574Y0244800D01*
X0318040Y0244402D02*
X0269493Y0244402D01*
X0267094Y0246800D02*
X0351206Y0246800D01*
X0356006Y0243600D02*
X0361006Y0238600D01*
X0356030Y0234808D02*
X0325982Y0234808D01*
X0327206Y0237206D02*
X0354806Y0237206D01*
X0353213Y0239605D02*
X0327206Y0239605D01*
X0323584Y0232409D02*
X0358429Y0232409D01*
X0363584Y0232409D02*
X0631206Y0232409D01*
X0631206Y0230011D02*
X0283884Y0230011D01*
X0281485Y0232409D02*
X0318429Y0232409D01*
X0316030Y0234808D02*
X0279087Y0234808D01*
X0276688Y0237206D02*
X0314806Y0237206D01*
X0314806Y0239605D02*
X0274290Y0239605D01*
X0271891Y0242003D02*
X0315641Y0242003D01*
X0291079Y0222815D02*
X0386206Y0222815D01*
X0386206Y0225214D02*
X0288681Y0225214D01*
X0286282Y0227612D02*
X0388230Y0227612D01*
X0391006Y0227612D02*
X0391006Y0227612D01*
X0391006Y0225214D02*
X0391006Y0225214D01*
X0391006Y0222815D02*
X0391006Y0222815D01*
X0391006Y0220417D02*
X0391006Y0220417D01*
X0387401Y0220417D02*
X0293478Y0220417D01*
X0287097Y0213221D02*
X0204893Y0213221D01*
X0207855Y0210823D02*
X0289495Y0210823D01*
X0291894Y0208424D02*
X0235728Y0208424D01*
X0237385Y0206767D02*
X0233802Y0210350D01*
X0228210Y0210350D01*
X0224256Y0206396D01*
X0224256Y0200804D01*
X0226460Y0198600D01*
X0224256Y0196396D01*
X0224256Y0190804D01*
X0226460Y0188600D01*
X0224256Y0186396D01*
X0224256Y0180804D01*
X0227450Y0177610D01*
X0225656Y0175816D01*
X0225656Y0173600D01*
X0225656Y0171384D01*
X0228790Y0168250D01*
X0231006Y0168250D01*
X0231006Y0173600D01*
X0231006Y0173600D01*
X0225656Y0173600D01*
X0231006Y0173600D01*
X0231006Y0173600D01*
X0231006Y0168250D01*
X0233222Y0168250D01*
X0236356Y0171384D01*
X0236356Y0173600D01*
X0236356Y0175816D01*
X0234562Y0177610D01*
X0235752Y0178800D01*
X0259538Y0178800D01*
X0259738Y0178600D01*
X0257306Y0176168D01*
X0257306Y0171032D01*
X0258706Y0169632D01*
X0258706Y0164902D01*
X0255656Y0161852D01*
X0255656Y0155348D01*
X0260255Y0150750D01*
X0266758Y0150750D01*
X0271356Y0155348D01*
X0271356Y0161852D01*
X0268306Y0164902D01*
X0268306Y0169632D01*
X0269706Y0171032D01*
X0269706Y0176168D01*
X0267274Y0178600D01*
X0269706Y0181032D01*
X0269706Y0186168D01*
X0266074Y0189800D01*
X0260938Y0189800D01*
X0259538Y0188400D01*
X0244574Y0188400D01*
X0247206Y0191032D01*
X0247206Y0196168D01*
X0243784Y0199590D01*
X0245806Y0201612D01*
X0245806Y0203600D01*
X0245806Y0205588D01*
X0242995Y0208400D01*
X0241006Y0208400D01*
X0239018Y0208400D01*
X0237385Y0206767D01*
X0241006Y0206026D02*
X0241006Y0206026D01*
X0241006Y0208400D02*
X0241006Y0203600D01*
X0241006Y0203600D01*
X0241006Y0208400D01*
X0241006Y0203627D02*
X0241006Y0203627D01*
X0241006Y0203600D02*
X0245806Y0203600D01*
X0241006Y0203600D01*
X0241006Y0203600D01*
X0245806Y0203627D02*
X0296691Y0203627D01*
X0299090Y0201229D02*
X0245423Y0201229D01*
X0244544Y0198830D02*
X0301488Y0198830D01*
X0303887Y0196432D02*
X0246943Y0196432D01*
X0247206Y0194033D02*
X0306285Y0194033D01*
X0308684Y0191634D02*
X0247206Y0191634D01*
X0245410Y0189236D02*
X0260374Y0189236D01*
X0266638Y0189236D02*
X0300374Y0189236D01*
X0300938Y0189800D02*
X0297306Y0186168D01*
X0297306Y0181032D01*
X0298706Y0179632D01*
X0298706Y0177568D01*
X0297306Y0176168D01*
X0297306Y0171032D01*
X0300938Y0167400D01*
X0306074Y0167400D01*
X0309706Y0171032D01*
X0309706Y0176168D01*
X0308306Y0177568D01*
X0308306Y0179632D01*
X0309706Y0181032D01*
X0309706Y0186168D01*
X0306074Y0189800D01*
X0300938Y0189800D01*
X0297976Y0186837D02*
X0269037Y0186837D01*
X0269706Y0184439D02*
X0297306Y0184439D01*
X0297306Y0182040D02*
X0269706Y0182040D01*
X0268316Y0179642D02*
X0298696Y0179642D01*
X0298382Y0177243D02*
X0268631Y0177243D01*
X0269706Y0174845D02*
X0297306Y0174845D01*
X0297306Y0172446D02*
X0269706Y0172446D01*
X0268722Y0170048D02*
X0298290Y0170048D01*
X0300689Y0167649D02*
X0268306Y0167649D01*
X0268306Y0165251D02*
X0335067Y0165251D01*
X0332669Y0167649D02*
X0306324Y0167649D01*
X0308722Y0170048D02*
X0330270Y0170048D01*
X0327872Y0172446D02*
X0309706Y0172446D01*
X0309706Y0174845D02*
X0325473Y0174845D01*
X0323075Y0177243D02*
X0308631Y0177243D01*
X0308316Y0179642D02*
X0320676Y0179642D01*
X0318278Y0182040D02*
X0309706Y0182040D01*
X0309706Y0184439D02*
X0315879Y0184439D01*
X0313481Y0186837D02*
X0309037Y0186837D01*
X0311082Y0189236D02*
X0306638Y0189236D01*
X0303506Y0183600D02*
X0303506Y0173600D01*
X0322260Y0191634D02*
X0588706Y0191634D01*
X0588706Y0189236D02*
X0324659Y0189236D01*
X0327057Y0186837D02*
X0492456Y0186837D01*
X0490057Y0184439D02*
X0329456Y0184439D01*
X0331854Y0182040D02*
X0487659Y0182040D01*
X0485260Y0179642D02*
X0334253Y0179642D01*
X0336651Y0177243D02*
X0482862Y0177243D01*
X0480463Y0174845D02*
X0339050Y0174845D01*
X0341448Y0172446D02*
X0478064Y0172446D01*
X0475666Y0170048D02*
X0343847Y0170048D01*
X0346245Y0167649D02*
X0473267Y0167649D01*
X0470869Y0165251D02*
X0348644Y0165251D01*
X0351042Y0162852D02*
X0468470Y0162852D01*
X0466072Y0160454D02*
X0353441Y0160454D01*
X0355839Y0158055D02*
X0463673Y0158055D01*
X0461275Y0155657D02*
X0358238Y0155657D01*
X0360636Y0153258D02*
X0458876Y0153258D01*
X0456478Y0150860D02*
X0363035Y0150860D01*
X0365433Y0148461D02*
X0454079Y0148461D01*
X0451681Y0146063D02*
X0367832Y0146063D01*
X0370230Y0143664D02*
X0449282Y0143664D01*
X0446884Y0141266D02*
X0372629Y0141266D01*
X0375027Y0138867D02*
X0385051Y0138867D01*
X0388506Y0133600D02*
X0373506Y0133600D01*
X0261006Y0246100D01*
X0103506Y0246100D01*
X0093506Y0256100D01*
X0099783Y0261191D02*
X0107047Y0261191D01*
X0107394Y0260844D02*
X0109673Y0259900D01*
X0117340Y0259900D01*
X0119618Y0260844D01*
X0121362Y0262588D01*
X0122306Y0264867D01*
X0122306Y0267333D01*
X0121362Y0269612D01*
X0119618Y0271356D01*
X0117340Y0272300D01*
X0109673Y0272300D01*
X0107394Y0271356D01*
X0105650Y0269612D01*
X0104706Y0267333D01*
X0104706Y0264867D01*
X0105650Y0262588D01*
X0107394Y0260844D01*
X0105235Y0263590D02*
X0088706Y0263590D01*
X0088706Y0265988D02*
X0104706Y0265988D01*
X0105143Y0268387D02*
X0088706Y0268387D01*
X0092113Y0270785D02*
X0106824Y0270785D01*
X0095252Y0273184D02*
X0207301Y0273184D01*
X0209699Y0270785D02*
X0120189Y0270785D01*
X0121870Y0268387D02*
X0227618Y0268387D01*
X0234330Y0265988D02*
X0122306Y0265988D01*
X0121777Y0263590D02*
X0236728Y0263590D01*
X0239127Y0261191D02*
X0119966Y0261191D01*
X0136224Y0257224D02*
X0136106Y0256478D01*
X0136106Y0256100D01*
X0136106Y0255722D01*
X0136224Y0254976D01*
X0136458Y0254257D01*
X0136801Y0253584D01*
X0137245Y0252973D01*
X0137779Y0252439D01*
X0138391Y0251995D01*
X0139064Y0251652D01*
X0139782Y0251418D01*
X0140529Y0251300D01*
X0143506Y0251300D01*
X0143506Y0256100D01*
X0143506Y0256100D01*
X0136106Y0256100D01*
X0143506Y0256100D01*
X0143506Y0260900D01*
X0140529Y0260900D01*
X0139782Y0260782D01*
X0139064Y0260548D01*
X0138391Y0260205D01*
X0137779Y0259761D01*
X0137245Y0259227D01*
X0136801Y0258616D01*
X0136458Y0257943D01*
X0136224Y0257224D01*
X0136106Y0256394D02*
X0102306Y0256394D01*
X0102399Y0253996D02*
X0136591Y0253996D01*
X0139231Y0251597D02*
X0104797Y0251597D01*
X0101702Y0258793D02*
X0136930Y0258793D01*
X0143506Y0258793D02*
X0143506Y0258793D01*
X0143506Y0260900D02*
X0143506Y0256100D01*
X0143506Y0256100D01*
X0143506Y0256100D01*
X0143506Y0251300D01*
X0146484Y0251300D01*
X0147230Y0251418D01*
X0147949Y0251652D01*
X0148622Y0251995D01*
X0149233Y0252439D01*
X0149768Y0252973D01*
X0150212Y0253584D01*
X0150555Y0254257D01*
X0150788Y0254976D01*
X0150906Y0255722D01*
X0150906Y0256100D01*
X0150906Y0256478D01*
X0150788Y0257224D01*
X0150555Y0257943D01*
X0150212Y0258616D01*
X0149768Y0259227D01*
X0149233Y0259761D01*
X0148622Y0260205D01*
X0147949Y0260548D01*
X0147230Y0260782D01*
X0146484Y0260900D01*
X0143506Y0260900D01*
X0143506Y0256394D02*
X0143506Y0256394D01*
X0143506Y0256100D02*
X0150906Y0256100D01*
X0143506Y0256100D01*
X0143506Y0256100D01*
X0143506Y0253996D02*
X0143506Y0253996D01*
X0143506Y0251597D02*
X0143506Y0251597D01*
X0147781Y0251597D02*
X0248721Y0251597D01*
X0246322Y0253996D02*
X0150421Y0253996D01*
X0150906Y0256394D02*
X0243924Y0256394D01*
X0241525Y0258793D02*
X0150083Y0258793D01*
X0140181Y0239605D02*
X0096160Y0239605D01*
X0097106Y0242003D02*
X0100854Y0242003D01*
X0098416Y0244402D02*
X0097106Y0244402D01*
X0094275Y0237206D02*
X0140181Y0237206D01*
X0140181Y0234808D02*
X0088706Y0234808D01*
X0088706Y0232409D02*
X0140181Y0232409D01*
X0140181Y0230011D02*
X0094258Y0230011D01*
X0096153Y0227612D02*
X0140181Y0227612D01*
X0141012Y0225214D02*
X0097106Y0225214D01*
X0097106Y0222815D02*
X0142793Y0222815D01*
X0154901Y0220417D02*
X0096496Y0220417D01*
X0095087Y0218018D02*
X0157300Y0218018D01*
X0159698Y0215620D02*
X0119408Y0215620D01*
X0118682Y0216346D02*
X0121252Y0213776D01*
X0122643Y0210417D01*
X0122643Y0206783D01*
X0121252Y0203424D01*
X0118682Y0200854D01*
X0115324Y0199463D01*
X0111689Y0199463D01*
X0108331Y0200854D01*
X0105760Y0203424D01*
X0104369Y0206783D01*
X0104369Y0210417D01*
X0105760Y0213776D01*
X0108331Y0216346D01*
X0111689Y0217737D01*
X0115324Y0217737D01*
X0118682Y0216346D01*
X0121482Y0213221D02*
X0162097Y0213221D01*
X0164495Y0210823D02*
X0122475Y0210823D01*
X0122643Y0208424D02*
X0166894Y0208424D01*
X0169293Y0206026D02*
X0122330Y0206026D01*
X0121336Y0203627D02*
X0194256Y0203627D01*
X0194256Y0201229D02*
X0119057Y0201229D01*
X0107956Y0201229D02*
X0088706Y0201229D01*
X0088706Y0203627D02*
X0105676Y0203627D01*
X0104683Y0206026D02*
X0088706Y0206026D01*
X0088706Y0208424D02*
X0104369Y0208424D01*
X0104537Y0210823D02*
X0088706Y0210823D01*
X0088706Y0213221D02*
X0105531Y0213221D01*
X0107604Y0215620D02*
X0091713Y0215620D01*
X0088706Y0198830D02*
X0196230Y0198830D01*
X0201006Y0193600D02*
X0151006Y0193600D01*
X0146006Y0188600D01*
X0133506Y0188600D01*
X0128656Y0184439D02*
X0088706Y0184439D01*
X0088706Y0186837D02*
X0127340Y0186837D01*
X0127135Y0189236D02*
X0088706Y0189236D01*
X0088706Y0191634D02*
X0127867Y0191634D01*
X0129973Y0194033D02*
X0088706Y0194033D01*
X0088706Y0196432D02*
X0147050Y0196432D01*
X0142671Y0194033D02*
X0137040Y0194033D01*
X0128035Y0182040D02*
X0088706Y0182040D01*
X0088706Y0179642D02*
X0127135Y0179642D01*
X0127172Y0177243D02*
X0116515Y0177243D01*
X0115324Y0177737D02*
X0111689Y0177737D01*
X0108331Y0176346D01*
X0105760Y0173776D01*
X0104369Y0170417D01*
X0104369Y0166783D01*
X0105760Y0163424D01*
X0108331Y0160854D01*
X0110755Y0159850D01*
X0108331Y0158846D01*
X0105760Y0156276D01*
X0104369Y0152917D01*
X0104369Y0149283D01*
X0105760Y0145924D01*
X0108331Y0143354D01*
X0111689Y0141963D01*
X0115324Y0141963D01*
X0118682Y0143354D01*
X0121252Y0145924D01*
X0122643Y0149283D01*
X0122643Y0152917D01*
X0121252Y0156276D01*
X0118682Y0158846D01*
X0116258Y0159850D01*
X0118682Y0160854D01*
X0121252Y0163424D01*
X0122643Y0166783D01*
X0122643Y0170417D01*
X0121252Y0173776D01*
X0118682Y0176346D01*
X0115324Y0177737D01*
X0110497Y0177243D02*
X0088706Y0177243D01*
X0088706Y0174845D02*
X0106830Y0174845D01*
X0105210Y0172446D02*
X0088706Y0172446D01*
X0088706Y0170048D02*
X0104369Y0170048D01*
X0104369Y0167649D02*
X0088706Y0167649D01*
X0088706Y0165251D02*
X0105004Y0165251D01*
X0106332Y0162852D02*
X0088706Y0162852D01*
X0088706Y0160454D02*
X0109297Y0160454D01*
X0107540Y0158055D02*
X0088706Y0158055D01*
X0088706Y0155657D02*
X0105504Y0155657D01*
X0104510Y0153258D02*
X0088706Y0153258D01*
X0088706Y0150860D02*
X0104369Y0150860D01*
X0104709Y0148461D02*
X0088706Y0148461D01*
X0088706Y0146063D02*
X0105703Y0146063D01*
X0108020Y0143664D02*
X0088706Y0143664D01*
X0088706Y0141266D02*
X0194256Y0141266D01*
X0196525Y0143664D02*
X0118992Y0143664D01*
X0121310Y0146063D02*
X0236755Y0146063D01*
X0235488Y0143664D02*
X0239154Y0143664D01*
X0234357Y0148461D02*
X0122303Y0148461D01*
X0122643Y0150860D02*
X0197478Y0150860D01*
X0198438Y0149900D02*
X0203574Y0149900D01*
X0207206Y0153532D01*
X0207206Y0158668D01*
X0203574Y0162300D01*
X0198438Y0162300D01*
X0195016Y0158878D01*
X0192995Y0160900D01*
X0191006Y0160900D01*
X0189018Y0160900D01*
X0186206Y0158088D01*
X0186206Y0156100D01*
X0186206Y0154112D01*
X0189018Y0151300D01*
X0191006Y0151300D01*
X0191006Y0156100D01*
X0191006Y0156100D01*
X0186206Y0156100D01*
X0191006Y0156100D01*
X0191006Y0160900D01*
X0191006Y0156100D01*
X0191006Y0156100D01*
X0191006Y0156100D01*
X0191006Y0151300D01*
X0192995Y0151300D01*
X0195016Y0153322D01*
X0198438Y0149900D01*
X0195080Y0153258D02*
X0194953Y0153258D01*
X0191006Y0153258D02*
X0191006Y0153258D01*
X0191006Y0155657D02*
X0191006Y0155657D01*
X0191006Y0158055D02*
X0191006Y0158055D01*
X0191006Y0160454D02*
X0191006Y0160454D01*
X0188572Y0160454D02*
X0117716Y0160454D01*
X0119473Y0158055D02*
X0186206Y0158055D01*
X0186206Y0155657D02*
X0121509Y0155657D01*
X0122502Y0153258D02*
X0187060Y0153258D01*
X0193441Y0160454D02*
X0196592Y0160454D01*
X0197411Y0167649D02*
X0190806Y0167649D01*
X0190806Y0168600D02*
X0186006Y0168600D01*
X0190806Y0168600D01*
X0190806Y0170048D02*
X0195012Y0170048D01*
X0194256Y0172446D02*
X0188948Y0172446D01*
X0191019Y0174845D02*
X0194256Y0174845D01*
X0195104Y0177243D02*
X0192206Y0177243D01*
X0186006Y0178600D02*
X0191006Y0183600D01*
X0201006Y0183600D01*
X0206156Y0183450D02*
X0206156Y0205733D01*
X0203140Y0208750D01*
X0203506Y0208600D02*
X0173506Y0208600D01*
X0148506Y0233600D01*
X0168478Y0220417D02*
X0279901Y0220417D01*
X0277503Y0222815D02*
X0194220Y0222815D01*
X0196001Y0225214D02*
X0275104Y0225214D01*
X0272706Y0227612D02*
X0196831Y0227612D01*
X0196831Y0230011D02*
X0270307Y0230011D01*
X0267909Y0232409D02*
X0196831Y0232409D01*
X0196831Y0234808D02*
X0265510Y0234808D01*
X0263112Y0237206D02*
X0196831Y0237206D01*
X0196831Y0239605D02*
X0260713Y0239605D01*
X0282300Y0218018D02*
X0170876Y0218018D01*
X0173275Y0215620D02*
X0284698Y0215620D01*
X0294293Y0206026D02*
X0245369Y0206026D01*
X0226284Y0208424D02*
X0210237Y0208424D01*
X0210956Y0206026D02*
X0224256Y0206026D01*
X0224256Y0203627D02*
X0210956Y0203627D01*
X0210956Y0201229D02*
X0224256Y0201229D01*
X0226230Y0198830D02*
X0210956Y0198830D01*
X0210956Y0196432D02*
X0224292Y0196432D01*
X0224256Y0194033D02*
X0210956Y0194033D01*
X0210956Y0191634D02*
X0224256Y0191634D01*
X0225824Y0189236D02*
X0210956Y0189236D01*
X0210956Y0186837D02*
X0224698Y0186837D01*
X0224256Y0184439D02*
X0211956Y0184439D01*
X0214354Y0182040D02*
X0224256Y0182040D01*
X0225418Y0179642D02*
X0216753Y0179642D01*
X0219151Y0177243D02*
X0227084Y0177243D01*
X0225656Y0174845D02*
X0221550Y0174845D01*
X0223948Y0172446D02*
X0225656Y0172446D01*
X0226347Y0170048D02*
X0226992Y0170048D01*
X0228745Y0167649D02*
X0258706Y0167649D01*
X0258706Y0165251D02*
X0231144Y0165251D01*
X0233542Y0162852D02*
X0256657Y0162852D01*
X0255656Y0160454D02*
X0235941Y0160454D01*
X0238339Y0158055D02*
X0255656Y0158055D01*
X0255656Y0155657D02*
X0240738Y0155657D01*
X0243136Y0153258D02*
X0257746Y0153258D01*
X0260145Y0150860D02*
X0245535Y0150860D01*
X0247933Y0148461D02*
X0351857Y0148461D01*
X0354255Y0146063D02*
X0250332Y0146063D01*
X0252640Y0143664D02*
X0356654Y0143664D01*
X0359052Y0141266D02*
X0253306Y0141266D01*
X0253306Y0138867D02*
X0361451Y0138867D01*
X0363849Y0136469D02*
X0253306Y0136469D01*
X0253306Y0134070D02*
X0366248Y0134070D01*
X0368646Y0131672D02*
X0253306Y0131672D01*
X0253306Y0129273D02*
X0371409Y0129273D01*
X0393233Y0129273D02*
X0434891Y0129273D01*
X0432493Y0126875D02*
X0253306Y0126875D01*
X0253732Y0124476D02*
X0430094Y0124476D01*
X0438874Y0119679D02*
X0574573Y0119679D01*
X0573033Y0122078D02*
X0441272Y0122078D01*
X0443671Y0124476D02*
X0572880Y0124476D01*
X0572806Y0123600D02*
X0581006Y0123600D01*
X0581006Y0123600D01*
X0572806Y0123600D01*
X0573958Y0126875D02*
X0557883Y0126875D01*
X0553506Y0133600D02*
X0536006Y0133600D01*
X0531565Y0129273D02*
X0448468Y0129273D01*
X0450866Y0131672D02*
X0529806Y0131672D01*
X0529806Y0134070D02*
X0453265Y0134070D01*
X0455663Y0136469D02*
X0530107Y0136469D01*
X0532505Y0138867D02*
X0458062Y0138867D01*
X0460460Y0141266D02*
X0550070Y0141266D01*
X0547672Y0138867D02*
X0539507Y0138867D01*
X0549422Y0146063D02*
X0465257Y0146063D01*
X0462859Y0143664D02*
X0577174Y0143664D01*
X0578438Y0142400D02*
X0583574Y0142400D01*
X0587206Y0146032D01*
X0587206Y0151168D01*
X0583574Y0154800D01*
X0578438Y0154800D01*
X0575016Y0151378D01*
X0572995Y0153400D01*
X0571006Y0153400D01*
X0569018Y0153400D01*
X0566206Y0150588D01*
X0566206Y0148600D01*
X0566206Y0146612D01*
X0569018Y0143800D01*
X0571006Y0143800D01*
X0571006Y0148600D01*
X0571006Y0148600D01*
X0566206Y0148600D01*
X0571006Y0148600D01*
X0571006Y0153400D01*
X0571006Y0148600D01*
X0571006Y0148600D01*
X0571006Y0148600D01*
X0571006Y0143800D01*
X0572995Y0143800D01*
X0575016Y0145822D01*
X0578438Y0142400D01*
X0573940Y0138867D02*
X0559341Y0138867D01*
X0556942Y0141266D02*
X0606206Y0141266D01*
X0606206Y0143664D02*
X0584839Y0143664D01*
X0587206Y0146063D02*
X0606206Y0146063D01*
X0606206Y0148461D02*
X0587206Y0148461D01*
X0587206Y0150860D02*
X0605042Y0150860D01*
X0604256Y0153258D02*
X0585116Y0153258D01*
X0576897Y0153258D02*
X0573136Y0153258D01*
X0571006Y0153258D02*
X0571006Y0153258D01*
X0568876Y0153258D02*
X0559956Y0153258D01*
X0559956Y0153772D02*
X0556178Y0157550D01*
X0553506Y0157550D01*
X0550835Y0157550D01*
X0547056Y0153772D01*
X0547056Y0151100D01*
X0547056Y0148428D01*
X0550835Y0144650D01*
X0553506Y0144650D01*
X0553506Y0151100D01*
X0553506Y0151100D01*
X0547056Y0151100D01*
X0553506Y0151100D01*
X0553506Y0157550D01*
X0553506Y0151100D01*
X0553506Y0151100D01*
X0553506Y0151100D01*
X0553506Y0144650D01*
X0556178Y0144650D01*
X0559956Y0148428D01*
X0559956Y0151100D01*
X0559956Y0153772D01*
X0558071Y0155657D02*
X0604345Y0155657D01*
X0605416Y0158055D02*
X0477250Y0158055D01*
X0474851Y0155657D02*
X0548941Y0155657D01*
X0547056Y0153258D02*
X0472453Y0153258D01*
X0470054Y0150860D02*
X0547056Y0150860D01*
X0547056Y0148461D02*
X0467656Y0148461D01*
X0479648Y0160454D02*
X0608707Y0160454D01*
X0608688Y0162852D02*
X0482047Y0162852D01*
X0484445Y0165251D02*
X0548254Y0165251D01*
X0545855Y0167649D02*
X0538824Y0167649D01*
X0533189Y0167649D02*
X0486844Y0167649D01*
X0489242Y0170048D02*
X0530790Y0170048D01*
X0529806Y0172446D02*
X0491641Y0172446D01*
X0494039Y0174845D02*
X0529806Y0174845D01*
X0530882Y0177243D02*
X0496438Y0177243D01*
X0536006Y0173600D02*
X0551006Y0173600D01*
X0553506Y0171100D01*
X0558759Y0165251D02*
X0606289Y0165251D01*
X0605656Y0167649D02*
X0561157Y0167649D01*
X0561356Y0170048D02*
X0605656Y0170048D01*
X0607787Y0172446D02*
X0561356Y0172446D01*
X0560863Y0174845D02*
X0616206Y0174845D01*
X0616206Y0177243D02*
X0558464Y0177243D01*
X0553506Y0155657D02*
X0553506Y0155657D01*
X0553506Y0153258D02*
X0553506Y0153258D01*
X0553506Y0151100D02*
X0559956Y0151100D01*
X0553506Y0151100D01*
X0553506Y0151100D01*
X0553506Y0150860D02*
X0553506Y0150860D01*
X0553506Y0148461D02*
X0553506Y0148461D01*
X0553506Y0146063D02*
X0553506Y0146063D01*
X0557591Y0146063D02*
X0566755Y0146063D01*
X0566206Y0148461D02*
X0559956Y0148461D01*
X0559956Y0150860D02*
X0566478Y0150860D01*
X0571006Y0150860D02*
X0571006Y0150860D01*
X0571006Y0148461D02*
X0571006Y0148461D01*
X0571006Y0146063D02*
X0571006Y0146063D01*
X0581006Y0133600D02*
X0553506Y0133600D01*
X0549130Y0126875D02*
X0446069Y0126875D01*
X0439688Y0134070D02*
X0394087Y0134070D01*
X0394087Y0131672D02*
X0437290Y0131672D01*
X0442087Y0136469D02*
X0394016Y0136469D01*
X0391961Y0138867D02*
X0444485Y0138867D01*
X0349458Y0150860D02*
X0266868Y0150860D01*
X0269266Y0153258D02*
X0347060Y0153258D01*
X0344661Y0155657D02*
X0271356Y0155657D01*
X0271356Y0158055D02*
X0342263Y0158055D01*
X0339864Y0160454D02*
X0271356Y0160454D01*
X0270355Y0162852D02*
X0337466Y0162852D01*
X0319861Y0194033D02*
X0588706Y0194033D01*
X0598306Y0194033D02*
X0616206Y0194033D01*
X0616206Y0191634D02*
X0598306Y0191634D01*
X0598306Y0189236D02*
X0616206Y0189236D01*
X0616206Y0186837D02*
X0607057Y0186837D01*
X0608306Y0185588D02*
X0605495Y0188400D01*
X0603506Y0188400D01*
X0603506Y0183600D01*
X0603506Y0183600D01*
X0603506Y0183600D01*
X0603506Y0178800D01*
X0605495Y0178800D01*
X0608306Y0181612D01*
X0608306Y0183600D01*
X0608306Y0185588D01*
X0608306Y0184439D02*
X0616206Y0184439D01*
X0616206Y0182040D02*
X0608306Y0182040D01*
X0608306Y0183600D02*
X0603506Y0183600D01*
X0608306Y0183600D01*
X0606336Y0179642D02*
X0616206Y0179642D01*
X0603506Y0179642D02*
X0603506Y0179642D01*
X0603506Y0182040D02*
X0603506Y0182040D01*
X0603506Y0183600D02*
X0603506Y0183600D01*
X0603506Y0184439D02*
X0603506Y0184439D01*
X0603506Y0186837D02*
X0603506Y0186837D01*
X0599956Y0186837D02*
X0599037Y0186837D01*
X0598316Y0179642D02*
X0600676Y0179642D01*
X0611006Y0172446D02*
X0611006Y0172446D01*
X0611006Y0170048D02*
X0611006Y0170048D01*
X0611006Y0168100D02*
X0616356Y0168100D01*
X0611006Y0168100D01*
X0611006Y0168100D01*
X0611006Y0167649D02*
X0611006Y0167649D01*
X0611006Y0165251D02*
X0611006Y0165251D01*
X0611006Y0162852D02*
X0611006Y0162852D01*
X0613325Y0162852D02*
X0622012Y0162852D01*
X0624445Y0160454D02*
X0613305Y0160454D01*
X0615723Y0165251D02*
X0619579Y0165251D01*
X0617147Y0167649D02*
X0616356Y0167649D01*
X0616206Y0172446D02*
X0614226Y0172446D01*
X0621006Y0171100D02*
X0621006Y0201100D01*
X0611006Y0211100D01*
X0593506Y0211100D01*
X0579006Y0211600D01*
X0571006Y0204100D01*
X0593506Y0221100D02*
X0593506Y0221100D01*
X0593506Y0222815D02*
X0593506Y0222815D01*
X0593506Y0225214D02*
X0593506Y0225214D01*
X0600915Y0206026D02*
X0609293Y0206026D01*
X0611691Y0203627D02*
X0602603Y0203627D01*
X0603106Y0201229D02*
X0614090Y0201229D01*
X0616206Y0198830D02*
X0602710Y0198830D01*
X0601172Y0196432D02*
X0616206Y0196432D01*
X0620980Y0170611D02*
X0628224Y0163469D01*
X0611006Y0154100D02*
X0611006Y0143600D01*
X0611006Y0133600D01*
X0603940Y0138867D02*
X0588073Y0138867D01*
X0589962Y0136469D02*
X0602051Y0136469D01*
X0601406Y0134070D02*
X0590606Y0134070D01*
X0590351Y0131672D02*
X0601661Y0131672D01*
X0602999Y0129273D02*
X0589013Y0129273D01*
X0588055Y0126875D02*
X0603958Y0126875D01*
X0602880Y0124476D02*
X0589132Y0124476D01*
X0589206Y0123600D02*
X0581006Y0123600D01*
X0581006Y0123600D01*
X0589206Y0123600D01*
X0588979Y0122078D02*
X0603033Y0122078D01*
X0604573Y0119679D02*
X0587439Y0119679D01*
X0586977Y0107687D02*
X0605036Y0107687D01*
X0628506Y0103600D02*
X0628506Y0103600D01*
X0628506Y0102890D02*
X0628506Y0102890D01*
X0628506Y0100491D02*
X0628506Y0100491D01*
X0633760Y0110085D02*
X0667970Y0110085D01*
X0665572Y0112484D02*
X0634706Y0112484D01*
X0634706Y0114882D02*
X0664606Y0114882D01*
X0664606Y0117281D02*
X0651309Y0117281D01*
X0653707Y0119679D02*
X0665534Y0119679D01*
X0665978Y0122078D02*
X0654956Y0122078D01*
X0654956Y0124476D02*
X0664606Y0124476D01*
X0664606Y0126875D02*
X0654353Y0126875D01*
X0651955Y0129273D02*
X0665129Y0129273D01*
X0666384Y0131672D02*
X0660358Y0131672D01*
X0662861Y0134070D02*
X0664606Y0134070D01*
X0664606Y0136469D02*
X0663306Y0136469D01*
X0663306Y0138867D02*
X0664723Y0138867D01*
X0663306Y0141266D02*
X0666790Y0141266D01*
X0664606Y0143664D02*
X0663306Y0143664D01*
X0663306Y0146063D02*
X0664606Y0146063D01*
X0664606Y0148461D02*
X0663306Y0148461D01*
X0663306Y0150860D02*
X0666715Y0150860D01*
X0664797Y0153258D02*
X0663306Y0153258D01*
X0663306Y0155657D02*
X0664606Y0155657D01*
X0664606Y0158055D02*
X0663306Y0158055D01*
X0663306Y0160454D02*
X0666309Y0160454D01*
X0665203Y0162852D02*
X0663306Y0162852D01*
X0663306Y0165251D02*
X0664606Y0165251D01*
X0664606Y0167649D02*
X0663306Y0167649D01*
X0663306Y0170048D02*
X0665903Y0170048D01*
X0665609Y0172446D02*
X0663306Y0172446D01*
X0663306Y0174845D02*
X0664606Y0174845D01*
X0664606Y0177243D02*
X0663306Y0177243D01*
X0663306Y0179642D02*
X0665497Y0179642D01*
X0666015Y0182040D02*
X0663306Y0182040D01*
X0663306Y0184439D02*
X0664606Y0184439D01*
X0664606Y0186837D02*
X0663306Y0186837D01*
X0663306Y0189236D02*
X0665091Y0189236D01*
X0666421Y0191634D02*
X0663306Y0191634D01*
X0663306Y0194033D02*
X0664606Y0194033D01*
X0664606Y0196432D02*
X0663306Y0196432D01*
X0663306Y0198830D02*
X0664685Y0198830D01*
X0663306Y0201229D02*
X0666827Y0201229D01*
X0664606Y0203627D02*
X0663306Y0203627D01*
X0663306Y0206026D02*
X0664606Y0206026D01*
X0664606Y0208424D02*
X0663306Y0208424D01*
X0663306Y0210823D02*
X0666678Y0210823D01*
X0664834Y0213221D02*
X0663306Y0213221D01*
X0663306Y0215620D02*
X0664606Y0215620D01*
X0664606Y0218018D02*
X0663306Y0218018D01*
X0663306Y0220417D02*
X0666272Y0220417D01*
X0665240Y0222815D02*
X0663306Y0222815D01*
X0663306Y0225214D02*
X0664606Y0225214D01*
X0664606Y0227612D02*
X0663306Y0227612D01*
X0663306Y0230011D02*
X0665866Y0230011D01*
X0665646Y0232409D02*
X0663306Y0232409D01*
X0663306Y0234808D02*
X0664606Y0234808D01*
X0664606Y0237206D02*
X0663306Y0237206D01*
X0663306Y0239605D02*
X0665460Y0239605D01*
X0666052Y0242003D02*
X0663306Y0242003D01*
X0663306Y0244402D02*
X0664606Y0244402D01*
X0664606Y0246800D02*
X0663306Y0246800D01*
X0663306Y0249199D02*
X0665054Y0249199D01*
X0666458Y0251597D02*
X0663306Y0251597D01*
X0663306Y0253996D02*
X0664606Y0253996D01*
X0664606Y0256394D02*
X0663306Y0256394D01*
X0663306Y0258793D02*
X0664648Y0258793D01*
X0663306Y0261191D02*
X0666864Y0261191D01*
X0664606Y0263590D02*
X0663306Y0263590D01*
X0663306Y0265988D02*
X0664606Y0265988D01*
X0664606Y0268387D02*
X0663306Y0268387D01*
X0663306Y0270785D02*
X0666641Y0270785D01*
X0664871Y0273184D02*
X0663306Y0273184D01*
X0663306Y0275582D02*
X0664606Y0275582D01*
X0664606Y0277981D02*
X0663306Y0277981D01*
X0663306Y0280379D02*
X0666235Y0280379D01*
X0665277Y0282778D02*
X0663306Y0282778D01*
X0663306Y0285176D02*
X0664606Y0285176D01*
X0664606Y0287575D02*
X0663306Y0287575D01*
X0663306Y0289973D02*
X0665829Y0289973D01*
X0665683Y0292372D02*
X0663306Y0292372D01*
X0663306Y0294770D02*
X0664606Y0294770D01*
X0664606Y0297169D02*
X0663306Y0297169D01*
X0663306Y0299568D02*
X0665423Y0299568D01*
X0666089Y0301966D02*
X0663306Y0301966D01*
X0663306Y0304365D02*
X0664606Y0304365D01*
X0664606Y0306763D02*
X0663306Y0306763D01*
X0663306Y0309162D02*
X0665017Y0309162D01*
X0666495Y0311560D02*
X0663306Y0311560D01*
X0663306Y0313959D02*
X0664606Y0313959D01*
X0664606Y0316357D02*
X0663306Y0316357D01*
X0663306Y0318756D02*
X0664611Y0318756D01*
X0663306Y0321154D02*
X0666901Y0321154D01*
X0664606Y0323553D02*
X0663306Y0323553D01*
X0663306Y0325951D02*
X0664606Y0325951D01*
X0664606Y0328350D02*
X0663306Y0328350D01*
X0663306Y0330748D02*
X0666603Y0330748D01*
X0664909Y0333147D02*
X0663306Y0333147D01*
X0663306Y0335545D02*
X0664606Y0335545D01*
X0664606Y0337944D02*
X0663306Y0337944D01*
X0663306Y0340342D02*
X0666198Y0340342D01*
X0665315Y0342741D02*
X0663306Y0342741D01*
X0663306Y0345139D02*
X0664606Y0345139D01*
X0664606Y0347538D02*
X0663306Y0347538D01*
X0663306Y0349936D02*
X0665792Y0349936D01*
X0665721Y0352335D02*
X0663306Y0352335D01*
X0663306Y0354733D02*
X0664606Y0354733D01*
X0664606Y0357132D02*
X0663306Y0357132D01*
X0663306Y0359530D02*
X0665386Y0359530D01*
X0666127Y0361929D02*
X0663306Y0361929D01*
X0663306Y0364327D02*
X0664606Y0364327D01*
X0664606Y0366726D02*
X0663306Y0366726D01*
X0663306Y0369124D02*
X0664980Y0369124D01*
X0666532Y0371523D02*
X0663306Y0371523D01*
X0675480Y0371523D02*
X0686532Y0371523D01*
X0684980Y0369124D02*
X0677033Y0369124D01*
X0677406Y0366726D02*
X0684606Y0366726D01*
X0684606Y0364327D02*
X0677406Y0364327D01*
X0675886Y0361929D02*
X0686127Y0361929D01*
X0685386Y0359530D02*
X0676627Y0359530D01*
X0677406Y0357132D02*
X0684606Y0357132D01*
X0684606Y0354733D02*
X0677406Y0354733D01*
X0676292Y0352335D02*
X0685721Y0352335D01*
X0685792Y0349936D02*
X0676221Y0349936D01*
X0677406Y0347538D02*
X0684606Y0347538D01*
X0684606Y0345139D02*
X0677406Y0345139D01*
X0676698Y0342741D02*
X0685315Y0342741D01*
X0686198Y0340342D02*
X0675815Y0340342D01*
X0677406Y0337944D02*
X0684606Y0337944D01*
X0684606Y0335545D02*
X0677406Y0335545D01*
X0677104Y0333147D02*
X0684909Y0333147D01*
X0686603Y0330748D02*
X0675409Y0330748D01*
X0677406Y0328350D02*
X0684606Y0328350D01*
X0684606Y0325951D02*
X0677406Y0325951D01*
X0677406Y0323553D02*
X0684606Y0323553D01*
X0686901Y0321154D02*
X0675111Y0321154D01*
X0677402Y0318756D02*
X0684611Y0318756D01*
X0684606Y0316357D02*
X0677406Y0316357D01*
X0677406Y0313959D02*
X0684606Y0313959D01*
X0686495Y0311560D02*
X0675517Y0311560D01*
X0676996Y0309162D02*
X0685017Y0309162D01*
X0684606Y0306763D02*
X0677406Y0306763D01*
X0677406Y0304365D02*
X0684606Y0304365D01*
X0686089Y0301966D02*
X0675923Y0301966D01*
X0676590Y0299568D02*
X0685423Y0299568D01*
X0684606Y0297169D02*
X0677406Y0297169D01*
X0677406Y0294770D02*
X0684606Y0294770D01*
X0685683Y0292372D02*
X0676329Y0292372D01*
X0676184Y0289973D02*
X0685829Y0289973D01*
X0684606Y0287575D02*
X0677406Y0287575D01*
X0677406Y0285176D02*
X0684606Y0285176D01*
X0685277Y0282778D02*
X0676735Y0282778D01*
X0675778Y0280379D02*
X0686235Y0280379D01*
X0684606Y0277981D02*
X0677406Y0277981D01*
X0677406Y0275582D02*
X0684606Y0275582D01*
X0684871Y0273184D02*
X0677141Y0273184D01*
X0675372Y0270785D02*
X0686641Y0270785D01*
X0684606Y0268387D02*
X0677406Y0268387D01*
X0677406Y0265988D02*
X0684606Y0265988D01*
X0684606Y0263590D02*
X0677406Y0263590D01*
X0675149Y0261191D02*
X0686864Y0261191D01*
X0684648Y0258793D02*
X0677364Y0258793D01*
X0677406Y0256394D02*
X0684606Y0256394D01*
X0684606Y0253996D02*
X0677406Y0253996D01*
X0675555Y0251597D02*
X0686458Y0251597D01*
X0685054Y0249199D02*
X0676958Y0249199D01*
X0677406Y0246800D02*
X0684606Y0246800D01*
X0684606Y0244402D02*
X0677406Y0244402D01*
X0675960Y0242003D02*
X0686052Y0242003D01*
X0685460Y0239605D02*
X0676553Y0239605D01*
X0677406Y0237206D02*
X0684606Y0237206D01*
X0684606Y0234808D02*
X0677406Y0234808D01*
X0676366Y0232409D02*
X0685646Y0232409D01*
X0685866Y0230011D02*
X0676147Y0230011D01*
X0677406Y0227612D02*
X0684606Y0227612D01*
X0684606Y0225214D02*
X0677406Y0225214D01*
X0676772Y0222815D02*
X0685240Y0222815D01*
X0686272Y0220417D02*
X0675741Y0220417D01*
X0677406Y0218018D02*
X0684606Y0218018D01*
X0684606Y0215620D02*
X0677406Y0215620D01*
X0677178Y0213221D02*
X0684834Y0213221D01*
X0686678Y0210823D02*
X0675335Y0210823D01*
X0677406Y0208424D02*
X0684606Y0208424D01*
X0684606Y0206026D02*
X0677406Y0206026D01*
X0677406Y0203627D02*
X0684606Y0203627D01*
X0686827Y0201229D02*
X0675186Y0201229D01*
X0677327Y0198830D02*
X0684685Y0198830D01*
X0684606Y0196432D02*
X0677406Y0196432D01*
X0677406Y0194033D02*
X0684606Y0194033D01*
X0686421Y0191634D02*
X0675592Y0191634D01*
X0676921Y0189236D02*
X0685091Y0189236D01*
X0684606Y0186837D02*
X0677406Y0186837D01*
X0677406Y0184439D02*
X0684606Y0184439D01*
X0686015Y0182040D02*
X0675998Y0182040D01*
X0676515Y0179642D02*
X0685497Y0179642D01*
X0684606Y0177243D02*
X0677406Y0177243D01*
X0677406Y0174845D02*
X0684606Y0174845D01*
X0685609Y0172446D02*
X0676404Y0172446D01*
X0676109Y0170048D02*
X0685903Y0170048D01*
X0684606Y0167649D02*
X0677406Y0167649D01*
X0677406Y0165251D02*
X0684606Y0165251D01*
X0685203Y0162852D02*
X0676810Y0162852D01*
X0675703Y0160454D02*
X0686309Y0160454D01*
X0684606Y0158055D02*
X0677406Y0158055D01*
X0677406Y0155657D02*
X0684606Y0155657D01*
X0684797Y0153258D02*
X0677216Y0153258D01*
X0675297Y0150860D02*
X0686715Y0150860D01*
X0684606Y0148461D02*
X0677406Y0148461D01*
X0677406Y0146063D02*
X0684606Y0146063D01*
X0684606Y0143664D02*
X0677406Y0143664D01*
X0675223Y0141266D02*
X0686790Y0141266D01*
X0684723Y0138867D02*
X0677290Y0138867D01*
X0677406Y0136469D02*
X0684606Y0136469D01*
X0684606Y0134070D02*
X0677406Y0134070D01*
X0675629Y0131672D02*
X0686384Y0131672D01*
X0685129Y0129273D02*
X0676884Y0129273D01*
X0677406Y0126875D02*
X0684606Y0126875D01*
X0684606Y0124476D02*
X0677406Y0124476D01*
X0676035Y0122078D02*
X0685978Y0122078D01*
X0685534Y0119679D02*
X0676478Y0119679D01*
X0677406Y0117281D02*
X0684606Y0117281D01*
X0684606Y0114882D02*
X0677406Y0114882D01*
X0676441Y0112484D02*
X0685572Y0112484D01*
X0687970Y0110085D02*
X0674042Y0110085D01*
X0685086Y0095694D02*
X0297389Y0095694D01*
X0294990Y0093296D02*
X0685211Y0093296D01*
X0685951Y0090897D02*
X0292592Y0090897D01*
X0281006Y0098600D02*
X0208506Y0098600D01*
X0205141Y0093296D02*
X0204470Y0093296D01*
X0196528Y0102890D02*
X0193505Y0102890D01*
X0186206Y0100491D02*
X0112998Y0100491D01*
X0113606Y0098093D02*
X0186206Y0098093D01*
X0187124Y0095694D02*
X0113606Y0095694D01*
X0111708Y0088499D02*
X0217151Y0088499D01*
X0224861Y0088499D02*
X0686921Y0088499D01*
X0686501Y0089114D02*
X0686501Y0089114D01*
X0636654Y0131672D02*
X0620351Y0131672D01*
X0620606Y0134070D02*
X0633748Y0134070D01*
X0631349Y0136469D02*
X0619962Y0136469D01*
X0631006Y0143600D02*
X0648506Y0143600D01*
X0652348Y0150860D02*
X0653706Y0150860D01*
X0575036Y0107687D02*
X0309381Y0107687D01*
X0292899Y0117281D02*
X0256356Y0117281D01*
X0256356Y0119679D02*
X0295297Y0119679D01*
X0296937Y0121319D02*
X0296937Y0121319D01*
X0297696Y0122078D02*
X0256130Y0122078D01*
X0255890Y0114882D02*
X0290500Y0114882D01*
X0288102Y0112484D02*
X0253491Y0112484D01*
X0248506Y0118600D02*
X0231006Y0118600D01*
X0224938Y0122078D02*
X0207075Y0122078D01*
X0206428Y0124476D02*
X0225584Y0124476D01*
X0224256Y0126875D02*
X0207756Y0126875D01*
X0207756Y0129273D02*
X0224256Y0129273D01*
X0224532Y0131672D02*
X0207480Y0131672D01*
X0206022Y0134070D02*
X0225990Y0134070D01*
X0224256Y0136469D02*
X0207756Y0136469D01*
X0207756Y0138867D02*
X0224256Y0138867D01*
X0224256Y0141266D02*
X0207756Y0141266D01*
X0205488Y0143664D02*
X0226525Y0143664D01*
X0231958Y0150860D02*
X0204534Y0150860D01*
X0206933Y0153258D02*
X0229560Y0153258D01*
X0227161Y0155657D02*
X0207206Y0155657D01*
X0207206Y0158055D02*
X0224763Y0158055D01*
X0222364Y0160454D02*
X0205421Y0160454D01*
X0204602Y0167649D02*
X0215169Y0167649D01*
X0217567Y0165251D02*
X0189445Y0165251D01*
X0186006Y0165251D02*
X0186006Y0165251D01*
X0186006Y0167649D02*
X0186006Y0167649D01*
X0186006Y0168600D02*
X0186006Y0168600D01*
X0182567Y0165251D02*
X0174445Y0165251D01*
X0175806Y0167649D02*
X0181206Y0167649D01*
X0181206Y0170048D02*
X0175806Y0170048D01*
X0175806Y0168600D02*
X0171006Y0168600D01*
X0171006Y0168600D01*
X0175806Y0168600D01*
X0173948Y0172446D02*
X0183065Y0172446D01*
X0186006Y0178600D02*
X0171006Y0178600D01*
X0156006Y0178600D01*
X0133506Y0178600D01*
X0131712Y0172446D02*
X0121803Y0172446D01*
X0122643Y0170048D02*
X0151206Y0170048D01*
X0151206Y0167649D02*
X0122643Y0167649D01*
X0122009Y0165251D02*
X0152567Y0165251D01*
X0156006Y0165251D02*
X0156006Y0165251D01*
X0156006Y0167649D02*
X0156006Y0167649D01*
X0156006Y0168600D02*
X0156006Y0168600D01*
X0160806Y0168600D01*
X0156006Y0168600D01*
X0159445Y0165251D02*
X0167567Y0165251D01*
X0166206Y0167649D02*
X0160806Y0167649D01*
X0160806Y0170048D02*
X0166206Y0170048D01*
X0168064Y0172446D02*
X0158948Y0172446D01*
X0153065Y0172446D02*
X0148621Y0172446D01*
X0143392Y0172446D02*
X0135300Y0172446D01*
X0128251Y0174845D02*
X0120183Y0174845D01*
X0120680Y0162852D02*
X0219966Y0162852D01*
X0212770Y0170048D02*
X0207000Y0170048D01*
X0207756Y0172446D02*
X0210372Y0172446D01*
X0207973Y0174845D02*
X0207756Y0174845D01*
X0206156Y0183450D02*
X0248506Y0141100D01*
X0248506Y0121100D01*
X0263506Y0158600D02*
X0263506Y0173600D01*
X0258382Y0177243D02*
X0234929Y0177243D01*
X0236356Y0174845D02*
X0257306Y0174845D01*
X0257306Y0172446D02*
X0236356Y0172446D01*
X0236356Y0173600D02*
X0231006Y0173600D01*
X0236356Y0173600D01*
X0235020Y0170048D02*
X0258290Y0170048D01*
X0263506Y0183600D02*
X0231006Y0183600D01*
X0231006Y0173600D02*
X0231006Y0173600D01*
X0231006Y0172446D02*
X0231006Y0172446D01*
X0231006Y0170048D02*
X0231006Y0170048D01*
X0195990Y0134070D02*
X0189824Y0134070D01*
X0192223Y0131672D02*
X0194532Y0131672D01*
X0183000Y0114882D02*
X0174012Y0114882D01*
X0175806Y0112484D02*
X0181206Y0112484D01*
X0181206Y0110085D02*
X0175806Y0110085D01*
X0175806Y0111100D02*
X0171006Y0111100D01*
X0175806Y0111100D01*
X0174381Y0107687D02*
X0182631Y0107687D01*
X0186006Y0107687D02*
X0186006Y0107687D01*
X0186006Y0110085D02*
X0186006Y0110085D01*
X0171006Y0110085D02*
X0171006Y0110085D01*
X0171006Y0111100D02*
X0171006Y0111100D01*
X0171006Y0107687D02*
X0171006Y0107687D01*
X0110342Y0119679D02*
X0088706Y0119679D01*
X0088706Y0117281D02*
X0106765Y0117281D01*
X0105183Y0114882D02*
X0088706Y0114882D01*
X0088706Y0112484D02*
X0104369Y0112484D01*
X0089529Y0110085D02*
X0088706Y0110085D01*
X0171006Y0165251D02*
X0171006Y0165251D01*
X0171006Y0167649D02*
X0171006Y0167649D01*
X0174220Y0222815D02*
X0182793Y0222815D01*
X0181012Y0225214D02*
X0176001Y0225214D01*
X0176831Y0227612D02*
X0180181Y0227612D01*
X0180181Y0230011D02*
X0176831Y0230011D01*
X0176831Y0232409D02*
X0180181Y0232409D01*
X0180181Y0234808D02*
X0176831Y0234808D01*
X0176831Y0237206D02*
X0180181Y0237206D01*
X0180181Y0239605D02*
X0176831Y0239605D01*
X0174386Y0277981D02*
X0182627Y0277981D01*
X0180943Y0280379D02*
X0176069Y0280379D01*
X0176831Y0282778D02*
X0180181Y0282778D01*
X0180181Y0285176D02*
X0176831Y0285176D01*
X0176831Y0287575D02*
X0180181Y0287575D01*
X0180181Y0289973D02*
X0176831Y0289973D01*
X0176831Y0292372D02*
X0180181Y0292372D01*
X0180181Y0294770D02*
X0176831Y0294770D01*
X0175925Y0297169D02*
X0181088Y0297169D01*
X0182975Y0299568D02*
X0174037Y0299568D01*
X0162975Y0299568D02*
X0154037Y0299568D01*
X0155925Y0297169D02*
X0161088Y0297169D01*
X0160181Y0294770D02*
X0156831Y0294770D01*
X0156831Y0292372D02*
X0160181Y0292372D01*
X0160181Y0289973D02*
X0156831Y0289973D01*
X0156831Y0287575D02*
X0160181Y0287575D01*
X0160181Y0285176D02*
X0156831Y0285176D01*
X0156831Y0282778D02*
X0160181Y0282778D01*
X0160943Y0280379D02*
X0156069Y0280379D01*
X0154386Y0277981D02*
X0162627Y0277981D01*
X0225240Y0321154D02*
X0278706Y0321154D01*
X0278706Y0318756D02*
X0227639Y0318756D01*
X0230037Y0316357D02*
X0278706Y0316357D01*
X0278706Y0313959D02*
X0232436Y0313959D01*
X0234834Y0311560D02*
X0278706Y0311560D01*
X0278706Y0309162D02*
X0237233Y0309162D01*
X0239631Y0306763D02*
X0278118Y0306763D01*
X0277925Y0304365D02*
X0242030Y0304365D01*
X0244428Y0301966D02*
X0277925Y0301966D01*
X0278485Y0299568D02*
X0246827Y0299568D01*
X0249226Y0297169D02*
X0307787Y0297169D01*
X0309018Y0298400D02*
X0306206Y0295588D01*
X0306206Y0293600D01*
X0311006Y0293600D01*
X0311006Y0293600D01*
X0306206Y0293600D01*
X0306206Y0291612D01*
X0308228Y0289590D01*
X0304806Y0286168D01*
X0304806Y0281032D01*
X0308438Y0277400D01*
X0313574Y0277400D01*
X0317206Y0281032D01*
X0317206Y0286168D01*
X0313784Y0289590D01*
X0315806Y0291612D01*
X0315806Y0293600D01*
X0315806Y0295588D01*
X0312995Y0298400D01*
X0311006Y0298400D01*
X0309018Y0298400D01*
X0311006Y0298400D02*
X0311006Y0293600D01*
X0311006Y0293600D01*
X0311006Y0298400D01*
X0311006Y0297169D02*
X0311006Y0297169D01*
X0311006Y0294770D02*
X0311006Y0294770D01*
X0311006Y0293600D02*
X0315806Y0293600D01*
X0311006Y0293600D01*
X0311006Y0293600D01*
X0314226Y0297169D02*
X0320187Y0297169D01*
X0318740Y0294770D02*
X0315806Y0294770D01*
X0315806Y0292372D02*
X0318758Y0292372D01*
X0320245Y0289973D02*
X0314168Y0289973D01*
X0315799Y0287575D02*
X0318613Y0287575D01*
X0317348Y0285176D02*
X0317206Y0285176D01*
X0317206Y0282778D02*
X0317206Y0282778D01*
X0316554Y0280379D02*
X0318029Y0280379D01*
X0320771Y0277981D02*
X0314155Y0277981D01*
X0319029Y0275582D02*
X0270812Y0275582D01*
X0273211Y0273184D02*
X0318612Y0273184D01*
X0319518Y0270785D02*
X0275609Y0270785D01*
X0268414Y0277981D02*
X0307857Y0277981D01*
X0305459Y0280379D02*
X0266015Y0280379D01*
X0263617Y0282778D02*
X0304806Y0282778D01*
X0304806Y0285176D02*
X0261218Y0285176D01*
X0258820Y0287575D02*
X0306213Y0287575D01*
X0307845Y0289973D02*
X0256421Y0289973D01*
X0254023Y0292372D02*
X0306206Y0292372D01*
X0306206Y0294770D02*
X0251624Y0294770D01*
X0288306Y0309162D02*
X0319077Y0309162D01*
X0317540Y0311560D02*
X0288306Y0311560D01*
X0288306Y0313959D02*
X0317206Y0313959D01*
X0317838Y0316357D02*
X0288306Y0316357D01*
X0288306Y0318756D02*
X0319794Y0318756D01*
X0326006Y0293600D02*
X0326006Y0293600D01*
X0326006Y0273600D02*
X0326006Y0273600D01*
X0356006Y0263600D02*
X0356006Y0253600D01*
X0356006Y0243600D01*
X0360806Y0246800D02*
X0631206Y0246800D01*
X0631206Y0244402D02*
X0363973Y0244402D01*
X0366371Y0242003D02*
X0631206Y0242003D01*
X0631206Y0239605D02*
X0367206Y0239605D01*
X0367206Y0237206D02*
X0631206Y0237206D01*
X0631206Y0234808D02*
X0365982Y0234808D01*
X0362973Y0249199D02*
X0631206Y0249199D01*
X0631206Y0251597D02*
X0364488Y0251597D01*
X0364806Y0253996D02*
X0631206Y0253996D01*
X0631206Y0256394D02*
X0364160Y0256394D01*
X0362567Y0258793D02*
X0387045Y0258793D01*
X0394967Y0258793D02*
X0631206Y0258793D01*
X0631206Y0261191D02*
X0397206Y0261191D01*
X0366627Y0261191D02*
X0364319Y0261191D01*
X0288306Y0321154D02*
X0631206Y0321154D01*
X0631206Y0323553D02*
X0288306Y0323553D01*
X0288306Y0325951D02*
X0631206Y0325951D01*
X0631206Y0328350D02*
X0288306Y0328350D01*
X0288306Y0330748D02*
X0631206Y0330748D01*
X0631206Y0333147D02*
X0288306Y0333147D01*
X0288306Y0335545D02*
X0631206Y0335545D01*
X0631206Y0337944D02*
X0288306Y0337944D01*
X0288306Y0340342D02*
X0631206Y0340342D01*
X0631206Y0342741D02*
X0288306Y0342741D01*
X0288306Y0345139D02*
X0631206Y0345139D01*
X0631206Y0347538D02*
X0291312Y0347538D01*
X0292306Y0349936D02*
X0631206Y0349936D01*
X0631206Y0352335D02*
X0292306Y0352335D01*
X0291241Y0354733D02*
X0631206Y0354733D01*
X0631206Y0357132D02*
X0290906Y0357132D01*
X0292167Y0359530D02*
X0631206Y0359530D01*
X0631206Y0361929D02*
X0292306Y0361929D01*
X0291480Y0364327D02*
X0631206Y0364327D01*
X0631206Y0366726D02*
X0290500Y0366726D01*
X0291999Y0369124D02*
X0631206Y0369124D01*
X0631206Y0371523D02*
X0292306Y0371523D01*
X0291648Y0373921D02*
X0631206Y0373921D01*
X0631206Y0376320D02*
X0290094Y0376320D01*
X0291831Y0378718D02*
X0631206Y0378718D01*
X0631206Y0381117D02*
X0292306Y0381117D01*
X0291817Y0383515D02*
X0631811Y0383515D01*
X0634032Y0385914D02*
X0290060Y0385914D01*
X0291662Y0388312D02*
X0636431Y0388312D01*
X0638829Y0390711D02*
X0292306Y0390711D01*
X0291985Y0393109D02*
X0641228Y0393109D01*
X0643626Y0395508D02*
X0290466Y0395508D01*
X0253506Y0391100D02*
X0241006Y0391100D01*
X0236646Y0395508D02*
X0225366Y0395508D01*
X0227206Y0393109D02*
X0234806Y0393109D01*
X0234806Y0390711D02*
X0227206Y0390711D01*
X0226987Y0388312D02*
X0235026Y0388312D01*
X0237052Y0385914D02*
X0225806Y0385914D01*
X0227206Y0383515D02*
X0234806Y0383515D01*
X0234806Y0381117D02*
X0227206Y0381117D01*
X0227206Y0378718D02*
X0234806Y0378718D01*
X0237018Y0376320D02*
X0225806Y0376320D01*
X0226953Y0373921D02*
X0235060Y0373921D01*
X0234806Y0371523D02*
X0227206Y0371523D01*
X0227206Y0369124D02*
X0234806Y0369124D01*
X0236612Y0366726D02*
X0225806Y0366726D01*
X0226547Y0364327D02*
X0235466Y0364327D01*
X0234806Y0361929D02*
X0227206Y0361929D01*
X0227206Y0359530D02*
X0234806Y0359530D01*
X0236206Y0357132D02*
X0225806Y0357132D01*
X0226141Y0354733D02*
X0235871Y0354733D01*
X0234806Y0352335D02*
X0227206Y0352335D01*
X0227206Y0349936D02*
X0234806Y0349936D01*
X0235800Y0347538D02*
X0226212Y0347538D01*
X0223814Y0345139D02*
X0238199Y0345139D01*
X0243814Y0345139D02*
X0249095Y0345139D01*
X0253506Y0351100D02*
X0241006Y0351100D01*
X0241006Y0361100D02*
X0253506Y0361100D01*
X0253506Y0371100D02*
X0241006Y0371100D01*
X0241006Y0381100D02*
X0253506Y0381100D01*
X0216206Y0385914D02*
X0209956Y0385914D01*
X0209956Y0383515D02*
X0214806Y0383515D01*
X0214806Y0381117D02*
X0209956Y0381117D01*
X0207746Y0378718D02*
X0214806Y0378718D01*
X0215026Y0388312D02*
X0207916Y0388312D01*
X0197056Y0385914D02*
X0196356Y0385914D01*
X0196356Y0383515D02*
X0197056Y0383515D01*
X0197056Y0381117D02*
X0196356Y0381117D01*
X0188506Y0383600D02*
X0188506Y0363600D01*
X0180181Y0364327D02*
X0176831Y0364327D01*
X0176831Y0361929D02*
X0180181Y0361929D01*
X0180181Y0359530D02*
X0176831Y0359530D01*
X0176795Y0357132D02*
X0180217Y0357132D01*
X0181211Y0354733D02*
X0175802Y0354733D01*
X0173739Y0352335D02*
X0183273Y0352335D01*
X0180181Y0366726D02*
X0176831Y0366726D01*
X0176831Y0369124D02*
X0180181Y0369124D01*
X0180820Y0371523D02*
X0176193Y0371523D01*
X0174683Y0373921D02*
X0182329Y0373921D01*
X0183706Y0376320D02*
X0172575Y0376320D01*
X0172206Y0378718D02*
X0182286Y0378718D01*
X0174621Y0381117D02*
X0172206Y0381117D01*
X0172825Y0383515D02*
X0169859Y0383515D01*
X0166006Y0378600D02*
X0168506Y0373600D01*
X0168506Y0363600D01*
X0160181Y0364327D02*
X0156831Y0364327D01*
X0156831Y0361929D02*
X0160181Y0361929D01*
X0160181Y0359530D02*
X0156831Y0359530D01*
X0156795Y0357132D02*
X0160217Y0357132D01*
X0161211Y0354733D02*
X0155802Y0354733D01*
X0153739Y0352335D02*
X0163273Y0352335D01*
X0160181Y0366726D02*
X0156831Y0366726D01*
X0156831Y0369124D02*
X0160181Y0369124D01*
X0160820Y0371523D02*
X0156193Y0371523D01*
X0154683Y0373921D02*
X0161917Y0373921D01*
X0159806Y0376320D02*
X0150959Y0376320D01*
X0146053Y0376320D02*
X0095173Y0376320D01*
X0093570Y0378718D02*
X0159806Y0378718D01*
X0159806Y0381117D02*
X0154891Y0381117D01*
X0156688Y0383515D02*
X0162154Y0383515D01*
X0151006Y0388600D02*
X0178506Y0388600D01*
X0174046Y0395508D02*
X0155466Y0395508D01*
X0146546Y0395508D02*
X0121570Y0395508D01*
X0122564Y0393109D02*
X0145086Y0393109D01*
X0144806Y0390711D02*
X0122643Y0390711D01*
X0122241Y0388312D02*
X0144806Y0388312D01*
X0144806Y0385914D02*
X0121242Y0385914D01*
X0119621Y0397906D02*
X0129681Y0397906D01*
X0133506Y0397906D02*
X0133506Y0397906D01*
X0133506Y0400305D02*
X0133506Y0400305D01*
X0133506Y0401100D02*
X0133506Y0401100D01*
X0138478Y0401100D01*
X0133506Y0401100D01*
X0136456Y0405102D02*
X0653220Y0405102D01*
X0650822Y0402703D02*
X0138213Y0402703D01*
X0138414Y0400305D02*
X0648423Y0400305D01*
X0646025Y0397906D02*
X0137331Y0397906D01*
X0133506Y0411100D02*
X0141006Y0418600D01*
X0169287Y0438681D02*
X0172725Y0438681D01*
X0172479Y0448275D02*
X0169534Y0448275D01*
X0105444Y0426689D02*
X0088706Y0426689D01*
X0088706Y0429087D02*
X0104450Y0429087D01*
X0090619Y0431486D02*
X0088706Y0431486D01*
X0205427Y0337944D02*
X0278706Y0337944D01*
X0278706Y0340342D02*
X0210224Y0340342D01*
X0654804Y0393109D02*
X0666926Y0393109D01*
X0666006Y0395508D02*
X0657202Y0395508D01*
X0659601Y0397906D02*
X0666006Y0397906D01*
X0668140Y0400305D02*
X0661999Y0400305D01*
X0664398Y0402703D02*
X0667332Y0402703D01*
X0671006Y0402703D02*
X0671006Y0402703D01*
X0671006Y0400305D02*
X0671006Y0400305D01*
X0671006Y0397906D02*
X0671006Y0397906D01*
X0671006Y0396100D02*
X0676006Y0396100D01*
X0671006Y0396100D01*
X0671006Y0396100D01*
X0676006Y0395508D02*
X0686006Y0395508D01*
X0686006Y0397906D02*
X0676006Y0397906D01*
X0675087Y0393109D02*
X0686926Y0393109D01*
X0686566Y0390711D02*
X0675446Y0390711D01*
X0677406Y0388312D02*
X0684606Y0388312D01*
X0684606Y0385914D02*
X0677406Y0385914D01*
X0677406Y0383515D02*
X0684606Y0383515D01*
X0686938Y0381117D02*
X0675074Y0381117D01*
X0677406Y0378718D02*
X0684606Y0378718D01*
X0684606Y0376320D02*
X0677406Y0376320D01*
X0677406Y0373921D02*
X0684606Y0373921D01*
X0691006Y0397906D02*
X0691006Y0397906D01*
X0696006Y0405102D02*
X0706806Y0405102D01*
X0706806Y0407501D02*
X0696006Y0407501D01*
X0694278Y0409899D02*
X0706806Y0409899D01*
X0706806Y0412298D02*
X0696255Y0412298D01*
X0697406Y0414696D02*
X0706806Y0414696D01*
X0706806Y0417095D02*
X0697406Y0417095D01*
X0696664Y0419493D02*
X0706806Y0419493D01*
X0706806Y0421892D02*
X0695849Y0421892D01*
X0697406Y0424290D02*
X0706806Y0424290D01*
X0706806Y0426689D02*
X0697406Y0426689D01*
X0697070Y0429087D02*
X0706806Y0429087D01*
X0671006Y0405102D02*
X0671006Y0405102D01*
D23*
X0388506Y0133600D03*
X0431006Y0118600D03*
X0343506Y0118600D03*
X0336006Y0113600D03*
X0221006Y0093600D03*
X0208506Y0098600D03*
X0276006Y0263600D03*
X0283506Y0303600D03*
X0188506Y0318600D03*
M02*
