<svg xmlns="http://www.w3.org/2000/svg" xmlns:xlink="http://www.w3.org/1999/xlink" viewBox="0 0 427.92 181.86"><defs><style>.cls-1,.cls-10,.cls-11,.cls-12,.cls-13,.cls-4,.cls-51,.cls-52,.cls-53,.cls-6,.cls-7{fill:none;}.cls-2{clip-path:url(#clip-path);}.cls-3{fill:#fff;}.cls-4{stroke:#3559a8;}.cls-10,.cls-11,.cls-13,.cls-4,.cls-51,.cls-52,.cls-53,.cls-6,.cls-7{stroke-linejoin:round;}.cls-10,.cls-11,.cls-13,.cls-4,.cls-51,.cls-52,.cls-53{stroke-width:0.75px;}.cls-5{fill:#231f20;}.cls-10,.cls-12,.cls-6,.cls-7{stroke:#231f20;}.cls-12,.cls-6{stroke-width:0.8px;}.cls-7{stroke-width:0.6px;}.cls-8{clip-path:url(#clip-path-4);}.cls-9{clip-path:url(#clip-path-5);}.cls-10{stroke-dasharray:2.78 1.2;}.cls-11{stroke:#0d8140;}.cls-11,.cls-12,.cls-51,.cls-52,.cls-53{stroke-linecap:square;}.cls-12{stroke-miterlimit:10;}.cls-13{stroke:#c94434;}.cls-14{fill:#f15745;}.cls-15{clip-path:url(#clip-path-6);}.cls-16{fill:#7e9ad0;}.cls-17{clip-path:url(#clip-path-7);}.cls-18{clip-path:url(#clip-path-8);}.cls-19{clip-path:url(#clip-path-9);}.cls-20{clip-path:url(#clip-path-10);}.cls-21{clip-path:url(#clip-path-11);}.cls-22{clip-path:url(#clip-path-12);}.cls-23{clip-path:url(#clip-path-13);}.cls-24{clip-path:url(#clip-path-14);}.cls-25{clip-path:url(#clip-path-15);}.cls-26{clip-path:url(#clip-path-16);}.cls-27{clip-path:url(#clip-path-17);}.cls-28{clip-path:url(#clip-path-18);}.cls-29{clip-path:url(#clip-path-19);}.cls-30{clip-path:url(#clip-path-20);}.cls-31{clip-path:url(#clip-path-21);}.cls-32{clip-path:url(#clip-path-22);}.cls-33{clip-path:url(#clip-path-23);}.cls-34{clip-path:url(#clip-path-24);}.cls-35{clip-path:url(#clip-path-25);}.cls-36{clip-path:url(#clip-path-26);}.cls-37{clip-path:url(#clip-path-27);}.cls-38{clip-path:url(#clip-path-28);}.cls-39{clip-path:url(#clip-path-29);}.cls-40{clip-path:url(#clip-path-30);}.cls-41{clip-path:url(#clip-path-31);}.cls-42{clip-path:url(#clip-path-32);}.cls-43{clip-path:url(#clip-path-33);}.cls-44{clip-path:url(#clip-path-34);}.cls-45{clip-path:url(#clip-path-35);}.cls-46{clip-path:url(#clip-path-36);}.cls-47{clip-path:url(#clip-path-38);}.cls-48{clip-path:url(#clip-path-39);}.cls-49{clip-path:url(#clip-path-40);}.cls-50{clip-path:url(#clip-path-41);}.cls-51{stroke:#f57e20;}.cls-52{stroke:#1dbfcf;}.cls-53{stroke:#d779b1;}.cls-54{clip-path:url(#clip-path-42);}.cls-55{clip-path:url(#clip-path-43);}.cls-56{clip-path:url(#clip-path-44);}.cls-57{clip-path:url(#clip-path-45);}.cls-58{clip-path:url(#clip-path-46);}.cls-59{clip-path:url(#clip-path-47);}.cls-60{clip-path:url(#clip-path-48);}.cls-61{clip-path:url(#clip-path-49);}.cls-62{clip-path:url(#clip-path-50);}.cls-63{clip-path:url(#clip-path-51);}.cls-64{clip-path:url(#clip-path-52);}.cls-65{clip-path:url(#clip-path-53);}.cls-66{clip-path:url(#clip-path-54);}.cls-67{clip-path:url(#clip-path-55);}.cls-68{clip-path:url(#clip-path-56);}.cls-69{clip-path:url(#clip-path-57);}.cls-70{clip-path:url(#clip-path-58);}.cls-71{clip-path:url(#clip-path-59);}.cls-72{clip-path:url(#clip-path-60);}.cls-73{clip-path:url(#clip-path-61);}.cls-74{clip-path:url(#clip-path-62);}.cls-75{clip-path:url(#clip-path-63);}.cls-76{clip-path:url(#clip-path-64);}.cls-77{clip-path:url(#clip-path-65);}.cls-78{clip-path:url(#clip-path-66);}.cls-79{clip-path:url(#clip-path-67);}.cls-80{clip-path:url(#clip-path-68);}.cls-81{clip-path:url(#clip-path-69);}.cls-82{clip-path:url(#clip-path-70);}.cls-83{clip-path:url(#clip-path-71);}.cls-84{clip-path:url(#clip-path-72);}</style><clipPath id="clip-path" transform="translate(-2.63 -3.6)"><rect class="cls-1" width="432.02" height="180.01"/></clipPath><clipPath id="clip-path-4" transform="translate(-2.63 -3.6)"><rect class="cls-1" y="55.09" width="12.63" height="24.09"/></clipPath><clipPath id="clip-path-5" transform="translate(-2.63 -3.6)"><rect class="cls-1" x="28.25" y="4" width="183.93" height="147.61"/></clipPath><clipPath id="clip-path-6" transform="translate(-2.63 -3.6)"><rect class="cls-1" x="42.78" y="110.99" width="11.97" height="11.97"/></clipPath><clipPath id="clip-path-7" transform="translate(-2.63 -3.6)"><rect class="cls-1" x="49.44" y="111.08" width="11.97" height="11.97"/></clipPath><clipPath id="clip-path-8" transform="translate(-2.63 -3.6)"><rect class="cls-1" x="52.49" y="102.48" width="11.97" height="11.97"/></clipPath><clipPath id="clip-path-9" transform="translate(-2.63 -3.6)"><rect class="cls-1" x="55.96" y="115.63" width="11.97" height="11.97"/></clipPath><clipPath id="clip-path-10" transform="translate(-2.63 -3.6)"><rect class="cls-1" x="63.68" y="98.91" width="11.97" height="11.97"/></clipPath><clipPath id="clip-path-11" transform="translate(-2.63 -3.6)"><rect class="cls-1" x="69.87" y="102.25" width="11.97" height="11.97"/></clipPath><clipPath id="clip-path-12" transform="translate(-2.63 -3.6)"><rect class="cls-1" x="76.65" y="105.95" width="11.97" height="11.97"/></clipPath><clipPath id="clip-path-13" transform="translate(-2.63 -3.6)"><rect class="cls-1" x="77.71" y="103.47" width="11.97" height="11.97"/></clipPath><clipPath id="clip-path-14" transform="translate(-2.63 -3.6)"><rect class="cls-1" x="79.4" y="97.18" width="11.97" height="11.97"/></clipPath><clipPath id="clip-path-15" transform="translate(-2.63 -3.6)"><rect class="cls-1" x="86.29" y="97.72" width="11.97" height="11.97"/></clipPath><clipPath id="clip-path-16" transform="translate(-2.63 -3.6)"><rect class="cls-1" x="91.71" y="96.32" width="11.97" height="11.97"/></clipPath><clipPath id="clip-path-17" transform="translate(-2.63 -3.6)"><rect class="cls-1" x="99.27" y="86.52" width="11.97" height="11.97"/></clipPath><clipPath id="clip-path-18" transform="translate(-2.63 -3.6)"><rect class="cls-1" x="103.71" y="87.04" width="11.97" height="11.97"/></clipPath><clipPath id="clip-path-19" transform="translate(-2.63 -3.6)"><rect class="cls-1" x="114.01" y="85.36" width="11.97" height="11.97"/></clipPath><clipPath id="clip-path-20" transform="translate(-2.63 -3.6)"><rect class="cls-1" x="116.08" y="89.86" width="11.97" height="11.97"/></clipPath><clipPath id="clip-path-21" transform="translate(-2.63 -3.6)"><rect class="cls-1" x="118.4" y="80.84" width="11.97" height="11.97"/></clipPath><clipPath id="clip-path-22" transform="translate(-2.63 -3.6)"><rect class="cls-1" x="121.18" y="72.91" width="11.97" height="11.97"/></clipPath><clipPath id="clip-path-23" transform="translate(-2.63 -3.6)"><rect class="cls-1" x="136.56" y="73.05" width="11.97" height="11.97"/></clipPath><clipPath id="clip-path-24" transform="translate(-2.63 -3.6)"><rect class="cls-1" x="138.77" y="65.03" width="11.97" height="11.97"/></clipPath><clipPath id="clip-path-25" transform="translate(-2.63 -3.6)"><rect class="cls-1" x="146.49" y="55.2" width="11.97" height="11.97"/></clipPath><clipPath id="clip-path-26" transform="translate(-2.63 -3.6)"><rect class="cls-1" x="150.34" y="65.8" width="11.97" height="11.97"/></clipPath><clipPath id="clip-path-27" transform="translate(-2.63 -3.6)"><rect class="cls-1" x="154.64" y="67.66" width="11.97" height="11.97"/></clipPath><clipPath id="clip-path-28" transform="translate(-2.63 -3.6)"><rect class="cls-1" x="155.73" y="58.56" width="11.97" height="11.97"/></clipPath><clipPath id="clip-path-29" transform="translate(-2.63 -3.6)"><rect class="cls-1" x="159.69" y="45.25" width="11.97" height="11.97"/></clipPath><clipPath id="clip-path-30" transform="translate(-2.63 -3.6)"><rect class="cls-1" x="162.19" y="45.43" width="11.97" height="11.97"/></clipPath><clipPath id="clip-path-31" transform="translate(-2.63 -3.6)"><rect class="cls-1" x="162.23" y="44.54" width="11.97" height="11.97"/></clipPath><clipPath id="clip-path-32" transform="translate(-2.63 -3.6)"><rect class="cls-1" x="176.73" y="41.51" width="11.97" height="11.97"/></clipPath><clipPath id="clip-path-33" transform="translate(-2.63 -3.6)"><rect class="cls-1" x="178.7" y="27.7" width="11.97" height="11.97"/></clipPath><clipPath id="clip-path-34" transform="translate(-2.63 -3.6)"><rect class="cls-1" x="182.42" y="31.56" width="11.97" height="11.97"/></clipPath><clipPath id="clip-path-35" transform="translate(-2.63 -3.6)"><rect class="cls-1" x="191.31" y="17.58" width="11.97" height="11.97"/></clipPath><clipPath id="clip-path-36" transform="translate(-2.63 -3.6)"><rect class="cls-1" x="192.59" y="27.07" width="11.97" height="11.97"/></clipPath><clipPath id="clip-path-38" transform="translate(-2.63 -3.6)"><rect class="cls-1" x="217.42" y="84.36" width="12.77" height="24.09"/></clipPath><clipPath id="clip-path-39" transform="translate(-2.63 -3.6)"><rect class="cls-1" x="217.42" y="75.63" width="12.77" height="24.09"/></clipPath><clipPath id="clip-path-40" transform="translate(-2.63 -3.6)"><rect class="cls-1" x="217.42" y="63.48" width="12.77" height="24.09"/></clipPath><clipPath id="clip-path-41" transform="translate(-2.63 -3.6)"><rect class="cls-1" x="245.09" y="4" width="183.93" height="147.61"/></clipPath><clipPath id="clip-path-42" transform="translate(-2.63 -3.6)"><rect class="cls-1" x="259.62" y="94.19" width="11.97" height="11.97"/></clipPath><clipPath id="clip-path-43" transform="translate(-2.63 -3.6)"><rect class="cls-1" x="266.27" y="90.09" width="11.97" height="11.97"/></clipPath><clipPath id="clip-path-44" transform="translate(-2.63 -3.6)"><rect class="cls-1" x="269.33" y="93.78" width="11.97" height="11.97"/></clipPath><clipPath id="clip-path-45" transform="translate(-2.63 -3.6)"><rect class="cls-1" x="272.79" y="83.48" width="11.97" height="11.97"/></clipPath><clipPath id="clip-path-46" transform="translate(-2.63 -3.6)"><rect class="cls-1" x="280.51" y="88.53" width="11.97" height="11.97"/></clipPath><clipPath id="clip-path-47" transform="translate(-2.63 -3.6)"><rect class="cls-1" x="286.7" y="81.64" width="11.97" height="11.97"/></clipPath><clipPath id="clip-path-48" transform="translate(-2.63 -3.6)"><rect class="cls-1" x="293.49" y="74.49" width="11.97" height="11.97"/></clipPath><clipPath id="clip-path-49" transform="translate(-2.63 -3.6)"><rect class="cls-1" x="294.54" y="75.15" width="11.97" height="11.97"/></clipPath><clipPath id="clip-path-50" transform="translate(-2.63 -3.6)"><rect class="cls-1" x="296.23" y="77.94" width="11.97" height="11.97"/></clipPath><clipPath id="clip-path-51" transform="translate(-2.63 -3.6)"><rect class="cls-1" x="303.12" y="72.34" width="11.97" height="11.97"/></clipPath><clipPath id="clip-path-52" transform="translate(-2.63 -3.6)"><rect class="cls-1" x="308.54" y="69.13" width="11.97" height="11.97"/></clipPath><clipPath id="clip-path-53" transform="translate(-2.63 -3.6)"><rect class="cls-1" x="316.11" y="70.22" width="11.97" height="11.97"/></clipPath><clipPath id="clip-path-54" transform="translate(-2.63 -3.6)"><rect class="cls-1" x="320.54" y="66.25" width="11.97" height="11.97"/></clipPath><clipPath id="clip-path-55" transform="translate(-2.63 -3.6)"><rect class="cls-1" x="330.84" y="59.31" width="11.97" height="11.97"/></clipPath><clipPath id="clip-path-56" transform="translate(-2.63 -3.6)"><rect class="cls-1" x="332.91" y="54.71" width="11.97" height="11.97"/></clipPath><clipPath id="clip-path-57" transform="translate(-2.63 -3.6)"><rect class="cls-1" x="335.23" y="59.17" width="11.97" height="11.97"/></clipPath><clipPath id="clip-path-58" transform="translate(-2.63 -3.6)"><rect class="cls-1" x="338.02" y="63.75" width="11.97" height="11.97"/></clipPath><clipPath id="clip-path-59" transform="translate(-2.63 -3.6)"><rect class="cls-1" x="353.39" y="50.34" width="11.97" height="11.97"/></clipPath><clipPath id="clip-path-60" transform="translate(-2.63 -3.6)"><rect class="cls-1" x="355.6" y="55.71" width="11.97" height="11.97"/></clipPath><clipPath id="clip-path-61" transform="translate(-2.63 -3.6)"><rect class="cls-1" x="363.33" y="59.37" width="11.97" height="11.97"/></clipPath><clipPath id="clip-path-62" transform="translate(-2.63 -3.6)"><rect class="cls-1" x="367.17" y="44.22" width="11.97" height="11.97"/></clipPath><clipPath id="clip-path-63" transform="translate(-2.63 -3.6)"><rect class="cls-1" x="371.48" y="38.75" width="11.97" height="11.97"/></clipPath><clipPath id="clip-path-64" transform="translate(-2.63 -3.6)"><rect class="cls-1" x="372.57" y="45.73" width="11.97" height="11.97"/></clipPath><clipPath id="clip-path-65" transform="translate(-2.63 -3.6)"><rect class="cls-1" x="376.53" y="57.89" width="11.97" height="11.97"/></clipPath><clipPath id="clip-path-66" transform="translate(-2.63 -3.6)"><rect class="cls-1" x="379.02" y="54.32" width="11.97" height="11.97"/></clipPath><clipPath id="clip-path-67" transform="translate(-2.63 -3.6)"><rect class="cls-1" x="379.06" y="55.61" width="11.97" height="11.97"/></clipPath><clipPath id="clip-path-68" transform="translate(-2.63 -3.6)"><rect class="cls-1" x="393.56" y="39.79" width="11.97" height="11.97"/></clipPath><clipPath id="clip-path-69" transform="translate(-2.63 -3.6)"><rect class="cls-1" x="395.54" y="59.63" width="11.97" height="11.97"/></clipPath><clipPath id="clip-path-70" transform="translate(-2.63 -3.6)"><rect class="cls-1" x="399.26" y="45.09" width="11.97" height="11.97"/></clipPath><clipPath id="clip-path-71" transform="translate(-2.63 -3.6)"><rect class="cls-1" x="408.15" y="53.87" width="11.97" height="11.97"/></clipPath><clipPath id="clip-path-72" transform="translate(-2.63 -3.6)"><rect class="cls-1" x="409.43" y="32.93" width="11.97" height="11.97"/></clipPath></defs><g id="Layer_2" data-name="Layer 2"><g id="Layer_1-2" data-name="Layer 1"><g class="cls-2"><g class="cls-2"><rect class="cls-3" x="25.62" y="0.4" width="183.93" height="147.61"/><line class="cls-4" x1="43.32" y1="113.38" x2="50.25" y2="113.38"/><line class="cls-4" x1="48.98" y1="113.46" x2="56.14" y2="113.46"/><line class="cls-4" x1="51.5" y1="104.86" x2="59.03" y2="104.86"/><line class="cls-4" x1="54.21" y1="118.01" x2="64.13" y2="118.01"/><line class="cls-4" x1="62.59" y1="101.29" x2="70.9" y2="101.29"/><line class="cls-4" x1="67.9" y1="104.64" x2="77.71" y2="104.64"/><line class="cls-4" x1="77.57" y1="108.33" x2="83.19" y2="108.33"/><line class="cls-4" x1="77.48" y1="105.86" x2="84.68" y2="105.86"/><line class="cls-4" x1="74.52" y1="99.57" x2="88.16" y2="99.57"/><line class="cls-4" x1="78.81" y1="100.11" x2="99.22" y2="100.11"/><line class="cls-4" x1="92.3" y1="98.71" x2="97.62" y2="98.71"/><line class="cls-4" x1="98.95" y1="88.91" x2="106.34" y2="88.91"/><line class="cls-4" x1="103.48" y1="89.42" x2="111.78" y2="89.42"/><line class="cls-4" x1="103.8" y1="87.74" x2="132.29" y2="87.74"/><line class="cls-4" x1="117.21" y1="92.25" x2="121.73" y2="92.25"/><line class="cls-4" x1="116.58" y1="83.22" x2="127.95" y2="83.22"/><line class="cls-4" x1="120.96" y1="75.3" x2="127.31" y2="75.3"/><line class="cls-4" x1="137.32" y1="75.43" x2="142.58" y2="75.43"/><line class="cls-4" x1="139.97" y1="67.41" x2="144.56" y2="67.41"/><line class="cls-4" x1="146.84" y1="57.59" x2="152.46" y2="57.59"/><line class="cls-4" x1="148.02" y1="68.19" x2="157.78" y2="68.19"/><line class="cls-4" x1="155.01" y1="70.05" x2="161.19" y2="70.05"/><line class="cls-4" x1="156.95" y1="60.94" x2="160.71" y2="60.94"/><line class="cls-4" x1="160.67" y1="47.63" x2="165.76" y2="47.63"/><line class="cls-4" x1="162.76" y1="47.82" x2="167.38" y2="47.82"/><line class="cls-4" x1="162.55" y1="46.93" x2="168.49" y2="46.93"/><line class="cls-4" x1="177.73" y1="43.89" x2="181.6" y2="43.89"/><line class="cls-4" x1="178.28" y1="30.09" x2="186.22" y2="30.09"/><line class="cls-4" x1="183.76" y1="33.94" x2="188.28" y2="33.94"/><line class="cls-4" x1="193.31" y1="19.97" x2="196.15" y2="19.97"/><line class="cls-4" x1="193.16" y1="29.45" x2="198.97" y2="29.45"/><line class="cls-4" x1="46.14" y1="138.6" x2="46.14" y2="96.15"/><line class="cls-4" x1="52.79" y1="122.35" x2="52.79" y2="105.82"/><line class="cls-4" x1="55.85" y1="115.7" x2="55.85" y2="95.82"/><line class="cls-4" x1="59.31" y1="126.45" x2="59.31" y2="110.7"/><line class="cls-4" x1="67.03" y1="109.68" x2="67.03" y2="94.02"/><line class="cls-4" x1="73.23" y1="111.8" x2="73.23" y2="98.3"/><line class="cls-4" x1="80.01" y1="116.74" x2="80.01" y2="101.04"/><line class="cls-4" x1="81.06" y1="114.73" x2="81.06" y2="98.22"/><line class="cls-4" x1="82.76" y1="107.99" x2="82.76" y2="92.27"/><line class="cls-4" x1="89.64" y1="109.47" x2="89.64" y2="92.11"/><line class="cls-4" x1="95.07" y1="107.7" x2="95.07" y2="90.99"/><line class="cls-4" x1="102.63" y1="98.03" x2="102.63" y2="81.09"/><line class="cls-4" x1="107.06" y1="102.5" x2="107.06" y2="78.87"/><line class="cls-4" x1="117.36" y1="104.35" x2="117.36" y2="75.01"/><line class="cls-4" x1="119.44" y1="102.39" x2="119.44" y2="83.69"/><line class="cls-4" x1="121.75" y1="91.16" x2="121.75" y2="76.29"/><line class="cls-4" x1="124.54" y1="84.51" x2="124.54" y2="67.41"/><line class="cls-4" x1="139.91" y1="87.67" x2="139.91" y2="65.43"/><line class="cls-4" x1="142.13" y1="78.04" x2="142.13" y2="58.51"/><line class="cls-4" x1="149.85" y1="70.92" x2="149.85" y2="46.87"/><line class="cls-4" x1="153.69" y1="78.5" x2="153.69" y2="59.51"/><line class="cls-4" x1="158" y1="80.14" x2="158" y2="61.53"/><line class="cls-4" x1="159.09" y1="69.53" x2="159.09" y2="53.52"/><line class="cls-4" x1="163.05" y1="55.58" x2="163.05" y2="40.69"/><line class="cls-4" x1="165.54" y1="55.9" x2="165.54" y2="40.77"/><line class="cls-4" x1="165.58" y1="55.61" x2="165.58" y2="39.43"/><line class="cls-4" x1="180.08" y1="54.26" x2="180.08" y2="35.18"/><line class="cls-4" x1="182.06" y1="44.18" x2="182.06" y2="18.89"/><line class="cls-4" x1="185.78" y1="49.68" x2="185.78" y2="21.72"/><line class="cls-4" x1="194.67" y1="36.57" x2="194.67" y2="7.23"/><line class="cls-4" x1="195.95" y1="40.51" x2="195.95" y2="20.25"/><path class="cls-5" d="M199.91,151.61v0Z" transform="translate(-2.63 -3.6)"/><line class="cls-6" x1="197.28" y1="148.01" x2="197.28" y2="144.51"/><path class="cls-5" d="M199.91,7.5v0Z" transform="translate(-2.63 -3.6)"/><line class="cls-6" x1="197.28" y1="0.4" x2="197.28" y2="3.9"/><g class="cls-2"><path class="cls-5" d="M196.69,162.26h-.88v-5.6a5.08,5.08,0,0,1-.84.61,5.89,5.89,0,0,1-.92.45v-.85a5.32,5.32,0,0,0,1.29-.84,3.3,3.3,0,0,0,.78-1h.57Z" transform="translate(-2.63 -3.6)"/><rect class="cls-5" x="196.8" y="157.66" width="1" height="1"/><path class="cls-5" d="M202.62,158.73a4.45,4.45,0,0,0,.41,2.35,1.18,1.18,0,0,0,2,0,6.78,6.78,0,0,0,0-4.7,1.25,1.25,0,0,0-1-.58,1.12,1.12,0,0,0-1,.51,4.61,4.61,0,0,0-.45,2.42m-.9,0a6.4,6.4,0,0,1,.26-2,2.53,2.53,0,0,1,.77-1.2,2,2,0,0,1,1.3-.42,1.95,1.95,0,0,1,1.72.91,3.56,3.56,0,0,1,.45,1.06,7.54,7.54,0,0,1,.16,1.69,6.7,6.7,0,0,1-.26,2,2.5,2.5,0,0,1-.77,1.19,2,2,0,0,1-1.3.41,2,2,0,0,1-1.63-.73,4.71,4.71,0,0,1-.7-2.91" transform="translate(-2.63 -3.6)"/><line class="cls-5" x1="31.3" y1="148.01" x2="31.3" y2="146.01"/><line class="cls-7" x1="31.3" y1="148.01" x2="31.3" y2="146.01"/><line class="cls-5" x1="31.3" y1="0.4" x2="31.3" y2="2.4"/><line class="cls-7" x1="31.3" y1="0.4" x2="31.3" y2="2.4"/><polygon class="cls-5" points="26.33 151.41 31.89 151.41 31.74 152.16 29.4 152.16 28.28 157.97 27.39 157.97 28.51 152.16 26.19 152.16 26.33 151.41"/><path class="cls-5" d="M38.31,158.81l-.13.65a2.32,2.32,0,0,0-.63-.44,1.87,1.87,0,0,0-.71-.14,1.8,1.8,0,0,0-.93.25,2.07,2.07,0,0,0-.68.77,3,3,0,0,0-.29.7,3.14,3.14,0,0,0-.09.75,1.14,1.14,0,0,0,1.26,1.28,2.47,2.47,0,0,0,.82-.13,2.65,2.65,0,0,0,.77-.42l-.14.74a3.41,3.41,0,0,1-.75.23,3.72,3.72,0,0,1-.74.08,1.94,1.94,0,0,1-1.38-.47,1.79,1.79,0,0,1-.5-1.34,3.41,3.41,0,0,1,.19-1.08,3.25,3.25,0,0,1,.54-1,2.52,2.52,0,0,1,.86-.69,2.76,2.76,0,0,1,1.12-.22,2.5,2.5,0,0,1,.74.11,2.46,2.46,0,0,1,.67.33" transform="translate(-2.63 -3.6)"/><line class="cls-5" x1="46.52" y1="148.01" x2="46.52" y2="146.01"/><line class="cls-7" x1="46.52" y1="148.01" x2="46.52" y2="146.01"/><line class="cls-5" x1="46.52" y1="0.4" x2="46.52" y2="2.4"/><line class="cls-7" x1="46.52" y1="0.4" x2="46.52" y2="2.4"/><path class="cls-5" d="M44.09,158.27a4,4,0,0,0,.37,2.11,1.05,1.05,0,0,0,1.83,0,4,4,0,0,0,.38-2.11,4,4,0,0,0-.38-2.12,1.13,1.13,0,0,0-.92-.52,1,1,0,0,0-.87.46,4.16,4.16,0,0,0-.41,2.18m-.81,0a5.54,5.54,0,0,1,.24-1.84,2.2,2.2,0,0,1,.69-1.08,1.79,1.79,0,0,1,1.17-.38,1.91,1.91,0,0,1,.91.22,1.83,1.83,0,0,1,.64.6,3.26,3.26,0,0,1,.4,1,6.74,6.74,0,0,1,.15,1.52,6.05,6.05,0,0,1-.24,1.83,2.32,2.32,0,0,1-.69,1.08,1.8,1.8,0,0,1-1.17.36,1.76,1.76,0,0,1-1.47-.65,4.27,4.27,0,0,1-.63-2.62" transform="translate(-2.63 -3.6)"/><rect class="cls-5" x="46.1" y="156.95" width="0.9" height="0.9"/><path class="cls-5" d="M54.94,160.69v.76H50.68a1.31,1.31,0,0,1,.1-.55,3.24,3.24,0,0,1,.51-.86,9.44,9.44,0,0,1,1-1,8.6,8.6,0,0,0,1.42-1.36,1.66,1.66,0,0,0,.37-.95,1.07,1.07,0,0,0-.34-.79,1.22,1.22,0,0,0-.88-.33A1.26,1.26,0,0,0,52,156a1.32,1.32,0,0,0-.35,1l-.81-.09a2.05,2.05,0,0,1,.62-1.39,2.2,2.2,0,0,1,1.47-.48,2,2,0,0,1,1.47.53,1.67,1.67,0,0,1,.54,1.27,2,2,0,0,1-.16.76,2.84,2.84,0,0,1-.53.78A11.1,11.1,0,0,1,53,159.45a10.53,10.53,0,0,0-.92.81,3.09,3.09,0,0,0-.33.43Z" transform="translate(-2.63 -3.6)"/><line class="cls-5" x1="84.51" y1="148.01" x2="84.51" y2="146.01"/><line class="cls-7" x1="84.51" y1="148.01" x2="84.51" y2="146.01"/><line class="cls-5" x1="84.51" y1="0.4" x2="84.51" y2="2.4"/><line class="cls-7" x1="84.51" y1="0.4" x2="84.51" y2="2.4"/><path class="cls-5" d="M82.07,158.27a4,4,0,0,0,.37,2.11,1.05,1.05,0,0,0,1.83,0,4,4,0,0,0,.38-2.11,4,4,0,0,0-.38-2.12,1.13,1.13,0,0,0-.92-.52,1,1,0,0,0-.87.46,4.16,4.16,0,0,0-.41,2.18m-.81,0a5.54,5.54,0,0,1,.24-1.84,2.2,2.2,0,0,1,.69-1.08,1.79,1.79,0,0,1,1.17-.38,1.91,1.91,0,0,1,.91.22,1.83,1.83,0,0,1,.64.6,3.26,3.26,0,0,1,.4,1,6.74,6.74,0,0,1,.15,1.52,5.75,5.75,0,0,1-.24,1.83,2.25,2.25,0,0,1-.69,1.08,1.8,1.8,0,0,1-1.17.36,1.76,1.76,0,0,1-1.47-.65,4.27,4.27,0,0,1-.63-2.62" transform="translate(-2.63 -3.6)"/><rect class="cls-5" x="84.08" y="156.95" width="0.9" height="0.9"/><path class="cls-5" d="M88.77,159.74l.79-.1a1.73,1.73,0,0,0,.46,1,1.15,1.15,0,0,0,.8.3,1.28,1.28,0,0,0,.94-.39,1.32,1.32,0,0,0,.38-1,1.22,1.22,0,0,0-.36-.9,1.24,1.24,0,0,0-.9-.36,2.6,2.6,0,0,0-.55.09l.09-.69h.12a1.61,1.61,0,0,0,.91-.26.92.92,0,0,0,.41-.82.93.93,0,0,0-.3-.71,1.06,1.06,0,0,0-.76-.29,1.12,1.12,0,0,0-.77.29,1.47,1.47,0,0,0-.39.86l-.79-.13a1.93,1.93,0,0,1,.66-1.23,1.89,1.89,0,0,1,1.27-.45,2.15,2.15,0,0,1,1,.24,1.8,1.8,0,0,1,.67.61,1.57,1.57,0,0,1,.24.83,1.37,1.37,0,0,1-.89,1.3,1.58,1.58,0,0,1,.89.55,1.7,1.7,0,0,1,.32,1.05,1.9,1.9,0,0,1-.62,1.42,2.18,2.18,0,0,1-1.55.58,2,2,0,0,1-1.41-.5,1.89,1.89,0,0,1-.64-1.31" transform="translate(-2.63 -3.6)"/><line class="cls-5" x1="111.45" y1="148.01" x2="111.45" y2="146.01"/><line class="cls-7" x1="111.45" y1="148.01" x2="111.45" y2="146.01"/><line class="cls-5" x1="111.45" y1="0.4" x2="111.45" y2="2.4"/><line class="cls-7" x1="111.45" y1="0.4" x2="111.45" y2="2.4"/><path class="cls-5" d="M109,158.27a4,4,0,0,0,.37,2.11,1.09,1.09,0,0,0,.92.53,1.11,1.11,0,0,0,.91-.53,4,4,0,0,0,.37-2.11,4,4,0,0,0-.37-2.12,1.14,1.14,0,0,0-.92-.52,1,1,0,0,0-.88.46,4.18,4.18,0,0,0-.4,2.18m-.81,0a5.85,5.85,0,0,1,.23-1.84,2.29,2.29,0,0,1,.7-1.08,1.79,1.79,0,0,1,1.17-.38,1.94,1.94,0,0,1,.91.22,1.8,1.8,0,0,1,.63.6,3,3,0,0,1,.41,1,6.83,6.83,0,0,1,.14,1.52,6.09,6.09,0,0,1-.23,1.83,2.32,2.32,0,0,1-.69,1.08,1.81,1.81,0,0,1-1.17.36,1.76,1.76,0,0,1-1.47-.65,4.27,4.27,0,0,1-.63-2.62" transform="translate(-2.63 -3.6)"/><rect class="cls-5" x="111.03" y="156.95" width="0.9" height="0.9"/><path class="cls-5" d="M118.24,159.18v-2.91l-2,2.91Zm0,2.27v-1.54h-2.79v-.73l2.94-4.18H119v4.18h.87v.73H119v1.54h-.8" transform="translate(-2.63 -3.6)"/><line class="cls-5" x1="132.36" y1="148.01" x2="132.36" y2="146.01"/><line class="cls-7" x1="132.36" y1="148.01" x2="132.36" y2="146.01"/><line class="cls-5" x1="132.36" y1="0.4" x2="132.36" y2="2.4"/><line class="cls-7" x1="132.36" y1="0.4" x2="132.36" y2="2.4"/><line class="cls-5" x1="149.43" y1="148.01" x2="149.43" y2="146.01"/><line class="cls-7" x1="149.43" y1="148.01" x2="149.43" y2="146.01"/><line class="cls-5" x1="149.43" y1="0.4" x2="149.43" y2="2.4"/><line class="cls-7" x1="149.43" y1="0.4" x2="149.43" y2="2.4"/><path class="cls-5" d="M147,158.27a4,4,0,0,0,.37,2.11,1.09,1.09,0,0,0,.92.53,1.11,1.11,0,0,0,.91-.53,4,4,0,0,0,.37-2.11,4,4,0,0,0-.37-2.12,1.14,1.14,0,0,0-.92-.52,1,1,0,0,0-.88.46,4.18,4.18,0,0,0-.4,2.18m-.81,0a5.85,5.85,0,0,1,.23-1.84,2.29,2.29,0,0,1,.7-1.08,1.79,1.79,0,0,1,1.17-.38,1.78,1.78,0,0,1,1.55.82,3.26,3.26,0,0,1,.4,1,6.83,6.83,0,0,1,.14,1.52,6.09,6.09,0,0,1-.23,1.83,2.32,2.32,0,0,1-.69,1.08,1.8,1.8,0,0,1-1.17.36,1.76,1.76,0,0,1-1.47-.65,4.27,4.27,0,0,1-.63-2.62" transform="translate(-2.63 -3.6)"/><rect class="cls-5" x="149.01" y="156.95" width="0.9" height="0.9"/><path class="cls-5" d="M154.57,159.36a1.77,1.77,0,0,0,.17.78,1.29,1.29,0,0,0,1.14.77,1.12,1.12,0,0,0,.86-.41,1.63,1.63,0,0,0,.36-1.1,1.53,1.53,0,0,0-.36-1.05,1.19,1.19,0,0,0-.89-.39,1.25,1.25,0,0,0-.91.39,1.38,1.38,0,0,0-.37,1m3.23-2.78-.79.06a1.54,1.54,0,0,0-.3-.68,1.1,1.1,0,0,0-.79-.33,1.11,1.11,0,0,0-.67.21,1.78,1.78,0,0,0-.58.79,3.91,3.91,0,0,0-.23,1.49,1.86,1.86,0,0,1,.71-.63,1.72,1.72,0,0,1,.86-.22,1.82,1.82,0,0,1,1.34.58,2.12,2.12,0,0,1,.56,1.51,2.49,2.49,0,0,1-.26,1.12,1.91,1.91,0,0,1-.72.79,2.15,2.15,0,0,1-2.65-.45,3.65,3.65,0,0,1-.62-2.39,4.42,4.42,0,0,1,.68-2.72A2,2,0,0,1,156,155a1.84,1.84,0,0,1,1.26.44,1.82,1.82,0,0,1,.58,1.17" transform="translate(-2.63 -3.6)"/><line class="cls-5" x1="163.87" y1="148.01" x2="163.87" y2="146.01"/><line class="cls-7" x1="163.87" y1="148.01" x2="163.87" y2="146.01"/><line class="cls-5" x1="163.87" y1="0.4" x2="163.87" y2="2.4"/><line class="cls-7" x1="163.87" y1="0.4" x2="163.87" y2="2.4"/><line class="cls-5" x1="176.38" y1="148.01" x2="176.38" y2="146.01"/><line class="cls-7" x1="176.38" y1="148.01" x2="176.38" y2="146.01"/><line class="cls-5" x1="176.38" y1="0.4" x2="176.38" y2="2.4"/><line class="cls-7" x1="176.38" y1="0.4" x2="176.38" y2="2.4"/><path class="cls-5" d="M174,158.27a3.91,3.91,0,0,0,.37,2.11,1.08,1.08,0,0,0,.91.53,1.1,1.1,0,0,0,.91-.53,3.88,3.88,0,0,0,.38-2.11,3.93,3.93,0,0,0-.38-2.12,1.11,1.11,0,0,0-.91-.52,1,1,0,0,0-.88.46,4.18,4.18,0,0,0-.4,2.18m-.81,0a5.85,5.85,0,0,1,.23-1.84,2.27,2.27,0,0,1,.69-1.08,1.83,1.83,0,0,1,1.17-.38,1.88,1.88,0,0,1,.91.22,1.75,1.75,0,0,1,.64.6,3.27,3.27,0,0,1,.41,1,6.83,6.83,0,0,1,.14,1.52,6.09,6.09,0,0,1-.23,1.83,2.34,2.34,0,0,1-.7,1.08,1.78,1.78,0,0,1-1.17.36,1.75,1.75,0,0,1-1.46-.65,4.21,4.21,0,0,1-.63-2.62" transform="translate(-2.63 -3.6)"/><rect class="cls-5" x="175.95" y="156.95" width="0.9" height="0.9"/><path class="cls-5" d="M181.44,159.58a1.38,1.38,0,0,0,.17.66,1,1,0,0,0,.47.49,1.36,1.36,0,0,0,.68.18,1.31,1.31,0,0,0,.94-.36,1.3,1.3,0,0,0,.36-.94,1.28,1.28,0,0,0-.37-.94,1.33,1.33,0,0,0-1-.37,1.27,1.27,0,0,0-.93.36,1.3,1.3,0,0,0-.36.92m.26-3a1,1,0,0,0,1.06,1,1,1,0,0,0,.75-.29,1,1,0,0,0,.29-.7,1,1,0,0,0-.3-.73,1,1,0,0,0-.75-.3,1.06,1.06,0,0,0-.76.29,1,1,0,0,0-.29.69m.16,1.34a1.41,1.41,0,0,1-.74-.51,1.32,1.32,0,0,1-.23-.8,1.54,1.54,0,0,1,.5-1.18,1.9,1.9,0,0,1,1.35-.49,1.93,1.93,0,0,1,1.36.5,1.57,1.57,0,0,1,.51,1.19,1.35,1.35,0,0,1-.23.78,1.4,1.4,0,0,1-.72.51,1.76,1.76,0,0,1,.9.62,1.7,1.7,0,0,1,.31,1,1.83,1.83,0,0,1-.58,1.39,2.17,2.17,0,0,1-1.54.55,2.14,2.14,0,0,1-1.54-.55,1.86,1.86,0,0,1-.58-1.41,1.68,1.68,0,0,1,.32-1.05,1.62,1.62,0,0,1,.91-.58" transform="translate(-2.63 -3.6)"/><line class="cls-5" x1="187.41" y1="148.01" x2="187.41" y2="146.01"/><line class="cls-7" x1="187.41" y1="148.01" x2="187.41" y2="146.01"/><line class="cls-5" x1="187.41" y1="0.4" x2="187.41" y2="2.4"/><line class="cls-7" x1="187.41" y1="0.4" x2="187.41" y2="2.4"/><line class="cls-5" x1="206.21" y1="148.01" x2="206.21" y2="146.01"/><line class="cls-7" x1="206.21" y1="148.01" x2="206.21" y2="146.01"/><line class="cls-5" x1="206.21" y1="0.4" x2="206.21" y2="2.4"/><line class="cls-7" x1="206.21" y1="0.4" x2="206.21" y2="2.4"/><polygon class="cls-5" points="109.12 164.65 114.67 164.65 114.53 165.4 112.19 165.4 111.06 171.21 110.17 171.21 111.3 165.4 108.98 165.4 109.12 164.65"/><polygon class="cls-5" points="116.37 164.65 117.12 164.65 114.83 172.04 114.09 172.04 116.37 164.65"/><polygon class="cls-5" points="117.65 164.65 123.2 164.65 123.06 165.4 120.72 165.4 119.59 171.21 118.7 171.21 119.83 165.4 117.51 165.4 117.65 164.65"/><polygon class="cls-5" points="123.68 168.09 126.31 168.09 126.22 168.62 124.2 168.62 123.93 169.97 125.75 169.97 125.65 170.5 123.83 170.5 123.41 172.69 122.79 172.69 123.68 168.09"/><line class="cls-5" x1="25.62" y1="43.74" x2="29.12" y2="43.74"/><line class="cls-6" x1="25.62" y1="43.74" x2="29.12" y2="43.74"/><line class="cls-5" x1="209.56" y1="43.74" x2="206.06" y2="43.74"/><line class="cls-6" x1="209.56" y1="43.74" x2="206.06" y2="43.74"/><path class="cls-5" d="M17.36,50.91h-.88v-5.6a5.08,5.08,0,0,1-.84.61,5.89,5.89,0,0,1-.92.45v-.85A5.32,5.32,0,0,0,16,44.68a3.3,3.3,0,0,0,.78-1h.57Z" transform="translate(-2.63 -3.6)"/><path class="cls-5" d="M20.51,47.38a4.45,4.45,0,0,0,.41,2.35,1.18,1.18,0,0,0,2,0,4.43,4.43,0,0,0,.42-2.35A4.43,4.43,0,0,0,23,45a1.25,1.25,0,0,0-1-.58A1.12,1.12,0,0,0,21,45a4.61,4.61,0,0,0-.45,2.42m-.9,0a6.4,6.4,0,0,1,.26-2,2.53,2.53,0,0,1,.77-1.2,2,2,0,0,1,1.3-.42,1.95,1.95,0,0,1,1.72.91,3.56,3.56,0,0,1,.45,1.06,7.54,7.54,0,0,1,.16,1.69,6.7,6.7,0,0,1-.26,2,2.5,2.5,0,0,1-.77,1.19,2,2,0,0,1-1.3.41,2,2,0,0,1-1.63-.73,4.71,4.71,0,0,1-.7-2.91" transform="translate(-2.63 -3.6)"/><line class="cls-5" x1="25.62" y1="132.2" x2="27.62" y2="132.2"/><line class="cls-7" x1="25.62" y1="132.2" x2="27.62" y2="132.2"/><line class="cls-5" x1="209.56" y1="132.2" x2="207.56" y2="132.2"/><line class="cls-7" x1="209.56" y1="132.2" x2="207.56" y2="132.2"/><path class="cls-5" d="M24.38,138.26V139H20.12a1.29,1.29,0,0,1,.1-.54,3.24,3.24,0,0,1,.51-.86,9.44,9.44,0,0,1,1-1,8.6,8.6,0,0,0,1.42-1.36,1.66,1.66,0,0,0,.37-1,1.1,1.1,0,0,0-.34-.8,1.25,1.25,0,0,0-.88-.32,1.24,1.24,0,0,0-.9.34,1.28,1.28,0,0,0-.36,1l-.81-.09A2,2,0,0,1,20.9,133a2.17,2.17,0,0,1,1.46-.48,2,2,0,0,1,1.47.53,1.66,1.66,0,0,1,.54,1.26,1.87,1.87,0,0,1-.16.77,3,3,0,0,1-.52.78A12.5,12.5,0,0,1,22.47,137a10.53,10.53,0,0,0-.92.81,2.6,2.6,0,0,0-.33.43Z" transform="translate(-2.63 -3.6)"/><line class="cls-5" x1="25.62" y1="109.91" x2="27.62" y2="109.91"/><line class="cls-7" x1="25.62" y1="109.91" x2="27.62" y2="109.91"/><line class="cls-5" x1="209.56" y1="109.91" x2="207.56" y2="109.91"/><line class="cls-7" x1="209.56" y1="109.91" x2="207.56" y2="109.91"/><line class="cls-5" x1="25.62" y1="94.1" x2="27.62" y2="94.1"/><line class="cls-7" x1="25.62" y1="94.1" x2="27.62" y2="94.1"/><line class="cls-5" x1="209.56" y1="94.1" x2="207.56" y2="94.1"/><line class="cls-7" x1="209.56" y1="94.1" x2="207.56" y2="94.1"/><path class="cls-5" d="M22.76,98.65V95.74l-2,2.91Zm0,2.27V99.38H20v-.73l2.93-4.18h.65v4.18h.87v.73h-.87v1.54h-.79" transform="translate(-2.63 -3.6)"/><line class="cls-5" x1="25.62" y1="81.83" x2="27.62" y2="81.83"/><line class="cls-7" x1="25.62" y1="81.83" x2="27.62" y2="81.83"/><line class="cls-5" x1="209.56" y1="81.83" x2="207.56" y2="81.83"/><line class="cls-7" x1="209.56" y1="81.83" x2="207.56" y2="81.83"/><line class="cls-5" x1="25.62" y1="71.81" x2="27.62" y2="71.81"/><line class="cls-7" x1="25.62" y1="71.81" x2="27.62" y2="71.81"/><line class="cls-5" x1="209.56" y1="71.81" x2="207.56" y2="71.81"/><line class="cls-7" x1="209.56" y1="71.81" x2="207.56" y2="71.81"/><path class="cls-5" d="M21.1,76.54a2,2,0,0,0,.17.79,1.3,1.3,0,0,0,1.15.76,1.11,1.11,0,0,0,.85-.4,1.58,1.58,0,0,0,.36-1.1,1.49,1.49,0,0,0-.36-1,1.14,1.14,0,0,0-.89-.39,1.21,1.21,0,0,0-.91.39,1.37,1.37,0,0,0-.37,1m3.23-2.78-.79.07a1.49,1.49,0,0,0-.3-.68,1.06,1.06,0,0,0-.79-.33,1.14,1.14,0,0,0-.66.2,1.77,1.77,0,0,0-.59.8A4.1,4.1,0,0,0,21,75.31a1.85,1.85,0,0,1,1.56-.85,1.78,1.78,0,0,1,1.34.58,2.09,2.09,0,0,1,.56,1.5,2.5,2.5,0,0,1-.26,1.13,1.85,1.85,0,0,1-.72.79A2.15,2.15,0,0,1,20.81,78a3.68,3.68,0,0,1-.62-2.39,4.31,4.31,0,0,1,.69-2.72,2,2,0,0,1,1.62-.74,1.83,1.83,0,0,1,1.25.43,1.87,1.87,0,0,1,.58,1.17" transform="translate(-2.63 -3.6)"/><line class="cls-5" x1="25.62" y1="63.34" x2="27.62" y2="63.34"/><line class="cls-7" x1="25.62" y1="63.34" x2="27.62" y2="63.34"/><line class="cls-5" x1="209.56" y1="63.34" x2="207.56" y2="63.34"/><line class="cls-7" x1="209.56" y1="63.34" x2="207.56" y2="63.34"/><line class="cls-5" x1="25.62" y1="56" x2="27.62" y2="56"/><line class="cls-7" x1="25.62" y1="56" x2="27.62" y2="56"/><line class="cls-5" x1="209.56" y1="56" x2="207.56" y2="56"/><line class="cls-7" x1="209.56" y1="56" x2="207.56" y2="56"/><line class="cls-5" x1="25.62" y1="49.53" x2="27.62" y2="49.53"/><line class="cls-7" x1="25.62" y1="49.53" x2="27.62" y2="49.53"/><line class="cls-5" x1="209.56" y1="49.53" x2="207.56" y2="49.53"/><line class="cls-7" x1="209.56" y1="49.53" x2="207.56" y2="49.53"/><line class="cls-5" x1="25.62" y1="5.64" x2="27.62" y2="5.64"/><line class="cls-7" x1="25.62" y1="5.64" x2="27.62" y2="5.64"/><line class="cls-5" x1="209.56" y1="5.64" x2="207.56" y2="5.64"/><line class="cls-7" x1="209.56" y1="5.64" x2="207.56" y2="5.64"/><path class="cls-5" d="M19.38,11.7v.76H15.12a1.31,1.31,0,0,1,.1-.55,3.24,3.24,0,0,1,.51-.86,9.44,9.44,0,0,1,1-1,7.85,7.85,0,0,0,1.42-1.36,1.63,1.63,0,0,0,.37-1A1.07,1.07,0,0,0,18.22,7a1.22,1.22,0,0,0-.88-.33,1.24,1.24,0,0,0-.91.35,1.28,1.28,0,0,0-.35,1l-.81-.09a2.08,2.08,0,0,1,.62-1.39A2.2,2.2,0,0,1,17.36,6a2.08,2.08,0,0,1,1.47.52,1.67,1.67,0,0,1,.54,1.27,2,2,0,0,1-.16.76,2.87,2.87,0,0,1-.53.79,12.36,12.36,0,0,1-1.21,1.13c-.48.4-.78.67-.92.81a3.09,3.09,0,0,0-.33.43Z" transform="translate(-2.63 -3.6)"/><path class="cls-5" d="M21,9.28a4.07,4.07,0,0,0,.37,2.12,1.07,1.07,0,0,0,1.83,0,4,4,0,0,0,.38-2.12,4,4,0,0,0-.38-2.11,1.11,1.11,0,0,0-.92-.53,1,1,0,0,0-.87.46A4.16,4.16,0,0,0,21,9.28m-.81,0a5.82,5.82,0,0,1,.24-1.84,2.3,2.3,0,0,1,.69-1.08A1.8,1.8,0,0,1,22.33,6a1.91,1.91,0,0,1,.91.21,1.86,1.86,0,0,1,.64.61,3.2,3.2,0,0,1,.4,1,6.74,6.74,0,0,1,.15,1.52,5.82,5.82,0,0,1-.24,1.84,2.22,2.22,0,0,1-.69,1.07,1.8,1.8,0,0,1-1.17.37,1.77,1.77,0,0,1-1.47-.66,4.25,4.25,0,0,1-.63-2.62" transform="translate(-2.63 -3.6)"/><polygon class="cls-5" points="0.28 96.11 0.28 95.37 7.67 97.65 7.67 98.4 0.28 96.11"/><path class="cls-5" d="M2.64,96.18a9.13,9.13,0,0,0,2,.87,6.75,6.75,0,0,0,2,.29,6.84,6.84,0,0,0,2-.29,8.86,8.86,0,0,0,2-.87v.7a9,9,0,0,1-2,1,6.21,6.21,0,0,1-2,.32,6.29,6.29,0,0,1-2-.32,8.8,8.8,0,0,1-2-1Z" transform="translate(-2.63 -3.6)"/><path class="cls-5" d="M6.5,90.44l3,.58v.81l-2.94-.58-.36,0-.26,0a.72.72,0,0,0-.57.24.93.93,0,0,0-.21.64,1.61,1.61,0,0,0,.43,1.13,2.1,2.1,0,0,0,1.18.61l2.73.54v.81l-4.92-1v-.81l.77.16a2.36,2.36,0,0,1-.66-.81,2.32,2.32,0,0,1-.23-1,1.42,1.42,0,0,1,.35-1,1.36,1.36,0,0,1,1-.36l.33,0,.4.06" transform="translate(-2.63 -3.6)"/><polygon class="cls-5" points="0 84.5 0 83.69 3.99 84.47 1.92 81.7 1.92 80.64 4.28 83.74 6.84 81.48 6.84 82.46 4.44 84.56 6.84 85.03 6.84 85.84 0 84.5"/><path class="cls-5" d="M6.86,83l1.39.27V82.3A1.28,1.28,0,0,0,8,81.53a.75.75,0,0,0-.6-.28.51.51,0,0,0-.44.19,1.06,1.06,0,0,0-.14.6Zm1.89.36,1.69.33v-1a1.3,1.3,0,0,0-.26-.86.92.92,0,0,0-.73-.31.68.68,0,0,0-.53.2,1,1,0,0,0-.17.65v1m-2.4.16V81.89a1.63,1.63,0,0,1,.24-1,.88.88,0,0,1,.73-.32,1.17,1.17,0,0,1,.76.28,1.12,1.12,0,0,1,.39.72A1,1,0,0,1,8.8,81a1.09,1.09,0,0,1,.65-.19,1.3,1.3,0,0,1,1.09.51,2.2,2.2,0,0,1,.41,1.4v1.62l-4.6-.89" transform="translate(-2.63 -3.6)"/><path class="cls-5" d="M2.64,79.25v-.7a9.64,9.64,0,0,1,2-1,6.31,6.31,0,0,1,2-.33,6.23,6.23,0,0,1,2,.33,9.41,9.41,0,0,1,2,1v.7a9.87,9.87,0,0,0-2-.87,7.18,7.18,0,0,0-2-.29,7.1,7.1,0,0,0-2,.29,10.19,10.19,0,0,0-2,.87" transform="translate(-2.63 -3.6)"/><path class="cls-5" d="M2.64,70.75a9.13,9.13,0,0,0,2,.87,6.75,6.75,0,0,0,2,.29,6.84,6.84,0,0,0,2-.29,8.86,8.86,0,0,0,2-.87v.7a9,9,0,0,1-2,1,6.21,6.21,0,0,1-2,.32,6.29,6.29,0,0,1-2-.32,8.8,8.8,0,0,1-2-1Z" transform="translate(-2.63 -3.6)"/><polygon class="cls-5" points="0.28 57.89 0.28 57.14 7.67 59.43 7.67 60.17 0.28 57.89"/><path class="cls-5" d="M6.5,52.66l3,.57V54l-2.94-.56-.33-.06H6a.84.84,0,0,0-.61.22.81.81,0,0,0-.23.61,1.51,1.51,0,0,0,.44,1.06,2.19,2.19,0,0,0,1.15.59l2.75.54v.81l-2.94-.58-.3,0-.25,0a.81.81,0,0,0-.62.23.8.8,0,0,0-.23.6,1.49,1.49,0,0,0,.44,1.06,2.13,2.13,0,0,0,1.15.6l2.75.54v.81l-4.92-1v-.81l.76.16A2.3,2.3,0,0,1,4.65,58a2.21,2.21,0,0,1-.22-.95,1.42,1.42,0,0,1,.28-.88,1.2,1.2,0,0,1,.78-.42,2.64,2.64,0,0,1-.79-.85,2.11,2.11,0,0,1-.27-1,1.26,1.26,0,0,1,.37-1,1.38,1.38,0,0,1,1-.35h.33l.35.06" transform="translate(-2.63 -3.6)"/><path class="cls-5" d="M2.64,51.25v-.7a9.64,9.64,0,0,1,2-1,6.31,6.31,0,0,1,2-.33,6.23,6.23,0,0,1,2,.33,9.41,9.41,0,0,1,2,1v.7a9.87,9.87,0,0,0-2-.87,7.18,7.18,0,0,0-2-.29,7.1,7.1,0,0,0-2,.29,10.19,10.19,0,0,0-2,.87" transform="translate(-2.63 -3.6)"/></g><polygon class="cls-5" points="1.92 102.39 1.92 101.55 3.96 101.95 1.92 99.43 1.92 98.45 3.77 100.74 6.84 99.1 6.84 100.09 4.3 101.42 4.87 102.13 6.84 102.51 6.84 103.34 1.92 102.39"/><g class="cls-8"><path class="cls-5" d="M6.5,64.91l3,.58v.81l-2.94-.58a4.75,4.75,0,0,0-.51,0,1.13,1.13,0,0,0-.54.12.79.79,0,0,0-.35.74,1.65,1.65,0,0,0,.41,1.12,2,2,0,0,0,1.15.6l2.78.54v.81L3.89,68.52v.56l-.72-.14v-.55l-.54-.1v-.82l.54.11V66l.72.14v1.54L5.31,68a3,3,0,0,1-.67-.81,2.14,2.14,0,0,1-.21-1A1.31,1.31,0,0,1,5,65.05a1.61,1.61,0,0,1,.86-.21,4.48,4.48,0,0,1,.69.07" transform="translate(-2.63 -3.6)"/></g><g class="cls-9"><polyline class="cls-10" points="38.56 181.41 42.92 177.57 56.66 165.48 68.64 154.94 79.26 145.59 88.8 137.19 97.46 129.57 105.38 122.6 112.69 116.17 119.46 110.2 125.78 104.64 131.7 99.43 137.27 94.53 142.53 89.91 147.5 85.53 152.23 81.37 156.72 77.41 161.02 73.63 165.12 70.02 169.05 66.56 172.82 63.24 176.45 60.05 179.94 56.97 183.31 54.01 186.56 51.15 189.7 48.39 192.74 45.71 195.68 43.12 198.54 40.61 201.31 38.17 204 35.8 206.61 33.5 209.15 31.27 211.63 29.09 214.04 26.96 216.39 24.89 218.69 22.87 220.93 20.9 223.12 18.98 225.25 17.09 227.34 15.26 229.39 13.46 231.39 11.7 233.34 9.97 235.26 8.28"/><polyline class="cls-11" points="85.93 39.15 89.96 40.03 93.83 40.97 97.54 41.91 101.11 42.81 104.55 43.68 107.87 44.53 111.07 45.33 114.17 46.08 117.17 46.81 120.08 47.49 122.9 48.09 125.64 48.68 128.29 49.43 130.88 49.63 133.4 50.01 135.85 50.37 138.23 50.67 140.56 50.91 142.84 51.06 145.05 51.23 147.22 51.27 149.34 51.42 150.75 51 154.7 51.06 156.66 51.06 158.57 51.01 160.45 50.74 162.3 50.5 164.1 50.25 165.87 49.98 167.61 49.6 169.32 49.21 170.24 49.55 173.68 48.05 175.28 47.63 176.85 47.13 178.4 46.66 179.92 46.13 181.42 45.57 182.9 44.97 184.35 44.41 185.78 43.8 187.19 43.2 188.58 42.59 189.94 41.91 191.29 41.24 192.62 40.6 193.93 39.95 195.22 39.28 196.5 38.59 197.64 37.92 232.93 13.75 233.78 13 234.63 12.32 235.47 11.69 236.3 11.03 237.12 10.38 237.94 9.7 238.75 9.07 239.55 8.42 199.03 37.18 201.04 36.1 204.25 34.19 208.02 31.75 211.57 29.3 216.56 26.04 219.48 23.86 222.18 21.96 225.06 19.51 227.73 17.61 230.03 15.98 231.6 14.62 231.6 14.89"/></g><line class="cls-12" x1="25.62" y1="148.01" x2="25.62" y2="0.4"/><line class="cls-12" x1="209.56" y1="148.01" x2="209.56" y2="0.4"/><line class="cls-12" x1="25.62" y1="148.01" x2="209.56" y2="148.01"/><line class="cls-12" x1="25.62" y1="0.4" x2="209.56" y2="0.4"/><line class="cls-13" x1="132.36" y1="99.32" x2="132.36" y2="82.8"/><polygon class="cls-14" points="132.35 93.61 134.25 90.44 132.35 87.28 130.46 90.44 132.35 93.61"/><polygon class="cls-13" points="132.35 93.61 134.25 90.44 132.35 87.28 130.46 90.44 132.35 93.61"/><g class="cls-15"><path class="cls-16" d="M48.77,119.21a2.24,2.24,0,0,0,0-4.47A2.25,2.25,0,0,0,46.53,117a2.24,2.24,0,0,0,.66,1.58,2.2,2.2,0,0,0,1.58.65" transform="translate(-2.63 -3.6)"/><path class="cls-4" d="M48.77,119.21a2.24,2.24,0,0,0,0-4.47A2.25,2.25,0,0,0,46.53,117a2.24,2.24,0,0,0,.66,1.58A2.2,2.2,0,0,0,48.77,119.21Z" transform="translate(-2.63 -3.6)"/></g><g class="cls-17"><path class="cls-16" d="M55.42,119.3a2.24,2.24,0,1,0-2.23-2.24,2.22,2.22,0,0,0,.65,1.58,2.24,2.24,0,0,0,1.58.66" transform="translate(-2.63 -3.6)"/><path class="cls-4" d="M55.42,119.3a2.24,2.24,0,1,0-2.23-2.24,2.22,2.22,0,0,0,.65,1.58A2.24,2.24,0,0,0,55.42,119.3Z" transform="translate(-2.63 -3.6)"/></g><g class="cls-18"><path class="cls-16" d="M58.48,110.7a2.24,2.24,0,0,0,1.58-.66,2.2,2.2,0,0,0,.65-1.58,2.24,2.24,0,0,0-4.47,0,2.25,2.25,0,0,0,2.24,2.24" transform="translate(-2.63 -3.6)"/><path class="cls-4" d="M58.48,110.7a2.24,2.24,0,0,0,1.58-.66,2.2,2.2,0,0,0,.65-1.58,2.24,2.24,0,0,0-4.47,0,2.25,2.25,0,0,0,2.24,2.24Z" transform="translate(-2.63 -3.6)"/></g><g class="cls-19"><path class="cls-16" d="M61.94,123.85A2.23,2.23,0,0,0,63.52,120a2.23,2.23,0,0,0-3.81,1.58,2.24,2.24,0,0,0,.65,1.59,2.28,2.28,0,0,0,1.58.65" transform="translate(-2.63 -3.6)"/><path class="cls-4" d="M61.94,123.85A2.23,2.23,0,0,0,63.52,120a2.23,2.23,0,0,0-3.81,1.58,2.24,2.24,0,0,0,.65,1.59A2.28,2.28,0,0,0,61.94,123.85Z" transform="translate(-2.63 -3.6)"/></g><g class="cls-20"><path class="cls-16" d="M69.66,107.13a2.24,2.24,0,0,0,1.58-.66,2.21,2.21,0,0,0,.66-1.58,2.24,2.24,0,1,0-4.47,0,2.2,2.2,0,0,0,.65,1.58,2.24,2.24,0,0,0,1.58.66" transform="translate(-2.63 -3.6)"/><path class="cls-4" d="M69.66,107.13a2.24,2.24,0,0,0,1.58-.66,2.21,2.21,0,0,0,.66-1.58,2.24,2.24,0,1,0-4.47,0,2.2,2.2,0,0,0,.65,1.58A2.24,2.24,0,0,0,69.66,107.13Z" transform="translate(-2.63 -3.6)"/></g><g class="cls-21"><path class="cls-16" d="M75.85,110.47a2.24,2.24,0,0,0,1.59-.65,2.28,2.28,0,0,0,.65-1.58,2.23,2.23,0,0,0-3.82-1.58,2.2,2.2,0,0,0-.65,1.58,2.22,2.22,0,0,0,2.23,2.23" transform="translate(-2.63 -3.6)"/><path class="cls-4" d="M75.85,110.47a2.24,2.24,0,0,0,1.59-.65,2.28,2.28,0,0,0,.65-1.58,2.23,2.23,0,0,0-3.82-1.58,2.2,2.2,0,0,0-.65,1.58,2.22,2.22,0,0,0,2.23,2.23Z" transform="translate(-2.63 -3.6)"/></g><g class="cls-22"><path class="cls-16" d="M82.64,114.17a2.24,2.24,0,1,0-1.58-.65,2.23,2.23,0,0,0,1.58.65" transform="translate(-2.63 -3.6)"/><path class="cls-4" d="M82.64,114.17a2.24,2.24,0,1,0-1.58-.65A2.23,2.23,0,0,0,82.64,114.17Z" transform="translate(-2.63 -3.6)"/></g><g class="cls-23"><path class="cls-16" d="M83.69,111.69a2.22,2.22,0,0,0,1.58-.65,2.25,2.25,0,1,0-1.58.65" transform="translate(-2.63 -3.6)"/><path class="cls-4" d="M83.69,111.69a2.22,2.22,0,0,0,1.58-.65,2.25,2.25,0,1,0-1.58.65Z" transform="translate(-2.63 -3.6)"/></g><g class="cls-24"><path class="cls-16" d="M85.38,105.41a2.25,2.25,0,0,0,1.59-.66,2.25,2.25,0,0,0,0-3.16,2.24,2.24,0,1,0-1.59,3.82" transform="translate(-2.63 -3.6)"/><path class="cls-4" d="M85.38,105.41a2.25,2.25,0,0,0,1.59-.66,2.25,2.25,0,0,0,0-3.16,2.24,2.24,0,1,0-1.59,3.82Z" transform="translate(-2.63 -3.6)"/></g><g class="cls-25"><path class="cls-16" d="M92.27,105.94a2.22,2.22,0,0,0,1.58-.65,2.25,2.25,0,1,0-1.58.65" transform="translate(-2.63 -3.6)"/><path class="cls-4" d="M92.27,105.94a2.22,2.22,0,0,0,1.58-.65,2.25,2.25,0,1,0-1.58.65Z" transform="translate(-2.63 -3.6)"/></g><g class="cls-26"><path class="cls-16" d="M97.69,104.55a2.21,2.21,0,0,0,1.58-.66,2.22,2.22,0,0,0,0-3.16,2.21,2.21,0,0,0-1.58-.66,2.24,2.24,0,0,0,0,4.48" transform="translate(-2.63 -3.6)"/><path class="cls-4" d="M97.69,104.55a2.21,2.21,0,0,0,1.58-.66,2.22,2.22,0,0,0,0-3.16,2.21,2.21,0,0,0-1.58-.66,2.24,2.24,0,0,0,0,4.48Z" transform="translate(-2.63 -3.6)"/></g><g class="cls-27"><path class="cls-16" d="M105.26,94.74a2.24,2.24,0,1,0-1.58-.65,2.23,2.23,0,0,0,1.58.65" transform="translate(-2.63 -3.6)"/><path class="cls-4" d="M105.26,94.74a2.24,2.24,0,1,0-1.58-.65A2.23,2.23,0,0,0,105.26,94.74Z" transform="translate(-2.63 -3.6)"/></g><g class="cls-28"><path class="cls-16" d="M109.69,95.26a2.21,2.21,0,0,0,1.58-.66,2.22,2.22,0,0,0,0-3.16,2.2,2.2,0,0,0-1.58-.65,2.24,2.24,0,0,0,0,4.47" transform="translate(-2.63 -3.6)"/><path class="cls-4" d="M109.69,95.26a2.21,2.21,0,0,0,1.58-.66,2.22,2.22,0,0,0,0-3.16,2.2,2.2,0,0,0-1.58-.65,2.24,2.24,0,0,0,0,4.47Z" transform="translate(-2.63 -3.6)"/></g><g class="cls-29"><path class="cls-16" d="M120,93.58a2.25,2.25,0,0,0,2.24-2.24,2.24,2.24,0,0,0-.66-1.58,2.2,2.2,0,0,0-1.58-.65,2.24,2.24,0,0,0,0,4.47" transform="translate(-2.63 -3.6)"/><path class="cls-4" d="M120,93.58a2.25,2.25,0,0,0,2.24-2.24,2.24,2.24,0,0,0-.66-1.58,2.2,2.2,0,0,0-1.58-.65,2.24,2.24,0,0,0,0,4.47Z" transform="translate(-2.63 -3.6)"/></g><g class="cls-30"><path class="cls-16" d="M122.07,98.09a2.24,2.24,0,1,0-1.59-3.82,2.25,2.25,0,0,0,0,3.16,2.25,2.25,0,0,0,1.59.66" transform="translate(-2.63 -3.6)"/><path class="cls-4" d="M122.07,98.09a2.24,2.24,0,1,0-1.59-3.82,2.25,2.25,0,0,0,0,3.16A2.25,2.25,0,0,0,122.07,98.09Z" transform="translate(-2.63 -3.6)"/></g><g class="cls-31"><path class="cls-16" d="M124.38,89.06A2.23,2.23,0,0,0,126,85.24a2.2,2.2,0,0,0-1.58-.65,2.24,2.24,0,0,0-1.58,3.82,2.28,2.28,0,0,0,1.58.65" transform="translate(-2.63 -3.6)"/><path class="cls-4" d="M124.38,89.06A2.23,2.23,0,0,0,126,85.24a2.2,2.2,0,0,0-1.58-.65,2.24,2.24,0,0,0-1.58,3.82A2.28,2.28,0,0,0,124.38,89.06Z" transform="translate(-2.63 -3.6)"/></g><g class="cls-32"><path class="cls-16" d="M127.17,81.14a2.25,2.25,0,1,0-1.58-.66,2.24,2.24,0,0,0,1.58.66" transform="translate(-2.63 -3.6)"/><path class="cls-4" d="M127.17,81.14a2.25,2.25,0,1,0-1.58-.66A2.24,2.24,0,0,0,127.17,81.14Z" transform="translate(-2.63 -3.6)"/></g><g class="cls-33"><path class="cls-16" d="M142.54,81.27a2.23,2.23,0,0,0,1.58-3.82,2.2,2.2,0,0,0-1.58-.65A2.24,2.24,0,0,0,141,80.62a2.28,2.28,0,0,0,1.58.65" transform="translate(-2.63 -3.6)"/><path class="cls-4" d="M142.54,81.27a2.23,2.23,0,0,0,1.58-3.82,2.2,2.2,0,0,0-1.58-.65A2.24,2.24,0,0,0,141,80.62,2.28,2.28,0,0,0,142.54,81.27Z" transform="translate(-2.63 -3.6)"/></g><g class="cls-34"><path class="cls-16" d="M144.76,73.25a2.24,2.24,0,0,0,1.58-.66A2.2,2.2,0,0,0,147,71a2.24,2.24,0,0,0-3.82-1.58,2.28,2.28,0,0,0-.65,1.58,2.24,2.24,0,0,0,2.24,2.24" transform="translate(-2.63 -3.6)"/><path class="cls-4" d="M144.76,73.25a2.24,2.24,0,0,0,1.58-.66A2.2,2.2,0,0,0,147,71a2.24,2.24,0,0,0-3.82-1.58,2.28,2.28,0,0,0-.65,1.58,2.24,2.24,0,0,0,2.24,2.24Z" transform="translate(-2.63 -3.6)"/></g><g class="cls-35"><path class="cls-16" d="M152.48,63.42a2.24,2.24,0,1,0-1.58-.65,2.23,2.23,0,0,0,1.58.65" transform="translate(-2.63 -3.6)"/><path class="cls-4" d="M152.48,63.42a2.24,2.24,0,1,0-1.58-.65A2.23,2.23,0,0,0,152.48,63.42Z" transform="translate(-2.63 -3.6)"/></g><g class="cls-36"><path class="cls-16" d="M156.32,74a2.24,2.24,0,1,0-1.58-.66,2.24,2.24,0,0,0,1.58.66" transform="translate(-2.63 -3.6)"/><path class="cls-4" d="M156.32,74a2.24,2.24,0,1,0-1.58-.66A2.24,2.24,0,0,0,156.32,74Z" transform="translate(-2.63 -3.6)"/></g><g class="cls-37"><path class="cls-16" d="M160.63,75.89a2.24,2.24,0,0,0,0-4.48,2.21,2.21,0,0,0-1.58.66,2.22,2.22,0,0,0,0,3.16,2.21,2.21,0,0,0,1.58.66" transform="translate(-2.63 -3.6)"/><path class="cls-4" d="M160.63,75.89a2.24,2.24,0,0,0,0-4.48,2.21,2.21,0,0,0-1.58.66,2.22,2.22,0,0,0,0,3.16A2.21,2.21,0,0,0,160.63,75.89Z" transform="translate(-2.63 -3.6)"/></g><g class="cls-38"><path class="cls-16" d="M161.72,66.78a2.24,2.24,0,0,0,1.58-.66,2.2,2.2,0,0,0,.65-1.58A2.24,2.24,0,0,0,160.13,63a2.28,2.28,0,0,0-.65,1.58,2.24,2.24,0,0,0,2.24,2.24" transform="translate(-2.63 -3.6)"/><path class="cls-4" d="M161.72,66.78a2.24,2.24,0,0,0,1.58-.66,2.2,2.2,0,0,0,.65-1.58A2.24,2.24,0,0,0,160.13,63a2.28,2.28,0,0,0-.65,1.58,2.24,2.24,0,0,0,2.24,2.24Z" transform="translate(-2.63 -3.6)"/></g><g class="cls-39"><path class="cls-16" d="M165.68,53.47a2.25,2.25,0,1,0-1.58-.66,2.24,2.24,0,0,0,1.58.66" transform="translate(-2.63 -3.6)"/><path class="cls-4" d="M165.68,53.47a2.25,2.25,0,1,0-1.58-.66A2.24,2.24,0,0,0,165.68,53.47Z" transform="translate(-2.63 -3.6)"/></g><g class="cls-40"><path class="cls-16" d="M168.17,53.66a2.24,2.24,0,1,0-1.58-.66,2.24,2.24,0,0,0,1.58.66" transform="translate(-2.63 -3.6)"/><path class="cls-4" d="M168.17,53.66a2.24,2.24,0,1,0-1.58-.66A2.24,2.24,0,0,0,168.17,53.66Z" transform="translate(-2.63 -3.6)"/></g><g class="cls-41"><path class="cls-16" d="M168.21,52.76a2.24,2.24,0,0,0,2.24-2.23,2.21,2.21,0,0,0-.66-1.58,2.22,2.22,0,0,0-3.16,0,2.2,2.2,0,0,0-.65,1.58,2.22,2.22,0,0,0,2.23,2.23" transform="translate(-2.63 -3.6)"/><path class="cls-4" d="M168.21,52.76a2.24,2.24,0,0,0,2.24-2.23,2.21,2.21,0,0,0-.66-1.58,2.22,2.22,0,0,0-3.16,0,2.2,2.2,0,0,0-.65,1.58,2.22,2.22,0,0,0,2.23,2.23Z" transform="translate(-2.63 -3.6)"/></g><g class="cls-42"><path class="cls-16" d="M182.71,49.73a2.24,2.24,0,1,0-2.23-2.24,2.2,2.2,0,0,0,.65,1.58,2.24,2.24,0,0,0,1.58.66" transform="translate(-2.63 -3.6)"/><path class="cls-4" d="M182.71,49.73a2.24,2.24,0,1,0-2.23-2.24,2.2,2.2,0,0,0,.65,1.58A2.24,2.24,0,0,0,182.71,49.73Z" transform="translate(-2.63 -3.6)"/></g><g class="cls-43"><path class="cls-16" d="M184.69,35.93a2.25,2.25,0,1,0-1.58-.66,2.24,2.24,0,0,0,1.58.66" transform="translate(-2.63 -3.6)"/><path class="cls-4" d="M184.69,35.93a2.25,2.25,0,1,0-1.58-.66A2.24,2.24,0,0,0,184.69,35.93Z" transform="translate(-2.63 -3.6)"/></g><g class="cls-44"><path class="cls-16" d="M188.41,39.78a2.24,2.24,0,0,0,1.58-.66A2.23,2.23,0,0,0,186.83,36a2.22,2.22,0,0,0,0,3.16,2.21,2.21,0,0,0,1.58.66" transform="translate(-2.63 -3.6)"/><path class="cls-4" d="M188.41,39.78a2.24,2.24,0,0,0,1.58-.66A2.23,2.23,0,0,0,186.83,36a2.22,2.22,0,0,0,0,3.16A2.21,2.21,0,0,0,188.41,39.78Z" transform="translate(-2.63 -3.6)"/></g><g class="cls-45"><path class="cls-16" d="M197.3,25.8a2.22,2.22,0,0,0,2.23-2.23,2.2,2.2,0,0,0-.65-1.58,2.24,2.24,0,0,0-3.82,1.58,2.28,2.28,0,0,0,.65,1.58,2.24,2.24,0,0,0,1.59.65" transform="translate(-2.63 -3.6)"/><path class="cls-4" d="M197.3,25.8a2.22,2.22,0,0,0,2.23-2.23,2.2,2.2,0,0,0-.65-1.58,2.24,2.24,0,0,0-3.82,1.58,2.28,2.28,0,0,0,.65,1.58A2.24,2.24,0,0,0,197.3,25.8Z" transform="translate(-2.63 -3.6)"/></g><g class="cls-46"><path class="cls-16" d="M198.58,35.29a2.28,2.28,0,0,0,1.58-.65,2.24,2.24,0,1,0-3.16,0,2.28,2.28,0,0,0,1.58.65" transform="translate(-2.63 -3.6)"/><path class="cls-4" d="M198.58,35.29a2.28,2.28,0,0,0,1.58-.65,2.24,2.24,0,1,0-3.16,0A2.28,2.28,0,0,0,198.58,35.29Z" transform="translate(-2.63 -3.6)"/></g><rect class="cls-3" x="242.46" y="0.4" width="183.93" height="147.61"/><path class="cls-5" d="M416.75,151.61v0Z" transform="translate(-2.63 -3.6)"/><line class="cls-6" x1="414.12" y1="148.01" x2="414.12" y2="144.51"/><path class="cls-5" d="M416.75,7.5v0Z" transform="translate(-2.63 -3.6)"/><line class="cls-6" x1="414.12" y1="0.4" x2="414.12" y2="3.9"/><g class="cls-2"><path class="cls-5" d="M413.52,162.26h-.88v-5.6a5.08,5.08,0,0,1-.84.61,5.89,5.89,0,0,1-.92.45v-.85a5.32,5.32,0,0,0,1.29-.84,3.3,3.3,0,0,0,.78-1h.57Z" transform="translate(-2.63 -3.6)"/><rect class="cls-5" x="413.64" y="157.66" width="1" height="1"/><path class="cls-5" d="M419.45,158.73a4.45,4.45,0,0,0,.41,2.35,1.18,1.18,0,0,0,2,0,6.78,6.78,0,0,0,0-4.7,1.25,1.25,0,0,0-1-.58,1.12,1.12,0,0,0-1,.51,4.61,4.61,0,0,0-.45,2.42m-.9,0a6.4,6.4,0,0,1,.26-2,2.53,2.53,0,0,1,.77-1.2,2,2,0,0,1,1.3-.42,1.95,1.95,0,0,1,1.72.91,3.33,3.33,0,0,1,.46,1.06,7.54,7.54,0,0,1,.16,1.69,7,7,0,0,1-.26,2,2.44,2.44,0,0,1-.78,1.19,2,2,0,0,1-1.3.41,2,2,0,0,1-1.63-.73,4.71,4.71,0,0,1-.7-2.91" transform="translate(-2.63 -3.6)"/><line class="cls-5" x1="248.14" y1="148.01" x2="248.14" y2="146.01"/><line class="cls-7" x1="248.14" y1="148.01" x2="248.14" y2="146.01"/><line class="cls-5" x1="248.14" y1="0.4" x2="248.14" y2="2.4"/><line class="cls-7" x1="248.14" y1="0.4" x2="248.14" y2="2.4"/><polygon class="cls-5" points="243.17 151.41 248.72 151.41 248.58 152.16 246.24 152.16 245.11 157.97 244.22 157.97 245.35 152.16 243.02 152.16 243.17 151.41"/><path class="cls-5" d="M255.14,158.81l-.12.65a2.49,2.49,0,0,0-.63-.44,1.89,1.89,0,0,0-.72-.14,1.73,1.73,0,0,0-.92.25,2.09,2.09,0,0,0-.69.77,3,3,0,0,0-.28.7,3.15,3.15,0,0,0-.1.75,1.26,1.26,0,0,0,.33,1,1.24,1.24,0,0,0,.94.33,2.56,2.56,0,0,0,.82-.13,2.78,2.78,0,0,0,.77-.42l-.15.74a3.33,3.33,0,0,1-.74.23,3.81,3.81,0,0,1-.74.08,1.91,1.91,0,0,1-1.38-.47,1.75,1.75,0,0,1-.5-1.34,3.15,3.15,0,0,1,.19-1.08,3,3,0,0,1,.54-1,2.35,2.35,0,0,1,.86-.69,2.76,2.76,0,0,1,1.12-.22,2.36,2.36,0,0,1,1.4.44" transform="translate(-2.63 -3.6)"/><line class="cls-5" x1="263.36" y1="148.01" x2="263.36" y2="146.01"/><line class="cls-7" x1="263.36" y1="148.01" x2="263.36" y2="146.01"/><line class="cls-5" x1="263.36" y1="0.4" x2="263.36" y2="2.4"/><line class="cls-7" x1="263.36" y1="0.4" x2="263.36" y2="2.4"/><path class="cls-5" d="M260.93,158.27a3.91,3.91,0,0,0,.37,2.11,1.08,1.08,0,0,0,.91.53,1.1,1.1,0,0,0,.91-.53,3.88,3.88,0,0,0,.38-2.11,3.93,3.93,0,0,0-.38-2.12,1.11,1.11,0,0,0-.91-.52,1,1,0,0,0-.88.46,4.18,4.18,0,0,0-.4,2.18m-.81,0a5.85,5.85,0,0,1,.23-1.84,2.27,2.27,0,0,1,.69-1.08,1.83,1.83,0,0,1,1.17-.38,1.88,1.88,0,0,1,.91.22,1.75,1.75,0,0,1,.64.6,3.27,3.27,0,0,1,.41,1,6.83,6.83,0,0,1,.14,1.52,6.09,6.09,0,0,1-.23,1.83,2.34,2.34,0,0,1-.7,1.08,1.78,1.78,0,0,1-1.17.36,1.75,1.75,0,0,1-1.46-.65,4.21,4.21,0,0,1-.63-2.62" transform="translate(-2.63 -3.6)"/><rect class="cls-5" x="262.93" y="156.95" width="0.9" height="0.9"/><path class="cls-5" d="M271.77,160.69v.76h-4.25a1.3,1.3,0,0,1,.09-.55,3,3,0,0,1,.52-.86,8.4,8.4,0,0,1,1-1,8.6,8.6,0,0,0,1.42-1.36,1.59,1.59,0,0,0,.37-.95,1,1,0,0,0-.34-.79,1.18,1.18,0,0,0-.87-.33,1.25,1.25,0,0,0-.91.34,1.32,1.32,0,0,0-.35,1l-.81-.09a2,2,0,0,1,.62-1.39,2.18,2.18,0,0,1,1.47-.48,2,2,0,0,1,1.46.53,1.67,1.67,0,0,1,.54,1.27,1.85,1.85,0,0,1-.16.76,3,3,0,0,1-.52.78,11.42,11.42,0,0,1-1.22,1.14,9.9,9.9,0,0,0-.91.81,2.56,2.56,0,0,0-.34.43Z" transform="translate(-2.63 -3.6)"/><line class="cls-5" x1="301.34" y1="148.01" x2="301.34" y2="146.01"/><line class="cls-7" x1="301.34" y1="148.01" x2="301.34" y2="146.01"/><line class="cls-5" x1="301.34" y1="0.4" x2="301.34" y2="2.4"/><line class="cls-7" x1="301.34" y1="0.4" x2="301.34" y2="2.4"/><path class="cls-5" d="M298.91,158.27a3.91,3.91,0,0,0,.37,2.11,1.08,1.08,0,0,0,.91.53,1.1,1.1,0,0,0,.91-.53,3.88,3.88,0,0,0,.38-2.11,3.93,3.93,0,0,0-.38-2.12,1.11,1.11,0,0,0-.91-.52,1,1,0,0,0-.88.46,4.18,4.18,0,0,0-.4,2.18m-.81,0a5.85,5.85,0,0,1,.23-1.84,2.27,2.27,0,0,1,.69-1.08,1.83,1.83,0,0,1,1.17-.38,1.88,1.88,0,0,1,.91.22,1.75,1.75,0,0,1,.64.6,3.27,3.27,0,0,1,.41,1,6.83,6.83,0,0,1,.14,1.52,6.09,6.09,0,0,1-.23,1.83,2.34,2.34,0,0,1-.7,1.08,1.78,1.78,0,0,1-1.17.36,1.75,1.75,0,0,1-1.46-.65,4.21,4.21,0,0,1-.63-2.62" transform="translate(-2.63 -3.6)"/><rect class="cls-5" x="300.91" y="156.95" width="0.9" height="0.9"/><path class="cls-5" d="M305.6,159.74l.8-.1a1.73,1.73,0,0,0,.46,1,1.12,1.12,0,0,0,.8.3,1.24,1.24,0,0,0,.93-.39,1.33,1.33,0,0,0,.39-1,1.26,1.26,0,0,0-.36-.9,1.24,1.24,0,0,0-.9-.36,2.78,2.78,0,0,0-.56.09l.09-.69h.13a1.61,1.61,0,0,0,.91-.26.91.91,0,0,0,.4-.82.93.93,0,0,0-.3-.71,1,1,0,0,0-.75-.29,1.12,1.12,0,0,0-.78.29,1.46,1.46,0,0,0-.38.86l-.8-.13a2,2,0,0,1,.66-1.23,1.92,1.92,0,0,1,1.28-.45,2.11,2.11,0,0,1,1,.24,1.75,1.75,0,0,1,.68.61,1.57,1.57,0,0,1,.24.83,1.38,1.38,0,0,1-.22.76,1.44,1.44,0,0,1-.67.54,1.52,1.52,0,0,1,.88.55,1.65,1.65,0,0,1,.33,1.05,1.88,1.88,0,0,1-.63,1.42,2.14,2.14,0,0,1-1.54.58,2,2,0,0,1-1.42-.5,1.94,1.94,0,0,1-.64-1.31" transform="translate(-2.63 -3.6)"/><line class="cls-5" x1="328.29" y1="148.01" x2="328.29" y2="146.01"/><line class="cls-7" x1="328.29" y1="148.01" x2="328.29" y2="146.01"/><line class="cls-5" x1="328.29" y1="0.4" x2="328.29" y2="2.4"/><line class="cls-7" x1="328.29" y1="0.4" x2="328.29" y2="2.4"/><path class="cls-5" d="M325.86,158.27a4,4,0,0,0,.36,2.11,1.05,1.05,0,0,0,1.83,0,4,4,0,0,0,.38-2.11,4,4,0,0,0-.38-2.12,1.13,1.13,0,0,0-.92-.52,1,1,0,0,0-.87.46,4.18,4.18,0,0,0-.4,2.18m-.81,0a5.85,5.85,0,0,1,.23-1.84,2.27,2.27,0,0,1,.69-1.08,1.81,1.81,0,0,1,1.17-.38,1.91,1.91,0,0,1,.91.22,1.83,1.83,0,0,1,.64.6,3.27,3.27,0,0,1,.41,1,6.83,6.83,0,0,1,.14,1.52,6.09,6.09,0,0,1-.23,1.83,2.34,2.34,0,0,1-.7,1.08,1.78,1.78,0,0,1-1.17.36,1.75,1.75,0,0,1-1.46-.65,4.21,4.21,0,0,1-.63-2.62" transform="translate(-2.63 -3.6)"/><rect class="cls-5" x="327.86" y="156.95" width="0.9" height="0.9"/><path class="cls-5" d="M335.08,159.18v-2.91l-2,2.91Zm0,2.27v-1.54h-2.79v-.73l2.93-4.18h.65v4.18h.88v.73h-.88v1.54h-.79" transform="translate(-2.63 -3.6)"/><line class="cls-5" x1="349.19" y1="148.01" x2="349.19" y2="146.01"/><line class="cls-7" x1="349.19" y1="148.01" x2="349.19" y2="146.01"/><line class="cls-5" x1="349.19" y1="0.4" x2="349.19" y2="2.4"/><line class="cls-7" x1="349.19" y1="0.4" x2="349.19" y2="2.4"/><line class="cls-5" x1="366.27" y1="148.01" x2="366.27" y2="146.01"/><line class="cls-7" x1="366.27" y1="148.01" x2="366.27" y2="146.01"/><line class="cls-5" x1="366.27" y1="0.4" x2="366.27" y2="2.4"/><line class="cls-7" x1="366.27" y1="0.4" x2="366.27" y2="2.4"/><path class="cls-5" d="M363.84,158.27a4,4,0,0,0,.36,2.11,1.05,1.05,0,0,0,1.83,0,4,4,0,0,0,.38-2.11,4,4,0,0,0-.38-2.12,1.13,1.13,0,0,0-.92-.52,1,1,0,0,0-.87.46,4.18,4.18,0,0,0-.4,2.18m-.81,0a5.85,5.85,0,0,1,.23-1.84,2.27,2.27,0,0,1,.69-1.08,1.81,1.81,0,0,1,1.17-.38,1.91,1.91,0,0,1,.91.22,1.83,1.83,0,0,1,.64.6,3.27,3.27,0,0,1,.41,1,6.83,6.83,0,0,1,.14,1.52,6.09,6.09,0,0,1-.23,1.83,2.34,2.34,0,0,1-.7,1.08,1.78,1.78,0,0,1-1.17.36,1.75,1.75,0,0,1-1.46-.65,4.21,4.21,0,0,1-.63-2.62" transform="translate(-2.63 -3.6)"/><rect class="cls-5" x="365.84" y="156.95" width="0.9" height="0.9"/><path class="cls-5" d="M371.41,159.36a1.77,1.77,0,0,0,.17.78,1.18,1.18,0,0,0,.48.57,1.24,1.24,0,0,0,.66.2,1.12,1.12,0,0,0,.85-.41,1.58,1.58,0,0,0,.36-1.1,1.49,1.49,0,0,0-.36-1.05,1.17,1.17,0,0,0-.89-.39,1.26,1.26,0,0,0-.91.39,1.38,1.38,0,0,0-.36,1m3.23-2.78-.8.06a1.67,1.67,0,0,0-.29-.68,1.13,1.13,0,0,0-.79-.33,1.09,1.09,0,0,0-.67.21,1.87,1.87,0,0,0-.59.79,4.14,4.14,0,0,0-.22,1.49,1.83,1.83,0,0,1,.7-.63,1.76,1.76,0,0,1,.87-.22,1.82,1.82,0,0,1,1.34.58,2.11,2.11,0,0,1,.55,1.51,2.49,2.49,0,0,1-.26,1.12,1.85,1.85,0,0,1-.72.79,2,2,0,0,1-1,.27,2,2,0,0,1-1.61-.72,3.59,3.59,0,0,1-.62-2.39,4.35,4.35,0,0,1,.68-2.72,2,2,0,0,1,1.62-.74,1.76,1.76,0,0,1,1.84,1.61" transform="translate(-2.63 -3.6)"/><line class="cls-5" x1="380.71" y1="148.01" x2="380.71" y2="146.01"/><line class="cls-7" x1="380.71" y1="148.01" x2="380.71" y2="146.01"/><line class="cls-5" x1="380.71" y1="0.4" x2="380.71" y2="2.4"/><line class="cls-7" x1="380.71" y1="0.4" x2="380.71" y2="2.4"/><line class="cls-5" x1="393.22" y1="148.01" x2="393.22" y2="146.01"/><line class="cls-7" x1="393.22" y1="148.01" x2="393.22" y2="146.01"/><line class="cls-5" x1="393.22" y1="0.4" x2="393.22" y2="2.4"/><line class="cls-7" x1="393.22" y1="0.4" x2="393.22" y2="2.4"/><path class="cls-5" d="M390.78,158.27a4,4,0,0,0,.37,2.11,1.05,1.05,0,0,0,1.83,0,4,4,0,0,0,.38-2.11,4,4,0,0,0-.38-2.12,1.13,1.13,0,0,0-.92-.52,1,1,0,0,0-.87.46,4.16,4.16,0,0,0-.41,2.18m-.81,0a5.82,5.82,0,0,1,.24-1.84,2.2,2.2,0,0,1,.69-1.08,1.81,1.81,0,0,1,1.17-.38,1.91,1.91,0,0,1,.91.22,1.83,1.83,0,0,1,.64.6,3.26,3.26,0,0,1,.4,1,6.74,6.74,0,0,1,.15,1.52,5.75,5.75,0,0,1-.24,1.83,2.25,2.25,0,0,1-.69,1.08,1.8,1.8,0,0,1-1.17.36,1.76,1.76,0,0,1-1.47-.65,4.27,4.27,0,0,1-.63-2.62" transform="translate(-2.63 -3.6)"/><rect class="cls-5" x="392.79" y="156.95" width="0.9" height="0.9"/><path class="cls-5" d="M398.28,159.58a1.37,1.37,0,0,0,.16.66,1,1,0,0,0,.48.49,1.32,1.32,0,0,0,.67.18,1.31,1.31,0,1,0,0-2.61,1.26,1.26,0,0,0-.93.36,1.3,1.3,0,0,0-.36.92m.25-3a1,1,0,0,0,.3.75,1,1,0,0,0,.76.29,1,1,0,0,0,.75-.29.92.92,0,0,0,.3-.7,1,1,0,0,0-.31-.73,1,1,0,0,0-.74-.3,1.06,1.06,0,0,0-.76.29.93.93,0,0,0-.3.69m.16,1.34a1.38,1.38,0,0,1-.73-.51,1.27,1.27,0,0,1-.24-.8,1.52,1.52,0,0,1,.51-1.18,1.9,1.9,0,0,1,1.35-.49,2,2,0,0,1,1.36.5,1.57,1.57,0,0,1,.51,1.19,1.29,1.29,0,0,1-.24.78,1.36,1.36,0,0,1-.72.51,1.66,1.66,0,0,1,1.22,1.65,1.84,1.84,0,0,1-.59,1.39,2.42,2.42,0,0,1-3.07,0,1.86,1.86,0,0,1-.58-1.41,1.68,1.68,0,0,1,.32-1.05,1.6,1.6,0,0,1,.9-.58" transform="translate(-2.63 -3.6)"/><line class="cls-5" x1="404.25" y1="148.01" x2="404.25" y2="146.01"/><line class="cls-7" x1="404.25" y1="148.01" x2="404.25" y2="146.01"/><line class="cls-5" x1="404.25" y1="0.4" x2="404.25" y2="2.4"/><line class="cls-7" x1="404.25" y1="0.4" x2="404.25" y2="2.4"/><line class="cls-5" x1="423.05" y1="148.01" x2="423.05" y2="146.01"/><line class="cls-7" x1="423.05" y1="148.01" x2="423.05" y2="146.01"/><line class="cls-5" x1="423.05" y1="0.4" x2="423.05" y2="2.4"/><line class="cls-7" x1="423.05" y1="0.4" x2="423.05" y2="2.4"/><polygon class="cls-5" points="325.96 164.65 331.51 164.65 331.37 165.4 329.02 165.4 327.9 171.21 327.01 171.21 328.13 165.4 325.81 165.4 325.96 164.65"/><polygon class="cls-5" points="333.21 164.65 333.96 164.65 331.67 172.04 330.92 172.04 333.21 164.65"/><polygon class="cls-5" points="334.49 164.65 340.04 164.65 339.9 165.4 337.56 165.4 336.43 171.21 335.54 171.21 336.66 165.4 334.34 165.4 334.49 164.65"/><polygon class="cls-5" points="340.52 168.09 343.15 168.09 343.05 168.62 341.04 168.62 340.77 169.97 342.59 169.97 342.49 170.5 340.67 170.5 340.24 172.69 339.62 172.69 340.52 168.09"/><line class="cls-5" x1="242.46" y1="89.27" x2="245.96" y2="89.27"/><line class="cls-6" x1="242.46" y1="89.27" x2="245.96" y2="89.27"/><line class="cls-5" x1="426.39" y1="89.27" x2="422.89" y2="89.27"/><line class="cls-6" x1="426.39" y1="89.27" x2="422.89" y2="89.27"/><path class="cls-5" d="M239.75,96.45h-.88v-5.6a5.08,5.08,0,0,1-.84.61,5.89,5.89,0,0,1-.92.45v-.85a5.32,5.32,0,0,0,1.29-.84,3.3,3.3,0,0,0,.78-1h.57Z" transform="translate(-2.63 -3.6)"/><line class="cls-5" x1="242.46" y1="133.7" x2="244.46" y2="133.7"/><line class="cls-7" x1="242.46" y1="133.7" x2="244.46" y2="133.7"/><line class="cls-5" x1="426.39" y1="133.7" x2="424.39" y2="133.7"/><line class="cls-7" x1="426.39" y1="133.7" x2="424.39" y2="133.7"/><path class="cls-5" d="M230.37,137.34a4,4,0,0,0,.37,2.12,1.07,1.07,0,0,0,1.83,0,6.08,6.08,0,0,0,0-4.23,1.13,1.13,0,0,0-.92-.52,1,1,0,0,0-.87.46,4.1,4.1,0,0,0-.41,2.17m-.81,0a5.8,5.8,0,0,1,.24-1.83,2.27,2.27,0,0,1,.69-1.08,2,2,0,0,1,2.08-.16,1.83,1.83,0,0,1,.64.6,3.06,3.06,0,0,1,.4.95,6.74,6.74,0,0,1,.15,1.52,5.82,5.82,0,0,1-.24,1.84,2.17,2.17,0,0,1-.69,1.07,2,2,0,0,1-2.64-.29,4.25,4.25,0,0,1-.63-2.62" transform="translate(-2.63 -3.6)"/><rect class="cls-5" x="232.38" y="136.02" width="0.9" height="0.9"/><path class="cls-5" d="M237.07,138.83l.83-.06a1.44,1.44,0,0,0,.42.91,1.2,1.2,0,0,0,.81.3,1.27,1.27,0,0,0,1-.43,1.65,1.65,0,0,0,.4-1.14,1.51,1.51,0,0,0-.39-1.07,1.31,1.31,0,0,0-1-.39,1.37,1.37,0,0,0-.69.18,1.28,1.28,0,0,0-.48.44l-.74-.09.62-3.31H241v.75h-2.56l-.36,1.73a2.11,2.11,0,0,1,1.22-.4,1.92,1.92,0,0,1,1.42.58,2.05,2.05,0,0,1,.59,1.5,2.32,2.32,0,0,1-.52,1.52,2,2,0,0,1-1.69.77,2.07,2.07,0,0,1-1.43-.49,1.82,1.82,0,0,1-.63-1.3" transform="translate(-2.63 -3.6)"/><line class="cls-5" x1="242.46" y1="122.02" x2="244.46" y2="122.02"/><line class="cls-7" x1="242.46" y1="122.02" x2="244.46" y2="122.02"/><line class="cls-5" x1="426.39" y1="122.02" x2="424.39" y2="122.02"/><line class="cls-7" x1="426.39" y1="122.02" x2="424.39" y2="122.02"/><line class="cls-5" x1="242.46" y1="112.13" x2="244.46" y2="112.13"/><line class="cls-7" x1="242.46" y1="112.13" x2="244.46" y2="112.13"/><line class="cls-5" x1="426.39" y1="112.13" x2="424.39" y2="112.13"/><line class="cls-7" x1="426.39" y1="112.13" x2="424.39" y2="112.13"/><path class="cls-5" d="M230.37,115.78a4,4,0,0,0,.37,2.11,1.07,1.07,0,0,0,1.83,0,6.08,6.08,0,0,0,0-4.23,1.13,1.13,0,0,0-.92-.52,1,1,0,0,0-.87.46,4.12,4.12,0,0,0-.41,2.18m-.81,0a5.82,5.82,0,0,1,.24-1.84,2.27,2.27,0,0,1,.69-1.08,2,2,0,0,1,2.08-.16,1.83,1.83,0,0,1,.64.6,3.06,3.06,0,0,1,.4,1,6.84,6.84,0,0,1,.15,1.53,5.8,5.8,0,0,1-.24,1.83,2.17,2.17,0,0,1-.69,1.07,1.78,1.78,0,0,1-1.17.37,1.76,1.76,0,0,1-1.47-.66,4.24,4.24,0,0,1-.63-2.61" transform="translate(-2.63 -3.6)"/><rect class="cls-5" x="232.38" y="114.45" width="0.9" height="0.9"/><path class="cls-5" d="M237.12,113.35v-.76h4.17v.62a8.58,8.58,0,0,0-1.22,1.75,10.2,10.2,0,0,0-.94,2.22,8,8,0,0,0-.3,1.77H238a7.42,7.42,0,0,1,.29-1.83,9.83,9.83,0,0,1,2-3.77Z" transform="translate(-2.63 -3.6)"/><line class="cls-5" x1="242.46" y1="103.57" x2="244.46" y2="103.57"/><line class="cls-7" x1="242.46" y1="103.57" x2="244.46" y2="103.57"/><line class="cls-5" x1="426.39" y1="103.57" x2="424.39" y2="103.57"/><line class="cls-7" x1="426.39" y1="103.57" x2="424.39" y2="103.57"/><line class="cls-5" x1="242.46" y1="96.02" x2="244.46" y2="96.02"/><line class="cls-7" x1="242.46" y1="96.02" x2="244.46" y2="96.02"/><line class="cls-5" x1="426.39" y1="96.02" x2="424.39" y2="96.02"/><line class="cls-7" x1="426.39" y1="96.02" x2="424.39" y2="96.02"/><line class="cls-5" x1="242.46" y1="44.83" x2="244.46" y2="44.83"/><line class="cls-7" x1="242.46" y1="44.83" x2="244.46" y2="44.83"/><line class="cls-5" x1="426.39" y1="44.83" x2="424.39" y2="44.83"/><line class="cls-7" x1="426.39" y1="44.83" x2="424.39" y2="44.83"/><path class="cls-5" d="M241.21,50.9v.75H237a1.17,1.17,0,0,1,.1-.55,2.86,2.86,0,0,1,.51-.85,8.4,8.4,0,0,1,1-1A8.77,8.77,0,0,0,240,47.91a1.66,1.66,0,0,0,.37-.95,1.08,1.08,0,0,0-.35-.8,1.21,1.21,0,0,0-.87-.32,1.26,1.26,0,0,0-.91.34,1.32,1.32,0,0,0-.35,1l-.81-.09a2,2,0,0,1,.62-1.39,2.15,2.15,0,0,1,1.47-.48,2.09,2.09,0,0,1,1.47.52,1.7,1.7,0,0,1,.54,1.27,1.91,1.91,0,0,1-.17.77,2.78,2.78,0,0,1-.52.78,12.14,12.14,0,0,1-1.21,1.14,9.15,9.15,0,0,0-.92.81,2.21,2.21,0,0,0-.34.43Z" transform="translate(-2.63 -3.6)"/><line class="cls-5" x1="242.46" y1="18.84" x2="244.46" y2="18.84"/><line class="cls-7" x1="242.46" y1="18.84" x2="244.46" y2="18.84"/><line class="cls-5" x1="426.39" y1="18.84" x2="424.39" y2="18.84"/><line class="cls-7" x1="426.39" y1="18.84" x2="424.39" y2="18.84"/><path class="cls-5" d="M237.06,24l.8-.11a1.7,1.7,0,0,0,.46,1,1.12,1.12,0,0,0,.8.3,1.24,1.24,0,0,0,.93-.39,1.3,1.3,0,0,0,.39-.95,1.23,1.23,0,0,0-1.26-1.26,2.78,2.78,0,0,0-.56.09l.09-.69h.13a1.62,1.62,0,0,0,.91-.27.9.9,0,0,0,.4-.81,1,1,0,0,0-.3-.72,1.07,1.07,0,0,0-.75-.28,1.16,1.16,0,0,0-.78.28,1.46,1.46,0,0,0-.38.87l-.79-.14a2,2,0,0,1,.65-1.23,1.91,1.91,0,0,1,1.28-.44,2.1,2.1,0,0,1,1,.23,1.78,1.78,0,0,1,.68.62,1.56,1.56,0,0,1,.24.82,1.44,1.44,0,0,1-.22.77,1.58,1.58,0,0,1-.67.54,1.52,1.52,0,0,1,.88.55,1.64,1.64,0,0,1,.33,1,1.87,1.87,0,0,1-.62,1.42,2.14,2.14,0,0,1-1.55.59A2,2,0,0,1,237.06,24" transform="translate(-2.63 -3.6)"/><polygon class="cls-5" points="217.84 87.71 217.84 86.97 225.23 89.25 225.23 90 217.84 87.71"/><path class="cls-5" d="M220.2,79.14a8.73,8.73,0,0,0,2,.88,7.09,7.09,0,0,0,2,.28,7.17,7.17,0,0,0,2-.28,8.48,8.48,0,0,0,2-.88v.7a8.24,8.24,0,0,1-2,1,6.23,6.23,0,0,1-2,.33,6.31,6.31,0,0,1-2-.33,8.42,8.42,0,0,1-2-1Z" transform="translate(-2.63 -3.6)"/><polygon class="cls-5" points="217.84 66.28 217.84 65.53 225.23 67.82 225.23 68.57 217.84 66.28"/><path class="cls-5" d="M224.06,61.05l3,.58v.81l-2.94-.57-.33,0-.23,0a.78.78,0,0,0-.84.84,1.5,1.5,0,0,0,.44,1,2.12,2.12,0,0,0,1.15.59l2.75.54v.81l-2.94-.57-.3-.06h-.25a.85.85,0,0,0-.62.22.8.8,0,0,0-.23.6,1.53,1.53,0,0,0,.44,1.07,2.19,2.19,0,0,0,1.15.59L227,68v.81l-4.92-1v-.81l.76.15a2.3,2.3,0,0,1-.66-.77,2.17,2.17,0,0,1-.22-1,1.37,1.37,0,0,1,.28-.87,1.22,1.22,0,0,1,.78-.43,2.64,2.64,0,0,1-.79-.85,2.09,2.09,0,0,1-.27-1,1.31,1.31,0,0,1,.37-1,1.42,1.42,0,0,1,1-.35l.33,0,.35,0" transform="translate(-2.63 -3.6)"/><path class="cls-5" d="M220.2,59.65V59a9.23,9.23,0,0,1,2-1,6.61,6.61,0,0,1,2-.33,6.52,6.52,0,0,1,2,.33,9,9,0,0,1,2,1v.7a9.39,9.39,0,0,0-2-.88,7.56,7.56,0,0,0-2-.28,7.47,7.47,0,0,0-2,.28,9.69,9.69,0,0,0-2,.88" transform="translate(-2.63 -3.6)"/></g><g class="cls-47"><path class="cls-5" d="M224.06,94.09l4.83,1v.81l-4.8-.94A1.58,1.58,0,0,0,223,95a.81.81,0,0,0-.35.75,1.67,1.67,0,0,0,.42,1.12,2,2,0,0,0,1.14.59L227,98v.81l-4.92-1V97l.76.14a2.51,2.51,0,0,1-.66-.81,2,2,0,0,1-.22-1,1.31,1.31,0,0,1,.52-1.18,2.23,2.23,0,0,1,1.55-.14" transform="translate(-2.63 -3.6)"/></g><g class="cls-48"><path class="cls-5" d="M224.57,86a2.23,2.23,0,0,0-1.4.1,1,1,0,0,0-.51.91,1.49,1.49,0,0,0,.51,1.11,2.8,2.8,0,0,0,1.4.64,2.13,2.13,0,0,0,1.41-.09.94.94,0,0,0,.5-.91,1.48,1.48,0,0,0-.5-1.12,3.08,3.08,0,0,0-1.41-.64M223,88.88a3.52,3.52,0,0,1-.85-1.1,2.64,2.64,0,0,1-.15-1.09,1.44,1.44,0,0,1,.71-1.32,2.69,2.69,0,0,1,1.87-.19,3.59,3.59,0,0,1,1.88.92,2.23,2.23,0,0,1,.7,1.6,1.72,1.72,0,0,1-.21.89,1.18,1.18,0,0,1-.65.51l2.6.51v.81l-4.27-.83a3.55,3.55,0,0,1-1.63-.71" transform="translate(-2.63 -3.6)"/></g><g class="cls-49"><path class="cls-5" d="M224.06,73.31l3,.57v.81l-2.94-.57a3.14,3.14,0,0,0-.51-.05,1.26,1.26,0,0,0-.54.12.81.81,0,0,0-.35.75,1.61,1.61,0,0,0,.42,1.11,2,2,0,0,0,1.14.61l2.78.54V78l-5.58-1.09v.56l-.72-.15v-.55l-.54-.1v-.82l.54.11V74.42l.72.14v1.55l1.42.28a2.87,2.87,0,0,1-.66-.81,2.05,2.05,0,0,1-.22-1,1.32,1.32,0,0,1,.52-1.18,1.71,1.71,0,0,1,.86-.2,3.51,3.51,0,0,1,.69.07" transform="translate(-2.63 -3.6)"/></g><g class="cls-50"><polyline class="cls-10" points="260.74 181.41 273.5 168.31 285.48 156.01 296.1 145.11 305.64 135.32 314.29 126.43 322.22 118.3 329.52 110.8 336.3 103.84 342.62 97.35 348.54 91.28 354.11 85.56 359.36 80.17 364.34 75.06 369.06 70.21 373.56 65.59 377.85 61.18 381.96 56.97 385.89 52.94 389.66 49.06 393.29 45.34 396.78 41.75 400.15 38.3 403.4 34.96 406.54 31.74 409.58 28.62 412.52 25.6 415.37 22.67 418.14 19.83 420.83 17.07 423.44 14.38 425.99 11.77 427.39 10.33"/><polyline class="cls-51" points="236.77 142.38 242.46 136.64 253.49 128.11 263.83 121.79 272.29 117.24 284.26 111.27 301.34 102.91 313.06 96.87 328.29 88.45 349.19 75.49 363.09 65.8 380.71 52.25 396.67 38.86 414.12 23.07 427.39 11.09"/><polyline class="cls-52" points="261.38 136.01 292.2 117.48 315.35 102.42 333.9 88.07 349.38 76.14 362.65 64.47 374.28 54.59 384.62 45.51 393.93 37.02 402.4 29.39 410.17 22.28 417.34 15.23 423.55 9.36 427.39 5.71"/><polyline class="cls-53" points="239.44 181.41 247.98 145.18 263.12 111.79 278.33 95.82 293.19 84.25 305.9 81.34 316.94 78.93 326.8 74.57 336.14 69.19 345.54 64.05 355.41 58.19 365.52 50.77 376.25 42.37 387.16 33.94 398.4 26.17 410.28 18.28 422.69 9.56 427.39 5.72"/></g><line class="cls-12" x1="242.46" y1="148.01" x2="242.46" y2="0.4"/><line class="cls-12" x1="426.39" y1="148.01" x2="426.39" y2="0.4"/><line class="cls-12" x1="242.46" y1="148.01" x2="426.39" y2="148.01"/><line class="cls-12" x1="242.46" y1="0.4" x2="426.39" y2="0.4"/><line class="cls-13" x1="349.19" y1="76" x2="349.19" y2="76"/><polygon class="cls-14" points="349.19 79.16 351.09 76 349.19 72.83 347.29 76 349.19 79.16"/><polygon class="cls-13" points="349.19 79.16 351.09 76 349.19 72.83 347.29 76 349.19 79.16"/><line class="cls-4" x1="260.15" y1="96.57" x2="267.08" y2="96.57"/><line class="cls-4" x1="265.82" y1="92.48" x2="272.98" y2="92.48"/><line class="cls-4" x1="268.33" y1="96.16" x2="275.87" y2="96.16"/><line class="cls-4" x1="271.05" y1="85.87" x2="280.96" y2="85.87"/><line class="cls-4" x1="279.42" y1="90.92" x2="287.74" y2="90.92"/><line class="cls-4" x1="284.74" y1="84.02" x2="294.54" y2="84.02"/><line class="cls-4" x1="294.41" y1="76.87" x2="300.03" y2="76.87"/><line class="cls-4" x1="294.32" y1="77.54" x2="301.52" y2="77.54"/><line class="cls-4" x1="291.36" y1="80.33" x2="304.99" y2="80.33"/><line class="cls-4" x1="295.65" y1="74.73" x2="316.05" y2="74.73"/><line class="cls-4" x1="309.14" y1="71.52" x2="314.46" y2="71.52"/><line class="cls-4" x1="315.79" y1="72.61" x2="323.18" y2="72.61"/><line class="cls-4" x1="320.31" y1="68.64" x2="328.61" y2="68.64"/><line class="cls-4" x1="320.64" y1="61.69" x2="349.13" y2="61.69"/><line class="cls-4" x1="334.05" y1="57.1" x2="338.57" y2="57.1"/><line class="cls-4" x1="333.41" y1="61.56" x2="344.79" y2="61.56"/><line class="cls-4" x1="337.8" y1="66.14" x2="344.15" y2="66.14"/><line class="cls-4" x1="354.16" y1="52.73" x2="359.42" y2="52.73"/><line class="cls-4" x1="356.81" y1="58.1" x2="361.4" y2="58.1"/><line class="cls-4" x1="363.68" y1="61.75" x2="369.29" y2="61.75"/><line class="cls-4" x1="364.85" y1="46.61" x2="374.61" y2="46.61"/><line class="cls-4" x1="371.85" y1="41.14" x2="378.02" y2="41.14"/><line class="cls-4" x1="373.79" y1="48.12" x2="377.55" y2="48.12"/><line class="cls-4" x1="377.51" y1="60.28" x2="382.6" y2="60.28"/><line class="cls-4" x1="379.59" y1="56.71" x2="384.21" y2="56.71"/><line class="cls-4" x1="379.39" y1="58" x2="385.33" y2="58"/><line class="cls-4" x1="394.57" y1="42.18" x2="398.43" y2="42.18"/><line class="cls-4" x1="395.11" y1="62.02" x2="403.05" y2="62.02"/><line class="cls-4" x1="400.6" y1="47.48" x2="405.12" y2="47.48"/><line class="cls-4" x1="410.15" y1="56.26" x2="412.99" y2="56.26"/><line class="cls-4" x1="409.99" y1="35.32" x2="415.8" y2="35.32"/><line class="cls-4" x1="262.97" y1="110.34" x2="262.97" y2="85.25"/><line class="cls-4" x1="269.63" y1="97.5" x2="269.63" y2="87.82"/><line class="cls-4" x1="272.68" y1="103.87" x2="272.68" y2="89.29"/><line class="cls-4" x1="276.15" y1="89.92" x2="276.15" y2="82.06"/><line class="cls-4" x1="283.87" y1="97.09" x2="283.87" y2="85.28"/><line class="cls-4" x1="290.06" y1="88.57" x2="290.06" y2="79.78"/><line class="cls-4" x1="296.85" y1="81.39" x2="296.85" y2="72.65"/><line class="cls-4" x1="297.9" y1="82.6" x2="297.9" y2="72.85"/><line class="cls-4" x1="299.59" y1="86.03" x2="299.59" y2="75.09"/><line class="cls-4" x1="306.48" y1="80.57" x2="306.48" y2="69.38"/><line class="cls-4" x1="311.9" y1="77.09" x2="311.9" y2="66.39"/><line class="cls-4" x1="319.47" y1="79.7" x2="319.47" y2="66.22"/><line class="cls-4" x1="323.9" y1="78.06" x2="323.9" y2="60.42"/><line class="cls-4" x1="334.2" y1="72.86" x2="334.2" y2="52.18"/><line class="cls-4" x1="336.27" y1="63.08" x2="336.27" y2="51.63"/><line class="cls-4" x1="338.59" y1="67.62" x2="338.59" y2="56.02"/><line class="cls-4" x1="341.37" y1="75.01" x2="341.37" y2="58.34"/><line class="cls-4" x1="356.75" y1="62.35" x2="356.75" y2="44.36"/><line class="cls-4" x1="358.96" y1="68.91" x2="358.96" y2="48.86"/><line class="cls-4" x1="366.68" y1="79.61" x2="366.68" y2="47.8"/><line class="cls-4" x1="370.53" y1="55.27" x2="370.53" y2="38.98"/><line class="cls-4" x1="374.83" y1="48.64" x2="374.83" y2="34.42"/><line class="cls-4" x1="375.92" y1="56.72" x2="375.92" y2="40.54"/><line class="cls-4" x1="379.89" y1="73.04" x2="379.89" y2="49.64"/><line class="cls-4" x1="382.38" y1="68.9" x2="382.38" y2="46.46"/><line class="cls-4" x1="382.42" y1="71.67" x2="382.42" y2="46.74"/><line class="cls-4" x1="396.92" y1="55.49" x2="396.92" y2="31.16"/><line class="cls-4" x1="398.89" y1="98.31" x2="398.89" y2="38.98"/><line class="cls-4" x1="402.61" y1="75.48" x2="402.61" y2="28.06"/><line class="cls-4" x1="411.5" y1="106.96" x2="411.5" y2="28.31"/><line class="cls-4" x1="412.79" y1="52.22" x2="412.79" y2="21.95"/><g class="cls-54"><path class="cls-16" d="M265.6,102.41a2.23,2.23,0,0,0,1.58-3.82,2.23,2.23,0,0,0-3.81,1.58,2.24,2.24,0,0,0,.65,1.59,2.28,2.28,0,0,0,1.58.65" transform="translate(-2.63 -3.6)"/><path class="cls-4" d="M265.6,102.41a2.23,2.23,0,0,0,1.58-3.82,2.23,2.23,0,0,0-3.81,1.58,2.24,2.24,0,0,0,.65,1.59A2.28,2.28,0,0,0,265.6,102.41Z" transform="translate(-2.63 -3.6)"/></g><g class="cls-55"><path class="cls-16" d="M272.26,98.31a2.22,2.22,0,0,0,2.23-2.23,2.2,2.2,0,0,0-.65-1.58,2.22,2.22,0,0,0-3.16,0,2.21,2.21,0,0,0-.66,1.58,2.24,2.24,0,0,0,.66,1.58,2.22,2.22,0,0,0,1.58.65" transform="translate(-2.63 -3.6)"/><path class="cls-4" d="M272.26,98.31a2.22,2.22,0,0,0,2.23-2.23,2.2,2.2,0,0,0-.65-1.58,2.22,2.22,0,0,0-3.16,0,2.21,2.21,0,0,0-.66,1.58,2.24,2.24,0,0,0,.66,1.58A2.22,2.22,0,0,0,272.26,98.31Z" transform="translate(-2.63 -3.6)"/></g><g class="cls-56"><path class="cls-16" d="M275.31,102a2.25,2.25,0,0,0,2.24-2.24,2.24,2.24,0,0,0-.66-1.58,2.2,2.2,0,0,0-1.58-.65,2.22,2.22,0,0,0-2.23,2.23,2.2,2.2,0,0,0,.65,1.58,2.24,2.24,0,0,0,1.58.66" transform="translate(-2.63 -3.6)"/><path class="cls-4" d="M275.31,102a2.25,2.25,0,0,0,2.24-2.24,2.24,2.24,0,0,0-.66-1.58,2.2,2.2,0,0,0-1.58-.65,2.22,2.22,0,0,0-2.23,2.23,2.2,2.2,0,0,0,.65,1.58A2.24,2.24,0,0,0,275.31,102Z" transform="translate(-2.63 -3.6)"/></g><g class="cls-57"><path class="cls-16" d="M278.78,91.71a2.25,2.25,0,1,0-1.58-.66,2.24,2.24,0,0,0,1.58.66" transform="translate(-2.63 -3.6)"/><path class="cls-4" d="M278.78,91.71a2.25,2.25,0,1,0-1.58-.66A2.24,2.24,0,0,0,278.78,91.71Z" transform="translate(-2.63 -3.6)"/></g><g class="cls-58"><path class="cls-16" d="M286.5,96.75a2.24,2.24,0,1,0-1.58-.65,2.23,2.23,0,0,0,1.58.65" transform="translate(-2.63 -3.6)"/><path class="cls-4" d="M286.5,96.75a2.24,2.24,0,1,0-1.58-.65A2.23,2.23,0,0,0,286.5,96.75Z" transform="translate(-2.63 -3.6)"/></g><g class="cls-59"><path class="cls-16" d="M292.69,89.86a2.24,2.24,0,0,0,1.58-.66,2.21,2.21,0,0,0,.66-1.58,2.24,2.24,0,0,0-4.48,0,2.21,2.21,0,0,0,.66,1.58,2.24,2.24,0,0,0,1.58.66" transform="translate(-2.63 -3.6)"/><path class="cls-4" d="M292.69,89.86a2.24,2.24,0,0,0,1.58-.66,2.21,2.21,0,0,0,.66-1.58,2.24,2.24,0,0,0-4.48,0,2.21,2.21,0,0,0,.66,1.58A2.24,2.24,0,0,0,292.69,89.86Z" transform="translate(-2.63 -3.6)"/></g><g class="cls-60"><path class="cls-16" d="M299.48,82.71a2.28,2.28,0,0,0,1.58-.65,2.24,2.24,0,0,0-1.58-3.82,2.2,2.2,0,0,0-1.58.65,2.24,2.24,0,0,0,1.58,3.82" transform="translate(-2.63 -3.6)"/><path class="cls-4" d="M299.48,82.71a2.28,2.28,0,0,0,1.58-.65,2.24,2.24,0,0,0-1.58-3.82,2.2,2.2,0,0,0-1.58.65,2.24,2.24,0,0,0,1.58,3.82Z" transform="translate(-2.63 -3.6)"/></g><g class="cls-61"><path class="cls-16" d="M300.53,83.38a2.25,2.25,0,1,0-1.58-.66,2.24,2.24,0,0,0,1.58.66" transform="translate(-2.63 -3.6)"/><path class="cls-4" d="M300.53,83.38a2.25,2.25,0,1,0-1.58-.66A2.24,2.24,0,0,0,300.53,83.38Z" transform="translate(-2.63 -3.6)"/></g><g class="cls-62"><path class="cls-16" d="M302.22,86.17a2.25,2.25,0,1,0-1.58-.66,2.24,2.24,0,0,0,1.58.66" transform="translate(-2.63 -3.6)"/><path class="cls-4" d="M302.22,86.17a2.25,2.25,0,1,0-1.58-.66A2.24,2.24,0,0,0,302.22,86.17Z" transform="translate(-2.63 -3.6)"/></g><g class="cls-63"><path class="cls-16" d="M309.11,80.57a2.25,2.25,0,1,0-1.58-.66,2.24,2.24,0,0,0,1.58.66" transform="translate(-2.63 -3.6)"/><path class="cls-4" d="M309.11,80.57a2.25,2.25,0,1,0-1.58-.66A2.24,2.24,0,0,0,309.11,80.57Z" transform="translate(-2.63 -3.6)"/></g><g class="cls-64"><path class="cls-16" d="M314.53,77.35A2.24,2.24,0,1,0,313,76.7a2.23,2.23,0,0,0,1.58.65" transform="translate(-2.63 -3.6)"/><path class="cls-4" d="M314.53,77.35A2.24,2.24,0,1,0,313,76.7,2.23,2.23,0,0,0,314.53,77.35Z" transform="translate(-2.63 -3.6)"/></g><g class="cls-65"><path class="cls-16" d="M322.09,78.45a2.25,2.25,0,0,0,1.59-.66,2.25,2.25,0,0,0,0-3.16,2.24,2.24,0,1,0-1.59,3.82" transform="translate(-2.63 -3.6)"/><path class="cls-4" d="M322.09,78.45a2.25,2.25,0,0,0,1.59-.66,2.25,2.25,0,0,0,0-3.16,2.24,2.24,0,1,0-1.59,3.82Z" transform="translate(-2.63 -3.6)"/></g><g class="cls-66"><path class="cls-16" d="M326.53,74.47a2.24,2.24,0,0,0,2.24-2.23,2.21,2.21,0,0,0-.66-1.58,2.22,2.22,0,0,0-3.16,0,2.21,2.21,0,0,0-.66,1.58,2.24,2.24,0,0,0,2.24,2.23" transform="translate(-2.63 -3.6)"/><path class="cls-4" d="M326.53,74.47a2.24,2.24,0,0,0,2.24-2.23,2.21,2.21,0,0,0-.66-1.58,2.22,2.22,0,0,0-3.16,0,2.21,2.21,0,0,0-.66,1.58,2.24,2.24,0,0,0,2.24,2.23Z" transform="translate(-2.63 -3.6)"/></g><g class="cls-67"><path class="cls-16" d="M336.83,67.53a2.25,2.25,0,1,0-1.58-.66,2.24,2.24,0,0,0,1.58.66" transform="translate(-2.63 -3.6)"/><path class="cls-4" d="M336.83,67.53a2.25,2.25,0,1,0-1.58-.66A2.24,2.24,0,0,0,336.83,67.53Z" transform="translate(-2.63 -3.6)"/></g><g class="cls-68"><path class="cls-16" d="M338.9,62.94a2.25,2.25,0,1,0-1.58-.66,2.24,2.24,0,0,0,1.58.66" transform="translate(-2.63 -3.6)"/><path class="cls-4" d="M338.9,62.94a2.25,2.25,0,1,0-1.58-.66A2.24,2.24,0,0,0,338.9,62.94Z" transform="translate(-2.63 -3.6)"/></g><g class="cls-69"><path class="cls-16" d="M341.22,67.39a2.24,2.24,0,1,0-1.58-.65,2.23,2.23,0,0,0,1.58.65" transform="translate(-2.63 -3.6)"/><path class="cls-4" d="M341.22,67.39a2.24,2.24,0,1,0-1.58-.65A2.23,2.23,0,0,0,341.22,67.39Z" transform="translate(-2.63 -3.6)"/></g><g class="cls-70"><path class="cls-16" d="M344,72a2.2,2.2,0,0,0,1.58-.65,2.22,2.22,0,0,0,0-3.16A2.21,2.21,0,0,0,344,67.5,2.24,2.24,0,1,0,344,72" transform="translate(-2.63 -3.6)"/><path class="cls-4" d="M344,72a2.2,2.2,0,0,0,1.58-.65,2.22,2.22,0,0,0,0-3.16A2.21,2.21,0,0,0,344,67.5,2.24,2.24,0,1,0,344,72Z" transform="translate(-2.63 -3.6)"/></g><g class="cls-71"><path class="cls-16" d="M359.38,58.57a2.25,2.25,0,1,0-1.58-.66,2.24,2.24,0,0,0,1.58.66" transform="translate(-2.63 -3.6)"/><path class="cls-4" d="M359.38,58.57a2.25,2.25,0,1,0-1.58-.66A2.24,2.24,0,0,0,359.38,58.57Z" transform="translate(-2.63 -3.6)"/></g><g class="cls-72"><path class="cls-16" d="M361.59,63.94a2.24,2.24,0,1,0-2.23-2.24,2.22,2.22,0,0,0,.65,1.58,2.24,2.24,0,0,0,1.58.66" transform="translate(-2.63 -3.6)"/><path class="cls-4" d="M361.59,63.94a2.24,2.24,0,1,0-2.23-2.24,2.22,2.22,0,0,0,.65,1.58A2.24,2.24,0,0,0,361.59,63.94Z" transform="translate(-2.63 -3.6)"/></g><g class="cls-73"><path class="cls-16" d="M369.31,67.59a2.25,2.25,0,0,0,2.24-2.24,2.24,2.24,0,0,0-.66-1.58,2.2,2.2,0,0,0-1.58-.65,2.24,2.24,0,0,0,0,4.47" transform="translate(-2.63 -3.6)"/><path class="cls-4" d="M369.31,67.59a2.25,2.25,0,0,0,2.24-2.24,2.24,2.24,0,0,0-.66-1.58,2.2,2.2,0,0,0-1.58-.65,2.24,2.24,0,0,0,0,4.47Z" transform="translate(-2.63 -3.6)"/></g><g class="cls-74"><path class="cls-16" d="M373.16,52.45a2.25,2.25,0,1,0-1.58-.66,2.24,2.24,0,0,0,1.58.66" transform="translate(-2.63 -3.6)"/><path class="cls-4" d="M373.16,52.45a2.25,2.25,0,1,0-1.58-.66A2.24,2.24,0,0,0,373.16,52.45Z" transform="translate(-2.63 -3.6)"/></g><g class="cls-75"><path class="cls-16" d="M377.46,47a2.22,2.22,0,0,0,1.58-.65,2.23,2.23,0,1,0-3.16-3.16A2.23,2.23,0,0,0,377.46,47" transform="translate(-2.63 -3.6)"/><path class="cls-4" d="M377.46,47a2.22,2.22,0,0,0,1.58-.65,2.23,2.23,0,1,0-3.16-3.16A2.23,2.23,0,0,0,377.46,47Z" transform="translate(-2.63 -3.6)"/></g><g class="cls-76"><path class="cls-16" d="M378.55,54A2.22,2.22,0,1,0,377,53.3a2.23,2.23,0,0,0,1.58.65" transform="translate(-2.63 -3.6)"/><path class="cls-4" d="M378.55,54A2.22,2.22,0,1,0,377,53.3,2.23,2.23,0,0,0,378.55,54Z" transform="translate(-2.63 -3.6)"/></g><g class="cls-77"><path class="cls-16" d="M382.51,66.11a2.24,2.24,0,0,0,1.59-.65,2.26,2.26,0,0,0,0-3.17,2.24,2.24,0,1,0-1.59,3.82" transform="translate(-2.63 -3.6)"/><path class="cls-4" d="M382.51,66.11a2.24,2.24,0,0,0,1.59-.65,2.26,2.26,0,0,0,0-3.17,2.24,2.24,0,1,0-1.59,3.82Z" transform="translate(-2.63 -3.6)"/></g><g class="cls-78"><path class="cls-16" d="M385,62.54a2.24,2.24,0,1,0-1.58-.65,2.23,2.23,0,0,0,1.58.65" transform="translate(-2.63 -3.6)"/><path class="cls-4" d="M385,62.54a2.24,2.24,0,1,0-1.58-.65A2.23,2.23,0,0,0,385,62.54Z" transform="translate(-2.63 -3.6)"/></g><g class="cls-79"><path class="cls-16" d="M385.05,63.83a2.24,2.24,0,1,0-1.58-.65,2.23,2.23,0,0,0,1.58.65" transform="translate(-2.63 -3.6)"/><path class="cls-4" d="M385.05,63.83a2.24,2.24,0,1,0-1.58-.65A2.23,2.23,0,0,0,385.05,63.83Z" transform="translate(-2.63 -3.6)"/></g><g class="cls-80"><path class="cls-16" d="M399.55,48a2.24,2.24,0,1,0-1.58-.65,2.23,2.23,0,0,0,1.58.65" transform="translate(-2.63 -3.6)"/><path class="cls-4" d="M399.55,48a2.24,2.24,0,1,0-1.58-.65A2.23,2.23,0,0,0,399.55,48Z" transform="translate(-2.63 -3.6)"/></g><g class="cls-81"><path class="cls-16" d="M401.52,67.85a2.2,2.2,0,0,0,1.58-.65,2.22,2.22,0,0,0,0-3.16,2.21,2.21,0,0,0-1.58-.66,2.24,2.24,0,0,0-1.58.66,2.23,2.23,0,0,0,1.58,3.81" transform="translate(-2.63 -3.6)"/><path class="cls-4" d="M401.52,67.85a2.2,2.2,0,0,0,1.58-.65,2.22,2.22,0,0,0,0-3.16,2.21,2.21,0,0,0-1.58-.66,2.24,2.24,0,0,0-1.58.66,2.23,2.23,0,0,0,1.58,3.81Z" transform="translate(-2.63 -3.6)"/></g><g class="cls-82"><path class="cls-16" d="M405.24,53.32a2.24,2.24,0,1,0-1.58-.66,2.22,2.22,0,0,0,1.58.66" transform="translate(-2.63 -3.6)"/><path class="cls-4" d="M405.24,53.32a2.24,2.24,0,1,0-1.58-.66A2.22,2.22,0,0,0,405.24,53.32Z" transform="translate(-2.63 -3.6)"/></g><g class="cls-83"><path class="cls-16" d="M414.13,62.09a2.22,2.22,0,1,0-1.58-.65,2.23,2.23,0,0,0,1.58.65" transform="translate(-2.63 -3.6)"/><path class="cls-4" d="M414.13,62.09a2.22,2.22,0,1,0-1.58-.65A2.23,2.23,0,0,0,414.13,62.09Z" transform="translate(-2.63 -3.6)"/></g><g class="cls-84"><path class="cls-16" d="M415.42,41.15a2.22,2.22,0,0,0,2.23-2.23,2.2,2.2,0,0,0-.65-1.58,2.24,2.24,0,0,0-1.58-.66,2.25,2.25,0,0,0-2.24,2.24,2.24,2.24,0,0,0,.66,1.58,2.2,2.2,0,0,0,1.58.65" transform="translate(-2.63 -3.6)"/><path class="cls-4" d="M415.42,41.15a2.22,2.22,0,0,0,2.23-2.23,2.2,2.2,0,0,0-.65-1.58,2.24,2.24,0,0,0-1.58-.66,2.25,2.25,0,0,0-2.24,2.24,2.24,2.24,0,0,0,.66,1.58A2.2,2.2,0,0,0,415.42,41.15Z" transform="translate(-2.63 -3.6)"/></g></g></g></g></g></svg>