<svg xmlns="http://www.w3.org/2000/svg" xmlns:xlink="http://www.w3.org/1999/xlink" viewBox="0 0 218.5 172.4"><defs><style>.cls-1,.cls-10,.cls-11,.cls-5,.cls-6,.cls-8,.cls-9{fill:none;}.cls-2{clip-path:url(#clip-path);}.cls-3{fill:#fff;}.cls-4{fill:#231f20;}.cls-10,.cls-5,.cls-6,.cls-8{stroke:#231f20;}.cls-11,.cls-5,.cls-6,.cls-8,.cls-9{stroke-linejoin:round;}.cls-10,.cls-5{stroke-width:0.8px;}.cls-6{stroke-width:0.6px;}.cls-7{clip-path:url(#clip-path-4);}.cls-11,.cls-8,.cls-9{stroke-width:0.75px;}.cls-8{stroke-dasharray:2.78 1.2;}.cls-9{stroke:#0d8140;}.cls-10,.cls-9{stroke-linecap:square;}.cls-10{stroke-miterlimit:10;}.cls-11{stroke:#3559a8;}.cls-12{clip-path:url(#clip-path-7);}.cls-13{fill:#7e9ad0;}.cls-14{clip-path:url(#clip-path-8);}.cls-15{clip-path:url(#clip-path-9);}.cls-16{clip-path:url(#clip-path-10);}.cls-17{clip-path:url(#clip-path-11);}.cls-18{clip-path:url(#clip-path-12);}.cls-19{clip-path:url(#clip-path-13);}.cls-20{clip-path:url(#clip-path-14);}.cls-21{clip-path:url(#clip-path-15);}.cls-22{clip-path:url(#clip-path-16);}.cls-23{clip-path:url(#clip-path-17);}.cls-24{clip-path:url(#clip-path-18);}.cls-25{clip-path:url(#clip-path-19);}.cls-26{clip-path:url(#clip-path-20);}.cls-27{clip-path:url(#clip-path-21);}.cls-28{clip-path:url(#clip-path-22);}.cls-29{clip-path:url(#clip-path-23);}.cls-30{clip-path:url(#clip-path-24);}.cls-31{clip-path:url(#clip-path-25);}.cls-32{clip-path:url(#clip-path-26);}.cls-33{clip-path:url(#clip-path-27);}.cls-34{clip-path:url(#clip-path-28);}.cls-35{clip-path:url(#clip-path-29);}.cls-36{clip-path:url(#clip-path-30);}.cls-37{clip-path:url(#clip-path-31);}.cls-38{clip-path:url(#clip-path-32);}.cls-39{clip-path:url(#clip-path-33);}.cls-40{clip-path:url(#clip-path-34);}.cls-41{clip-path:url(#clip-path-35);}.cls-42{clip-path:url(#clip-path-36);}.cls-43{clip-path:url(#clip-path-37);}</style><clipPath id="clip-path" transform="translate(3 -1.89)"><rect class="cls-1" width="216.01" height="176.85"/></clipPath><clipPath id="clip-path-4" transform="translate(3 -1.89)"><rect class="cls-1" x="28.5" y="5.5" width="185.51" height="144.11"/></clipPath><clipPath id="clip-path-7" transform="translate(3 -1.89)"><rect class="cls-1" x="43.21" y="74.94" width="11.97" height="11.97"/></clipPath><clipPath id="clip-path-8" transform="translate(3 -1.89)"><rect class="cls-1" x="49.92" y="70.14" width="11.97" height="11.97"/></clipPath><clipPath id="clip-path-9" transform="translate(3 -1.89)"><rect class="cls-1" x="53" y="84.22" width="11.97" height="11.97"/></clipPath><clipPath id="clip-path-10" transform="translate(3 -1.89)"><rect class="cls-1" x="56.49" y="54.87" width="11.97" height="11.97"/></clipPath><clipPath id="clip-path-11" transform="translate(3 -1.89)"><rect class="cls-1" x="64.28" y="82.84" width="11.97" height="11.97"/></clipPath><clipPath id="clip-path-12" transform="translate(3 -1.89)"><rect class="cls-1" x="70.53" y="71.37" width="11.97" height="11.97"/></clipPath><clipPath id="clip-path-13" transform="translate(3 -1.89)"><rect class="cls-1" x="77.37" y="56.7" width="11.97" height="11.97"/></clipPath><clipPath id="clip-path-14" transform="translate(3 -1.89)"><rect class="cls-1" x="78.43" y="61.3" width="11.97" height="11.97"/></clipPath><clipPath id="clip-path-15" transform="translate(3 -1.89)"><rect class="cls-1" x="80.14" y="73.2" width="11.97" height="11.97"/></clipPath><clipPath id="clip-path-16" transform="translate(3 -1.89)"><rect class="cls-1" x="87.08" y="65.38" width="11.97" height="11.97"/></clipPath><clipPath id="clip-path-17" transform="translate(3 -1.89)"><rect class="cls-1" x="92.55" y="62.82" width="11.97" height="11.97"/></clipPath><clipPath id="clip-path-18" transform="translate(3 -1.89)"><rect class="cls-1" x="100.18" y="76.33" width="11.97" height="11.97"/></clipPath><clipPath id="clip-path-19" transform="translate(3 -1.89)"><rect class="cls-1" x="104.65" y="70.75" width="11.97" height="11.97"/></clipPath><clipPath id="clip-path-20" transform="translate(3 -1.89)"><rect class="cls-1" x="115.04" y="63.03" width="11.97" height="11.97"/></clipPath><clipPath id="clip-path-21" transform="translate(3 -1.89)"><rect class="cls-1" x="117.13" y="49.15" width="11.97" height="11.97"/></clipPath><clipPath id="clip-path-22" transform="translate(3 -1.89)"><rect class="cls-1" x="119.47" y="68.39" width="11.97" height="11.97"/></clipPath><clipPath id="clip-path-23" transform="translate(3 -1.89)"><rect class="cls-1" x="122.28" y="82.51" width="11.97" height="11.97"/></clipPath><clipPath id="clip-path-24" transform="translate(3 -1.89)"><rect class="cls-1" x="137.79" y="64.21" width="11.97" height="11.97"/></clipPath><clipPath id="clip-path-25" transform="translate(3 -1.89)"><rect class="cls-1" x="140.02" y="79.98" width="11.97" height="11.97"/></clipPath><clipPath id="clip-path-26" transform="translate(3 -1.89)"><rect class="cls-1" x="147.8" y="91.74" width="11.97" height="11.97"/></clipPath><clipPath id="clip-path-27" transform="translate(3 -1.89)"><rect class="cls-1" x="151.68" y="62.58" width="11.97" height="11.97"/></clipPath><clipPath id="clip-path-28" transform="translate(3 -1.89)"><rect class="cls-1" x="156.02" y="50.48" width="11.97" height="11.97"/></clipPath><clipPath id="clip-path-29" transform="translate(3 -1.89)"><rect class="cls-1" x="157.12" y="72.48" width="11.97" height="11.97"/></clipPath><clipPath id="clip-path-30" transform="translate(3 -1.89)"><rect class="cls-1" x="161.12" y="96.52" width="11.97" height="11.97"/></clipPath><clipPath id="clip-path-31" transform="translate(3 -1.89)"><rect class="cls-1" x="163.63" y="93.02" width="11.97" height="11.97"/></clipPath><clipPath id="clip-path-32" transform="translate(3 -1.89)"><rect class="cls-1" x="163.67" y="94.82" width="11.97" height="11.97"/></clipPath><clipPath id="clip-path-33" transform="translate(3 -1.89)"><rect class="cls-1" x="178.3" y="79.68" width="11.97" height="11.97"/></clipPath><clipPath id="clip-path-34" transform="translate(3 -1.89)"><rect class="cls-1" x="180.29" y="106.71" width="11.97" height="11.97"/></clipPath><clipPath id="clip-path-35" transform="translate(3 -1.89)"><rect class="cls-1" x="184.04" y="92.87" width="11.97" height="11.97"/></clipPath><clipPath id="clip-path-36" transform="translate(3 -1.89)"><rect class="cls-1" x="193.01" y="107.49" width="11.97" height="11.97"/></clipPath><clipPath id="clip-path-37" transform="translate(3 -1.89)"><rect class="cls-1" x="194.3" y="83.65" width="11.97" height="11.97"/></clipPath></defs><g id="Layer_2" data-name="Layer 2"><g id="Layer_1-2" data-name="Layer 1"><g class="cls-2"><g class="cls-2"><rect class="cls-3" x="31.5" y="3.61" width="185.51" height="144.11"/><path class="cls-4" d="M201.63,149.61v0Z" transform="translate(3 -1.89)"/><line class="cls-5" x1="204.63" y1="147.72" x2="204.63" y2="144.22"/><path class="cls-4" d="M201.63,9V9Z" transform="translate(3 -1.89)"/><line class="cls-5" x1="204.63" y1="3.61" x2="204.63" y2="7.11"/><g class="cls-2"><path class="cls-4" d="M198.41,160.26h-.88v-5.6a5.08,5.08,0,0,1-.84.61,5.89,5.89,0,0,1-.92.45v-.85a5.32,5.32,0,0,0,1.29-.84,3.3,3.3,0,0,0,.78-1h.57Z" transform="translate(3 -1.89)"/><rect class="cls-4" x="204.15" y="157.38" width="1" height="1"/><path class="cls-4" d="M204.34,156.73a4.45,4.45,0,0,0,.41,2.35,1.18,1.18,0,0,0,2,0,6.78,6.78,0,0,0,0-4.7,1.25,1.25,0,0,0-1-.58,1.12,1.12,0,0,0-1,.51,4.61,4.61,0,0,0-.45,2.42m-.9,0a6.4,6.4,0,0,1,.26-2,2.53,2.53,0,0,1,.77-1.2,2,2,0,0,1,1.3-.42,1.95,1.95,0,0,1,1.72.91,3.56,3.56,0,0,1,.45,1.06,7.54,7.54,0,0,1,.16,1.69,6.7,6.7,0,0,1-.26,2,2.5,2.5,0,0,1-.77,1.19,2,2,0,0,1-1.3.41,2,2,0,0,1-1.63-.73,4.71,4.71,0,0,1-.7-2.91" transform="translate(3 -1.89)"/><line class="cls-4" x1="37.23" y1="147.72" x2="37.23" y2="145.72"/><line class="cls-6" x1="37.23" y1="147.72" x2="37.23" y2="145.72"/><line class="cls-4" x1="37.23" y1="3.61" x2="37.23" y2="5.61"/><line class="cls-6" x1="37.23" y1="3.61" x2="37.23" y2="5.61"/><polygon class="cls-4" points="32.26 151.12 37.81 151.12 37.67 151.87 35.33 151.87 34.2 157.68 33.31 157.68 34.44 151.87 32.12 151.87 32.26 151.12"/><path class="cls-4" d="M38.61,156.81l-.13.65a2.32,2.32,0,0,0-.63-.44,1.87,1.87,0,0,0-.71-.14,1.68,1.68,0,0,0-.93.25,2.18,2.18,0,0,0-.69.77,3,3,0,0,0-.28.7,3.14,3.14,0,0,0-.09.75,1.14,1.14,0,0,0,1.26,1.28,2.47,2.47,0,0,0,.82-.13,2.65,2.65,0,0,0,.77-.42l-.14.74a3.59,3.59,0,0,1-.75.23,3.81,3.81,0,0,1-.74.08,1.94,1.94,0,0,1-1.38-.47,1.75,1.75,0,0,1-.5-1.34,3.11,3.11,0,0,1,.19-1.08,3.25,3.25,0,0,1,.54-1,2.43,2.43,0,0,1,.86-.69,2.76,2.76,0,0,1,1.12-.22,2.5,2.5,0,0,1,.74.11,2.2,2.2,0,0,1,.67.33" transform="translate(3 -1.89)"/><line class="cls-4" x1="52.58" y1="147.72" x2="52.58" y2="145.72"/><line class="cls-6" x1="52.58" y1="147.72" x2="52.58" y2="145.72"/><line class="cls-4" x1="52.58" y1="3.61" x2="52.58" y2="5.61"/><line class="cls-6" x1="52.58" y1="3.61" x2="52.58" y2="5.61"/><path class="cls-4" d="M44.52,156.27a4,4,0,0,0,.37,2.11,1.09,1.09,0,0,0,.92.53,1.11,1.11,0,0,0,.91-.53,4,4,0,0,0,.37-2.11,4,4,0,0,0-.37-2.12,1.14,1.14,0,0,0-.92-.52,1,1,0,0,0-.87.46,4.14,4.14,0,0,0-.41,2.18m-.81,0a5.85,5.85,0,0,1,.23-1.84,2.29,2.29,0,0,1,.7-1.08,1.79,1.79,0,0,1,1.17-.38,1.78,1.78,0,0,1,1.55.82,3.26,3.26,0,0,1,.4,1,6.76,6.76,0,0,1,.14,1.52,6.09,6.09,0,0,1-.23,1.83,2.32,2.32,0,0,1-.69,1.08,1.8,1.8,0,0,1-1.17.36,1.76,1.76,0,0,1-1.47-.65,4.27,4.27,0,0,1-.63-2.62" transform="translate(3 -1.89)"/><rect class="cls-4" x="52.16" y="156.66" width="0.9" height="0.9"/><path class="cls-4" d="M55.37,158.69v.76H51.11a1.31,1.31,0,0,1,.1-.55,3.24,3.24,0,0,1,.51-.86,8.61,8.61,0,0,1,1-1,8.6,8.6,0,0,0,1.42-1.36,1.66,1.66,0,0,0,.37-.95,1.08,1.08,0,0,0-.35-.8,1.21,1.21,0,0,0-.87-.32,1.26,1.26,0,0,0-.91.34,1.32,1.32,0,0,0-.35,1l-.81-.09a2,2,0,0,1,.62-1.39,2.2,2.2,0,0,1,1.47-.48,2,2,0,0,1,1.47.53,1.66,1.66,0,0,1,.54,1.26,1.88,1.88,0,0,1-.17.77,2.58,2.58,0,0,1-.52.78,12.14,12.14,0,0,1-1.21,1.14,9.15,9.15,0,0,0-.92.81,2.47,2.47,0,0,0-.33.43Z" transform="translate(3 -1.89)"/><line class="cls-4" x1="90.89" y1="147.72" x2="90.89" y2="145.72"/><line class="cls-6" x1="90.89" y1="147.72" x2="90.89" y2="145.72"/><line class="cls-4" x1="90.89" y1="3.61" x2="90.89" y2="5.61"/><line class="cls-6" x1="90.89" y1="3.61" x2="90.89" y2="5.61"/><path class="cls-4" d="M82.83,156.27a3.91,3.91,0,0,0,.37,2.11,1.07,1.07,0,0,0,.91.53,1.1,1.1,0,0,0,.91-.53,4,4,0,0,0,.38-2.11,4,4,0,0,0-.38-2.12,1.13,1.13,0,0,0-.92-.52,1,1,0,0,0-.87.46,4.16,4.16,0,0,0-.4,2.18m-.81,0a5.85,5.85,0,0,1,.23-1.84,2.27,2.27,0,0,1,.69-1.08,1.83,1.83,0,0,1,1.17-.38,1.88,1.88,0,0,1,.91.22,1.83,1.83,0,0,1,.64.6,3.27,3.27,0,0,1,.41,1,6.76,6.76,0,0,1,.14,1.52A6.09,6.09,0,0,1,86,158.1a2.34,2.34,0,0,1-.7,1.08,1.78,1.78,0,0,1-1.17.36,1.75,1.75,0,0,1-1.46-.65,4.21,4.21,0,0,1-.63-2.62" transform="translate(3 -1.89)"/><rect class="cls-4" x="90.46" y="156.66" width="0.9" height="0.9"/><path class="cls-4" d="M89.52,157.74l.79-.1a1.8,1.8,0,0,0,.46,1,1.15,1.15,0,0,0,.8.3,1.26,1.26,0,0,0,.94-.39,1.33,1.33,0,0,0,.39-1,1.23,1.23,0,0,0-1.26-1.26,2.68,2.68,0,0,0-.56.09l.09-.69h.13a1.58,1.58,0,0,0,.9-.26.92.92,0,0,0,.41-.82.93.93,0,0,0-.3-.71,1.05,1.05,0,0,0-.75-.29,1.12,1.12,0,0,0-.78.29,1.43,1.43,0,0,0-.38.86l-.8-.13a2,2,0,0,1,.66-1.24,2,2,0,0,1,1.28-.44,2,2,0,0,1,1,.24,1.83,1.83,0,0,1,.68.61,1.57,1.57,0,0,1,.24.83,1.31,1.31,0,0,1-.23.76,1.37,1.37,0,0,1-.66.54,1.56,1.56,0,0,1,.88.55,1.64,1.64,0,0,1,.32,1.05,1.87,1.87,0,0,1-.62,1.42,2.14,2.14,0,0,1-1.55.58,2,2,0,0,1-1.41-.5,1.94,1.94,0,0,1-.64-1.31" transform="translate(3 -1.89)"/><line class="cls-4" x1="118.07" y1="147.72" x2="118.07" y2="145.72"/><line class="cls-6" x1="118.07" y1="147.72" x2="118.07" y2="145.72"/><line class="cls-4" x1="118.07" y1="3.61" x2="118.07" y2="5.61"/><line class="cls-6" x1="118.07" y1="3.61" x2="118.07" y2="5.61"/><path class="cls-4" d="M110,156.27a4,4,0,0,0,.37,2.11,1.05,1.05,0,0,0,1.83,0,4,4,0,0,0,.38-2.11,4,4,0,0,0-.38-2.12,1.13,1.13,0,0,0-.92-.52,1,1,0,0,0-.87.46,4.14,4.14,0,0,0-.41,2.18m-.81,0a5.82,5.82,0,0,1,.24-1.84,2.27,2.27,0,0,1,.69-1.08,1.81,1.81,0,0,1,1.17-.38,1.91,1.91,0,0,1,.91.22,1.83,1.83,0,0,1,.64.6,3,3,0,0,1,.4,1,6.68,6.68,0,0,1,.15,1.52,5.75,5.75,0,0,1-.24,1.83,2.25,2.25,0,0,1-.69,1.08,2,2,0,0,1-2.64-.29,4.27,4.27,0,0,1-.63-2.62" transform="translate(3 -1.89)"/><rect class="cls-4" x="117.64" y="156.66" width="0.9" height="0.9"/><path class="cls-4" d="M119.23,157.18v-2.91l-2,2.91Zm0,2.27v-1.54h-2.79v-.73l2.93-4.18H120v4.18h.88v.73H120v1.54h-.79" transform="translate(3 -1.89)"/><line class="cls-4" x1="139.15" y1="147.72" x2="139.15" y2="145.72"/><line class="cls-6" x1="139.15" y1="147.72" x2="139.15" y2="145.72"/><line class="cls-4" x1="139.15" y1="3.61" x2="139.15" y2="5.61"/><line class="cls-6" x1="139.15" y1="3.61" x2="139.15" y2="5.61"/><line class="cls-4" x1="156.37" y1="147.72" x2="156.37" y2="145.72"/><line class="cls-6" x1="156.37" y1="147.72" x2="156.37" y2="145.72"/><line class="cls-4" x1="156.37" y1="3.61" x2="156.37" y2="5.61"/><line class="cls-6" x1="156.37" y1="3.61" x2="156.37" y2="5.61"/><path class="cls-4" d="M148.31,156.27a4,4,0,0,0,.37,2.11,1.09,1.09,0,0,0,.92.53,1.11,1.11,0,0,0,.91-.53,4,4,0,0,0,.37-2.11,4,4,0,0,0-.37-2.12,1.14,1.14,0,0,0-.92-.52,1,1,0,0,0-.87.46,4.14,4.14,0,0,0-.41,2.18m-.81,0a5.85,5.85,0,0,1,.23-1.84,2.29,2.29,0,0,1,.7-1.08,1.79,1.79,0,0,1,1.17-.38,1.78,1.78,0,0,1,1.55.82,3.26,3.26,0,0,1,.4,1,6.76,6.76,0,0,1,.14,1.52,6.09,6.09,0,0,1-.23,1.83,2.32,2.32,0,0,1-.69,1.08,1.8,1.8,0,0,1-1.17.36,1.76,1.76,0,0,1-1.47-.65,4.27,4.27,0,0,1-.63-2.62" transform="translate(3 -1.89)"/><rect class="cls-4" x="155.95" y="156.66" width="0.9" height="0.9"/><path class="cls-4" d="M155.88,157.36a1.77,1.77,0,0,0,.17.78,1.29,1.29,0,0,0,1.14.77,1.12,1.12,0,0,0,.86-.41,1.63,1.63,0,0,0,.36-1.1,1.53,1.53,0,0,0-.36-1.05,1.19,1.19,0,0,0-.89-.39,1.25,1.25,0,0,0-.91.39,1.38,1.38,0,0,0-.37,1m3.23-2.78-.79.06a1.54,1.54,0,0,0-.3-.68,1.1,1.1,0,0,0-.79-.33,1.11,1.11,0,0,0-.67.21,1.78,1.78,0,0,0-.58.79,3.91,3.91,0,0,0-.23,1.49,2,2,0,0,1,.71-.64,1.85,1.85,0,0,1,2.2.37,2.1,2.1,0,0,1,.56,1.51,2.49,2.49,0,0,1-.26,1.12,1.91,1.91,0,0,1-.72.79,2.15,2.15,0,0,1-2.65-.45,3.65,3.65,0,0,1-.62-2.39,4.42,4.42,0,0,1,.68-2.72,2,2,0,0,1,1.62-.74,1.84,1.84,0,0,1,1.26.44,1.82,1.82,0,0,1,.58,1.17" transform="translate(3 -1.89)"/><line class="cls-4" x1="170.94" y1="147.72" x2="170.94" y2="145.72"/><line class="cls-6" x1="170.94" y1="147.72" x2="170.94" y2="145.72"/><line class="cls-4" x1="170.94" y1="3.61" x2="170.94" y2="5.61"/><line class="cls-6" x1="170.94" y1="3.61" x2="170.94" y2="5.61"/><line class="cls-4" x1="183.55" y1="147.72" x2="183.55" y2="145.72"/><line class="cls-6" x1="183.55" y1="147.72" x2="183.55" y2="145.72"/><line class="cls-4" x1="183.55" y1="3.61" x2="183.55" y2="5.61"/><line class="cls-6" x1="183.55" y1="3.61" x2="183.55" y2="5.61"/><path class="cls-4" d="M175.49,156.27a4,4,0,0,0,.37,2.11,1,1,0,0,0,1.82,0,3.88,3.88,0,0,0,.38-2.11,3.93,3.93,0,0,0-.38-2.12,1.11,1.11,0,0,0-.91-.52,1,1,0,0,0-.88.46,4.16,4.16,0,0,0-.4,2.18m-.81,0a5.85,5.85,0,0,1,.23-1.84,2.29,2.29,0,0,1,.7-1.08,1.79,1.79,0,0,1,1.17-.38,1.87,1.87,0,0,1,.9.22,1.75,1.75,0,0,1,.64.6,3.27,3.27,0,0,1,.41,1,6.76,6.76,0,0,1,.14,1.52,6.09,6.09,0,0,1-.23,1.83,2.32,2.32,0,0,1-.69,1.08,1.81,1.81,0,0,1-1.17.36,1.76,1.76,0,0,1-1.47-.65,4.27,4.27,0,0,1-.63-2.62" transform="translate(3 -1.89)"/><rect class="cls-4" x="183.12" y="156.66" width="0.9" height="0.9"/><path class="cls-4" d="M183,157.58a1.37,1.37,0,0,0,.16.66,1.06,1.06,0,0,0,.47.49,1.36,1.36,0,0,0,.68.18,1.28,1.28,0,0,0,.94-.37,1.35,1.35,0,0,0,0-1.87,1.32,1.32,0,0,0-1-.38,1.24,1.24,0,0,0-.92.37,1.26,1.26,0,0,0-.36.92m.25-3a1,1,0,0,0,1.06,1,1,1,0,0,0,.75-.29.91.91,0,0,0,.29-.7,1,1,0,0,0-.3-.73,1,1,0,0,0-.75-.3,1.06,1.06,0,0,0-.76.29,1,1,0,0,0-.29.69m.16,1.34a1.47,1.47,0,0,1-.74-.51,1.32,1.32,0,0,1-.23-.8,1.54,1.54,0,0,1,.5-1.18,2.1,2.1,0,0,1,2.71,0,1.57,1.57,0,0,1,.51,1.19,1.35,1.35,0,0,1-.23.78,1.45,1.45,0,0,1-.72.51,1.76,1.76,0,0,1,.9.62,1.71,1.71,0,0,1,.32,1,1.84,1.84,0,0,1-.59,1.39,2.17,2.17,0,0,1-1.54.55,2.14,2.14,0,0,1-1.54-.55,1.85,1.85,0,0,1-.57-1.41,1.67,1.67,0,0,1,.31-1.05,1.62,1.62,0,0,1,.91-.58" transform="translate(3 -1.89)"/><line class="cls-4" x1="194.68" y1="147.72" x2="194.68" y2="145.72"/><line class="cls-6" x1="194.68" y1="147.72" x2="194.68" y2="145.72"/><line class="cls-4" x1="194.68" y1="3.61" x2="194.68" y2="5.61"/><line class="cls-6" x1="194.68" y1="3.61" x2="194.68" y2="5.61"/><line class="cls-4" x1="213.64" y1="147.72" x2="213.64" y2="145.72"/><line class="cls-6" x1="213.64" y1="147.72" x2="213.64" y2="145.72"/><line class="cls-4" x1="213.64" y1="3.61" x2="213.64" y2="5.61"/><line class="cls-6" x1="213.64" y1="3.61" x2="213.64" y2="5.61"/><polygon class="cls-4" points="115.79 164.36 121.34 164.36 121.2 165.11 118.86 165.11 117.73 170.92 116.84 170.92 117.97 165.11 115.64 165.11 115.79 164.36"/><polygon class="cls-4" points="123.04 164.36 123.79 164.36 121.5 171.75 120.75 171.75 123.04 164.36"/><polygon class="cls-4" points="124.32 164.36 129.87 164.36 129.73 165.11 127.39 165.11 126.26 170.92 125.37 170.92 126.5 165.11 124.17 165.11 124.32 164.36"/><polygon class="cls-4" points="130.35 167.81 132.98 167.81 132.88 168.33 130.87 168.33 130.6 169.68 132.42 169.68 132.32 170.21 130.5 170.21 130.07 172.4 129.45 172.4 130.35 167.81"/><line class="cls-4" x1="31.5" y1="147.72" x2="35" y2="147.72"/><line class="cls-5" x1="31.5" y1="147.72" x2="35" y2="147.72"/><line class="cls-4" x1="217.01" y1="147.72" x2="213.51" y2="147.72"/><line class="cls-5" x1="217.01" y1="147.72" x2="213.51" y2="147.72"/><path class="cls-4" d="M20.76,149.66a4.45,4.45,0,0,0,.41,2.35,1.18,1.18,0,0,0,2,0,6.78,6.78,0,0,0,0-4.7,1.25,1.25,0,0,0-1-.58,1.12,1.12,0,0,0-1,.51,4.61,4.61,0,0,0-.45,2.42m-.9,0a6.4,6.4,0,0,1,.26-2,2.53,2.53,0,0,1,.77-1.2,2,2,0,0,1,1.3-.42,1.95,1.95,0,0,1,1.72.91,3.56,3.56,0,0,1,.45,1.06,7.54,7.54,0,0,1,.16,1.69,6.7,6.7,0,0,1-.26,2,2.5,2.5,0,0,1-.77,1.19,2,2,0,0,1-1.3.41,2,2,0,0,1-1.63-.73,4.71,4.71,0,0,1-.7-2.91" transform="translate(3 -1.89)"/><line class="cls-4" x1="31.5" y1="118.9" x2="35" y2="118.9"/><line class="cls-5" x1="31.5" y1="118.9" x2="35" y2="118.9"/><line class="cls-4" x1="217.01" y1="118.9" x2="213.51" y2="118.9"/><line class="cls-5" x1="217.01" y1="118.9" x2="213.51" y2="118.9"/><path class="cls-4" d="M12.41,120.83a4.45,4.45,0,0,0,.41,2.35,1.18,1.18,0,0,0,2,0,6.78,6.78,0,0,0,0-4.7,1.25,1.25,0,0,0-1-.58,1.12,1.12,0,0,0-1,.51,4.61,4.61,0,0,0-.45,2.42m-.9,0a6.4,6.4,0,0,1,.26-2,2.53,2.53,0,0,1,.77-1.2,2,2,0,0,1,1.3-.42,1.95,1.95,0,0,1,1.72.91,3.56,3.56,0,0,1,.45,1.06,7.54,7.54,0,0,1,.16,1.69,6.7,6.7,0,0,1-.26,2,2.5,2.5,0,0,1-.77,1.19,2,2,0,0,1-1.3.41,2,2,0,0,1-1.63-.73,4.71,4.71,0,0,1-.7-2.91" transform="translate(3 -1.89)"/><rect class="cls-4" x="20.57" y="121.48" width="1" height="1"/><path class="cls-4" d="M24.46,123.52v.84H19.73a1.43,1.43,0,0,1,.11-.61,3.42,3.42,0,0,1,.57-1,9.69,9.69,0,0,1,1.15-1.09,9.37,9.37,0,0,0,1.58-1.51,1.82,1.82,0,0,0,.41-1.06,1.19,1.19,0,0,0-.38-.88,1.34,1.34,0,0,0-1-.36,1.37,1.37,0,0,0-1,.38,1.43,1.43,0,0,0-.39,1.06l-.9-.1a2.25,2.25,0,0,1,.69-1.54,2.4,2.4,0,0,1,1.63-.53,2.29,2.29,0,0,1,1.63.58,1.87,1.87,0,0,1,.6,1.41,2.13,2.13,0,0,1-.18.85,3.21,3.21,0,0,1-.58.87,13,13,0,0,1-1.35,1.26q-.8.66-1,.9a3.09,3.09,0,0,0-.37.48Z" transform="translate(3 -1.89)"/><line class="cls-4" x1="31.5" y1="90.08" x2="35" y2="90.08"/><line class="cls-5" x1="31.5" y1="90.08" x2="35" y2="90.08"/><line class="cls-4" x1="217.01" y1="90.08" x2="213.51" y2="90.08"/><line class="cls-5" x1="217.01" y1="90.08" x2="213.51" y2="90.08"/><path class="cls-4" d="M12.41,92a4.45,4.45,0,0,0,.41,2.35,1.18,1.18,0,0,0,2,0,6.78,6.78,0,0,0,0-4.7,1.25,1.25,0,0,0-1-.58,1.12,1.12,0,0,0-1,.51A4.61,4.61,0,0,0,12.41,92m-.9,0a6.4,6.4,0,0,1,.26-2,2.53,2.53,0,0,1,.77-1.2,2,2,0,0,1,1.3-.42,1.95,1.95,0,0,1,1.72.91A3.56,3.56,0,0,1,16,90.32,7.54,7.54,0,0,1,16.17,92a6.7,6.7,0,0,1-.26,2,2.5,2.5,0,0,1-.77,1.19,2,2,0,0,1-1.3.41,2,2,0,0,1-1.63-.73,4.71,4.71,0,0,1-.7-2.91" transform="translate(3 -1.89)"/><rect class="cls-4" x="20.57" y="92.65" width="1" height="1"/><path class="cls-4" d="M22.66,93V89.79L20.42,93Zm0,2.52V93.83h-3.1V93l3.26-4.64h.72V93h1v.81h-1v1.71h-.88" transform="translate(3 -1.89)"/><line class="cls-4" x1="31.5" y1="61.25" x2="35" y2="61.25"/><line class="cls-5" x1="31.5" y1="61.25" x2="35" y2="61.25"/><line class="cls-4" x1="217.01" y1="61.25" x2="213.51" y2="61.25"/><line class="cls-5" x1="217.01" y1="61.25" x2="213.51" y2="61.25"/><path class="cls-4" d="M12.41,63.19a4.45,4.45,0,0,0,.41,2.35,1.18,1.18,0,0,0,2,0,4.43,4.43,0,0,0,.42-2.35,4.43,4.43,0,0,0-.42-2.35,1.25,1.25,0,0,0-1-.58,1.12,1.12,0,0,0-1,.51,4.61,4.61,0,0,0-.45,2.42m-.9,0a6.4,6.4,0,0,1,.26-2,2.53,2.53,0,0,1,.77-1.2,2,2,0,0,1,1.3-.42,1.95,1.95,0,0,1,1.72.91A3.56,3.56,0,0,1,16,61.5a7.54,7.54,0,0,1,.16,1.69,6.7,6.7,0,0,1-.26,2,2.5,2.5,0,0,1-.77,1.19,2,2,0,0,1-1.3.41,2,2,0,0,1-1.63-.73,4.71,4.71,0,0,1-.7-2.91" transform="translate(3 -1.89)"/><rect class="cls-4" x="20.57" y="63.83" width="1" height="1"/><path class="cls-4" d="M20.82,64.4a2,2,0,0,0,.19.87,1.42,1.42,0,0,0,1.27.85,1.25,1.25,0,0,0,.95-.45,1.79,1.79,0,0,0,.4-1.22,1.69,1.69,0,0,0-.4-1.17,1.3,1.3,0,0,0-1-.43,1.38,1.38,0,0,0-1,.43,1.53,1.53,0,0,0-.41,1.12m3.59-3.09-.88.07a1.75,1.75,0,0,0-.33-.75,1.22,1.22,0,0,0-.88-.37,1.25,1.25,0,0,0-.74.23,2,2,0,0,0-.65.88A4.49,4.49,0,0,0,20.68,63a2,2,0,0,1,.78-.71,2,2,0,0,1,2.45.41,2.33,2.33,0,0,1,.62,1.67,2.77,2.77,0,0,1-.29,1.25,2.08,2.08,0,0,1-.8.88A2.38,2.38,0,0,1,20.5,66a4.06,4.06,0,0,1-.69-2.66,4.82,4.82,0,0,1,.76-3,2.21,2.21,0,0,1,1.8-.82,2,2,0,0,1,1.39.48,2.06,2.06,0,0,1,.65,1.3" transform="translate(3 -1.89)"/><line class="cls-4" x1="31.5" y1="32.43" x2="35" y2="32.43"/><line class="cls-5" x1="31.5" y1="32.43" x2="35" y2="32.43"/><line class="cls-4" x1="217.01" y1="32.43" x2="213.51" y2="32.43"/><line class="cls-5" x1="217.01" y1="32.43" x2="213.51" y2="32.43"/><path class="cls-4" d="M12.41,34.37a4.45,4.45,0,0,0,.41,2.35,1.18,1.18,0,0,0,2,0,4.43,4.43,0,0,0,.42-2.35A4.43,4.43,0,0,0,14.85,32a1.25,1.25,0,0,0-1-.58,1.12,1.12,0,0,0-1,.51,4.61,4.61,0,0,0-.45,2.42m-.9,0a6.4,6.4,0,0,1,.26-2,2.53,2.53,0,0,1,.77-1.2,2,2,0,0,1,1.3-.42,1.95,1.95,0,0,1,1.72.91A3.56,3.56,0,0,1,16,32.68a7.54,7.54,0,0,1,.16,1.69,6.7,6.7,0,0,1-.26,2,2.5,2.5,0,0,1-.77,1.19,2,2,0,0,1-1.3.41,2,2,0,0,1-1.63-.73,4.71,4.71,0,0,1-.7-2.91" transform="translate(3 -1.89)"/><rect class="cls-4" x="20.57" y="35.01" width="1" height="1"/><path class="cls-4" d="M20.74,35.83a1.55,1.55,0,0,0,.18.73,1.23,1.23,0,0,0,.53.55,1.49,1.49,0,0,0,.75.19,1.39,1.39,0,0,0,1.45-1.44,1.4,1.4,0,0,0-.42-1,1.45,1.45,0,0,0-1.06-.42,1.39,1.39,0,0,0-1,.41,1.41,1.41,0,0,0-.4,1m.28-3.3a1.1,1.1,0,0,0,.33.83,1.14,1.14,0,0,0,.85.32,1.11,1.11,0,0,0,.83-.32,1,1,0,0,0,.33-.78,1.11,1.11,0,0,0-.34-.81,1.13,1.13,0,0,0-.83-.33,1.17,1.17,0,0,0-.84.32,1,1,0,0,0-.33.77M21.2,34a1.64,1.64,0,0,1-.82-.57,1.44,1.44,0,0,1-.26-.89,1.72,1.72,0,0,1,.56-1.31,2.09,2.09,0,0,1,1.5-.54,2.12,2.12,0,0,1,1.51.55,1.76,1.76,0,0,1,.58,1.32,1.47,1.47,0,0,1-.26.87,1.7,1.7,0,0,1-.81.57,2,2,0,0,1,1,.69,1.9,1.9,0,0,1,.35,1.14,2,2,0,0,1-.66,1.54,2.37,2.37,0,0,1-1.71.62,2.34,2.34,0,0,1-1.71-.62,2.06,2.06,0,0,1-.64-1.56,1.89,1.89,0,0,1,.35-1.17,1.79,1.79,0,0,1,1-.64" transform="translate(3 -1.89)"/><line class="cls-4" x1="31.5" y1="3.61" x2="35" y2="3.61"/><line class="cls-5" x1="31.5" y1="3.61" x2="35" y2="3.61"/><line class="cls-4" x1="217.01" y1="3.61" x2="213.51" y2="3.61"/><line class="cls-5" x1="217.01" y1="3.61" x2="213.51" y2="3.61"/><path class="cls-4" d="M23.17,9.08h-.88V3.48a5.08,5.08,0,0,1-.84.61,5.89,5.89,0,0,1-.92.45V3.69a5.32,5.32,0,0,0,1.29-.84,3.3,3.3,0,0,0,.78-1h.57Z" transform="translate(3 -1.89)"/><path class="cls-4" d="M4.94,80.51V78.84a1.73,1.73,0,0,0-.31-1.17,1.11,1.11,0,0,0-.87-.35,1.13,1.13,0,0,0-.69.21,1,1,0,0,0-.38.54,3.44,3.44,0,0,0-.06.79v1.65Zm3.37.85H1.87V78.93a7.58,7.58,0,0,1,.06-1,2,2,0,0,1,.31-.79,1.46,1.46,0,0,1,.62-.52,2,2,0,0,1,.87-.2,2,2,0,0,1,1.4.53,2.55,2.55,0,0,1,.56,1.89v1.65H8.31v.85" transform="translate(3 -1.89)"/><path class="cls-4" d="M8.31,75.47H3.64v-.72h.71a2,2,0,0,1-.65-.5.9.9,0,0,1-.16-.5,1.66,1.66,0,0,1,.25-.82l.74.28a1.14,1.14,0,0,0-.17.57.82.82,0,0,0,.15.47.92.92,0,0,0,.44.3,3,3,0,0,0,.92.12H8.31Z" transform="translate(3 -1.89)"/></g><g class="cls-7"><polyline class="cls-8" points="0 51.65 10.84 51.65 29.8 51.65 45.58 51.65 59.1 51.65 70.93 51.65 81.43 51.65 90.89 51.65 99.48 51.65 107.36 51.65 114.63 51.65 121.38 51.65 127.68 51.65 133.59 51.65 139.15 51.65 144.4 51.65 149.37 51.65 154.1 51.65 158.6 51.65 162.89 51.65 167 51.65 170.94 51.65 174.72 51.65 178.35 51.65 181.85 51.65 185.22 51.65 188.48 51.65 191.63 51.65 194.68 51.65 197.63 51.65 200.49 51.65 203.27 51.65 205.97 51.65 208.6 51.65 211.15 51.65 213.64 51.65 216.06 51.65 218.01 51.65"/><polyline class="cls-9" points="99.37 130.9 106.52 128.58 113.17 126 119.11 123.31 124.18 120.81 128.74 118.32 133.09 115.77 137.25 113.17 141.24 110.52 145.06 107.83 148.74 105.12 151.89 102.84 156.25 99.24 160.76 95.58 164.22 92.82 167.24 90.3 170.31 87.75 173.45 85.11 176.63 82.56 179.86 79.86 182.97 77.34 185.99 74.93 188.92 72.66 191.75 70.52 194.51 68.44 197.18 66.56 199.79 64.81 202.32 63.11 204.78 61.67 207.19 60.3 209.53 58.99 211.82 57.89 214.05 56.9 216.24 55.9 218.01 55.2"/></g><g class="cls-2"><line class="cls-10" x1="31.5" y1="147.72" x2="31.5" y2="3.61"/><line class="cls-10" x1="217.01" y1="147.72" x2="217.01" y2="3.61"/><line class="cls-10" x1="31.5" y1="147.72" x2="217.01" y2="147.72"/><line class="cls-10" x1="31.5" y1="3.61" x2="217.01" y2="3.61"/></g><g class="cls-7"><line class="cls-11" x1="49.35" y1="79.04" x2="56.34" y2="79.04"/><line class="cls-11" x1="55.06" y1="74.24" x2="62.28" y2="74.24"/><line class="cls-11" x1="57.6" y1="88.32" x2="65.19" y2="88.32"/><line class="cls-11" x1="60.34" y1="58.97" x2="70.34" y2="58.97"/><line class="cls-11" x1="68.78" y1="86.94" x2="77.17" y2="86.94"/><line class="cls-11" x1="74.14" y1="75.47" x2="84.03" y2="75.47"/><line class="cls-11" x1="83.9" y1="60.8" x2="89.56" y2="60.8"/><line class="cls-11" x1="83.8" y1="65.4" x2="91.07" y2="65.4"/><line class="cls-11" x1="80.82" y1="77.3" x2="94.57" y2="77.3"/><line class="cls-11" x1="85.15" y1="69.48" x2="105.73" y2="69.48"/><line class="cls-11" x1="98.75" y1="66.92" x2="104.12" y2="66.92"/><line class="cls-11" x1="105.46" y1="80.43" x2="112.91" y2="80.43"/><line class="cls-11" x1="110.02" y1="74.85" x2="118.4" y2="74.85"/><line class="cls-11" x1="110.35" y1="67.13" x2="139.09" y2="67.13"/><line class="cls-11" x1="123.87" y1="53.25" x2="128.44" y2="53.25"/><line class="cls-11" x1="123.24" y1="72.48" x2="134.71" y2="72.48"/><line class="cls-11" x1="127.66" y1="86.61" x2="134.06" y2="86.61"/><line class="cls-11" x1="144.16" y1="68.31" x2="149.46" y2="68.31"/><line class="cls-11" x1="146.83" y1="84.08" x2="151.46" y2="84.08"/><line class="cls-11" x1="153.76" y1="95.84" x2="159.42" y2="95.84"/><line class="cls-11" x1="154.94" y1="66.68" x2="164.79" y2="66.68"/><line class="cls-11" x1="162" y1="54.58" x2="168.23" y2="54.58"/><line class="cls-11" x1="163.96" y1="76.58" x2="167.75" y2="76.58"/><line class="cls-11" x1="167.71" y1="100.62" x2="172.84" y2="100.62"/><line class="cls-11" x1="169.81" y1="97.12" x2="174.47" y2="97.12"/><line class="cls-11" x1="169.6" y1="98.92" x2="175.59" y2="98.92"/><line class="cls-11" x1="184.92" y1="83.78" x2="188.81" y2="83.78"/><line class="cls-11" x1="185.46" y1="110.81" x2="193.47" y2="110.81"/><line class="cls-11" x1="191" y1="96.97" x2="195.56" y2="96.97"/><line class="cls-11" x1="200.63" y1="111.59" x2="203.49" y2="111.59"/><line class="cls-11" x1="200.47" y1="87.75" x2="206.33" y2="87.75"/><line class="cls-11" x1="52.19" y1="107.59" x2="52.19" y2="50.5"/><line class="cls-11" x1="58.9" y1="86.52" x2="58.9" y2="61.95"/><line class="cls-11" x1="61.99" y1="100.89" x2="61.99" y2="75.74"/><line class="cls-11" x1="65.48" y1="72.72" x2="65.48" y2="45.23"/><line class="cls-11" x1="73.27" y1="97.2" x2="73.27" y2="76.68"/><line class="cls-11" x1="79.51" y1="85.59" x2="79.51" y2="65.35"/><line class="cls-11" x1="86.36" y1="74.47" x2="86.36" y2="47.12"/><line class="cls-11" x1="87.42" y1="79.16" x2="87.42" y2="51.64"/><line class="cls-11" x1="89.12" y1="88.96" x2="89.12" y2="65.64"/><line class="cls-11" x1="96.07" y1="83.5" x2="96.07" y2="55.46"/><line class="cls-11" x1="101.54" y1="80.84" x2="101.54" y2="53"/><line class="cls-11" x1="109.17" y1="92.9" x2="109.17" y2="67.96"/><line class="cls-11" x1="113.64" y1="93.22" x2="113.64" y2="56.48"/><line class="cls-11" x1="124.03" y1="91.78" x2="124.03" y2="42.48"/><line class="cls-11" x1="126.12" y1="71.26" x2="126.12" y2="35.25"/><line class="cls-11" x1="128.46" y1="84.66" x2="128.46" y2="60.3"/><line class="cls-11" x1="131.26" y1="98.91" x2="131.26" y2="74.3"/><line class="cls-11" x1="146.77" y1="87.64" x2="146.77" y2="48.97"/><line class="cls-11" x1="149" y1="99" x2="149" y2="69.16"/><line class="cls-11" x1="156.79" y1="112.69" x2="156.79" y2="78.99"/><line class="cls-11" x1="160.67" y1="83.91" x2="160.67" y2="49.45"/><line class="cls-11" x1="165.01" y1="73.29" x2="165.01" y2="35.88"/><line class="cls-11" x1="166.11" y1="90.21" x2="166.11" y2="62.95"/><line class="cls-11" x1="170.11" y1="111.23" x2="170.11" y2="90.02"/><line class="cls-11" x1="172.62" y1="108.29" x2="172.62" y2="85.95"/><line class="cls-11" x1="172.66" y1="110.69" x2="172.66" y2="87.14"/><line class="cls-11" x1="187.29" y1="100.04" x2="187.29" y2="67.51"/><line class="cls-11" x1="189.28" y1="128.81" x2="189.28" y2="92.8"/><line class="cls-11" x1="193.03" y1="118.93" x2="193.03" y2="75.01"/><line class="cls-11" x1="201.99" y1="133.47" x2="201.99" y2="89.71"/><line class="cls-11" x1="203.29" y1="105.43" x2="203.29" y2="70.06"/></g><g class="cls-12"><path class="cls-13" d="M49.19,83.17a2.24,2.24,0,1,0-1.58-.66,2.22,2.22,0,0,0,1.58.66" transform="translate(3 -1.89)"/><path class="cls-11" d="M49.19,83.17a2.24,2.24,0,1,0-1.58-.66A2.22,2.22,0,0,0,49.19,83.17Z" transform="translate(3 -1.89)"/></g><g class="cls-14"><path class="cls-13" d="M55.9,78.36a2.24,2.24,0,0,0,2.24-2.24,2.28,2.28,0,0,0-.65-1.58,2.24,2.24,0,0,0-3.82,1.58,2.2,2.2,0,0,0,.65,1.58,2.24,2.24,0,0,0,1.58.66" transform="translate(3 -1.89)"/><path class="cls-11" d="M55.9,78.36a2.24,2.24,0,0,0,2.24-2.24,2.28,2.28,0,0,0-.65-1.58,2.24,2.24,0,0,0-3.82,1.58,2.2,2.2,0,0,0,.65,1.58A2.24,2.24,0,0,0,55.9,78.36Z" transform="translate(3 -1.89)"/></g><g class="cls-15"><path class="cls-13" d="M59,92.44a2.28,2.28,0,0,0,1.58-.65A2.24,2.24,0,0,0,59,88a2.2,2.2,0,0,0-1.58.65A2.24,2.24,0,0,0,59,92.44" transform="translate(3 -1.89)"/><path class="cls-11" d="M59,92.44a2.28,2.28,0,0,0,1.58-.65A2.24,2.24,0,0,0,59,88a2.2,2.2,0,0,0-1.58.65A2.24,2.24,0,0,0,59,92.44Z" transform="translate(3 -1.89)"/></g><g class="cls-16"><path class="cls-13" d="M62.48,63.1a2.25,2.25,0,1,0-1.58-.66,2.24,2.24,0,0,0,1.58.66" transform="translate(3 -1.89)"/><path class="cls-11" d="M62.48,63.1a2.25,2.25,0,1,0-1.58-.66A2.24,2.24,0,0,0,62.48,63.1Z" transform="translate(3 -1.89)"/></g><g class="cls-17"><path class="cls-13" d="M70.27,91.06a2.24,2.24,0,1,0,0-4.47,2.2,2.2,0,0,0-1.58.65,2.23,2.23,0,0,0,0,3.17,2.2,2.2,0,0,0,1.58.65" transform="translate(3 -1.89)"/><path class="cls-11" d="M70.27,91.06a2.24,2.24,0,1,0,0-4.47,2.2,2.2,0,0,0-1.58.65,2.23,2.23,0,0,0,0,3.17A2.2,2.2,0,0,0,70.27,91.06Z" transform="translate(3 -1.89)"/></g><g class="cls-18"><path class="cls-13" d="M76.51,79.59a2.22,2.22,0,0,0,1.58-.65,2.23,2.23,0,1,0-3.16-3.16,2.23,2.23,0,0,0,1.58,3.81" transform="translate(3 -1.89)"/><path class="cls-11" d="M76.51,79.59a2.22,2.22,0,0,0,1.58-.65,2.23,2.23,0,1,0-3.16-3.16,2.23,2.23,0,0,0,1.58,3.81Z" transform="translate(3 -1.89)"/></g><g class="cls-19"><path class="cls-13" d="M83.36,64.92a2.24,2.24,0,1,0,0-4.47,2.2,2.2,0,0,0-1.58.65,2.23,2.23,0,0,0,0,3.17,2.2,2.2,0,0,0,1.58.65" transform="translate(3 -1.89)"/><path class="cls-11" d="M83.36,64.92a2.24,2.24,0,1,0,0-4.47,2.2,2.2,0,0,0-1.58.65,2.23,2.23,0,0,0,0,3.17A2.2,2.2,0,0,0,83.36,64.92Z" transform="translate(3 -1.89)"/></g><g class="cls-20"><path class="cls-13" d="M84.42,69.52a2.24,2.24,0,1,0-1.58-.65,2.23,2.23,0,0,0,1.58.65" transform="translate(3 -1.89)"/><path class="cls-11" d="M84.42,69.52a2.24,2.24,0,1,0-1.58-.65A2.23,2.23,0,0,0,84.42,69.52Z" transform="translate(3 -1.89)"/></g><g class="cls-21"><path class="cls-13" d="M86.12,81.42a2.2,2.2,0,0,0,1.58-.65,2.22,2.22,0,0,0,0-3.16A2.21,2.21,0,0,0,86.12,77a2.24,2.24,0,0,0-1.58.66,2.23,2.23,0,0,0,1.58,3.81" transform="translate(3 -1.89)"/><path class="cls-11" d="M86.12,81.42a2.2,2.2,0,0,0,1.58-.65,2.22,2.22,0,0,0,0-3.16A2.21,2.21,0,0,0,86.12,77a2.24,2.24,0,0,0-1.58.66,2.23,2.23,0,0,0,1.58,3.81Z" transform="translate(3 -1.89)"/></g><g class="cls-22"><path class="cls-13" d="M93.07,73.6A2.24,2.24,0,1,0,91.49,73a2.23,2.23,0,0,0,1.58.65" transform="translate(3 -1.89)"/><path class="cls-11" d="M93.07,73.6A2.24,2.24,0,1,0,91.49,73,2.23,2.23,0,0,0,93.07,73.6Z" transform="translate(3 -1.89)"/></g><g class="cls-23"><path class="cls-13" d="M98.54,71.05A2.25,2.25,0,1,0,97,70.39a2.24,2.24,0,0,0,1.58.66" transform="translate(3 -1.89)"/><path class="cls-11" d="M98.54,71.05A2.25,2.25,0,1,0,97,70.39,2.24,2.24,0,0,0,98.54,71.05Z" transform="translate(3 -1.89)"/></g><g class="cls-24"><path class="cls-13" d="M106.17,84.55a2.24,2.24,0,1,0-1.58-.65,2.23,2.23,0,0,0,1.58.65" transform="translate(3 -1.89)"/><path class="cls-11" d="M106.17,84.55a2.24,2.24,0,1,0-1.58-.65A2.23,2.23,0,0,0,106.17,84.55Z" transform="translate(3 -1.89)"/></g><g class="cls-25"><path class="cls-13" d="M110.64,79a2.24,2.24,0,0,0,2.24-2.23,2.21,2.21,0,0,0-.66-1.58,2.22,2.22,0,0,0-3.16,0,2.21,2.21,0,0,0-.66,1.58A2.24,2.24,0,0,0,110.64,79" transform="translate(3 -1.89)"/><path class="cls-11" d="M110.64,79a2.24,2.24,0,0,0,2.24-2.23,2.21,2.21,0,0,0-.66-1.58,2.22,2.22,0,0,0-3.16,0,2.21,2.21,0,0,0-.66,1.58A2.24,2.24,0,0,0,110.64,79Z" transform="translate(3 -1.89)"/></g><g class="cls-26"><path class="cls-13" d="M121,71.25a2.24,2.24,0,1,0-1.58-.65,2.23,2.23,0,0,0,1.58.65" transform="translate(3 -1.89)"/><path class="cls-11" d="M121,71.25a2.24,2.24,0,1,0-1.58-.65A2.23,2.23,0,0,0,121,71.25Z" transform="translate(3 -1.89)"/></g><g class="cls-27"><path class="cls-13" d="M123.12,57.37a2.24,2.24,0,1,0-1.58-.65,2.23,2.23,0,0,0,1.58.65" transform="translate(3 -1.89)"/><path class="cls-11" d="M123.12,57.37a2.24,2.24,0,1,0-1.58-.65A2.23,2.23,0,0,0,123.12,57.37Z" transform="translate(3 -1.89)"/></g><g class="cls-28"><path class="cls-13" d="M125.46,76.61a2.24,2.24,0,1,0,0-4.47,2.2,2.2,0,0,0-1.58.65,2.22,2.22,0,0,0,0,3.16,2.21,2.21,0,0,0,1.58.66" transform="translate(3 -1.89)"/><path class="cls-11" d="M125.46,76.61a2.24,2.24,0,1,0,0-4.47,2.2,2.2,0,0,0-1.58.65,2.22,2.22,0,0,0,0,3.16A2.21,2.21,0,0,0,125.46,76.61Z" transform="translate(3 -1.89)"/></g><g class="cls-29"><path class="cls-13" d="M128.26,90.73a2.24,2.24,0,0,0,1.59-3.82,2.24,2.24,0,0,0-3.17,3.17,2.28,2.28,0,0,0,1.58.65" transform="translate(3 -1.89)"/><path class="cls-11" d="M128.26,90.73a2.24,2.24,0,0,0,1.59-3.82,2.24,2.24,0,0,0-3.17,3.17A2.28,2.28,0,0,0,128.26,90.73Z" transform="translate(3 -1.89)"/></g><g class="cls-30"><path class="cls-13" d="M143.77,72.43a2.24,2.24,0,1,0-2.23-2.24,2.2,2.2,0,0,0,.65,1.58,2.24,2.24,0,0,0,1.58.66" transform="translate(3 -1.89)"/><path class="cls-11" d="M143.77,72.43a2.24,2.24,0,1,0-2.23-2.24,2.2,2.2,0,0,0,.65,1.58A2.24,2.24,0,0,0,143.77,72.43Z" transform="translate(3 -1.89)"/></g><g class="cls-31"><path class="cls-13" d="M146,88.2a2.23,2.23,0,0,0,1.58-3.82,2.2,2.2,0,0,0-1.58-.65,2.24,2.24,0,0,0-1.58,3.82,2.28,2.28,0,0,0,1.58.65" transform="translate(3 -1.89)"/><path class="cls-11" d="M146,88.2a2.23,2.23,0,0,0,1.58-3.82,2.2,2.2,0,0,0-1.58-.65,2.24,2.24,0,0,0-1.58,3.82A2.28,2.28,0,0,0,146,88.2Z" transform="translate(3 -1.89)"/></g><g class="cls-32"><path class="cls-13" d="M153.79,100a2.24,2.24,0,1,0-1.58-.65,2.23,2.23,0,0,0,1.58.65" transform="translate(3 -1.89)"/><path class="cls-11" d="M153.79,100a2.24,2.24,0,1,0-1.58-.65A2.23,2.23,0,0,0,153.79,100Z" transform="translate(3 -1.89)"/></g><g class="cls-33"><path class="cls-13" d="M157.67,70.8a2.24,2.24,0,1,0-1.58-.65,2.23,2.23,0,0,0,1.58.65" transform="translate(3 -1.89)"/><path class="cls-11" d="M157.67,70.8a2.24,2.24,0,1,0-1.58-.65A2.23,2.23,0,0,0,157.67,70.8Z" transform="translate(3 -1.89)"/></g><g class="cls-34"><path class="cls-13" d="M162,58.71a2.25,2.25,0,1,0-1.58-.66,2.24,2.24,0,0,0,1.58.66" transform="translate(3 -1.89)"/><path class="cls-11" d="M162,58.71a2.25,2.25,0,1,0-1.58-.66A2.24,2.24,0,0,0,162,58.71Z" transform="translate(3 -1.89)"/></g><g class="cls-35"><path class="cls-13" d="M163.11,80.7a2.22,2.22,0,0,0,2.23-2.23,2.2,2.2,0,0,0-.65-1.58,2.22,2.22,0,0,0-3.16,0,2.21,2.21,0,0,0-.66,1.58,2.24,2.24,0,0,0,2.24,2.23" transform="translate(3 -1.89)"/><path class="cls-11" d="M163.11,80.7a2.22,2.22,0,0,0,2.23-2.23,2.2,2.2,0,0,0-.65-1.58,2.22,2.22,0,0,0-3.16,0,2.21,2.21,0,0,0-.66,1.58,2.24,2.24,0,0,0,2.24,2.23Z" transform="translate(3 -1.89)"/></g><g class="cls-36"><path class="cls-13" d="M167.11,104.74a2.24,2.24,0,1,0-1.59-3.81,2.25,2.25,0,0,0,0,3.16,2.24,2.24,0,0,0,1.59.65" transform="translate(3 -1.89)"/><path class="cls-11" d="M167.11,104.74a2.24,2.24,0,1,0-1.59-3.81,2.25,2.25,0,0,0,0,3.16A2.24,2.24,0,0,0,167.11,104.74Z" transform="translate(3 -1.89)"/></g><g class="cls-37"><path class="cls-13" d="M169.62,101.24a2.24,2.24,0,1,0-1.58-.65,2.23,2.23,0,0,0,1.58.65" transform="translate(3 -1.89)"/><path class="cls-11" d="M169.62,101.24a2.24,2.24,0,1,0-1.58-.65A2.23,2.23,0,0,0,169.62,101.24Z" transform="translate(3 -1.89)"/></g><g class="cls-38"><path class="cls-13" d="M169.66,103a2.24,2.24,0,1,0-1.58-.65,2.23,2.23,0,0,0,1.58.65" transform="translate(3 -1.89)"/><path class="cls-11" d="M169.66,103a2.24,2.24,0,1,0-1.58-.65A2.23,2.23,0,0,0,169.66,103Z" transform="translate(3 -1.89)"/></g><g class="cls-39"><path class="cls-13" d="M184.29,87.9a2.24,2.24,0,0,0,1.58-.66,2.2,2.2,0,0,0,.65-1.58,2.24,2.24,0,0,0-3.82-1.58,2.28,2.28,0,0,0-.65,1.58,2.24,2.24,0,0,0,2.24,2.24" transform="translate(3 -1.89)"/><path class="cls-11" d="M184.29,87.9a2.24,2.24,0,0,0,1.58-.66,2.2,2.2,0,0,0,.65-1.58,2.24,2.24,0,0,0-3.82-1.58,2.28,2.28,0,0,0-.65,1.58,2.24,2.24,0,0,0,2.24,2.24Z" transform="translate(3 -1.89)"/></g><g class="cls-40"><path class="cls-13" d="M186.28,114.93a2.24,2.24,0,0,0,1.58-.66,2.2,2.2,0,0,0,.65-1.58,2.22,2.22,0,0,0-2.23-2.23,2.2,2.2,0,0,0-1.58.65,2.24,2.24,0,0,0-.66,1.58,2.25,2.25,0,0,0,2.24,2.24" transform="translate(3 -1.89)"/><path class="cls-11" d="M186.28,114.93a2.24,2.24,0,0,0,1.58-.66,2.2,2.2,0,0,0,.65-1.58,2.22,2.22,0,0,0-2.23-2.23,2.2,2.2,0,0,0-1.58.65,2.24,2.24,0,0,0-.66,1.58,2.25,2.25,0,0,0,2.24,2.24Z" transform="translate(3 -1.89)"/></g><g class="cls-41"><path class="cls-13" d="M190,101.1a2.25,2.25,0,1,0-1.58-.66,2.24,2.24,0,0,0,1.58.66" transform="translate(3 -1.89)"/><path class="cls-11" d="M190,101.1a2.25,2.25,0,1,0-1.58-.66A2.24,2.24,0,0,0,190,101.1Z" transform="translate(3 -1.89)"/></g><g class="cls-42"><path class="cls-13" d="M199,115.71a2.2,2.2,0,0,0,1.58-.65,2.24,2.24,0,0,0,.66-1.58,2.25,2.25,0,0,0-2.24-2.24,2.24,2.24,0,0,0-1.58.66,2.2,2.2,0,0,0-.65,1.58,2.22,2.22,0,0,0,2.23,2.23" transform="translate(3 -1.89)"/><path class="cls-11" d="M199,115.71a2.2,2.2,0,0,0,1.58-.65,2.24,2.24,0,0,0,.66-1.58,2.25,2.25,0,0,0-2.24-2.24,2.24,2.24,0,0,0-1.58.66,2.2,2.2,0,0,0-.65,1.58,2.22,2.22,0,0,0,2.23,2.23Z" transform="translate(3 -1.89)"/></g><g class="cls-43"><path class="cls-13" d="M200.29,91.87a2.24,2.24,0,0,0,2.24-2.23,2.21,2.21,0,0,0-.66-1.58,2.22,2.22,0,0,0-3.16,0,2.21,2.21,0,0,0-.66,1.58,2.24,2.24,0,0,0,2.24,2.23" transform="translate(3 -1.89)"/><path class="cls-11" d="M200.29,91.87a2.24,2.24,0,0,0,2.24-2.23,2.21,2.21,0,0,0-.66-1.58,2.22,2.22,0,0,0-3.16,0,2.21,2.21,0,0,0-.66,1.58,2.24,2.24,0,0,0,2.24,2.23Z" transform="translate(3 -1.89)"/></g></g></g></g></g></svg>