<?xml version="1.0" encoding="UTF-8" standalone="no"?>
<svg width="127.331mm" height="157.692mm"
 viewBox="0 0 3850 4768"
 xmlns="http://www.w3.org/2000/svg" xmlns:xlink="http://www.w3.org/1999/xlink"  version="1.2" baseProfile="tiny">
<title>Qt SVG Document</title>
<desc>Generated with Qt</desc>
<defs>
</defs>
<g fill="none" stroke="black" stroke-width="1" fill-rule="evenodd" stroke-linecap="square" stroke-linejoin="bevel" >

<g fill="#ffffff" fill-opacity="1" stroke="#000000" stroke-opacity="1" stroke-width="1" stroke-linecap="butt" stroke-linejoin="miter" stroke-miterlimit="4.97494" transform="matrix(1,0,0,1,0,0)"
font-family="MS Shell Dlg 2" font-size="88" font-weight="400" font-style="normal" 
>
</g>

<g fill="#ffffff" fill-opacity="1" stroke="#000000" stroke-opacity="1" stroke-width="11" stroke-linecap="butt" stroke-linejoin="miter" stroke-miterlimit="4.97494" transform="matrix(1,0,0,1,0,0)"
font-family="MS Shell Dlg 2" font-size="88" font-weight="400" font-style="normal" 
>
<polyline fill="none" vector-effect="none" points="676.5,1170 676.5,4251 " />
</g>

<g fill="#ffffff" fill-opacity="1" stroke="#000000" stroke-opacity="1" stroke-width="1" stroke-linecap="butt" stroke-linejoin="miter" stroke-miterlimit="4.97494" transform="matrix(1,0,0,1,0,0)"
font-family="MS Shell Dlg 2" font-size="88" font-weight="400" font-style="normal" 
>
</g>

<g fill="#ffffff" fill-opacity="1" stroke="#000000" stroke-opacity="1" stroke-width="11" stroke-linecap="butt" stroke-linejoin="miter" stroke-miterlimit="4.97494" transform="matrix(1,0,0,1,0,0)"
font-family="MS Shell Dlg 2" font-size="88" font-weight="400" font-style="normal" 
>
<polyline fill="none" vector-effect="none" points="3513.5,1170 3513.5,4251 " />
</g>

<g fill="#ffffff" fill-opacity="1" stroke="#000000" stroke-opacity="1" stroke-width="1" stroke-linecap="butt" stroke-linejoin="miter" stroke-miterlimit="4.97494" transform="matrix(1,0,0,1,0,0)"
font-family="MS Shell Dlg 2" font-size="88" font-weight="400" font-style="normal" 
>
</g>

<g fill="#ffffff" fill-opacity="1" stroke="#000000" stroke-opacity="1" stroke-width="11" stroke-linecap="butt" stroke-linejoin="miter" stroke-miterlimit="4.97494" transform="matrix(1,0,0,1,0,0)"
font-family="MS Shell Dlg 2" font-size="88" font-weight="400" font-style="normal" 
>
<polyline fill="none" vector-effect="none" points="582,1170.5 682,1170.5 " />
</g>

<g fill="#ffffff" fill-opacity="1" stroke="#000000" stroke-opacity="1" stroke-width="1" stroke-linecap="butt" stroke-linejoin="miter" stroke-miterlimit="4.97494" transform="matrix(1,0,0,1,0,0)"
font-family="MS Shell Dlg 2" font-size="88" font-weight="400" font-style="normal" 
>
</g>

<g fill="#ffffff" fill-opacity="1" stroke="#000000" stroke-opacity="1" stroke-width="1" stroke-linecap="butt" stroke-linejoin="miter" stroke-miterlimit="4.97494" transform="matrix(1,0,0,1,325,1099)"
font-family="Arial" font-size="128" font-weight="400" font-style="normal" 
>
<text fill="#000000" fill-opacity="1" stroke="none" xml:space="preserve" x="0" y="114" font-family="Arial" font-size="128" font-weight="400" font-style="normal" 
 >240</text>
</g>

<g fill="#ffffff" fill-opacity="1" stroke="#000000" stroke-opacity="1" stroke-width="1" stroke-linecap="butt" stroke-linejoin="miter" stroke-miterlimit="4.97494" transform="matrix(1,0,0,1,0,0)"
font-family="MS Shell Dlg 2" font-size="88" font-weight="400" font-style="normal" 
>
</g>

<g fill="#ffffff" fill-opacity="1" stroke="#000000" stroke-opacity="1" stroke-width="11" stroke-linecap="butt" stroke-linejoin="miter" stroke-miterlimit="4.97494" transform="matrix(1,0,0,1,0,0)"
font-family="MS Shell Dlg 2" font-size="88" font-weight="400" font-style="normal" 
>
<polyline fill="none" vector-effect="none" points="582,1786.5 682,1786.5 " />
</g>

<g fill="#ffffff" fill-opacity="1" stroke="#000000" stroke-opacity="1" stroke-width="1" stroke-linecap="butt" stroke-linejoin="miter" stroke-miterlimit="4.97494" transform="matrix(1,0,0,1,0,0)"
font-family="MS Shell Dlg 2" font-size="88" font-weight="400" font-style="normal" 
>
</g>

<g fill="#ffffff" fill-opacity="1" stroke="#000000" stroke-opacity="1" stroke-width="1" stroke-linecap="butt" stroke-linejoin="miter" stroke-miterlimit="4.97494" transform="matrix(1,0,0,1,325,1715)"
font-family="Arial" font-size="128" font-weight="400" font-style="normal" 
>
<text fill="#000000" fill-opacity="1" stroke="none" xml:space="preserve" x="0" y="114" font-family="Arial" font-size="128" font-weight="400" font-style="normal" 
 >220</text>
</g>

<g fill="#ffffff" fill-opacity="1" stroke="#000000" stroke-opacity="1" stroke-width="1" stroke-linecap="butt" stroke-linejoin="miter" stroke-miterlimit="4.97494" transform="matrix(1,0,0,1,0,0)"
font-family="MS Shell Dlg 2" font-size="88" font-weight="400" font-style="normal" 
>
</g>

<g fill="#ffffff" fill-opacity="1" stroke="#000000" stroke-opacity="1" stroke-width="11" stroke-linecap="butt" stroke-linejoin="miter" stroke-miterlimit="4.97494" transform="matrix(1,0,0,1,0,0)"
font-family="MS Shell Dlg 2" font-size="88" font-weight="400" font-style="normal" 
>
<polyline fill="none" vector-effect="none" points="582,2402.5 682,2402.5 " />
</g>

<g fill="#ffffff" fill-opacity="1" stroke="#000000" stroke-opacity="1" stroke-width="1" stroke-linecap="butt" stroke-linejoin="miter" stroke-miterlimit="4.97494" transform="matrix(1,0,0,1,0,0)"
font-family="MS Shell Dlg 2" font-size="88" font-weight="400" font-style="normal" 
>
</g>

<g fill="#ffffff" fill-opacity="1" stroke="#000000" stroke-opacity="1" stroke-width="1" stroke-linecap="butt" stroke-linejoin="miter" stroke-miterlimit="4.97494" transform="matrix(1,0,0,1,325,2331)"
font-family="Arial" font-size="128" font-weight="400" font-style="normal" 
>
<text fill="#000000" fill-opacity="1" stroke="none" xml:space="preserve" x="0" y="114" font-family="Arial" font-size="128" font-weight="400" font-style="normal" 
 >200</text>
</g>

<g fill="#ffffff" fill-opacity="1" stroke="#000000" stroke-opacity="1" stroke-width="1" stroke-linecap="butt" stroke-linejoin="miter" stroke-miterlimit="4.97494" transform="matrix(1,0,0,1,0,0)"
font-family="MS Shell Dlg 2" font-size="88" font-weight="400" font-style="normal" 
>
</g>

<g fill="#ffffff" fill-opacity="1" stroke="#000000" stroke-opacity="1" stroke-width="11" stroke-linecap="butt" stroke-linejoin="miter" stroke-miterlimit="4.97494" transform="matrix(1,0,0,1,0,0)"
font-family="MS Shell Dlg 2" font-size="88" font-weight="400" font-style="normal" 
>
<polyline fill="none" vector-effect="none" points="582,3019.5 682,3019.5 " />
</g>

<g fill="#ffffff" fill-opacity="1" stroke="#000000" stroke-opacity="1" stroke-width="1" stroke-linecap="butt" stroke-linejoin="miter" stroke-miterlimit="4.97494" transform="matrix(1,0,0,1,0,0)"
font-family="MS Shell Dlg 2" font-size="88" font-weight="400" font-style="normal" 
>
</g>

<g fill="#ffffff" fill-opacity="1" stroke="#000000" stroke-opacity="1" stroke-width="1" stroke-linecap="butt" stroke-linejoin="miter" stroke-miterlimit="4.97494" transform="matrix(1,0,0,1,325,2948)"
font-family="Arial" font-size="128" font-weight="400" font-style="normal" 
>
<text fill="#000000" fill-opacity="1" stroke="none" xml:space="preserve" x="0" y="114" font-family="Arial" font-size="128" font-weight="400" font-style="normal" 
 >180</text>
</g>

<g fill="#ffffff" fill-opacity="1" stroke="#000000" stroke-opacity="1" stroke-width="1" stroke-linecap="butt" stroke-linejoin="miter" stroke-miterlimit="4.97494" transform="matrix(1,0,0,1,0,0)"
font-family="MS Shell Dlg 2" font-size="88" font-weight="400" font-style="normal" 
>
</g>

<g fill="#ffffff" fill-opacity="1" stroke="#000000" stroke-opacity="1" stroke-width="11" stroke-linecap="butt" stroke-linejoin="miter" stroke-miterlimit="4.97494" transform="matrix(1,0,0,1,0,0)"
font-family="MS Shell Dlg 2" font-size="88" font-weight="400" font-style="normal" 
>
<polyline fill="none" vector-effect="none" points="582,3635.5 682,3635.5 " />
</g>

<g fill="#ffffff" fill-opacity="1" stroke="#000000" stroke-opacity="1" stroke-width="1" stroke-linecap="butt" stroke-linejoin="miter" stroke-miterlimit="4.97494" transform="matrix(1,0,0,1,0,0)"
font-family="MS Shell Dlg 2" font-size="88" font-weight="400" font-style="normal" 
>
</g>

<g fill="#ffffff" fill-opacity="1" stroke="#000000" stroke-opacity="1" stroke-width="1" stroke-linecap="butt" stroke-linejoin="miter" stroke-miterlimit="4.97494" transform="matrix(1,0,0,1,325,3564)"
font-family="Arial" font-size="128" font-weight="400" font-style="normal" 
>
<text fill="#000000" fill-opacity="1" stroke="none" xml:space="preserve" x="0" y="114" font-family="Arial" font-size="128" font-weight="400" font-style="normal" 
 >160</text>
</g>

<g fill="#ffffff" fill-opacity="1" stroke="#000000" stroke-opacity="1" stroke-width="1" stroke-linecap="butt" stroke-linejoin="miter" stroke-miterlimit="4.97494" transform="matrix(1,0,0,1,0,0)"
font-family="MS Shell Dlg 2" font-size="88" font-weight="400" font-style="normal" 
>
</g>

<g fill="#ffffff" fill-opacity="1" stroke="#000000" stroke-opacity="1" stroke-width="11" stroke-linecap="butt" stroke-linejoin="miter" stroke-miterlimit="4.97494" transform="matrix(1,0,0,1,0,0)"
font-family="MS Shell Dlg 2" font-size="88" font-weight="400" font-style="normal" 
>
<polyline fill="none" vector-effect="none" points="582,4251.5 682,4251.5 " />
</g>

<g fill="#ffffff" fill-opacity="1" stroke="#000000" stroke-opacity="1" stroke-width="1" stroke-linecap="butt" stroke-linejoin="miter" stroke-miterlimit="4.97494" transform="matrix(1,0,0,1,0,0)"
font-family="MS Shell Dlg 2" font-size="88" font-weight="400" font-style="normal" 
>
</g>

<g fill="#ffffff" fill-opacity="1" stroke="#000000" stroke-opacity="1" stroke-width="1" stroke-linecap="butt" stroke-linejoin="miter" stroke-miterlimit="4.97494" transform="matrix(1,0,0,1,325,4180)"
font-family="Arial" font-size="128" font-weight="400" font-style="normal" 
>
<text fill="#000000" fill-opacity="1" stroke="none" xml:space="preserve" x="0" y="114" font-family="Arial" font-size="128" font-weight="400" font-style="normal" 
 >140</text>
</g>

<g fill="#ffffff" fill-opacity="1" stroke="#000000" stroke-opacity="1" stroke-width="1" stroke-linecap="butt" stroke-linejoin="miter" stroke-miterlimit="4.97494" transform="matrix(1,0,0,1,0,0)"
font-family="MS Shell Dlg 2" font-size="88" font-weight="400" font-style="normal" 
>
</g>

<g fill="#ffffff" fill-opacity="1" stroke="#000000" stroke-opacity="1" stroke-width="1" stroke-linecap="butt" stroke-linejoin="miter" stroke-miterlimit="4.97494" transform="matrix(1.61554e-15,-1,1,1.61554e-15,-9.80636e-13,3594)"
font-family="Arial" font-size="128" font-weight="400" font-style="normal" 
>
<text fill="#000000" fill-opacity="1" stroke="none" xml:space="preserve" x="0" y="164" font-family="Arial" font-size="128" font-weight="400" font-style="normal" 
 >Frequency (10</text>
</g>

<g fill="#ffffff" fill-opacity="1" stroke="#000000" stroke-opacity="1" stroke-width="1" stroke-linecap="butt" stroke-linejoin="miter" stroke-miterlimit="4.97494" transform="matrix(1.61554e-15,-1,1,1.61554e-15,-9.80636e-13,3594)"
font-family="Arial" font-size="90" font-weight="400" font-style="normal" 
>
<text fill="#000000" fill-opacity="1" stroke="none" xml:space="preserve" x="822" y="79" font-family="Arial" font-size="90" font-weight="400" font-style="normal" 
 >3</text>
</g>

<g fill="#ffffff" fill-opacity="1" stroke="#000000" stroke-opacity="1" stroke-width="1" stroke-linecap="butt" stroke-linejoin="miter" stroke-miterlimit="4.97494" transform="matrix(1.61554e-15,-1,1,1.61554e-15,-9.80636e-13,3594)"
font-family="Arial" font-size="128" font-weight="400" font-style="normal" 
>
<text fill="#000000" fill-opacity="1" stroke="none" xml:space="preserve" x="872" y="164" font-family="Arial" font-size="128" font-weight="400" font-style="normal" 
 > MHz)</text>
</g>

<g fill="#ffffff" fill-opacity="1" stroke="#000000" stroke-opacity="1" stroke-width="1" stroke-linecap="butt" stroke-linejoin="miter" stroke-miterlimit="4.97494" transform="matrix(1,0,0,1,0,0)"
font-family="MS Shell Dlg 2" font-size="88" font-weight="400" font-style="normal" 
>
</g>

<g fill="#ffffff" fill-opacity="1" stroke="#000000" stroke-opacity="1" stroke-width="11" stroke-linecap="butt" stroke-linejoin="miter" stroke-miterlimit="4.97494" transform="matrix(1,0,0,1,0,0)"
font-family="MS Shell Dlg 2" font-size="88" font-weight="400" font-style="normal" 
>
<polyline fill="none" vector-effect="none" points="676,4251.5 3513,4251.5 " />
</g>

<g fill="#ffffff" fill-opacity="1" stroke="#000000" stroke-opacity="1" stroke-width="1" stroke-linecap="butt" stroke-linejoin="miter" stroke-miterlimit="4.97494" transform="matrix(1,0,0,1,0,0)"
font-family="MS Shell Dlg 2" font-size="88" font-weight="400" font-style="normal" 
>
</g>

<g fill="#ffffff" fill-opacity="1" stroke="#000000" stroke-opacity="1" stroke-width="11" stroke-linecap="butt" stroke-linejoin="miter" stroke-miterlimit="4.97494" transform="matrix(1,0,0,1,0,0)"
font-family="MS Shell Dlg 2" font-size="88" font-weight="400" font-style="normal" 
>
<polyline fill="none" vector-effect="none" points="676,143.5 3513,143.5 " />
</g>

<g fill="#ffffff" fill-opacity="1" stroke="#000000" stroke-opacity="1" stroke-width="1" stroke-linecap="butt" stroke-linejoin="miter" stroke-miterlimit="4.97494" transform="matrix(1,0,0,1,0,0)"
font-family="MS Shell Dlg 2" font-size="88" font-weight="400" font-style="normal" 
>
</g>

<g fill="#ffffff" fill-opacity="1" stroke="#000000" stroke-opacity="1" stroke-width="11" stroke-linecap="butt" stroke-linejoin="miter" stroke-miterlimit="4.97494" transform="matrix(1,0,0,1,0,0)"
font-family="MS Shell Dlg 2" font-size="88" font-weight="400" font-style="normal" 
>
<polyline fill="none" vector-effect="none" points="3361.5,4346 3361.5,4246 " />
</g>

<g fill="#ffffff" fill-opacity="1" stroke="#000000" stroke-opacity="1" stroke-width="1" stroke-linecap="butt" stroke-linejoin="miter" stroke-miterlimit="4.97494" transform="matrix(1,0,0,1,0,0)"
font-family="MS Shell Dlg 2" font-size="88" font-weight="400" font-style="normal" 
>
</g>

<g fill="#ffffff" fill-opacity="1" stroke="#000000" stroke-opacity="1" stroke-width="1" stroke-linecap="butt" stroke-linejoin="miter" stroke-miterlimit="4.97494" transform="matrix(1,0,0,1,3290,4395)"
font-family="Arial" font-size="128" font-weight="400" font-style="normal" 
>
<text fill="#000000" fill-opacity="1" stroke="none" xml:space="preserve" x="0" y="114" font-family="Arial" font-size="128" font-weight="400" font-style="normal" 
 >35</text>
</g>

<g fill="#ffffff" fill-opacity="1" stroke="#000000" stroke-opacity="1" stroke-width="1" stroke-linecap="butt" stroke-linejoin="miter" stroke-miterlimit="4.97494" transform="matrix(1,0,0,1,0,0)"
font-family="MS Shell Dlg 2" font-size="88" font-weight="400" font-style="normal" 
>
</g>

<g fill="#ffffff" fill-opacity="1" stroke="#000000" stroke-opacity="1" stroke-width="11" stroke-linecap="butt" stroke-linejoin="miter" stroke-miterlimit="4.97494" transform="matrix(1,0,0,1,0,0)"
font-family="MS Shell Dlg 2" font-size="88" font-weight="400" font-style="normal" 
>
<polyline fill="none" vector-effect="none" points="2854.5,4346 2854.5,4246 " />
</g>

<g fill="#ffffff" fill-opacity="1" stroke="#000000" stroke-opacity="1" stroke-width="1" stroke-linecap="butt" stroke-linejoin="miter" stroke-miterlimit="4.97494" transform="matrix(1,0,0,1,0,0)"
font-family="MS Shell Dlg 2" font-size="88" font-weight="400" font-style="normal" 
>
</g>

<g fill="#ffffff" fill-opacity="1" stroke="#000000" stroke-opacity="1" stroke-width="1" stroke-linecap="butt" stroke-linejoin="miter" stroke-miterlimit="4.97494" transform="matrix(1,0,0,1,2783,4395)"
font-family="Arial" font-size="128" font-weight="400" font-style="normal" 
>
<text fill="#000000" fill-opacity="1" stroke="none" xml:space="preserve" x="0" y="114" font-family="Arial" font-size="128" font-weight="400" font-style="normal" 
 >34</text>
</g>

<g fill="#ffffff" fill-opacity="1" stroke="#000000" stroke-opacity="1" stroke-width="1" stroke-linecap="butt" stroke-linejoin="miter" stroke-miterlimit="4.97494" transform="matrix(1,0,0,1,0,0)"
font-family="MS Shell Dlg 2" font-size="88" font-weight="400" font-style="normal" 
>
</g>

<g fill="#ffffff" fill-opacity="1" stroke="#000000" stroke-opacity="1" stroke-width="11" stroke-linecap="butt" stroke-linejoin="miter" stroke-miterlimit="4.97494" transform="matrix(1,0,0,1,0,0)"
font-family="MS Shell Dlg 2" font-size="88" font-weight="400" font-style="normal" 
>
<polyline fill="none" vector-effect="none" points="2348.5,4346 2348.5,4246 " />
</g>

<g fill="#ffffff" fill-opacity="1" stroke="#000000" stroke-opacity="1" stroke-width="1" stroke-linecap="butt" stroke-linejoin="miter" stroke-miterlimit="4.97494" transform="matrix(1,0,0,1,0,0)"
font-family="MS Shell Dlg 2" font-size="88" font-weight="400" font-style="normal" 
>
</g>

<g fill="#ffffff" fill-opacity="1" stroke="#000000" stroke-opacity="1" stroke-width="1" stroke-linecap="butt" stroke-linejoin="miter" stroke-miterlimit="4.97494" transform="matrix(1,0,0,1,2277,4395)"
font-family="Arial" font-size="128" font-weight="400" font-style="normal" 
>
<text fill="#000000" fill-opacity="1" stroke="none" xml:space="preserve" x="0" y="114" font-family="Arial" font-size="128" font-weight="400" font-style="normal" 
 >33</text>
</g>

<g fill="#ffffff" fill-opacity="1" stroke="#000000" stroke-opacity="1" stroke-width="1" stroke-linecap="butt" stroke-linejoin="miter" stroke-miterlimit="4.97494" transform="matrix(1,0,0,1,0,0)"
font-family="MS Shell Dlg 2" font-size="88" font-weight="400" font-style="normal" 
>
</g>

<g fill="#ffffff" fill-opacity="1" stroke="#000000" stroke-opacity="1" stroke-width="11" stroke-linecap="butt" stroke-linejoin="miter" stroke-miterlimit="4.97494" transform="matrix(1,0,0,1,0,0)"
font-family="MS Shell Dlg 2" font-size="88" font-weight="400" font-style="normal" 
>
<polyline fill="none" vector-effect="none" points="1841.5,4346 1841.5,4246 " />
</g>

<g fill="#ffffff" fill-opacity="1" stroke="#000000" stroke-opacity="1" stroke-width="1" stroke-linecap="butt" stroke-linejoin="miter" stroke-miterlimit="4.97494" transform="matrix(1,0,0,1,0,0)"
font-family="MS Shell Dlg 2" font-size="88" font-weight="400" font-style="normal" 
>
</g>

<g fill="#ffffff" fill-opacity="1" stroke="#000000" stroke-opacity="1" stroke-width="1" stroke-linecap="butt" stroke-linejoin="miter" stroke-miterlimit="4.97494" transform="matrix(1,0,0,1,1770,4395)"
font-family="Arial" font-size="128" font-weight="400" font-style="normal" 
>
<text fill="#000000" fill-opacity="1" stroke="none" xml:space="preserve" x="0" y="114" font-family="Arial" font-size="128" font-weight="400" font-style="normal" 
 >32</text>
</g>

<g fill="#ffffff" fill-opacity="1" stroke="#000000" stroke-opacity="1" stroke-width="1" stroke-linecap="butt" stroke-linejoin="miter" stroke-miterlimit="4.97494" transform="matrix(1,0,0,1,0,0)"
font-family="MS Shell Dlg 2" font-size="88" font-weight="400" font-style="normal" 
>
</g>

<g fill="#ffffff" fill-opacity="1" stroke="#000000" stroke-opacity="1" stroke-width="11" stroke-linecap="butt" stroke-linejoin="miter" stroke-miterlimit="4.97494" transform="matrix(1,0,0,1,0,0)"
font-family="MS Shell Dlg 2" font-size="88" font-weight="400" font-style="normal" 
>
<polyline fill="none" vector-effect="none" points="1335.5,4346 1335.5,4246 " />
</g>

<g fill="#ffffff" fill-opacity="1" stroke="#000000" stroke-opacity="1" stroke-width="1" stroke-linecap="butt" stroke-linejoin="miter" stroke-miterlimit="4.97494" transform="matrix(1,0,0,1,0,0)"
font-family="MS Shell Dlg 2" font-size="88" font-weight="400" font-style="normal" 
>
</g>

<g fill="#ffffff" fill-opacity="1" stroke="#000000" stroke-opacity="1" stroke-width="1" stroke-linecap="butt" stroke-linejoin="miter" stroke-miterlimit="4.97494" transform="matrix(1,0,0,1,1264,4395)"
font-family="Arial" font-size="128" font-weight="400" font-style="normal" 
>
<text fill="#000000" fill-opacity="1" stroke="none" xml:space="preserve" x="0" y="114" font-family="Arial" font-size="128" font-weight="400" font-style="normal" 
 >31</text>
</g>

<g fill="#ffffff" fill-opacity="1" stroke="#000000" stroke-opacity="1" stroke-width="1" stroke-linecap="butt" stroke-linejoin="miter" stroke-miterlimit="4.97494" transform="matrix(1,0,0,1,0,0)"
font-family="MS Shell Dlg 2" font-size="88" font-weight="400" font-style="normal" 
>
</g>

<g fill="#ffffff" fill-opacity="1" stroke="#000000" stroke-opacity="1" stroke-width="11" stroke-linecap="butt" stroke-linejoin="miter" stroke-miterlimit="4.97494" transform="matrix(1,0,0,1,0,0)"
font-family="MS Shell Dlg 2" font-size="88" font-weight="400" font-style="normal" 
>
<polyline fill="none" vector-effect="none" points="828.5,4346 828.5,4246 " />
</g>

<g fill="#ffffff" fill-opacity="1" stroke="#000000" stroke-opacity="1" stroke-width="1" stroke-linecap="butt" stroke-linejoin="miter" stroke-miterlimit="4.97494" transform="matrix(1,0,0,1,0,0)"
font-family="MS Shell Dlg 2" font-size="88" font-weight="400" font-style="normal" 
>
</g>

<g fill="#ffffff" fill-opacity="1" stroke="#000000" stroke-opacity="1" stroke-width="1" stroke-linecap="butt" stroke-linejoin="miter" stroke-miterlimit="4.97494" transform="matrix(1,0,0,1,757,4395)"
font-family="Arial" font-size="128" font-weight="400" font-style="normal" 
>
<text fill="#000000" fill-opacity="1" stroke="none" xml:space="preserve" x="0" y="114" font-family="Arial" font-size="128" font-weight="400" font-style="normal" 
 >30</text>
</g>

<g fill="#ffffff" fill-opacity="1" stroke="#000000" stroke-opacity="1" stroke-width="1" stroke-linecap="butt" stroke-linejoin="miter" stroke-miterlimit="4.97494" transform="matrix(1,0,0,1,0,0)"
font-family="MS Shell Dlg 2" font-size="88" font-weight="400" font-style="normal" 
>
</g>

<g fill="#ffffff" fill-opacity="1" stroke="#000000" stroke-opacity="1" stroke-width="1" stroke-linecap="butt" stroke-linejoin="miter" stroke-miterlimit="4.97494" transform="matrix(1,0,0,1,1322,4625)"
font-family="Arial" font-size="128" font-weight="400" font-style="normal" 
>
<text fill="#000000" fill-opacity="1" stroke="none" xml:space="preserve" x="0" y="114" font-family="Arial" font-size="128" font-weight="400" font-style="normal" 
 >Principal Quantum Number</text>
</g>

<g fill="#ffffff" fill-opacity="1" stroke="#000000" stroke-opacity="1" stroke-width="1" stroke-linecap="butt" stroke-linejoin="miter" stroke-miterlimit="4.97494" transform="matrix(1,0,0,1,0,0)"
font-family="MS Shell Dlg 2" font-size="88" font-weight="400" font-style="normal" 
>
</g>

<g fill="#ffffff" fill-opacity="1" stroke="#000000" stroke-opacity="1" stroke-width="11" stroke-linecap="butt" stroke-linejoin="miter" stroke-miterlimit="4.97494" transform="matrix(1,0,0,1,0,0)"
font-family="MS Shell Dlg 2" font-size="88" font-weight="400" font-style="normal" 
>
<polyline fill="none" vector-effect="none" points="676.5,143 676.5,965 " />
</g>

<g fill="#ffffff" fill-opacity="1" stroke="#000000" stroke-opacity="1" stroke-width="1" stroke-linecap="butt" stroke-linejoin="miter" stroke-miterlimit="4.97494" transform="matrix(1,0,0,1,0,0)"
font-family="MS Shell Dlg 2" font-size="88" font-weight="400" font-style="normal" 
>
</g>

<g fill="#ffffff" fill-opacity="1" stroke="#000000" stroke-opacity="1" stroke-width="11" stroke-linecap="butt" stroke-linejoin="miter" stroke-miterlimit="4.97494" transform="matrix(1,0,0,1,0,0)"
font-family="MS Shell Dlg 2" font-size="88" font-weight="400" font-style="normal" 
>
<polyline fill="none" vector-effect="none" points="3513.5,143 3513.5,965 " />
</g>

<g fill="#ffffff" fill-opacity="1" stroke="#000000" stroke-opacity="1" stroke-width="1" stroke-linecap="butt" stroke-linejoin="miter" stroke-miterlimit="4.97494" transform="matrix(1,0,0,1,0,0)"
font-family="MS Shell Dlg 2" font-size="88" font-weight="400" font-style="normal" 
>
</g>

<g fill="#ffffff" fill-opacity="1" stroke="#000000" stroke-opacity="1" stroke-width="11" stroke-linecap="butt" stroke-linejoin="miter" stroke-miterlimit="4.97494" transform="matrix(1,0,0,1,0,0)"
font-family="MS Shell Dlg 2" font-size="88" font-weight="400" font-style="normal" 
>
<polyline fill="none" vector-effect="none" points="582,965.5 682,965.5 " />
</g>

<g fill="#ffffff" fill-opacity="1" stroke="#000000" stroke-opacity="1" stroke-width="1" stroke-linecap="butt" stroke-linejoin="miter" stroke-miterlimit="4.97494" transform="matrix(1,0,0,1,0,0)"
font-family="MS Shell Dlg 2" font-size="88" font-weight="400" font-style="normal" 
>
</g>

<g fill="#ffffff" fill-opacity="1" stroke="#000000" stroke-opacity="1" stroke-width="1" stroke-linecap="butt" stroke-linejoin="miter" stroke-miterlimit="4.97494" transform="matrix(1,0,0,1,353,894)"
font-family="Arial" font-size="128" font-weight="400" font-style="normal" 
>
<text fill="#000000" fill-opacity="1" stroke="none" xml:space="preserve" x="0" y="114" font-family="Arial" font-size="128" font-weight="400" font-style="normal" 
 >-10</text>
</g>

<g fill="#ffffff" fill-opacity="1" stroke="#000000" stroke-opacity="1" stroke-width="1" stroke-linecap="butt" stroke-linejoin="miter" stroke-miterlimit="4.97494" transform="matrix(1,0,0,1,0,0)"
font-family="MS Shell Dlg 2" font-size="88" font-weight="400" font-style="normal" 
>
</g>

<g fill="#ffffff" fill-opacity="1" stroke="#000000" stroke-opacity="1" stroke-width="11" stroke-linecap="butt" stroke-linejoin="miter" stroke-miterlimit="4.97494" transform="matrix(1,0,0,1,0,0)"
font-family="MS Shell Dlg 2" font-size="88" font-weight="400" font-style="normal" 
>
<polyline fill="none" vector-effect="none" points="582,759.5 682,759.5 " />
</g>

<g fill="#ffffff" fill-opacity="1" stroke="#000000" stroke-opacity="1" stroke-width="1" stroke-linecap="butt" stroke-linejoin="miter" stroke-miterlimit="4.97494" transform="matrix(1,0,0,1,0,0)"
font-family="MS Shell Dlg 2" font-size="88" font-weight="400" font-style="normal" 
>
</g>

<g fill="#ffffff" fill-opacity="1" stroke="#000000" stroke-opacity="1" stroke-width="1" stroke-linecap="butt" stroke-linejoin="miter" stroke-miterlimit="4.97494" transform="matrix(1,0,0,1,424,688)"
font-family="Arial" font-size="128" font-weight="400" font-style="normal" 
>
<text fill="#000000" fill-opacity="1" stroke="none" xml:space="preserve" x="0" y="114" font-family="Arial" font-size="128" font-weight="400" font-style="normal" 
 >-5</text>
</g>

<g fill="#ffffff" fill-opacity="1" stroke="#000000" stroke-opacity="1" stroke-width="1" stroke-linecap="butt" stroke-linejoin="miter" stroke-miterlimit="4.97494" transform="matrix(1,0,0,1,0,0)"
font-family="MS Shell Dlg 2" font-size="88" font-weight="400" font-style="normal" 
>
</g>

<g fill="#ffffff" fill-opacity="1" stroke="#000000" stroke-opacity="1" stroke-width="11" stroke-linecap="butt" stroke-linejoin="miter" stroke-miterlimit="4.97494" transform="matrix(1,0,0,1,0,0)"
font-family="MS Shell Dlg 2" font-size="88" font-weight="400" font-style="normal" 
>
<polyline fill="none" vector-effect="none" points="582,554.5 682,554.5 " />
</g>

<g fill="#ffffff" fill-opacity="1" stroke="#000000" stroke-opacity="1" stroke-width="1" stroke-linecap="butt" stroke-linejoin="miter" stroke-miterlimit="4.97494" transform="matrix(1,0,0,1,0,0)"
font-family="MS Shell Dlg 2" font-size="88" font-weight="400" font-style="normal" 
>
</g>

<g fill="#ffffff" fill-opacity="1" stroke="#000000" stroke-opacity="1" stroke-width="1" stroke-linecap="butt" stroke-linejoin="miter" stroke-miterlimit="4.97494" transform="matrix(1,0,0,1,467,483)"
font-family="Arial" font-size="128" font-weight="400" font-style="normal" 
>
<text fill="#000000" fill-opacity="1" stroke="none" xml:space="preserve" x="0" y="114" font-family="Arial" font-size="128" font-weight="400" font-style="normal" 
 >0</text>
</g>

<g fill="#ffffff" fill-opacity="1" stroke="#000000" stroke-opacity="1" stroke-width="1" stroke-linecap="butt" stroke-linejoin="miter" stroke-miterlimit="4.97494" transform="matrix(1,0,0,1,0,0)"
font-family="MS Shell Dlg 2" font-size="88" font-weight="400" font-style="normal" 
>
</g>

<g fill="#ffffff" fill-opacity="1" stroke="#000000" stroke-opacity="1" stroke-width="11" stroke-linecap="butt" stroke-linejoin="miter" stroke-miterlimit="4.97494" transform="matrix(1,0,0,1,0,0)"
font-family="MS Shell Dlg 2" font-size="88" font-weight="400" font-style="normal" 
>
<polyline fill="none" vector-effect="none" points="582,349.5 682,349.5 " />
</g>

<g fill="#ffffff" fill-opacity="1" stroke="#000000" stroke-opacity="1" stroke-width="1" stroke-linecap="butt" stroke-linejoin="miter" stroke-miterlimit="4.97494" transform="matrix(1,0,0,1,0,0)"
font-family="MS Shell Dlg 2" font-size="88" font-weight="400" font-style="normal" 
>
</g>

<g fill="#ffffff" fill-opacity="1" stroke="#000000" stroke-opacity="1" stroke-width="1" stroke-linecap="butt" stroke-linejoin="miter" stroke-miterlimit="4.97494" transform="matrix(1,0,0,1,467,278)"
font-family="Arial" font-size="128" font-weight="400" font-style="normal" 
>
<text fill="#000000" fill-opacity="1" stroke="none" xml:space="preserve" x="0" y="114" font-family="Arial" font-size="128" font-weight="400" font-style="normal" 
 >5</text>
</g>

<g fill="#ffffff" fill-opacity="1" stroke="#000000" stroke-opacity="1" stroke-width="1" stroke-linecap="butt" stroke-linejoin="miter" stroke-miterlimit="4.97494" transform="matrix(1,0,0,1,0,0)"
font-family="MS Shell Dlg 2" font-size="88" font-weight="400" font-style="normal" 
>
</g>

<g fill="#ffffff" fill-opacity="1" stroke="#000000" stroke-opacity="1" stroke-width="11" stroke-linecap="butt" stroke-linejoin="miter" stroke-miterlimit="4.97494" transform="matrix(1,0,0,1,0,0)"
font-family="MS Shell Dlg 2" font-size="88" font-weight="400" font-style="normal" 
>
<polyline fill="none" vector-effect="none" points="582,143.5 682,143.5 " />
</g>

<g fill="#ffffff" fill-opacity="1" stroke="#000000" stroke-opacity="1" stroke-width="1" stroke-linecap="butt" stroke-linejoin="miter" stroke-miterlimit="4.97494" transform="matrix(1,0,0,1,0,0)"
font-family="MS Shell Dlg 2" font-size="88" font-weight="400" font-style="normal" 
>
</g>

<g fill="#ffffff" fill-opacity="1" stroke="#000000" stroke-opacity="1" stroke-width="1" stroke-linecap="butt" stroke-linejoin="miter" stroke-miterlimit="4.97494" transform="matrix(1,0,0,1,396,72)"
font-family="Arial" font-size="128" font-weight="400" font-style="normal" 
>
<text fill="#000000" fill-opacity="1" stroke="none" xml:space="preserve" x="0" y="114" font-family="Arial" font-size="128" font-weight="400" font-style="normal" 
 >10</text>
</g>

<g fill="#ffffff" fill-opacity="1" stroke="#000000" stroke-opacity="1" stroke-width="1" stroke-linecap="butt" stroke-linejoin="miter" stroke-miterlimit="4.97494" transform="matrix(1,0,0,1,0,0)"
font-family="MS Shell Dlg 2" font-size="88" font-weight="400" font-style="normal" 
>
</g>

<g fill="#ffffff" fill-opacity="1" stroke="#000000" stroke-opacity="1" stroke-width="11" stroke-linecap="butt" stroke-linejoin="miter" stroke-miterlimit="4.97494" transform="matrix(1,0,0,1,0,0)"
font-family="MS Shell Dlg 2" font-size="88" font-weight="400" font-style="normal" 
>
<polyline fill="none" vector-effect="none" points="676,554.5 3513,554.5 " />
</g>

<g fill="#ffffff" fill-opacity="1" stroke="#000000" stroke-opacity="1" stroke-width="1" stroke-linecap="butt" stroke-linejoin="miter" stroke-miterlimit="4.97494" transform="matrix(1,0,0,1,0,0)"
font-family="MS Shell Dlg 2" font-size="88" font-weight="400" font-style="normal" 
>
</g>

<g fill="#ffffff" fill-opacity="1" stroke="#000000" stroke-opacity="1" stroke-width="1" stroke-linecap="butt" stroke-linejoin="miter" stroke-miterlimit="4.97494" transform="matrix(1.61554e-15,-1,1,1.61554e-15,-7.05993e-13,991)"
font-family="Arial" font-size="128" font-weight="400" font-style="normal" 
>
<text fill="#000000" fill-opacity="1" stroke="none" xml:space="preserve" x="0" y="114" font-family="Arial" font-size="128" font-weight="400" font-style="normal" 
 >Residual ( kHz)</text>
</g>

<g fill="#ffffff" fill-opacity="1" stroke="#000000" stroke-opacity="1" stroke-width="1" stroke-linecap="butt" stroke-linejoin="miter" stroke-miterlimit="4.97494" transform="matrix(1,0,0,1,0,0)"
font-family="MS Shell Dlg 2" font-size="88" font-weight="400" font-style="normal" 
>
</g>

<g fill="#ffffff" fill-opacity="1" stroke="#000000" stroke-opacity="1" stroke-width="1" stroke-linecap="butt" stroke-linejoin="miter" stroke-miterlimit="4.97494" transform="matrix(1,0,0,1,0,0)"
font-family="MS Shell Dlg 2" font-size="88" font-weight="400" font-style="normal" 
>
</g>

<g fill="none" stroke="#ff0000" stroke-opacity="1" stroke-width="16" stroke-linecap="butt" stroke-linejoin="miter" stroke-miterlimit="4.97494" transform="matrix(1,0,0,1,0,0)"
font-family="MS Shell Dlg 2" font-size="88" font-weight="400" font-style="normal" 
>
<path vector-effect="none" fill-rule="nonzero" d="M785,1176 L871,1176 L871,1262 L785,1262 L785,1176"/>
</g>

<g fill="none" stroke="#ff0000" stroke-opacity="1" stroke-width="16" stroke-linecap="butt" stroke-linejoin="miter" stroke-miterlimit="4.97494" transform="matrix(1,0,0,1,0,0)"
font-family="MS Shell Dlg 2" font-size="88" font-weight="400" font-style="normal" 
>
<path vector-effect="none" fill-rule="nonzero" d="M1292,1859 L1378,1859 L1378,1945 L1292,1945 L1292,1859"/>
</g>

<g fill="none" stroke="#ff0000" stroke-opacity="1" stroke-width="16" stroke-linecap="butt" stroke-linejoin="miter" stroke-miterlimit="4.97494" transform="matrix(1,0,0,1,0,0)"
font-family="MS Shell Dlg 2" font-size="88" font-weight="400" font-style="normal" 
>
<path vector-effect="none" fill-rule="nonzero" d="M1798,2460 L1884,2460 L1884,2546 L1798,2546 L1798,2460"/>
</g>

<g fill="none" stroke="#ff0000" stroke-opacity="1" stroke-width="16" stroke-linecap="butt" stroke-linejoin="miter" stroke-miterlimit="4.97494" transform="matrix(1,0,0,1,0,0)"
font-family="MS Shell Dlg 2" font-size="88" font-weight="400" font-style="normal" 
>
<path vector-effect="none" fill-rule="nonzero" d="M2305,2992 L2391,2992 L2391,3078 L2305,3078 L2305,2992"/>
</g>

<g fill="none" stroke="#ff0000" stroke-opacity="1" stroke-width="16" stroke-linecap="butt" stroke-linejoin="miter" stroke-miterlimit="4.97494" transform="matrix(1,0,0,1,0,0)"
font-family="MS Shell Dlg 2" font-size="88" font-weight="400" font-style="normal" 
>
<path vector-effect="none" fill-rule="nonzero" d="M2811,3462 L2897,3462 L2897,3548 L2811,3548 L2811,3462"/>
</g>

<g fill="none" stroke="#ff0000" stroke-opacity="1" stroke-width="16" stroke-linecap="butt" stroke-linejoin="miter" stroke-miterlimit="4.97494" transform="matrix(1,0,0,1,0,0)"
font-family="MS Shell Dlg 2" font-size="88" font-weight="400" font-style="normal" 
>
<path vector-effect="none" fill-rule="nonzero" d="M3318,3881 L3404,3881 L3404,3967 L3318,3967 L3318,3881"/>
</g>

<g fill="none" stroke="#ff0000" stroke-opacity="1" stroke-width="16" stroke-linecap="butt" stroke-linejoin="miter" stroke-miterlimit="4.97494" transform="matrix(1,0,0,1,0,0)"
font-family="MS Shell Dlg 2" font-size="88" font-weight="400" font-style="normal" 
>
</g>

<g fill="none" stroke="#003eff" stroke-opacity="1" stroke-width="16" stroke-linecap="butt" stroke-linejoin="bevel" transform="matrix(1,0,0,1,0,0)"
font-family="MS Shell Dlg 2" font-size="88" font-weight="400" font-style="normal" 
>
</g>

<g fill="none" stroke="#003eff" stroke-opacity="1" stroke-width="19" stroke-linecap="butt" stroke-linejoin="bevel" transform="matrix(1,0,0,1,0,0)"
font-family="MS Shell Dlg 2" font-size="88" font-weight="400" font-style="normal" 
>
<path vector-effect="none" fill-rule="nonzero" d="M828,1219 L841,1237 L853,1255 L866,1273 L879,1291 L892,1309 L904,1327 L917,1345 L930,1363 L943,1381 L955,1399 L968,1416 L981,1434 L993,1452 L1006,1469 L1019,1487 L1032,1504 L1044,1521 L1057,1539 L1070,1556 L1083,1573 L1095,1590 L1108,1607 L1121,1624 L1133,1641 L1146,1658 L1159,1675 L1172,1692 L1184,1709 L1197,1725 L1210,1742 L1223,1759 L1235,1775 L1248,1792 L1261,1808 L1273,1824 L1286,1841 L1299,1857 L1312,1873 L1324,1889 L1337,1905 L1350,1921 L1363,1937 L1375,1953 L1388,1969 L1401,1985 L1414,2001 L1426,2017 L1439,2032 L1452,2048 L1464,2064 L1477,2079 L1490,2095 L1503,2110 L1515,2125 L1528,2141 L1541,2156 L1554,2171 L1566,2187 L1579,2202 L1592,2217 L1604,2232 L1617,2247 L1630,2262 L1643,2277 L1655,2292 L1668,2306 L1681,2321 L1694,2336 L1706,2351 L1719,2365 L1732,2380 L1744,2394 L1757,2409 L1770,2423 L1783,2438 L1795,2452 L1808,2466 L1821,2481 L1834,2495 L1846,2509 L1859,2523 L1872,2537 L1884,2551 L1897,2565 L1910,2579 L1923,2593 L1935,2607 L1948,2621 L1961,2635 L1974,2649 L1986,2662 L1999,2676 L2012,2690 L2024,2703 L2037,2717 L2050,2730 L2063,2744 L2075,2757 L2088,2770 L2101,2784 L2114,2797 L2126,2810 L2139,2824 L2152,2837 L2165,2850 L2177,2863 L2190,2876 L2203,2889 L2215,2902 L2228,2915 L2241,2928 L2254,2941 L2266,2953 L2279,2966 L2292,2979 L2305,2992 L2317,3004 L2330,3017 L2343,3029 L2355,3042 L2368,3055 L2381,3067 L2394,3079 L2406,3092 L2419,3104 L2432,3117 L2445,3129 L2457,3141 L2470,3153 L2483,3165 L2495,3178 L2508,3190 L2521,3202 L2534,3214 L2546,3226 L2559,3238 L2572,3250 L2585,3261 L2597,3273 L2610,3285 L2623,3297 L2635,3309 L2648,3320 L2661,3332 L2674,3344 L2686,3355 L2699,3367 L2712,3378 L2725,3390 L2737,3401 L2750,3413 L2763,3424 L2775,3436 L2788,3447 L2801,3458 L2814,3469 L2826,3481 L2839,3492 L2852,3503 L2865,3514 L2877,3525 L2890,3536 L2903,3547 L2916,3558 L2928,3569 L2941,3580 L2954,3591 L2966,3602 L2979,3613 L2992,3624 L3005,3635 L3017,3645 L3030,3656 L3043,3667 L3056,3677 L3068,3688 L3081,3699 L3094,3709 L3106,3720 L3119,3730 L3132,3741 L3145,3751 L3157,3762 L3170,3772 L3183,3782 L3196,3793 L3208,3803 L3221,3813 L3234,3823 L3246,3834 L3259,3844 L3272,3854 L3285,3864 L3297,3874 L3310,3884 L3323,3894 L3336,3904 L3348,3914 L3361,3924"/>
</g>

<g fill="none" stroke="#003eff" stroke-opacity="1" stroke-width="16" stroke-linecap="butt" stroke-linejoin="bevel" transform="matrix(1,0,0,1,0,0)"
font-family="MS Shell Dlg 2" font-size="88" font-weight="400" font-style="normal" 
>
</g>

<g fill="none" stroke="#ff0000" stroke-opacity="1" stroke-width="16" stroke-linecap="butt" stroke-linejoin="miter" stroke-miterlimit="4.97494" transform="matrix(1,0,0,1,0,0)"
font-family="MS Shell Dlg 2" font-size="88" font-weight="400" font-style="normal" 
>
</g>

<g fill="none" stroke="#ff0000" stroke-opacity="1" stroke-width="16" stroke-linecap="butt" stroke-linejoin="miter" stroke-miterlimit="4.97494" transform="matrix(1,0,0,1,0,0)"
font-family="MS Shell Dlg 2" font-size="88" font-weight="400" font-style="normal" 
>
<path vector-effect="none" fill-rule="nonzero" d="M828,308.039 L877.33,393.481 L778.67,393.481 L828,308.039"/>
</g>

<g fill="none" stroke="#ff0000" stroke-opacity="1" stroke-width="16" stroke-linecap="butt" stroke-linejoin="miter" stroke-miterlimit="4.97494" transform="matrix(1,0,0,1,0,0)"
font-family="MS Shell Dlg 2" font-size="88" font-weight="400" font-style="normal" 
>
<path vector-effect="none" fill-rule="nonzero" d="M1335,576.039 L1384.33,661.481 L1285.67,661.481 L1335,576.039"/>
</g>

<g fill="none" stroke="#ff0000" stroke-opacity="1" stroke-width="16" stroke-linecap="butt" stroke-linejoin="miter" stroke-miterlimit="4.97494" transform="matrix(1,0,0,1,0,0)"
font-family="MS Shell Dlg 2" font-size="88" font-weight="400" font-style="normal" 
>
<path vector-effect="none" fill-rule="nonzero" d="M1841,524.039 L1890.33,609.481 L1791.67,609.481 L1841,524.039"/>
</g>

<g fill="none" stroke="#ff0000" stroke-opacity="1" stroke-width="16" stroke-linecap="butt" stroke-linejoin="miter" stroke-miterlimit="4.97494" transform="matrix(1,0,0,1,0,0)"
font-family="MS Shell Dlg 2" font-size="88" font-weight="400" font-style="normal" 
>
<path vector-effect="none" fill-rule="nonzero" d="M2348,676.039 L2397.33,761.481 L2298.67,761.481 L2348,676.039"/>
</g>

<g fill="none" stroke="#ff0000" stroke-opacity="1" stroke-width="16" stroke-linecap="butt" stroke-linejoin="miter" stroke-miterlimit="4.97494" transform="matrix(1,0,0,1,0,0)"
font-family="MS Shell Dlg 2" font-size="88" font-weight="400" font-style="normal" 
>
<path vector-effect="none" fill-rule="nonzero" d="M2854,606.039 L2903.33,691.481 L2804.67,691.481 L2854,606.039"/>
</g>

<g fill="none" stroke="#ff0000" stroke-opacity="1" stroke-width="16" stroke-linecap="butt" stroke-linejoin="miter" stroke-miterlimit="4.97494" transform="matrix(1,0,0,1,0,0)"
font-family="MS Shell Dlg 2" font-size="88" font-weight="400" font-style="normal" 
>
<path vector-effect="none" fill-rule="nonzero" d="M3361,339.039 L3410.33,424.481 L3311.67,424.481 L3361,339.039"/>
</g>

<g fill="none" stroke="#ff0000" stroke-opacity="1" stroke-width="16" stroke-linecap="butt" stroke-linejoin="miter" stroke-miterlimit="4.97494" transform="matrix(1,0,0,1,0,0)"
font-family="MS Shell Dlg 2" font-size="88" font-weight="400" font-style="normal" 
>
</g>

<g fill="none" stroke="#ff0000" stroke-opacity="1" stroke-width="16" stroke-linecap="butt" stroke-linejoin="miter" stroke-miterlimit="4.97494" transform="matrix(1,0,0,1,0,0)"
font-family="MS Shell Dlg 2" font-size="88" font-weight="400" font-style="normal" 
>
</g>

<g fill="#ffffff" fill-opacity="1" stroke="none" transform="matrix(1,0,0,1,2089,1690)"
font-family="MS Shell Dlg 2" font-size="88" font-weight="400" font-style="normal" 
>
<rect x="-44.5" y="-44.5" width="1245" height="681"/>
</g>

<g fill="none" stroke="#ff0000" stroke-opacity="1" stroke-width="16" stroke-linecap="butt" stroke-linejoin="miter" stroke-miterlimit="4.97494" transform="matrix(1,0,0,1,2089,1690)"
font-family="MS Shell Dlg 2" font-size="88" font-weight="400" font-style="normal" 
>
</g>

<g fill="none" stroke="#000000" stroke-opacity="1" stroke-width="11" stroke-linecap="butt" stroke-linejoin="miter" stroke-miterlimit="4.97494" transform="matrix(1,0,0,1,2089,1690)"
font-family="MS Shell Dlg 2" font-size="88" font-weight="400" font-style="normal" 
>
<rect x="-28" y="-28" width="1212" height="648"/>
</g>

<g fill="none" stroke="#ff0000" stroke-opacity="1" stroke-width="16" stroke-linecap="butt" stroke-linejoin="miter" stroke-miterlimit="4.97494" transform="matrix(1,0,0,1,2089,1690)"
font-family="MS Shell Dlg 2" font-size="88" font-weight="400" font-style="normal" 
>
</g>

<g fill="none" stroke="#000000" stroke-opacity="1" stroke-width="16" stroke-linecap="butt" stroke-linejoin="miter" stroke-miterlimit="4.97494" transform="matrix(1,0,0,1,2089,1690)"
font-family="Arial" font-size="128" font-weight="400" font-style="normal" 
>
<text fill="#000000" fill-opacity="1" stroke="none" xml:space="preserve" x="0" y="114" font-family="Arial" font-size="128" font-weight="400" font-style="normal" 
 >  d</text>
</g>

<g fill="none" stroke="#000000" stroke-opacity="1" stroke-width="16" stroke-linecap="butt" stroke-linejoin="miter" stroke-miterlimit="4.97494" transform="matrix(1,0,0,1,2089,1690)"
font-family="Arial" font-size="90" font-weight="400" font-style="normal" 
>
<text fill="#000000" fill-opacity="1" stroke="none" xml:space="preserve" x="143" y="144" font-family="Arial" font-size="90" font-weight="400" font-style="normal" 
 >5/2</text>
</g>

<g fill="none" stroke="#000000" stroke-opacity="1" stroke-width="16" stroke-linecap="butt" stroke-linejoin="miter" stroke-miterlimit="4.97494" transform="matrix(1,0,0,1,2089,1690)"
font-family="Arial" font-size="128" font-weight="400" font-style="normal" 
>
<text fill="#000000" fill-opacity="1" stroke="none" xml:space="preserve" x="0" y="278" font-family="Arial" font-size="128" font-weight="400" font-style="normal" 
 >δ</text>
<text fill="#000000" fill-opacity="1" stroke="none" xml:space="preserve" x="71" y="278" font-family="Arial" font-size="128" font-weight="400" font-style="normal" 
 >_0 = 0.2771555(4) </text>
</g>

<g fill="none" stroke="#000000" stroke-opacity="1" stroke-width="16" stroke-linecap="butt" stroke-linejoin="miter" stroke-miterlimit="4.97494" transform="matrix(1,0,0,1,2089,1690)"
font-family="Arial" font-size="128" font-weight="400" font-style="normal" 
>
<text fill="#000000" fill-opacity="1" stroke="none" xml:space="preserve" x="0" y="421" font-family="Arial" font-size="128" font-weight="400" font-style="normal" 
 >δ</text>
<text fill="#000000" fill-opacity="1" stroke="none" xml:space="preserve" x="71" y="421" font-family="Arial" font-size="128" font-weight="400" font-style="normal" 
 >_2 = -1.02562(21) </text>
</g>

<g fill="none" stroke="#000000" stroke-opacity="1" stroke-width="16" stroke-linecap="butt" stroke-linejoin="miter" stroke-miterlimit="4.97494" transform="matrix(1,0,0,1,2089,1690)"
font-family="Arial" font-size="128" font-weight="400" font-style="normal" 
>
<text fill="#000000" fill-opacity="1" stroke="none" xml:space="preserve" x="0" y="564" font-family="Arial" font-size="128" font-weight="400" font-style="normal" 
 >δ</text>
<text fill="#000000" fill-opacity="1" stroke="none" xml:space="preserve" x="71" y="564" font-family="Arial" font-size="128" font-weight="400" font-style="normal" 
 >_4 = 0.000(0) </text>
</g>

<g fill="none" stroke="#ff0000" stroke-opacity="1" stroke-width="16" stroke-linecap="butt" stroke-linejoin="miter" stroke-miterlimit="4.97494" transform="matrix(1,0,0,1,0,0)"
font-family="MS Shell Dlg 2" font-size="88" font-weight="400" font-style="normal" 
>
</g>

<g fill="#ffffff" fill-opacity="1" stroke="none" transform="matrix(1,0,0,1,5319,2529)"
font-family="MS Shell Dlg 2" font-size="88" font-weight="400" font-style="normal" 
>
<rect x="-44.5" y="-44.5" width="2533" height="660"/>
</g>

<g fill="none" stroke="#ff0000" stroke-opacity="1" stroke-width="16" stroke-linecap="butt" stroke-linejoin="miter" stroke-miterlimit="4.97494" transform="matrix(1,0,0,1,5319,2529)"
font-family="MS Shell Dlg 2" font-size="88" font-weight="400" font-style="normal" 
>
</g>

<g fill="none" stroke="#000000" stroke-opacity="1" stroke-width="11" stroke-linecap="butt" stroke-linejoin="miter" stroke-miterlimit="4.97494" transform="matrix(1,0,0,1,5319,2529)"
font-family="MS Shell Dlg 2" font-size="88" font-weight="400" font-style="normal" 
>
<rect x="-28" y="-28" width="2500" height="627"/>
</g>

<g fill="none" stroke="#ff0000" stroke-opacity="1" stroke-width="16" stroke-linecap="butt" stroke-linejoin="miter" stroke-miterlimit="4.97494" transform="matrix(1,0,0,1,5319,2529)"
font-family="MS Shell Dlg 2" font-size="88" font-weight="400" font-style="normal" 
>
</g>

<g fill="none" stroke="#000000" stroke-opacity="1" stroke-width="16" stroke-linecap="butt" stroke-linejoin="miter" stroke-miterlimit="4.97494" transform="matrix(1,0,0,1,5319,2529)"
font-family="Arial" font-size="128" font-weight="400" font-style="normal" 
>
<text fill="#000000" fill-opacity="1" stroke="none" xml:space="preserve" x="0" y="114" font-family="Arial" font-size="128" font-weight="400" font-style="normal" 
 >Coefficient values ± one standard deviation</text>
</g>

<g fill="none" stroke="#000000" stroke-opacity="1" stroke-width="16" stroke-linecap="butt" stroke-linejoin="miter" stroke-miterlimit="4.97494" transform="matrix(1,0,0,1,5319,2529)"
font-family="Arial" font-size="128" font-weight="400" font-style="normal" 
>
<text fill="#000000" fill-opacity="1" stroke="none" xml:space="preserve" x="384" y="257" font-family="Arial" font-size="128" font-weight="400" font-style="normal" 
 >del_0</text>
</g>

<g fill="none" stroke="#000000" stroke-opacity="1" stroke-width="16" stroke-linecap="butt" stroke-linejoin="miter" stroke-miterlimit="4.97494" transform="matrix(1,0,0,1,5319,2529)"
font-family="Arial" font-size="128" font-weight="400" font-style="normal" 
>
<text fill="#000000" fill-opacity="1" stroke="none" xml:space="preserve" x="768" y="257" font-family="Arial" font-size="128" font-weight="400" font-style="normal" 
 >=0.27716 ± 3.69e-007</text>
</g>

<g fill="none" stroke="#000000" stroke-opacity="1" stroke-width="16" stroke-linecap="butt" stroke-linejoin="miter" stroke-miterlimit="4.97494" transform="matrix(1,0,0,1,5319,2529)"
font-family="Arial" font-size="128" font-weight="400" font-style="normal" 
>
<text fill="#000000" fill-opacity="1" stroke="none" xml:space="preserve" x="384" y="400" font-family="Arial" font-size="128" font-weight="400" font-style="normal" 
 >del_2</text>
</g>

<g fill="none" stroke="#000000" stroke-opacity="1" stroke-width="16" stroke-linecap="butt" stroke-linejoin="miter" stroke-miterlimit="4.97494" transform="matrix(1,0,0,1,5319,2529)"
font-family="Arial" font-size="128" font-weight="400" font-style="normal" 
>
<text fill="#000000" fill-opacity="1" stroke="none" xml:space="preserve" x="768" y="400" font-family="Arial" font-size="128" font-weight="400" font-style="normal" 
 >=-1.0256 ± 0.000208</text>
</g>

<g fill="none" stroke="#000000" stroke-opacity="1" stroke-width="16" stroke-linecap="butt" stroke-linejoin="miter" stroke-miterlimit="4.97494" transform="matrix(1,0,0,1,5319,2529)"
font-family="Arial" font-size="128" font-weight="400" font-style="normal" 
>
<text fill="#000000" fill-opacity="1" stroke="none" xml:space="preserve" x="384" y="543" font-family="Arial" font-size="128" font-weight="400" font-style="normal" 
 >del_4</text>
</g>

<g fill="none" stroke="#000000" stroke-opacity="1" stroke-width="16" stroke-linecap="butt" stroke-linejoin="miter" stroke-miterlimit="4.97494" transform="matrix(1,0,0,1,5319,2529)"
font-family="Arial" font-size="128" font-weight="400" font-style="normal" 
>
<text fill="#000000" fill-opacity="1" stroke="none" xml:space="preserve" x="768" y="543" font-family="Arial" font-size="128" font-weight="400" font-style="normal" 
 >=0 ± 0</text>
</g>

<g fill="none" stroke="#ff0000" stroke-opacity="1" stroke-width="16" stroke-linecap="butt" stroke-linejoin="miter" stroke-miterlimit="4.97494" transform="matrix(1,0,0,1,0,0)"
font-family="MS Shell Dlg 2" font-size="88" font-weight="400" font-style="normal" 
>
</g>
</g>
</svg>
