%
M48
M72
T01C0.02362
T02C0.02400
T03C0.03200
T04C0.03543
T05C0.03600
T06C0.04000
T07C0.04700
T08C0.06300
T09C0.07874
T10C0.11000
%
T01
X208506Y98600
X221006Y93600
X336006Y113600
X343506Y118600
X388506Y133600
X431006Y118600
X276006Y263600
X283506Y303600
X188506Y318600
T02
X176006Y443600
X166006Y443600
X156006Y443600
T03
X151006Y418600
X166006Y418600
X178506Y418600
X221006Y391100
X221006Y381100
X221006Y371100
X221006Y361100
X221006Y351100
X241006Y351100
X241006Y361100
X241006Y371100
X241006Y381100
X241006Y391100
X253506Y391100
X253506Y381100
X253506Y371100
X253506Y361100
X253506Y351100
X283506Y351100
X283506Y361100
X283506Y371100
X283506Y381100
X283506Y391100
X178506Y388600
X166006Y378600
X151006Y388600
X113506Y341100
X93506Y331100
X113506Y318600
X93506Y308600
X113506Y266100
X93506Y256100
X143506Y256100
X143506Y308600
X143506Y331100
X311006Y293600
X311006Y283600
X326006Y283600
X326006Y273600
X326006Y263600
X326006Y253600
X321006Y238600
X356006Y253600
X356006Y263600
X356006Y273600
X356006Y283600
X356006Y293600
X356006Y303600
X356006Y313600
X366006Y293600
X366006Y283600
X391006Y263600
X361006Y238600
X391006Y223600
X303506Y183600
X303506Y173600
X263506Y173600
X263506Y183600
X241006Y193600
X231006Y193600
X231006Y183600
X231006Y173600
X201006Y173600
X201006Y183600
X201006Y193600
X201006Y203600
X231006Y203600
X241006Y203600
X186006Y178600
X186006Y168600
X171006Y168600
X171006Y178600
X156006Y178600
X156006Y168600
X146006Y178600
X146006Y188600
X191006Y156100
X201006Y156100
X201006Y138600
X201006Y128600
X201006Y118600
X201006Y108600
X201006Y98600
X191006Y98600
X186006Y111100
X186006Y121100
X171006Y121100
X171006Y111100
X156006Y111100
X156006Y121100
X146006Y121100
X146006Y131100
X231006Y128600
X241006Y128600
X241006Y138600
X231006Y138600
X231006Y118600
X231006Y108600
X326006Y293600
X326006Y303600
X326006Y313600
X536006Y173600
X571006Y148600
X581006Y148600
X611006Y154100
X611006Y168100
X603506Y183600
X593506Y183600
X571006Y204100
X571006Y218100
X536006Y133600
X628506Y113600
X628506Y103600
T04
X133506Y121100
X133506Y131100
X133506Y178600
X133506Y188600
X133506Y401100
X133506Y411100
T05
X671006Y406100
X671006Y396100
X671006Y386100
X671006Y376100
X671006Y366100
X671006Y356100
X671006Y346100
X671006Y336100
X671006Y326100
X671006Y316100
X671006Y306100
X671006Y296100
X671006Y286100
X671006Y276100
X671006Y266100
X671006Y256100
X671006Y246100
X671006Y236100
X671006Y226100
X671006Y216100
X671006Y206100
X671006Y196100
X671006Y186100
X671006Y176100
X671006Y166100
X671006Y156100
X671006Y146100
X671006Y136100
X671006Y126100
X671006Y116100
X691006Y116100
X691006Y126100
X691006Y136100
X691006Y146100
X691006Y156100
X691006Y166100
X691006Y176100
X691006Y186100
X691006Y196100
X691006Y206100
X691006Y216100
X691006Y226100
X691006Y236100
X691006Y246100
X691006Y256100
X691006Y266100
X691006Y276100
X691006Y286100
X691006Y296100
X691006Y306100
X691006Y316100
X691006Y326100
X691006Y336100
X691006Y346100
X691006Y356100
X691006Y366100
X691006Y376100
X691006Y386100
X691006Y396100
X691006Y406100
X691006Y416100
X691006Y426100
X671006Y426100
X671006Y416100
T06
X593506Y221100
X593506Y211100
X593506Y201100
X581006Y133600
X581006Y123600
X581006Y113600
X611006Y113600
X611006Y123600
X611006Y133600
T07
X648506Y123600
X648506Y143600
X648506Y163600
X553506Y171100
X553506Y151100
X553506Y133600
X263506Y158600
X248506Y118600
X231006Y276100
X213506Y276100
X203506Y383600
X188506Y383600
X631006Y436100
T08
X188506Y363600
X168506Y363600
X148506Y363600
X88506Y353600
X88506Y373600
X88506Y298600
X88506Y278600
X88506Y243600
X88506Y223600
X148506Y233600
X168506Y233600
X188506Y233600
X188506Y288600
X168506Y288600
X148506Y288600
T09
X113506Y208600
X113506Y168600
X113506Y151100
X113506Y111100
X113506Y391100
X113506Y431100
T10
X97506Y96100
X97506Y446100
X701006Y446100
X701006Y96100
M30
