G75*
%MOIN*%
%OFA0B0*%
%FSLAX25Y25*%
%IPPOS*%
%LPD*%
%AMOC8*
5,1,8,0,0,1.08239X$1,22.5*
%
%ADD10OC8,0.07100*%
%ADD11C,0.06343*%
%ADD12C,0.08674*%
%ADD13OC8,0.06000*%
%ADD14C,0.06000*%
%ADD15C,0.07100*%
%ADD16C,0.06800*%
%ADD17OC8,0.09300*%
%ADD18C,0.10250*%
%ADD19C,0.10800*%
%ADD20C,0.00600*%
%ADD21C,0.11800*%
%ADD22OC8,0.06400*%
%ADD23C,0.05200*%
%ADD24R,0.04762X0.04762*%
D10*
X0201006Y0108600D03*
X0201006Y0118600D03*
X0201006Y0128600D03*
X0201006Y0138600D03*
X0231006Y0138600D03*
X0231006Y0128600D03*
X0231006Y0118600D03*
X0231006Y0108600D03*
X0231006Y0173600D03*
X0231006Y0183600D03*
X0231006Y0193600D03*
X0231006Y0203600D03*
X0201006Y0203600D03*
X0201006Y0193600D03*
X0201006Y0183600D03*
X0201006Y0173600D03*
X0571006Y0204100D03*
X0611006Y0168100D03*
D11*
X0133506Y0178600D03*
X0133506Y0188600D03*
X0133506Y0131100D03*
X0133506Y0121100D03*
X0133506Y0401100D03*
X0133506Y0411100D03*
D12*
X0113506Y0391100D03*
X0113506Y0431100D03*
X0113506Y0208600D03*
X0113506Y0168600D03*
X0113506Y0151100D03*
X0113506Y0111100D03*
D13*
X0146006Y0121100D03*
X0146006Y0131100D03*
X0156006Y0121100D03*
X0156006Y0111100D03*
X0171006Y0111100D03*
X0171006Y0121100D03*
X0186006Y0121100D03*
X0186006Y0111100D03*
X0191006Y0098600D03*
X0201006Y0098600D03*
X0241006Y0128600D03*
X0241006Y0138600D03*
X0201006Y0156100D03*
X0191006Y0156100D03*
X0186006Y0168600D03*
X0186006Y0178600D03*
X0171006Y0178600D03*
X0171006Y0168600D03*
X0156006Y0168600D03*
X0156006Y0178600D03*
X0146006Y0178600D03*
X0146006Y0188600D03*
X0241006Y0193600D03*
X0241006Y0203600D03*
X0263506Y0183600D03*
X0263506Y0173600D03*
X0303506Y0173600D03*
X0303506Y0183600D03*
X0321006Y0238600D03*
X0361006Y0238600D03*
X0391006Y0223600D03*
X0391006Y0263600D03*
X0366006Y0283600D03*
X0366006Y0293600D03*
X0311006Y0293600D03*
X0311006Y0283600D03*
X0241006Y0351100D03*
X0241006Y0361100D03*
X0241006Y0371100D03*
X0241006Y0381100D03*
X0241006Y0391100D03*
X0221006Y0391100D03*
X0221006Y0381100D03*
X0221006Y0371100D03*
X0221006Y0361100D03*
X0221006Y0351100D03*
X0166006Y0378600D03*
X0166006Y0418600D03*
X0536006Y0173600D03*
X0571006Y0148600D03*
X0581006Y0148600D03*
X0593506Y0183600D03*
X0603506Y0183600D03*
X0536006Y0133600D03*
X0628506Y0113600D03*
X0628506Y0103600D03*
D14*
X0358606Y0253600D02*
X0353406Y0253600D01*
X0353406Y0263600D02*
X0358606Y0263600D01*
X0358606Y0273600D02*
X0353406Y0273600D01*
X0353406Y0283600D02*
X0358606Y0283600D01*
X0358606Y0293600D02*
X0353406Y0293600D01*
X0353406Y0303600D02*
X0358606Y0303600D01*
X0358606Y0313600D02*
X0353406Y0313600D01*
X0328606Y0313600D02*
X0323406Y0313600D01*
X0323406Y0303600D02*
X0328606Y0303600D01*
X0328606Y0293600D02*
X0323406Y0293600D01*
X0323406Y0283600D02*
X0328606Y0283600D01*
X0328606Y0273600D02*
X0323406Y0273600D01*
X0323406Y0263600D02*
X0328606Y0263600D01*
X0328606Y0253600D02*
X0323406Y0253600D01*
X0286106Y0351100D02*
X0280906Y0351100D01*
X0280906Y0361100D02*
X0286106Y0361100D01*
X0286106Y0371100D02*
X0280906Y0371100D01*
X0280906Y0381100D02*
X0286106Y0381100D01*
X0286106Y0391100D02*
X0280906Y0391100D01*
X0256106Y0391100D02*
X0250906Y0391100D01*
X0250906Y0381100D02*
X0256106Y0381100D01*
X0256106Y0371100D02*
X0250906Y0371100D01*
X0250906Y0361100D02*
X0256106Y0361100D01*
X0256106Y0351100D02*
X0250906Y0351100D01*
X0178506Y0386000D02*
X0178506Y0391200D01*
X0178506Y0416000D02*
X0178506Y0421200D01*
X0151006Y0421200D02*
X0151006Y0416000D01*
X0151006Y0391200D02*
X0151006Y0386000D01*
X0116106Y0341100D02*
X0110906Y0341100D01*
X0096106Y0331100D02*
X0090906Y0331100D01*
X0110906Y0318600D02*
X0116106Y0318600D01*
X0096106Y0308600D02*
X0090906Y0308600D01*
X0140906Y0308600D02*
X0146106Y0308600D01*
X0146106Y0331100D02*
X0140906Y0331100D01*
X0116106Y0266100D02*
X0110906Y0266100D01*
X0096106Y0256100D02*
X0090906Y0256100D01*
X0140906Y0256100D02*
X0146106Y0256100D01*
D15*
X0571006Y0218100D03*
X0611006Y0154100D03*
D16*
X0608006Y0133600D02*
X0614006Y0133600D01*
X0614006Y0123600D02*
X0608006Y0123600D01*
X0608006Y0113600D02*
X0614006Y0113600D01*
X0584006Y0113600D02*
X0578006Y0113600D01*
X0578006Y0123600D02*
X0584006Y0123600D01*
X0584006Y0133600D02*
X0578006Y0133600D01*
X0590506Y0201100D02*
X0596506Y0201100D01*
X0596506Y0211100D02*
X0590506Y0211100D01*
X0590506Y0221100D02*
X0596506Y0221100D01*
D17*
X0553506Y0171100D03*
X0553506Y0151100D03*
X0553506Y0133600D03*
X0648506Y0123600D03*
X0648506Y0143600D03*
X0648506Y0163600D03*
X0631006Y0436100D03*
X0263506Y0158600D03*
X0248506Y0118600D03*
X0231006Y0276100D03*
X0213506Y0276100D03*
X0203506Y0383600D03*
X0188506Y0383600D03*
D18*
X0188506Y0368325D02*
X0188506Y0358875D01*
X0168506Y0358875D02*
X0168506Y0368325D01*
X0148506Y0368325D02*
X0148506Y0358875D01*
X0148506Y0293325D02*
X0148506Y0283875D01*
X0168506Y0283875D02*
X0168506Y0293325D01*
X0188506Y0293325D02*
X0188506Y0283875D01*
X0188506Y0238325D02*
X0188506Y0228875D01*
X0168506Y0228875D02*
X0168506Y0238325D01*
X0148506Y0238325D02*
X0148506Y0228875D01*
D19*
X0088506Y0223600D03*
X0088506Y0243600D03*
X0088506Y0278600D03*
X0088506Y0298600D03*
X0088506Y0353600D03*
X0088506Y0373600D03*
D20*
X0083506Y0104200D02*
X0083506Y0074200D01*
X0113506Y0074200D01*
X0083506Y0438000D02*
X0083506Y0468000D01*
X0113506Y0468000D01*
X0683506Y0468000D02*
X0713506Y0468000D01*
X0713506Y0438000D01*
X0713506Y0104200D02*
X0713506Y0074200D01*
X0683506Y0074200D01*
D21*
X0701006Y0096100D03*
X0701006Y0446100D03*
X0097506Y0446100D03*
X0097506Y0096100D03*
D22*
X0671006Y0116100D03*
X0671006Y0126100D03*
X0671006Y0136100D03*
X0671006Y0146100D03*
X0671006Y0156100D03*
X0671006Y0166100D03*
X0671006Y0176100D03*
X0671006Y0186100D03*
X0671006Y0196100D03*
X0671006Y0206100D03*
X0671006Y0216100D03*
X0671006Y0226100D03*
X0671006Y0236100D03*
X0671006Y0246100D03*
X0671006Y0256100D03*
X0671006Y0266100D03*
X0671006Y0276100D03*
X0671006Y0286100D03*
X0671006Y0296100D03*
X0671006Y0306100D03*
X0671006Y0316100D03*
X0671006Y0326100D03*
X0671006Y0336100D03*
X0671006Y0346100D03*
X0671006Y0356100D03*
X0671006Y0366100D03*
X0671006Y0376100D03*
X0671006Y0386100D03*
X0671006Y0396100D03*
X0671006Y0406100D03*
X0671006Y0416100D03*
X0671006Y0426100D03*
X0691006Y0426100D03*
X0691006Y0416100D03*
X0691006Y0406100D03*
X0691006Y0396100D03*
X0691006Y0386100D03*
X0691006Y0376100D03*
X0691006Y0366100D03*
X0691006Y0356100D03*
X0691006Y0346100D03*
X0691006Y0336100D03*
X0691006Y0326100D03*
X0691006Y0316100D03*
X0691006Y0306100D03*
X0691006Y0296100D03*
X0691006Y0286100D03*
X0691006Y0276100D03*
X0691006Y0266100D03*
X0691006Y0256100D03*
X0691006Y0246100D03*
X0691006Y0236100D03*
X0691006Y0226100D03*
X0691006Y0216100D03*
X0691006Y0206100D03*
X0691006Y0196100D03*
X0691006Y0186100D03*
X0691006Y0176100D03*
X0691006Y0166100D03*
X0691006Y0156100D03*
X0691006Y0146100D03*
X0691006Y0136100D03*
X0691006Y0126100D03*
X0691006Y0116100D03*
D23*
X0176006Y0443600D03*
X0166006Y0443600D03*
X0156006Y0443600D03*
D24*
X0188506Y0318600D03*
X0276006Y0263600D03*
X0283506Y0303600D03*
X0388506Y0133600D03*
X0431006Y0118600D03*
X0343506Y0118600D03*
X0336006Y0113600D03*
X0221006Y0093600D03*
X0208506Y0098600D03*
M02*
