solid Eric_Vescent_Adapter_Metric
   facet normal -1.000000e+00 0.000000e+00 0.000000e+00
      outer loop
         vertex 0.000000e+00 0.000000e+00 0.000000e+00
         vertex 0.000000e+00 0.000000e+00 3.175000e+00
         vertex 0.000000e+00 3.632003e+01 0.000000e+00
      endloop
   endfacet
   facet normal -1.000000e+00 0.000000e+00 0.000000e+00
      outer loop
         vertex 0.000000e+00 3.632003e+01 0.000000e+00
         vertex 0.000000e+00 0.000000e+00 3.175000e+00
         vertex 0.000000e+00 3.632003e+01 3.175000e+00
      endloop
   endfacet
   facet normal -1.000000e+00 0.000000e+00 0.000000e+00
      outer loop
         vertex 0.000000e+00 3.632003e+01 0.000000e+00
         vertex 0.000000e+00 3.632003e+01 3.175000e+00
         vertex 0.000000e+00 6.350000e+01 0.000000e+00
      endloop
   endfacet
   facet normal -1.000000e+00 0.000000e+00 0.000000e+00
      outer loop
         vertex 0.000000e+00 6.350000e+01 0.000000e+00
         vertex 0.000000e+00 3.632003e+01 3.175000e+00
         vertex 0.000000e+00 6.350000e+01 3.175000e+00
      endloop
   endfacet
   facet normal 0.000000e+00 -1.000000e+00 0.000000e+00
      outer loop
         vertex 3.810000e+01 0.000000e+00 0.000000e+00
         vertex 3.810000e+01 0.000000e+00 3.175000e+00
         vertex 1.689015e+01 0.000000e+00 0.000000e+00
      endloop
   endfacet
   facet normal 0.000000e+00 -1.000000e+00 0.000000e+00
      outer loop
         vertex 1.689015e+01 0.000000e+00 0.000000e+00
         vertex 3.810000e+01 0.000000e+00 3.175000e+00
         vertex 1.689015e+01 0.000000e+00 3.175000e+00
      endloop
   endfacet
   facet normal 0.000000e+00 -1.000000e+00 0.000000e+00
      outer loop
         vertex 1.689015e+01 0.000000e+00 0.000000e+00
         vertex 1.689015e+01 0.000000e+00 3.175000e+00
         vertex 0.000000e+00 0.000000e+00 0.000000e+00
      endloop
   endfacet
   facet normal 0.000000e+00 -1.000000e+00 0.000000e+00
      outer loop
         vertex 0.000000e+00 0.000000e+00 0.000000e+00
         vertex 1.689015e+01 0.000000e+00 3.175000e+00
         vertex 0.000000e+00 0.000000e+00 3.175000e+00
      endloop
   endfacet
   facet normal 1.000000e+00 0.000000e+00 -0.000000e+00
      outer loop
         vertex 3.810000e+01 6.350000e+01 0.000000e+00
         vertex 3.810000e+01 6.350000e+01 3.175000e+00
         vertex 3.810000e+01 3.632003e+01 0.000000e+00
      endloop
   endfacet
   facet normal 1.000000e+00 0.000000e+00 0.000000e+00
      outer loop
         vertex 3.810000e+01 3.632003e+01 0.000000e+00
         vertex 3.810000e+01 6.350000e+01 3.175000e+00
         vertex 3.810000e+01 3.632003e+01 3.175000e+00
      endloop
   endfacet
   facet normal 1.000000e+00 0.000000e+00 -0.000000e+00
      outer loop
         vertex 3.810000e+01 3.632003e+01 0.000000e+00
         vertex 3.810000e+01 3.632003e+01 3.175000e+00
         vertex 3.810000e+01 0.000000e+00 0.000000e+00
      endloop
   endfacet
   facet normal 1.000000e+00 0.000000e+00 0.000000e+00
      outer loop
         vertex 3.810000e+01 0.000000e+00 0.000000e+00
         vertex 3.810000e+01 3.632003e+01 3.175000e+00
         vertex 3.810000e+01 0.000000e+00 3.175000e+00
      endloop
   endfacet
   facet normal 0.000000e+00 1.000000e+00 0.000000e+00
      outer loop
         vertex 0.000000e+00 6.350000e+01 0.000000e+00
         vertex 0.000000e+00 6.350000e+01 3.175000e+00
         vertex 1.689015e+01 6.350000e+01 0.000000e+00
      endloop
   endfacet
   facet normal 0.000000e+00 1.000000e+00 -0.000000e+00
      outer loop
         vertex 1.689015e+01 6.350000e+01 0.000000e+00
         vertex 0.000000e+00 6.350000e+01 3.175000e+00
         vertex 1.689015e+01 6.350000e+01 3.175000e+00
      endloop
   endfacet
   facet normal 0.000000e+00 1.000000e+00 0.000000e+00
      outer loop
         vertex 1.689015e+01 6.350000e+01 0.000000e+00
         vertex 1.689015e+01 6.350000e+01 3.175000e+00
         vertex 3.810000e+01 6.350000e+01 0.000000e+00
      endloop
   endfacet
   facet normal 0.000000e+00 1.000000e+00 -0.000000e+00
      outer loop
         vertex 3.810000e+01 6.350000e+01 0.000000e+00
         vertex 1.689015e+01 6.350000e+01 3.175000e+00
         vertex 3.810000e+01 6.350000e+01 3.175000e+00
      endloop
   endfacet
   facet normal -0.000000e+00 0.000000e+00 1.000000e+00
      outer loop
         vertex 9.553869e+00 3.232003e+01 3.175000e+00
         vertex 9.705300e+00 3.175488e+01 3.175000e+00
         vertex 1.689015e+01 3.632003e+01 3.175000e+00
      endloop
   endfacet
   facet normal 0.000000e+00 -0.000000e+00 1.000000e+00
      outer loop
         vertex 3.810000e+01 3.632003e+01 3.175000e+00
         vertex 3.810000e+01 6.350000e+01 3.175000e+00
         vertex 3.273246e+01 4.597695e+01 3.175000e+00
      endloop
   endfacet
   facet normal -0.000000e+00 0.000000e+00 1.000000e+00
      outer loop
         vertex 2.914015e+01 5.577601e+01 3.175000e+00
         vertex 2.441754e+01 4.597695e+01 3.175000e+00
         vertex 2.955387e+01 5.618973e+01 3.175000e+00
      endloop
   endfacet
   facet normal 0.000000e+00 0.000000e+00 1.000000e+00
      outer loop
         vertex 2.955387e+01 5.618973e+01 3.175000e+00
         vertex 2.441754e+01 4.597695e+01 3.175000e+00
         vertex 2.539302e+01 4.743686e+01 3.175000e+00
      endloop
   endfacet
   facet normal 0.000000e+00 0.000000e+00 1.000000e+00
      outer loop
         vertex 2.955387e+01 5.618973e+01 3.175000e+00
         vertex 2.539302e+01 4.743686e+01 3.175000e+00
         vertex 2.685293e+01 4.841234e+01 3.175000e+00
      endloop
   endfacet
   facet normal -0.000000e+00 0.000000e+00 1.000000e+00
      outer loop
         vertex 2.955387e+01 5.732003e+01 3.175000e+00
         vertex 2.970530e+01 5.675488e+01 3.175000e+00
         vertex 3.810000e+01 6.350000e+01 3.175000e+00
      endloop
   endfacet
   facet normal 0.000000e+00 0.000000e+00 1.000000e+00
      outer loop
         vertex 3.810000e+01 6.350000e+01 3.175000e+00
         vertex 2.970530e+01 5.675488e+01 3.175000e+00
         vertex 2.955387e+01 5.618973e+01 3.175000e+00
      endloop
   endfacet
   facet normal 0.000000e+00 0.000000e+00 1.000000e+00
      outer loop
         vertex 2.685293e+01 4.841234e+01 3.175000e+00
         vertex 2.857500e+01 4.875488e+01 3.175000e+00
         vertex 2.955387e+01 5.618973e+01 3.175000e+00
      endloop
   endfacet
   facet normal 0.000000e+00 0.000000e+00 1.000000e+00
      outer loop
         vertex 2.955387e+01 5.618973e+01 3.175000e+00
         vertex 2.857500e+01 4.875488e+01 3.175000e+00
         vertex 3.029708e+01 4.841234e+01 3.175000e+00
      endloop
   endfacet
   facet normal -0.000000e+00 0.000000e+00 1.000000e+00
      outer loop
         vertex 2.955387e+01 5.618973e+01 3.175000e+00
         vertex 3.029708e+01 4.841234e+01 3.175000e+00
         vertex 3.810000e+01 6.350000e+01 3.175000e+00
      endloop
   endfacet
   facet normal 0.000000e+00 0.000000e+00 1.000000e+00
      outer loop
         vertex 3.810000e+01 6.350000e+01 3.175000e+00
         vertex 3.029708e+01 4.841234e+01 3.175000e+00
         vertex 3.175698e+01 4.743686e+01 3.175000e+00
      endloop
   endfacet
   facet normal 0.000000e+00 0.000000e+00 1.000000e+00
      outer loop
         vertex 3.810000e+01 6.350000e+01 3.175000e+00
         vertex 3.175698e+01 4.743686e+01 3.175000e+00
         vertex 3.273246e+01 4.597695e+01 3.175000e+00
      endloop
   endfacet
   facet normal 0.000000e+00 0.000000e+00 1.000000e+00
      outer loop
         vertex 3.273246e+01 4.597695e+01 3.175000e+00
         vertex 3.307500e+01 4.425488e+01 3.175000e+00
         vertex 3.810000e+01 3.632003e+01 3.175000e+00
      endloop
   endfacet
   facet normal 0.000000e+00 0.000000e+00 1.000000e+00
      outer loop
         vertex 3.810000e+01 3.632003e+01 3.175000e+00
         vertex 3.307500e+01 4.425488e+01 3.175000e+00
         vertex 3.273246e+01 4.253280e+01 3.175000e+00
      endloop
   endfacet
   facet normal 0.000000e+00 0.000000e+00 1.000000e+00
      outer loop
         vertex 3.810000e+01 3.632003e+01 3.175000e+00
         vertex 3.273246e+01 4.253280e+01 3.175000e+00
         vertex 3.175698e+01 4.107290e+01 3.175000e+00
      endloop
   endfacet
   facet normal 0.000000e+00 -0.000000e+00 1.000000e+00
      outer loop
         vertex 2.759613e+01 5.732003e+01 3.175000e+00
         vertex 2.800985e+01 5.773375e+01 3.175000e+00
         vertex 1.689015e+01 6.350000e+01 3.175000e+00
      endloop
   endfacet
   facet normal 0.000000e+00 0.000000e+00 1.000000e+00
      outer loop
         vertex 1.689015e+01 6.350000e+01 3.175000e+00
         vertex 2.800985e+01 5.773375e+01 3.175000e+00
         vertex 2.857500e+01 5.788518e+01 3.175000e+00
      endloop
   endfacet
   facet normal -0.000000e+00 0.000000e+00 1.000000e+00
      outer loop
         vertex 1.689015e+01 6.350000e+01 3.175000e+00
         vertex 2.857500e+01 5.788518e+01 3.175000e+00
         vertex 3.810000e+01 6.350000e+01 3.175000e+00
      endloop
   endfacet
   facet normal 0.000000e+00 0.000000e+00 1.000000e+00
      outer loop
         vertex 3.810000e+01 6.350000e+01 3.175000e+00
         vertex 2.857500e+01 5.788518e+01 3.175000e+00
         vertex 2.914015e+01 5.773375e+01 3.175000e+00
      endloop
   endfacet
   facet normal 0.000000e+00 0.000000e+00 1.000000e+00
      outer loop
         vertex 3.810000e+01 6.350000e+01 3.175000e+00
         vertex 2.914015e+01 5.773375e+01 3.175000e+00
         vertex 2.955387e+01 5.732003e+01 3.175000e+00
      endloop
   endfacet
   facet normal 0.000000e+00 0.000000e+00 1.000000e+00
      outer loop
         vertex 3.175698e+01 4.107290e+01 3.175000e+00
         vertex 3.029708e+01 4.009742e+01 3.175000e+00
         vertex 3.810000e+01 3.632003e+01 3.175000e+00
      endloop
   endfacet
   facet normal 0.000000e+00 0.000000e+00 1.000000e+00
      outer loop
         vertex 3.810000e+01 3.632003e+01 3.175000e+00
         vertex 3.029708e+01 4.009742e+01 3.175000e+00
         vertex 2.857500e+01 3.975488e+01 3.175000e+00
      endloop
   endfacet
   facet normal 0.000000e+00 0.000000e+00 1.000000e+00
      outer loop
         vertex 3.810000e+01 3.632003e+01 3.175000e+00
         vertex 2.857500e+01 3.975488e+01 3.175000e+00
         vertex 1.689015e+01 3.632003e+01 3.175000e+00
      endloop
   endfacet
   facet normal 0.000000e+00 0.000000e+00 1.000000e+00
      outer loop
         vertex 1.689015e+01 3.632003e+01 3.175000e+00
         vertex 2.857500e+01 3.975488e+01 3.175000e+00
         vertex 2.685293e+01 4.009742e+01 3.175000e+00
      endloop
   endfacet
   facet normal 0.000000e+00 0.000000e+00 1.000000e+00
      outer loop
         vertex 1.689015e+01 3.632003e+01 3.175000e+00
         vertex 2.685293e+01 4.009742e+01 3.175000e+00
         vertex 2.539302e+01 4.107290e+01 3.175000e+00
      endloop
   endfacet
   facet normal 0.000000e+00 0.000000e+00 1.000000e+00
      outer loop
         vertex 2.539302e+01 4.107290e+01 3.175000e+00
         vertex 2.441754e+01 4.253280e+01 3.175000e+00
         vertex 1.689015e+01 3.632003e+01 3.175000e+00
      endloop
   endfacet
   facet normal 0.000000e+00 0.000000e+00 1.000000e+00
      outer loop
         vertex 1.689015e+01 3.632003e+01 3.175000e+00
         vertex 2.441754e+01 4.253280e+01 3.175000e+00
         vertex 2.407500e+01 4.425488e+01 3.175000e+00
      endloop
   endfacet
   facet normal 0.000000e+00 0.000000e+00 1.000000e+00
      outer loop
         vertex 1.689015e+01 3.632003e+01 3.175000e+00
         vertex 2.407500e+01 4.425488e+01 3.175000e+00
         vertex 2.441754e+01 4.597695e+01 3.175000e+00
      endloop
   endfacet
   facet normal 0.000000e+00 0.000000e+00 1.000000e+00
      outer loop
         vertex 2.914015e+01 5.577601e+01 3.175000e+00
         vertex 2.857500e+01 5.562458e+01 3.175000e+00
         vertex 2.441754e+01 4.597695e+01 3.175000e+00
      endloop
   endfacet
   facet normal 0.000000e+00 0.000000e+00 1.000000e+00
      outer loop
         vertex 2.441754e+01 4.597695e+01 3.175000e+00
         vertex 2.857500e+01 5.562458e+01 3.175000e+00
         vertex 2.800985e+01 5.577601e+01 3.175000e+00
      endloop
   endfacet
   facet normal 0.000000e+00 -0.000000e+00 1.000000e+00
      outer loop
         vertex 2.441754e+01 4.597695e+01 3.175000e+00
         vertex 2.800985e+01 5.577601e+01 3.175000e+00
         vertex 1.689015e+01 3.632003e+01 3.175000e+00
      endloop
   endfacet
   facet normal 0.000000e+00 0.000000e+00 1.000000e+00
      outer loop
         vertex 1.689015e+01 3.632003e+01 3.175000e+00
         vertex 2.800985e+01 5.577601e+01 3.175000e+00
         vertex 2.759613e+01 5.618973e+01 3.175000e+00
      endloop
   endfacet
   facet normal 0.000000e+00 0.000000e+00 1.000000e+00
      outer loop
         vertex 1.689015e+01 3.632003e+01 3.175000e+00
         vertex 2.759613e+01 5.618973e+01 3.175000e+00
         vertex 1.689015e+01 6.350000e+01 3.175000e+00
      endloop
   endfacet
   facet normal 0.000000e+00 0.000000e+00 1.000000e+00
      outer loop
         vertex 1.689015e+01 6.350000e+01 3.175000e+00
         vertex 2.759613e+01 5.618973e+01 3.175000e+00
         vertex 2.744470e+01 5.675488e+01 3.175000e+00
      endloop
   endfacet
   facet normal 0.000000e+00 0.000000e+00 1.000000e+00
      outer loop
         vertex 1.689015e+01 6.350000e+01 3.175000e+00
         vertex 2.744470e+01 5.675488e+01 3.175000e+00
         vertex 2.759613e+01 5.732003e+01 3.175000e+00
      endloop
   endfacet
   facet normal 0.000000e+00 0.000000e+00 1.000000e+00
      outer loop
         vertex 9.140151e+00 5.577601e+01 3.175000e+00
         vertex 8.575001e+00 5.562458e+01 3.175000e+00
         vertex 1.689015e+01 3.632003e+01 3.175000e+00
      endloop
   endfacet
   facet normal 0.000000e+00 0.000000e+00 1.000000e+00
      outer loop
         vertex 1.689015e+01 3.632003e+01 3.175000e+00
         vertex 8.575001e+00 5.562458e+01 3.175000e+00
         vertex 0.000000e+00 3.632003e+01 3.175000e+00
      endloop
   endfacet
   facet normal -0.000000e+00 0.000000e+00 1.000000e+00
      outer loop
         vertex 9.140151e+00 5.773375e+01 3.175000e+00
         vertex 9.553869e+00 5.732003e+01 3.175000e+00
         vertex 1.689015e+01 6.350000e+01 3.175000e+00
      endloop
   endfacet
   facet normal 0.000000e+00 0.000000e+00 1.000000e+00
      outer loop
         vertex 1.689015e+01 6.350000e+01 3.175000e+00
         vertex 9.553869e+00 5.732003e+01 3.175000e+00
         vertex 9.705300e+00 5.675488e+01 3.175000e+00
      endloop
   endfacet
   facet normal 0.000000e+00 0.000000e+00 1.000000e+00
      outer loop
         vertex 1.689015e+01 6.350000e+01 3.175000e+00
         vertex 9.705300e+00 5.675488e+01 3.175000e+00
         vertex 1.689015e+01 3.632003e+01 3.175000e+00
      endloop
   endfacet
   facet normal 0.000000e+00 0.000000e+00 1.000000e+00
      outer loop
         vertex 1.689015e+01 3.632003e+01 3.175000e+00
         vertex 9.705300e+00 5.675488e+01 3.175000e+00
         vertex 9.553869e+00 5.618973e+01 3.175000e+00
      endloop
   endfacet
   facet normal 0.000000e+00 0.000000e+00 1.000000e+00
      outer loop
         vertex 1.689015e+01 3.632003e+01 3.175000e+00
         vertex 9.553869e+00 5.618973e+01 3.175000e+00
         vertex 9.140151e+00 5.577601e+01 3.175000e+00
      endloop
   endfacet
   facet normal 0.000000e+00 0.000000e+00 1.000000e+00
      outer loop
         vertex 8.575001e+00 5.562458e+01 3.175000e+00
         vertex 8.009851e+00 5.577601e+01 3.175000e+00
         vertex 0.000000e+00 3.632003e+01 3.175000e+00
      endloop
   endfacet
   facet normal 0.000000e+00 0.000000e+00 1.000000e+00
      outer loop
         vertex 0.000000e+00 3.632003e+01 3.175000e+00
         vertex 8.009851e+00 5.577601e+01 3.175000e+00
         vertex 7.596132e+00 5.618973e+01 3.175000e+00
      endloop
   endfacet
   facet normal 0.000000e+00 0.000000e+00 1.000000e+00
      outer loop
         vertex 0.000000e+00 3.632003e+01 3.175000e+00
         vertex 7.596132e+00 5.618973e+01 3.175000e+00
         vertex 0.000000e+00 6.350000e+01 3.175000e+00
      endloop
   endfacet
   facet normal 0.000000e+00 0.000000e+00 1.000000e+00
      outer loop
         vertex 0.000000e+00 6.350000e+01 3.175000e+00
         vertex 7.596132e+00 5.618973e+01 3.175000e+00
         vertex 7.444701e+00 5.675488e+01 3.175000e+00
      endloop
   endfacet
   facet normal 0.000000e+00 -0.000000e+00 1.000000e+00
      outer loop
         vertex 7.444701e+00 5.675488e+01 3.175000e+00
         vertex 7.596132e+00 5.732003e+01 3.175000e+00
         vertex 0.000000e+00 6.350000e+01 3.175000e+00
      endloop
   endfacet
   facet normal 0.000000e+00 0.000000e+00 1.000000e+00
      outer loop
         vertex 0.000000e+00 6.350000e+01 3.175000e+00
         vertex 7.596132e+00 5.732003e+01 3.175000e+00
         vertex 8.009851e+00 5.773375e+01 3.175000e+00
      endloop
   endfacet
   facet normal -0.000000e+00 0.000000e+00 1.000000e+00
      outer loop
         vertex 0.000000e+00 6.350000e+01 3.175000e+00
         vertex 8.009851e+00 5.773375e+01 3.175000e+00
         vertex 1.689015e+01 6.350000e+01 3.175000e+00
      endloop
   endfacet
   facet normal 0.000000e+00 0.000000e+00 1.000000e+00
      outer loop
         vertex 1.689015e+01 6.350000e+01 3.175000e+00
         vertex 8.009851e+00 5.773375e+01 3.175000e+00
         vertex 8.575001e+00 5.788518e+01 3.175000e+00
      endloop
   endfacet
   facet normal 0.000000e+00 0.000000e+00 1.000000e+00
      outer loop
         vertex 1.689015e+01 6.350000e+01 3.175000e+00
         vertex 8.575001e+00 5.788518e+01 3.175000e+00
         vertex 9.140151e+00 5.773375e+01 3.175000e+00
      endloop
   endfacet
   facet normal -0.000000e+00 0.000000e+00 1.000000e+00
      outer loop
         vertex 2.955387e+01 3.118973e+01 3.175000e+00
         vertex 3.810000e+01 0.000000e+00 3.175000e+00
         vertex 2.970530e+01 3.175488e+01 3.175000e+00
      endloop
   endfacet
   facet normal -0.000000e+00 0.000000e+00 1.000000e+00
      outer loop
         vertex 2.970530e+01 3.175488e+01 3.175000e+00
         vertex 3.810000e+01 0.000000e+00 3.175000e+00
         vertex 3.810000e+01 3.632003e+01 3.175000e+00
      endloop
   endfacet
   facet normal 0.000000e+00 -0.000000e+00 1.000000e+00
      outer loop
         vertex 2.970530e+01 3.175488e+01 3.175000e+00
         vertex 3.810000e+01 3.632003e+01 3.175000e+00
         vertex 2.955387e+01 3.232003e+01 3.175000e+00
      endloop
   endfacet
   facet normal 0.000000e+00 0.000000e+00 1.000000e+00
      outer loop
         vertex 2.759613e+01 3.118973e+01 3.175000e+00
         vertex 2.744470e+01 3.175488e+01 3.175000e+00
         vertex 1.689015e+01 3.632003e+01 3.175000e+00
      endloop
   endfacet
   facet normal 0.000000e+00 0.000000e+00 1.000000e+00
      outer loop
         vertex 1.689015e+01 3.632003e+01 3.175000e+00
         vertex 2.744470e+01 3.175488e+01 3.175000e+00
         vertex 2.759613e+01 3.232003e+01 3.175000e+00
      endloop
   endfacet
   facet normal 0.000000e+00 0.000000e+00 1.000000e+00
      outer loop
         vertex 2.955387e+01 3.118973e+01 3.175000e+00
         vertex 2.914015e+01 3.077601e+01 3.175000e+00
         vertex 3.810000e+01 0.000000e+00 3.175000e+00
      endloop
   endfacet
   facet normal 0.000000e+00 0.000000e+00 1.000000e+00
      outer loop
         vertex 3.810000e+01 0.000000e+00 3.175000e+00
         vertex 2.914015e+01 3.077601e+01 3.175000e+00
         vertex 2.857500e+01 3.062458e+01 3.175000e+00
      endloop
   endfacet
   facet normal 0.000000e+00 0.000000e+00 1.000000e+00
      outer loop
         vertex 3.810000e+01 0.000000e+00 3.175000e+00
         vertex 2.857500e+01 3.062458e+01 3.175000e+00
         vertex 1.689015e+01 0.000000e+00 3.175000e+00
      endloop
   endfacet
   facet normal 0.000000e+00 0.000000e+00 1.000000e+00
      outer loop
         vertex 1.689015e+01 0.000000e+00 3.175000e+00
         vertex 2.857500e+01 3.062458e+01 3.175000e+00
         vertex 2.800985e+01 3.077601e+01 3.175000e+00
      endloop
   endfacet
   facet normal 0.000000e+00 0.000000e+00 1.000000e+00
      outer loop
         vertex 1.689015e+01 0.000000e+00 3.175000e+00
         vertex 2.800985e+01 3.077601e+01 3.175000e+00
         vertex 2.759613e+01 3.118973e+01 3.175000e+00
      endloop
   endfacet
   facet normal 0.000000e+00 -0.000000e+00 1.000000e+00
      outer loop
         vertex 2.759613e+01 3.232003e+01 3.175000e+00
         vertex 2.800985e+01 3.273375e+01 3.175000e+00
         vertex 1.689015e+01 3.632003e+01 3.175000e+00
      endloop
   endfacet
   facet normal 0.000000e+00 0.000000e+00 1.000000e+00
      outer loop
         vertex 1.689015e+01 3.632003e+01 3.175000e+00
         vertex 2.800985e+01 3.273375e+01 3.175000e+00
         vertex 2.857500e+01 3.288518e+01 3.175000e+00
      endloop
   endfacet
   facet normal -0.000000e+00 0.000000e+00 1.000000e+00
      outer loop
         vertex 1.689015e+01 3.632003e+01 3.175000e+00
         vertex 2.857500e+01 3.288518e+01 3.175000e+00
         vertex 3.810000e+01 3.632003e+01 3.175000e+00
      endloop
   endfacet
   facet normal 0.000000e+00 0.000000e+00 1.000000e+00
      outer loop
         vertex 3.810000e+01 3.632003e+01 3.175000e+00
         vertex 2.857500e+01 3.288518e+01 3.175000e+00
         vertex 2.914015e+01 3.273375e+01 3.175000e+00
      endloop
   endfacet
   facet normal 0.000000e+00 0.000000e+00 1.000000e+00
      outer loop
         vertex 3.810000e+01 3.632003e+01 3.175000e+00
         vertex 2.914015e+01 3.273375e+01 3.175000e+00
         vertex 2.955387e+01 3.232003e+01 3.175000e+00
      endloop
   endfacet
   facet normal 0.000000e+00 0.000000e+00 1.000000e+00
      outer loop
         vertex 2.759613e+01 3.118973e+01 3.175000e+00
         vertex 1.689015e+01 3.632003e+01 3.175000e+00
         vertex 1.689015e+01 0.000000e+00 3.175000e+00
      endloop
   endfacet
   facet normal 0.000000e+00 -0.000000e+00 1.000000e+00
      outer loop
         vertex 1.689015e+01 0.000000e+00 3.175000e+00
         vertex 1.689015e+01 3.632003e+01 3.175000e+00
         vertex 9.705300e+00 3.175488e+01 3.175000e+00
      endloop
   endfacet
   facet normal 0.000000e+00 0.000000e+00 1.000000e+00
      outer loop
         vertex 1.689015e+01 0.000000e+00 3.175000e+00
         vertex 9.705300e+00 3.175488e+01 3.175000e+00
         vertex 9.553869e+00 3.118973e+01 3.175000e+00
      endloop
   endfacet
   facet normal 0.000000e+00 0.000000e+00 1.000000e+00
      outer loop
         vertex 9.553869e+00 3.118973e+01 3.175000e+00
         vertex 9.140151e+00 3.077601e+01 3.175000e+00
         vertex 1.689015e+01 0.000000e+00 3.175000e+00
      endloop
   endfacet
   facet normal 0.000000e+00 0.000000e+00 1.000000e+00
      outer loop
         vertex 1.689015e+01 0.000000e+00 3.175000e+00
         vertex 9.140151e+00 3.077601e+01 3.175000e+00
         vertex 8.575001e+00 3.062458e+01 3.175000e+00
      endloop
   endfacet
   facet normal 0.000000e+00 0.000000e+00 1.000000e+00
      outer loop
         vertex 1.689015e+01 0.000000e+00 3.175000e+00
         vertex 8.575001e+00 3.062458e+01 3.175000e+00
         vertex 0.000000e+00 0.000000e+00 3.175000e+00
      endloop
   endfacet
   facet normal 0.000000e+00 0.000000e+00 1.000000e+00
      outer loop
         vertex 8.575001e+00 3.062458e+01 3.175000e+00
         vertex 8.009851e+00 3.077601e+01 3.175000e+00
         vertex 0.000000e+00 0.000000e+00 3.175000e+00
      endloop
   endfacet
   facet normal 0.000000e+00 0.000000e+00 1.000000e+00
      outer loop
         vertex 0.000000e+00 0.000000e+00 3.175000e+00
         vertex 8.009851e+00 3.077601e+01 3.175000e+00
         vertex 7.596132e+00 3.118973e+01 3.175000e+00
      endloop
   endfacet
   facet normal 0.000000e+00 0.000000e+00 1.000000e+00
      outer loop
         vertex 0.000000e+00 0.000000e+00 3.175000e+00
         vertex 7.596132e+00 3.118973e+01 3.175000e+00
         vertex 0.000000e+00 3.632003e+01 3.175000e+00
      endloop
   endfacet
   facet normal 0.000000e+00 0.000000e+00 1.000000e+00
      outer loop
         vertex 0.000000e+00 3.632003e+01 3.175000e+00
         vertex 7.596132e+00 3.118973e+01 3.175000e+00
         vertex 7.444701e+00 3.175488e+01 3.175000e+00
      endloop
   endfacet
   facet normal 0.000000e+00 0.000000e+00 1.000000e+00
      outer loop
         vertex 0.000000e+00 3.632003e+01 3.175000e+00
         vertex 7.444701e+00 3.175488e+01 3.175000e+00
         vertex 7.596132e+00 3.232003e+01 3.175000e+00
      endloop
   endfacet
   facet normal 0.000000e+00 -0.000000e+00 1.000000e+00
      outer loop
         vertex 7.596132e+00 3.232003e+01 3.175000e+00
         vertex 8.009851e+00 3.273375e+01 3.175000e+00
         vertex 0.000000e+00 3.632003e+01 3.175000e+00
      endloop
   endfacet
   facet normal 0.000000e+00 0.000000e+00 1.000000e+00
      outer loop
         vertex 0.000000e+00 3.632003e+01 3.175000e+00
         vertex 8.009851e+00 3.273375e+01 3.175000e+00
         vertex 8.575001e+00 3.288518e+01 3.175000e+00
      endloop
   endfacet
   facet normal -0.000000e+00 0.000000e+00 1.000000e+00
      outer loop
         vertex 0.000000e+00 3.632003e+01 3.175000e+00
         vertex 8.575001e+00 3.288518e+01 3.175000e+00
         vertex 1.689015e+01 3.632003e+01 3.175000e+00
      endloop
   endfacet
   facet normal 0.000000e+00 0.000000e+00 1.000000e+00
      outer loop
         vertex 1.689015e+01 3.632003e+01 3.175000e+00
         vertex 8.575001e+00 3.288518e+01 3.175000e+00
         vertex 9.140151e+00 3.273375e+01 3.175000e+00
      endloop
   endfacet
   facet normal 0.000000e+00 0.000000e+00 1.000000e+00
      outer loop
         vertex 1.689015e+01 3.632003e+01 3.175000e+00
         vertex 9.140151e+00 3.273375e+01 3.175000e+00
         vertex 9.553869e+00 3.232003e+01 3.175000e+00
      endloop
   endfacet
   facet normal -0.000000e+00 0.000000e+00 -1.000000e+00
      outer loop
         vertex 7.596132e+00 5.732003e+01 0.000000e+00
         vertex 7.444701e+00 5.675488e+01 0.000000e+00
         vertex 0.000000e+00 6.350000e+01 0.000000e+00
      endloop
   endfacet
   facet normal -0.000000e+00 0.000000e+00 -1.000000e+00
      outer loop
         vertex 2.759613e+01 5.732003e+01 0.000000e+00
         vertex 2.744470e+01 5.675488e+01 0.000000e+00
         vertex 1.689015e+01 6.350000e+01 0.000000e+00
      endloop
   endfacet
   facet normal -0.000000e+00 0.000000e+00 -1.000000e+00
      outer loop
         vertex 7.596132e+00 3.232003e+01 0.000000e+00
         vertex 7.444701e+00 3.175488e+01 0.000000e+00
         vertex 0.000000e+00 3.632003e+01 0.000000e+00
      endloop
   endfacet
   facet normal -0.000000e+00 0.000000e+00 -1.000000e+00
      outer loop
         vertex 2.759613e+01 3.232003e+01 0.000000e+00
         vertex 2.744470e+01 3.175488e+01 0.000000e+00
         vertex 1.689015e+01 3.632003e+01 0.000000e+00
      endloop
   endfacet
   facet normal 0.000000e+00 0.000000e+00 -1.000000e+00
      outer loop
         vertex 1.689015e+01 3.632003e+01 0.000000e+00
         vertex 2.744470e+01 3.175488e+01 0.000000e+00
         vertex 1.689015e+01 0.000000e+00 0.000000e+00
      endloop
   endfacet
   facet normal 0.000000e+00 0.000000e+00 -1.000000e+00
      outer loop
         vertex 2.955387e+01 3.232003e+01 0.000000e+00
         vertex 2.914015e+01 3.273375e+01 0.000000e+00
         vertex 3.810000e+01 3.632003e+01 0.000000e+00
      endloop
   endfacet
   facet normal 0.000000e+00 0.000000e+00 -1.000000e+00
      outer loop
         vertex 3.810000e+01 3.632003e+01 0.000000e+00
         vertex 2.914015e+01 3.273375e+01 0.000000e+00
         vertex 2.857500e+01 3.288518e+01 0.000000e+00
      endloop
   endfacet
   facet normal -0.000000e+00 0.000000e+00 -1.000000e+00
      outer loop
         vertex 3.810000e+01 3.632003e+01 0.000000e+00
         vertex 2.857500e+01 3.288518e+01 0.000000e+00
         vertex 1.689015e+01 3.632003e+01 0.000000e+00
      endloop
   endfacet
   facet normal 0.000000e+00 0.000000e+00 -1.000000e+00
      outer loop
         vertex 1.689015e+01 3.632003e+01 0.000000e+00
         vertex 2.857500e+01 3.288518e+01 0.000000e+00
         vertex 2.800985e+01 3.273375e+01 0.000000e+00
      endloop
   endfacet
   facet normal 0.000000e+00 0.000000e+00 -1.000000e+00
      outer loop
         vertex 1.689015e+01 3.632003e+01 0.000000e+00
         vertex 2.800985e+01 3.273375e+01 0.000000e+00
         vertex 2.759613e+01 3.232003e+01 0.000000e+00
      endloop
   endfacet
   facet normal -0.000000e+00 -0.000000e+00 -1.000000e+00
      outer loop
         vertex 2.857500e+01 3.062458e+01 0.000000e+00
         vertex 3.810000e+01 0.000000e+00 0.000000e+00
         vertex 2.800985e+01 3.077601e+01 0.000000e+00
      endloop
   endfacet
   facet normal 0.000000e+00 -0.000000e+00 -1.000000e+00
      outer loop
         vertex 2.800985e+01 3.077601e+01 0.000000e+00
         vertex 3.810000e+01 0.000000e+00 0.000000e+00
         vertex 1.689015e+01 0.000000e+00 0.000000e+00
      endloop
   endfacet
   facet normal -0.000000e+00 0.000000e+00 -1.000000e+00
      outer loop
         vertex 2.800985e+01 3.077601e+01 0.000000e+00
         vertex 1.689015e+01 0.000000e+00 0.000000e+00
         vertex 2.759613e+01 3.118973e+01 0.000000e+00
      endloop
   endfacet
   facet normal -0.000000e+00 0.000000e+00 -1.000000e+00
      outer loop
         vertex 2.759613e+01 3.118973e+01 0.000000e+00
         vertex 1.689015e+01 0.000000e+00 0.000000e+00
         vertex 2.744470e+01 3.175488e+01 0.000000e+00
      endloop
   endfacet
   facet normal 0.000000e+00 0.000000e+00 -1.000000e+00
      outer loop
         vertex 2.857500e+01 3.062458e+01 0.000000e+00
         vertex 2.914015e+01 3.077601e+01 0.000000e+00
         vertex 3.810000e+01 0.000000e+00 0.000000e+00
      endloop
   endfacet
   facet normal 0.000000e+00 0.000000e+00 -1.000000e+00
      outer loop
         vertex 3.810000e+01 0.000000e+00 0.000000e+00
         vertex 2.914015e+01 3.077601e+01 0.000000e+00
         vertex 2.955387e+01 3.118973e+01 0.000000e+00
      endloop
   endfacet
   facet normal 0.000000e+00 0.000000e+00 -1.000000e+00
      outer loop
         vertex 3.810000e+01 0.000000e+00 0.000000e+00
         vertex 2.955387e+01 3.118973e+01 0.000000e+00
         vertex 3.810000e+01 3.632003e+01 0.000000e+00
      endloop
   endfacet
   facet normal 0.000000e+00 0.000000e+00 -1.000000e+00
      outer loop
         vertex 3.810000e+01 3.632003e+01 0.000000e+00
         vertex 2.955387e+01 3.118973e+01 0.000000e+00
         vertex 2.970530e+01 3.175488e+01 0.000000e+00
      endloop
   endfacet
   facet normal 0.000000e+00 0.000000e+00 -1.000000e+00
      outer loop
         vertex 3.810000e+01 3.632003e+01 0.000000e+00
         vertex 2.970530e+01 3.175488e+01 0.000000e+00
         vertex 2.955387e+01 3.232003e+01 0.000000e+00
      endloop
   endfacet
   facet normal 0.000000e+00 0.000000e+00 -1.000000e+00
      outer loop
         vertex 9.140151e+00 3.077601e+01 0.000000e+00
         vertex 9.553869e+00 3.118973e+01 0.000000e+00
         vertex 1.689015e+01 0.000000e+00 0.000000e+00
      endloop
   endfacet
   facet normal 0.000000e+00 0.000000e+00 -1.000000e+00
      outer loop
         vertex 0.000000e+00 3.632003e+01 0.000000e+00
         vertex 7.444701e+00 3.175488e+01 0.000000e+00
         vertex 0.000000e+00 0.000000e+00 0.000000e+00
      endloop
   endfacet
   facet normal 0.000000e+00 0.000000e+00 -1.000000e+00
      outer loop
         vertex 1.689015e+01 0.000000e+00 0.000000e+00
         vertex 9.553869e+00 3.118973e+01 0.000000e+00
         vertex 1.689015e+01 3.632003e+01 0.000000e+00
      endloop
   endfacet
   facet normal 0.000000e+00 0.000000e+00 -1.000000e+00
      outer loop
         vertex 1.689015e+01 3.632003e+01 0.000000e+00
         vertex 9.553869e+00 3.118973e+01 0.000000e+00
         vertex 9.705300e+00 3.175488e+01 0.000000e+00
      endloop
   endfacet
   facet normal 0.000000e+00 0.000000e+00 -1.000000e+00
      outer loop
         vertex 1.689015e+01 3.632003e+01 0.000000e+00
         vertex 9.705300e+00 3.175488e+01 0.000000e+00
         vertex 9.553869e+00 3.232003e+01 0.000000e+00
      endloop
   endfacet
   facet normal 0.000000e+00 -0.000000e+00 -1.000000e+00
      outer loop
         vertex 7.444701e+00 3.175488e+01 0.000000e+00
         vertex 7.596132e+00 3.118973e+01 0.000000e+00
         vertex 0.000000e+00 0.000000e+00 0.000000e+00
      endloop
   endfacet
   facet normal 0.000000e+00 0.000000e+00 -1.000000e+00
      outer loop
         vertex 0.000000e+00 0.000000e+00 0.000000e+00
         vertex 7.596132e+00 3.118973e+01 0.000000e+00
         vertex 8.009851e+00 3.077601e+01 0.000000e+00
      endloop
   endfacet
   facet normal 0.000000e+00 0.000000e+00 -1.000000e+00
      outer loop
         vertex 0.000000e+00 0.000000e+00 0.000000e+00
         vertex 8.009851e+00 3.077601e+01 0.000000e+00
         vertex 1.689015e+01 0.000000e+00 0.000000e+00
      endloop
   endfacet
   facet normal 0.000000e+00 0.000000e+00 -1.000000e+00
      outer loop
         vertex 1.689015e+01 0.000000e+00 0.000000e+00
         vertex 8.009851e+00 3.077601e+01 0.000000e+00
         vertex 8.575001e+00 3.062458e+01 0.000000e+00
      endloop
   endfacet
   facet normal 0.000000e+00 0.000000e+00 -1.000000e+00
      outer loop
         vertex 1.689015e+01 0.000000e+00 0.000000e+00
         vertex 8.575001e+00 3.062458e+01 0.000000e+00
         vertex 9.140151e+00 3.077601e+01 0.000000e+00
      endloop
   endfacet
   facet normal 0.000000e+00 0.000000e+00 -1.000000e+00
      outer loop
         vertex 9.553869e+00 3.232003e+01 0.000000e+00
         vertex 9.140151e+00 3.273375e+01 0.000000e+00
         vertex 1.689015e+01 3.632003e+01 0.000000e+00
      endloop
   endfacet
   facet normal 0.000000e+00 0.000000e+00 -1.000000e+00
      outer loop
         vertex 1.689015e+01 3.632003e+01 0.000000e+00
         vertex 9.140151e+00 3.273375e+01 0.000000e+00
         vertex 8.575001e+00 3.288518e+01 0.000000e+00
      endloop
   endfacet
   facet normal -0.000000e+00 0.000000e+00 -1.000000e+00
      outer loop
         vertex 1.689015e+01 3.632003e+01 0.000000e+00
         vertex 8.575001e+00 3.288518e+01 0.000000e+00
         vertex 0.000000e+00 3.632003e+01 0.000000e+00
      endloop
   endfacet
   facet normal 0.000000e+00 0.000000e+00 -1.000000e+00
      outer loop
         vertex 0.000000e+00 3.632003e+01 0.000000e+00
         vertex 8.575001e+00 3.288518e+01 0.000000e+00
         vertex 8.009851e+00 3.273375e+01 0.000000e+00
      endloop
   endfacet
   facet normal 0.000000e+00 0.000000e+00 -1.000000e+00
      outer loop
         vertex 0.000000e+00 3.632003e+01 0.000000e+00
         vertex 8.009851e+00 3.273375e+01 0.000000e+00
         vertex 7.596132e+00 3.232003e+01 0.000000e+00
      endloop
   endfacet
   facet normal 0.000000e+00 0.000000e+00 -1.000000e+00
      outer loop
         vertex 2.970530e+01 5.675488e+01 0.000000e+00
         vertex 2.955387e+01 5.732003e+01 0.000000e+00
         vertex 3.810000e+01 6.350000e+01 0.000000e+00
      endloop
   endfacet
   facet normal 0.000000e+00 -0.000000e+00 -1.000000e+00
      outer loop
         vertex 2.441754e+01 4.253280e+01 0.000000e+00
         vertex 2.539302e+01 4.107290e+01 0.000000e+00
         vertex 1.689015e+01 3.632003e+01 0.000000e+00
      endloop
   endfacet
   facet normal 0.000000e+00 0.000000e+00 -1.000000e+00
      outer loop
         vertex 1.689015e+01 6.350000e+01 0.000000e+00
         vertex 2.744470e+01 5.675488e+01 0.000000e+00
         vertex 1.689015e+01 3.632003e+01 0.000000e+00
      endloop
   endfacet
   facet normal 0.000000e+00 0.000000e+00 -1.000000e+00
      outer loop
         vertex 1.689015e+01 3.632003e+01 0.000000e+00
         vertex 2.744470e+01 5.675488e+01 0.000000e+00
         vertex 2.759613e+01 5.618973e+01 0.000000e+00
      endloop
   endfacet
   facet normal 0.000000e+00 0.000000e+00 -1.000000e+00
      outer loop
         vertex 1.689015e+01 3.632003e+01 0.000000e+00
         vertex 2.759613e+01 5.618973e+01 0.000000e+00
         vertex 2.800985e+01 5.577601e+01 0.000000e+00
      endloop
   endfacet
   facet normal 0.000000e+00 0.000000e+00 -1.000000e+00
      outer loop
         vertex 2.955387e+01 5.732003e+01 0.000000e+00
         vertex 2.914015e+01 5.773375e+01 0.000000e+00
         vertex 3.810000e+01 6.350000e+01 0.000000e+00
      endloop
   endfacet
   facet normal 0.000000e+00 0.000000e+00 -1.000000e+00
      outer loop
         vertex 3.810000e+01 6.350000e+01 0.000000e+00
         vertex 2.914015e+01 5.773375e+01 0.000000e+00
         vertex 2.857500e+01 5.788518e+01 0.000000e+00
      endloop
   endfacet
   facet normal -0.000000e+00 0.000000e+00 -1.000000e+00
      outer loop
         vertex 3.810000e+01 6.350000e+01 0.000000e+00
         vertex 2.857500e+01 5.788518e+01 0.000000e+00
         vertex 1.689015e+01 6.350000e+01 0.000000e+00
      endloop
   endfacet
   facet normal 0.000000e+00 0.000000e+00 -1.000000e+00
      outer loop
         vertex 1.689015e+01 6.350000e+01 0.000000e+00
         vertex 2.857500e+01 5.788518e+01 0.000000e+00
         vertex 2.800985e+01 5.773375e+01 0.000000e+00
      endloop
   endfacet
   facet normal 0.000000e+00 0.000000e+00 -1.000000e+00
      outer loop
         vertex 1.689015e+01 6.350000e+01 0.000000e+00
         vertex 2.800985e+01 5.773375e+01 0.000000e+00
         vertex 2.759613e+01 5.732003e+01 0.000000e+00
      endloop
   endfacet
   facet normal 0.000000e+00 0.000000e+00 -1.000000e+00
      outer loop
         vertex 2.685293e+01 4.841234e+01 0.000000e+00
         vertex 2.800985e+01 5.577601e+01 0.000000e+00
         vertex 2.857500e+01 4.875488e+01 0.000000e+00
      endloop
   endfacet
   facet normal 0.000000e+00 0.000000e+00 -1.000000e+00
      outer loop
         vertex 2.857500e+01 4.875488e+01 0.000000e+00
         vertex 2.800985e+01 5.577601e+01 0.000000e+00
         vertex 2.857500e+01 5.562458e+01 0.000000e+00
      endloop
   endfacet
   facet normal 0.000000e+00 0.000000e+00 -1.000000e+00
      outer loop
         vertex 2.857500e+01 4.875488e+01 0.000000e+00
         vertex 2.857500e+01 5.562458e+01 0.000000e+00
         vertex 3.029708e+01 4.841234e+01 0.000000e+00
      endloop
   endfacet
   facet normal -0.000000e+00 0.000000e+00 -1.000000e+00
      outer loop
         vertex 2.685293e+01 4.841234e+01 0.000000e+00
         vertex 2.539302e+01 4.743686e+01 0.000000e+00
         vertex 2.800985e+01 5.577601e+01 0.000000e+00
      endloop
   endfacet
   facet normal 0.000000e+00 0.000000e+00 -1.000000e+00
      outer loop
         vertex 2.800985e+01 5.577601e+01 0.000000e+00
         vertex 2.539302e+01 4.743686e+01 0.000000e+00
         vertex 2.441754e+01 4.597695e+01 0.000000e+00
      endloop
   endfacet
   facet normal 0.000000e+00 0.000000e+00 -1.000000e+00
      outer loop
         vertex 2.800985e+01 5.577601e+01 0.000000e+00
         vertex 2.441754e+01 4.597695e+01 0.000000e+00
         vertex 1.689015e+01 3.632003e+01 0.000000e+00
      endloop
   endfacet
   facet normal 0.000000e+00 0.000000e+00 -1.000000e+00
      outer loop
         vertex 1.689015e+01 3.632003e+01 0.000000e+00
         vertex 2.441754e+01 4.597695e+01 0.000000e+00
         vertex 2.407500e+01 4.425488e+01 0.000000e+00
      endloop
   endfacet
   facet normal 0.000000e+00 0.000000e+00 -1.000000e+00
      outer loop
         vertex 1.689015e+01 3.632003e+01 0.000000e+00
         vertex 2.407500e+01 4.425488e+01 0.000000e+00
         vertex 2.441754e+01 4.253280e+01 0.000000e+00
      endloop
   endfacet
   facet normal 0.000000e+00 -0.000000e+00 -1.000000e+00
      outer loop
         vertex 2.539302e+01 4.107290e+01 0.000000e+00
         vertex 2.685293e+01 4.009742e+01 0.000000e+00
         vertex 1.689015e+01 3.632003e+01 0.000000e+00
      endloop
   endfacet
   facet normal 0.000000e+00 0.000000e+00 -1.000000e+00
      outer loop
         vertex 1.689015e+01 3.632003e+01 0.000000e+00
         vertex 2.685293e+01 4.009742e+01 0.000000e+00
         vertex 2.857500e+01 3.975488e+01 0.000000e+00
      endloop
   endfacet
   facet normal 0.000000e+00 0.000000e+00 -1.000000e+00
      outer loop
         vertex 1.689015e+01 3.632003e+01 0.000000e+00
         vertex 2.857500e+01 3.975488e+01 0.000000e+00
         vertex 3.810000e+01 3.632003e+01 0.000000e+00
      endloop
   endfacet
   facet normal 0.000000e+00 0.000000e+00 -1.000000e+00
      outer loop
         vertex 3.810000e+01 3.632003e+01 0.000000e+00
         vertex 2.857500e+01 3.975488e+01 0.000000e+00
         vertex 3.029708e+01 4.009742e+01 0.000000e+00
      endloop
   endfacet
   facet normal 0.000000e+00 0.000000e+00 -1.000000e+00
      outer loop
         vertex 3.810000e+01 3.632003e+01 0.000000e+00
         vertex 3.029708e+01 4.009742e+01 0.000000e+00
         vertex 3.175698e+01 4.107290e+01 0.000000e+00
      endloop
   endfacet
   facet normal 0.000000e+00 0.000000e+00 -1.000000e+00
      outer loop
         vertex 3.175698e+01 4.107290e+01 0.000000e+00
         vertex 3.273246e+01 4.253280e+01 0.000000e+00
         vertex 3.810000e+01 3.632003e+01 0.000000e+00
      endloop
   endfacet
   facet normal 0.000000e+00 0.000000e+00 -1.000000e+00
      outer loop
         vertex 3.810000e+01 3.632003e+01 0.000000e+00
         vertex 3.273246e+01 4.253280e+01 0.000000e+00
         vertex 3.307500e+01 4.425488e+01 0.000000e+00
      endloop
   endfacet
   facet normal 0.000000e+00 0.000000e+00 -1.000000e+00
      outer loop
         vertex 3.810000e+01 3.632003e+01 0.000000e+00
         vertex 3.307500e+01 4.425488e+01 0.000000e+00
         vertex 3.273246e+01 4.597695e+01 0.000000e+00
      endloop
   endfacet
   facet normal 0.000000e+00 -0.000000e+00 -1.000000e+00
      outer loop
         vertex 2.970530e+01 5.675488e+01 0.000000e+00
         vertex 3.810000e+01 6.350000e+01 0.000000e+00
         vertex 2.955387e+01 5.618973e+01 0.000000e+00
      endloop
   endfacet
   facet normal 0.000000e+00 0.000000e+00 -1.000000e+00
      outer loop
         vertex 2.955387e+01 5.618973e+01 0.000000e+00
         vertex 3.810000e+01 6.350000e+01 0.000000e+00
         vertex 3.810000e+01 3.632003e+01 0.000000e+00
      endloop
   endfacet
   facet normal 0.000000e+00 -0.000000e+00 -1.000000e+00
      outer loop
         vertex 2.955387e+01 5.618973e+01 0.000000e+00
         vertex 3.810000e+01 3.632003e+01 0.000000e+00
         vertex 2.914015e+01 5.577601e+01 0.000000e+00
      endloop
   endfacet
   facet normal 0.000000e+00 0.000000e+00 -1.000000e+00
      outer loop
         vertex 2.914015e+01 5.577601e+01 0.000000e+00
         vertex 3.810000e+01 3.632003e+01 0.000000e+00
         vertex 3.273246e+01 4.597695e+01 0.000000e+00
      endloop
   endfacet
   facet normal 0.000000e+00 -0.000000e+00 -1.000000e+00
      outer loop
         vertex 2.914015e+01 5.577601e+01 0.000000e+00
         vertex 3.273246e+01 4.597695e+01 0.000000e+00
         vertex 2.857500e+01 5.562458e+01 0.000000e+00
      endloop
   endfacet
   facet normal 0.000000e+00 0.000000e+00 -1.000000e+00
      outer loop
         vertex 2.857500e+01 5.562458e+01 0.000000e+00
         vertex 3.273246e+01 4.597695e+01 0.000000e+00
         vertex 3.175698e+01 4.743686e+01 0.000000e+00
      endloop
   endfacet
   facet normal 0.000000e+00 0.000000e+00 -1.000000e+00
      outer loop
         vertex 2.857500e+01 5.562458e+01 0.000000e+00
         vertex 3.175698e+01 4.743686e+01 0.000000e+00
         vertex 3.029708e+01 4.841234e+01 0.000000e+00
      endloop
   endfacet
   facet normal 0.000000e+00 0.000000e+00 -1.000000e+00
      outer loop
         vertex 9.140151e+00 5.577601e+01 0.000000e+00
         vertex 9.553869e+00 5.618973e+01 0.000000e+00
         vertex 1.689015e+01 3.632003e+01 0.000000e+00
      endloop
   endfacet
   facet normal 0.000000e+00 0.000000e+00 -1.000000e+00
      outer loop
         vertex 0.000000e+00 6.350000e+01 0.000000e+00
         vertex 7.444701e+00 5.675488e+01 0.000000e+00
         vertex 0.000000e+00 3.632003e+01 0.000000e+00
      endloop
   endfacet
   facet normal 0.000000e+00 0.000000e+00 -1.000000e+00
      outer loop
         vertex 1.689015e+01 3.632003e+01 0.000000e+00
         vertex 9.553869e+00 5.618973e+01 0.000000e+00
         vertex 1.689015e+01 6.350000e+01 0.000000e+00
      endloop
   endfacet
   facet normal 0.000000e+00 0.000000e+00 -1.000000e+00
      outer loop
         vertex 1.689015e+01 6.350000e+01 0.000000e+00
         vertex 9.553869e+00 5.618973e+01 0.000000e+00
         vertex 9.705300e+00 5.675488e+01 0.000000e+00
      endloop
   endfacet
   facet normal 0.000000e+00 0.000000e+00 -1.000000e+00
      outer loop
         vertex 1.689015e+01 6.350000e+01 0.000000e+00
         vertex 9.705300e+00 5.675488e+01 0.000000e+00
         vertex 9.553869e+00 5.732003e+01 0.000000e+00
      endloop
   endfacet
   facet normal 0.000000e+00 -0.000000e+00 -1.000000e+00
      outer loop
         vertex 7.444701e+00 5.675488e+01 0.000000e+00
         vertex 7.596132e+00 5.618973e+01 0.000000e+00
         vertex 0.000000e+00 3.632003e+01 0.000000e+00
      endloop
   endfacet
   facet normal 0.000000e+00 0.000000e+00 -1.000000e+00
      outer loop
         vertex 0.000000e+00 3.632003e+01 0.000000e+00
         vertex 7.596132e+00 5.618973e+01 0.000000e+00
         vertex 8.009851e+00 5.577601e+01 0.000000e+00
      endloop
   endfacet
   facet normal 0.000000e+00 0.000000e+00 -1.000000e+00
      outer loop
         vertex 0.000000e+00 3.632003e+01 0.000000e+00
         vertex 8.009851e+00 5.577601e+01 0.000000e+00
         vertex 1.689015e+01 3.632003e+01 0.000000e+00
      endloop
   endfacet
   facet normal 0.000000e+00 0.000000e+00 -1.000000e+00
      outer loop
         vertex 1.689015e+01 3.632003e+01 0.000000e+00
         vertex 8.009851e+00 5.577601e+01 0.000000e+00
         vertex 8.575001e+00 5.562458e+01 0.000000e+00
      endloop
   endfacet
   facet normal 0.000000e+00 0.000000e+00 -1.000000e+00
      outer loop
         vertex 1.689015e+01 3.632003e+01 0.000000e+00
         vertex 8.575001e+00 5.562458e+01 0.000000e+00
         vertex 9.140151e+00 5.577601e+01 0.000000e+00
      endloop
   endfacet
   facet normal 0.000000e+00 0.000000e+00 -1.000000e+00
      outer loop
         vertex 9.553869e+00 5.732003e+01 0.000000e+00
         vertex 9.140151e+00 5.773375e+01 0.000000e+00
         vertex 1.689015e+01 6.350000e+01 0.000000e+00
      endloop
   endfacet
   facet normal 0.000000e+00 0.000000e+00 -1.000000e+00
      outer loop
         vertex 1.689015e+01 6.350000e+01 0.000000e+00
         vertex 9.140151e+00 5.773375e+01 0.000000e+00
         vertex 8.575001e+00 5.788518e+01 0.000000e+00
      endloop
   endfacet
   facet normal -0.000000e+00 0.000000e+00 -1.000000e+00
      outer loop
         vertex 1.689015e+01 6.350000e+01 0.000000e+00
         vertex 8.575001e+00 5.788518e+01 0.000000e+00
         vertex 0.000000e+00 6.350000e+01 0.000000e+00
      endloop
   endfacet
   facet normal 0.000000e+00 0.000000e+00 -1.000000e+00
      outer loop
         vertex 0.000000e+00 6.350000e+01 0.000000e+00
         vertex 8.575001e+00 5.788518e+01 0.000000e+00
         vertex 8.009851e+00 5.773375e+01 0.000000e+00
      endloop
   endfacet
   facet normal 0.000000e+00 0.000000e+00 -1.000000e+00
      outer loop
         vertex 0.000000e+00 6.350000e+01 0.000000e+00
         vertex 8.009851e+00 5.773375e+01 0.000000e+00
         vertex 7.596132e+00 5.732003e+01 0.000000e+00
      endloop
   endfacet
   facet normal -9.659260e-01 -2.588182e-01 0.000000e+00
      outer loop
         vertex 9.705300e+00 5.675488e+01 0.000000e+00
         vertex 9.705300e+00 5.675488e+01 3.175000e+00
         vertex 9.553869e+00 5.732003e+01 0.000000e+00
      endloop
   endfacet
   facet normal -9.659260e-01 -2.588182e-01 0.000000e+00
      outer loop
         vertex 9.553869e+00 5.732003e+01 0.000000e+00
         vertex 9.705300e+00 5.675488e+01 3.175000e+00
         vertex 9.553869e+00 5.732003e+01 3.175000e+00
      endloop
   endfacet
   facet normal -7.071068e-01 -7.071068e-01 0.000000e+00
      outer loop
         vertex 9.553869e+00 5.732003e+01 0.000000e+00
         vertex 9.553869e+00 5.732003e+01 3.175000e+00
         vertex 9.140151e+00 5.773375e+01 0.000000e+00
      endloop
   endfacet
   facet normal -7.071068e-01 -7.071068e-01 0.000000e+00
      outer loop
         vertex 9.140151e+00 5.773375e+01 0.000000e+00
         vertex 9.553869e+00 5.732003e+01 3.175000e+00
         vertex 9.140151e+00 5.773375e+01 3.175000e+00
      endloop
   endfacet
   facet normal -2.588186e-01 -9.659259e-01 0.000000e+00
      outer loop
         vertex 9.140151e+00 5.773375e+01 0.000000e+00
         vertex 9.140151e+00 5.773375e+01 3.175000e+00
         vertex 8.575001e+00 5.788518e+01 0.000000e+00
      endloop
   endfacet
   facet normal -2.588186e-01 -9.659259e-01 0.000000e+00
      outer loop
         vertex 8.575001e+00 5.788518e+01 0.000000e+00
         vertex 9.140151e+00 5.773375e+01 3.175000e+00
         vertex 8.575001e+00 5.788518e+01 3.175000e+00
      endloop
   endfacet
   facet normal 2.588186e-01 -9.659259e-01 0.000000e+00
      outer loop
         vertex 8.575001e+00 5.788518e+01 0.000000e+00
         vertex 8.575001e+00 5.788518e+01 3.175000e+00
         vertex 8.009851e+00 5.773375e+01 0.000000e+00
      endloop
   endfacet
   facet normal 2.588186e-01 -9.659259e-01 0.000000e+00
      outer loop
         vertex 8.009851e+00 5.773375e+01 0.000000e+00
         vertex 8.575001e+00 5.788518e+01 3.175000e+00
         vertex 8.009851e+00 5.773375e+01 3.175000e+00
      endloop
   endfacet
   facet normal 7.071068e-01 -7.071068e-01 0.000000e+00
      outer loop
         vertex 8.009851e+00 5.773375e+01 0.000000e+00
         vertex 8.009851e+00 5.773375e+01 3.175000e+00
         vertex 7.596132e+00 5.732003e+01 0.000000e+00
      endloop
   endfacet
   facet normal 7.071068e-01 -7.071068e-01 0.000000e+00
      outer loop
         vertex 7.596132e+00 5.732003e+01 0.000000e+00
         vertex 8.009851e+00 5.773375e+01 3.175000e+00
         vertex 7.596132e+00 5.732003e+01 3.175000e+00
      endloop
   endfacet
   facet normal 9.659260e-01 -2.588182e-01 0.000000e+00
      outer loop
         vertex 7.596132e+00 5.732003e+01 0.000000e+00
         vertex 7.596132e+00 5.732003e+01 3.175000e+00
         vertex 7.444701e+00 5.675488e+01 0.000000e+00
      endloop
   endfacet
   facet normal 9.659260e-01 -2.588182e-01 0.000000e+00
      outer loop
         vertex 7.444701e+00 5.675488e+01 0.000000e+00
         vertex 7.596132e+00 5.732003e+01 3.175000e+00
         vertex 7.444701e+00 5.675488e+01 3.175000e+00
      endloop
   endfacet
   facet normal 9.659259e-01 2.588186e-01 -0.000000e+00
      outer loop
         vertex 7.444701e+00 5.675488e+01 0.000000e+00
         vertex 7.444701e+00 5.675488e+01 3.175000e+00
         vertex 7.596132e+00 5.618973e+01 0.000000e+00
      endloop
   endfacet
   facet normal 9.659259e-01 2.588186e-01 -0.000000e+00
      outer loop
         vertex 7.596132e+00 5.618973e+01 0.000000e+00
         vertex 7.444701e+00 5.675488e+01 3.175000e+00
         vertex 7.596132e+00 5.618973e+01 3.175000e+00
      endloop
   endfacet
   facet normal 7.071068e-01 7.071068e-01 -0.000000e+00
      outer loop
         vertex 7.596132e+00 5.618973e+01 0.000000e+00
         vertex 7.596132e+00 5.618973e+01 3.175000e+00
         vertex 8.009851e+00 5.577601e+01 0.000000e+00
      endloop
   endfacet
   facet normal 7.071068e-01 7.071068e-01 -0.000000e+00
      outer loop
         vertex 8.009851e+00 5.577601e+01 0.000000e+00
         vertex 7.596132e+00 5.618973e+01 3.175000e+00
         vertex 8.009851e+00 5.577601e+01 3.175000e+00
      endloop
   endfacet
   facet normal 2.588186e-01 9.659259e-01 -0.000000e+00
      outer loop
         vertex 8.009851e+00 5.577601e+01 0.000000e+00
         vertex 8.009851e+00 5.577601e+01 3.175000e+00
         vertex 8.575001e+00 5.562458e+01 0.000000e+00
      endloop
   endfacet
   facet normal 2.588186e-01 9.659259e-01 -0.000000e+00
      outer loop
         vertex 8.575001e+00 5.562458e+01 0.000000e+00
         vertex 8.009851e+00 5.577601e+01 3.175000e+00
         vertex 8.575001e+00 5.562458e+01 3.175000e+00
      endloop
   endfacet
   facet normal -2.588186e-01 9.659259e-01 0.000000e+00
      outer loop
         vertex 8.575001e+00 5.562458e+01 0.000000e+00
         vertex 8.575001e+00 5.562458e+01 3.175000e+00
         vertex 9.140151e+00 5.577601e+01 0.000000e+00
      endloop
   endfacet
   facet normal -2.588186e-01 9.659259e-01 0.000000e+00
      outer loop
         vertex 9.140151e+00 5.577601e+01 0.000000e+00
         vertex 8.575001e+00 5.562458e+01 3.175000e+00
         vertex 9.140151e+00 5.577601e+01 3.175000e+00
      endloop
   endfacet
   facet normal -7.071068e-01 7.071068e-01 0.000000e+00
      outer loop
         vertex 9.140151e+00 5.577601e+01 0.000000e+00
         vertex 9.140151e+00 5.577601e+01 3.175000e+00
         vertex 9.553869e+00 5.618973e+01 0.000000e+00
      endloop
   endfacet
   facet normal -7.071068e-01 7.071068e-01 0.000000e+00
      outer loop
         vertex 9.553869e+00 5.618973e+01 0.000000e+00
         vertex 9.140151e+00 5.577601e+01 3.175000e+00
         vertex 9.553869e+00 5.618973e+01 3.175000e+00
      endloop
   endfacet
   facet normal -9.659259e-01 2.588186e-01 0.000000e+00
      outer loop
         vertex 9.553869e+00 5.618973e+01 0.000000e+00
         vertex 9.553869e+00 5.618973e+01 3.175000e+00
         vertex 9.705300e+00 5.675488e+01 0.000000e+00
      endloop
   endfacet
   facet normal -9.659259e-01 2.588186e-01 0.000000e+00
      outer loop
         vertex 9.705300e+00 5.675488e+01 0.000000e+00
         vertex 9.553869e+00 5.618973e+01 3.175000e+00
         vertex 9.705300e+00 5.675488e+01 3.175000e+00
      endloop
   endfacet
   facet normal -9.659259e-01 -2.588186e-01 0.000000e+00
      outer loop
         vertex 9.705300e+00 3.175488e+01 0.000000e+00
         vertex 9.705300e+00 3.175488e+01 3.175000e+00
         vertex 9.553869e+00 3.232003e+01 0.000000e+00
      endloop
   endfacet
   facet normal -9.659259e-01 -2.588186e-01 0.000000e+00
      outer loop
         vertex 9.553869e+00 3.232003e+01 0.000000e+00
         vertex 9.705300e+00 3.175488e+01 3.175000e+00
         vertex 9.553869e+00 3.232003e+01 3.175000e+00
      endloop
   endfacet
   facet normal -7.071068e-01 -7.071068e-01 0.000000e+00
      outer loop
         vertex 9.553869e+00 3.232003e+01 0.000000e+00
         vertex 9.553869e+00 3.232003e+01 3.175000e+00
         vertex 9.140151e+00 3.273375e+01 0.000000e+00
      endloop
   endfacet
   facet normal -7.071068e-01 -7.071068e-01 0.000000e+00
      outer loop
         vertex 9.140151e+00 3.273375e+01 0.000000e+00
         vertex 9.553869e+00 3.232003e+01 3.175000e+00
         vertex 9.140151e+00 3.273375e+01 3.175000e+00
      endloop
   endfacet
   facet normal -2.588186e-01 -9.659259e-01 0.000000e+00
      outer loop
         vertex 9.140151e+00 3.273375e+01 0.000000e+00
         vertex 9.140151e+00 3.273375e+01 3.175000e+00
         vertex 8.575001e+00 3.288518e+01 0.000000e+00
      endloop
   endfacet
   facet normal -2.588186e-01 -9.659259e-01 0.000000e+00
      outer loop
         vertex 8.575001e+00 3.288518e+01 0.000000e+00
         vertex 9.140151e+00 3.273375e+01 3.175000e+00
         vertex 8.575001e+00 3.288518e+01 3.175000e+00
      endloop
   endfacet
   facet normal 2.588186e-01 -9.659259e-01 0.000000e+00
      outer loop
         vertex 8.575001e+00 3.288518e+01 0.000000e+00
         vertex 8.575001e+00 3.288518e+01 3.175000e+00
         vertex 8.009851e+00 3.273375e+01 0.000000e+00
      endloop
   endfacet
   facet normal 2.588186e-01 -9.659259e-01 0.000000e+00
      outer loop
         vertex 8.009851e+00 3.273375e+01 0.000000e+00
         vertex 8.575001e+00 3.288518e+01 3.175000e+00
         vertex 8.009851e+00 3.273375e+01 3.175000e+00
      endloop
   endfacet
   facet normal 7.071068e-01 -7.071068e-01 0.000000e+00
      outer loop
         vertex 8.009851e+00 3.273375e+01 0.000000e+00
         vertex 8.009851e+00 3.273375e+01 3.175000e+00
         vertex 7.596132e+00 3.232003e+01 0.000000e+00
      endloop
   endfacet
   facet normal 7.071068e-01 -7.071068e-01 0.000000e+00
      outer loop
         vertex 7.596132e+00 3.232003e+01 0.000000e+00
         vertex 8.009851e+00 3.273375e+01 3.175000e+00
         vertex 7.596132e+00 3.232003e+01 3.175000e+00
      endloop
   endfacet
   facet normal 9.659259e-01 -2.588186e-01 0.000000e+00
      outer loop
         vertex 7.596132e+00 3.232003e+01 0.000000e+00
         vertex 7.596132e+00 3.232003e+01 3.175000e+00
         vertex 7.444701e+00 3.175488e+01 0.000000e+00
      endloop
   endfacet
   facet normal 9.659259e-01 -2.588186e-01 0.000000e+00
      outer loop
         vertex 7.444701e+00 3.175488e+01 0.000000e+00
         vertex 7.596132e+00 3.232003e+01 3.175000e+00
         vertex 7.444701e+00 3.175488e+01 3.175000e+00
      endloop
   endfacet
   facet normal 9.659260e-01 2.588182e-01 -0.000000e+00
      outer loop
         vertex 7.444701e+00 3.175488e+01 0.000000e+00
         vertex 7.444701e+00 3.175488e+01 3.175000e+00
         vertex 7.596132e+00 3.118973e+01 0.000000e+00
      endloop
   endfacet
   facet normal 9.659260e-01 2.588182e-01 -0.000000e+00
      outer loop
         vertex 7.596132e+00 3.118973e+01 0.000000e+00
         vertex 7.444701e+00 3.175488e+01 3.175000e+00
         vertex 7.596132e+00 3.118973e+01 3.175000e+00
      endloop
   endfacet
   facet normal 7.071060e-01 7.071076e-01 -0.000000e+00
      outer loop
         vertex 7.596132e+00 3.118973e+01 0.000000e+00
         vertex 7.596132e+00 3.118973e+01 3.175000e+00
         vertex 8.009851e+00 3.077601e+01 0.000000e+00
      endloop
   endfacet
   facet normal 7.071060e-01 7.071076e-01 -0.000000e+00
      outer loop
         vertex 8.009851e+00 3.077601e+01 0.000000e+00
         vertex 7.596132e+00 3.118973e+01 3.175000e+00
         vertex 8.009851e+00 3.077601e+01 3.175000e+00
      endloop
   endfacet
   facet normal 2.588186e-01 9.659259e-01 -0.000000e+00
      outer loop
         vertex 8.009851e+00 3.077601e+01 0.000000e+00
         vertex 8.009851e+00 3.077601e+01 3.175000e+00
         vertex 8.575001e+00 3.062458e+01 0.000000e+00
      endloop
   endfacet
   facet normal 2.588186e-01 9.659259e-01 -0.000000e+00
      outer loop
         vertex 8.575001e+00 3.062458e+01 0.000000e+00
         vertex 8.009851e+00 3.077601e+01 3.175000e+00
         vertex 8.575001e+00 3.062458e+01 3.175000e+00
      endloop
   endfacet
   facet normal -2.588186e-01 9.659259e-01 0.000000e+00
      outer loop
         vertex 8.575001e+00 3.062458e+01 0.000000e+00
         vertex 8.575001e+00 3.062458e+01 3.175000e+00
         vertex 9.140151e+00 3.077601e+01 0.000000e+00
      endloop
   endfacet
   facet normal -2.588186e-01 9.659259e-01 0.000000e+00
      outer loop
         vertex 9.140151e+00 3.077601e+01 0.000000e+00
         vertex 8.575001e+00 3.062458e+01 3.175000e+00
         vertex 9.140151e+00 3.077601e+01 3.175000e+00
      endloop
   endfacet
   facet normal -7.071060e-01 7.071076e-01 0.000000e+00
      outer loop
         vertex 9.140151e+00 3.077601e+01 0.000000e+00
         vertex 9.140151e+00 3.077601e+01 3.175000e+00
         vertex 9.553869e+00 3.118973e+01 0.000000e+00
      endloop
   endfacet
   facet normal -7.071060e-01 7.071076e-01 0.000000e+00
      outer loop
         vertex 9.553869e+00 3.118973e+01 0.000000e+00
         vertex 9.140151e+00 3.077601e+01 3.175000e+00
         vertex 9.553869e+00 3.118973e+01 3.175000e+00
      endloop
   endfacet
   facet normal -9.659260e-01 2.588182e-01 0.000000e+00
      outer loop
         vertex 9.553869e+00 3.118973e+01 0.000000e+00
         vertex 9.553869e+00 3.118973e+01 3.175000e+00
         vertex 9.705300e+00 3.175488e+01 0.000000e+00
      endloop
   endfacet
   facet normal -9.659260e-01 2.588182e-01 0.000000e+00
      outer loop
         vertex 9.705300e+00 3.175488e+01 0.000000e+00
         vertex 9.553869e+00 3.118973e+01 3.175000e+00
         vertex 9.705300e+00 3.175488e+01 3.175000e+00
      endloop
   endfacet
   facet normal -9.659259e-01 -2.588186e-01 0.000000e+00
      outer loop
         vertex 2.970530e+01 3.175488e+01 0.000000e+00
         vertex 2.970530e+01 3.175488e+01 3.175000e+00
         vertex 2.955387e+01 3.232003e+01 0.000000e+00
      endloop
   endfacet
   facet normal -9.659259e-01 -2.588186e-01 0.000000e+00
      outer loop
         vertex 2.955387e+01 3.232003e+01 0.000000e+00
         vertex 2.970530e+01 3.175488e+01 3.175000e+00
         vertex 2.955387e+01 3.232003e+01 3.175000e+00
      endloop
   endfacet
   facet normal -7.071068e-01 -7.071068e-01 0.000000e+00
      outer loop
         vertex 2.955387e+01 3.232003e+01 0.000000e+00
         vertex 2.955387e+01 3.232003e+01 3.175000e+00
         vertex 2.914015e+01 3.273375e+01 0.000000e+00
      endloop
   endfacet
   facet normal -7.071068e-01 -7.071068e-01 0.000000e+00
      outer loop
         vertex 2.914015e+01 3.273375e+01 0.000000e+00
         vertex 2.955387e+01 3.232003e+01 3.175000e+00
         vertex 2.914015e+01 3.273375e+01 3.175000e+00
      endloop
   endfacet
   facet normal -2.588182e-01 -9.659260e-01 0.000000e+00
      outer loop
         vertex 2.914015e+01 3.273375e+01 0.000000e+00
         vertex 2.914015e+01 3.273375e+01 3.175000e+00
         vertex 2.857500e+01 3.288518e+01 0.000000e+00
      endloop
   endfacet
   facet normal -2.588182e-01 -9.659260e-01 0.000000e+00
      outer loop
         vertex 2.857500e+01 3.288518e+01 0.000000e+00
         vertex 2.914015e+01 3.273375e+01 3.175000e+00
         vertex 2.857500e+01 3.288518e+01 3.175000e+00
      endloop
   endfacet
   facet normal 2.588186e-01 -9.659259e-01 0.000000e+00
      outer loop
         vertex 2.857500e+01 3.288518e+01 0.000000e+00
         vertex 2.857500e+01 3.288518e+01 3.175000e+00
         vertex 2.800985e+01 3.273375e+01 0.000000e+00
      endloop
   endfacet
   facet normal 2.588186e-01 -9.659259e-01 0.000000e+00
      outer loop
         vertex 2.800985e+01 3.273375e+01 0.000000e+00
         vertex 2.857500e+01 3.288518e+01 3.175000e+00
         vertex 2.800985e+01 3.273375e+01 3.175000e+00
      endloop
   endfacet
   facet normal 7.071068e-01 -7.071068e-01 0.000000e+00
      outer loop
         vertex 2.800985e+01 3.273375e+01 0.000000e+00
         vertex 2.800985e+01 3.273375e+01 3.175000e+00
         vertex 2.759613e+01 3.232003e+01 0.000000e+00
      endloop
   endfacet
   facet normal 7.071068e-01 -7.071068e-01 0.000000e+00
      outer loop
         vertex 2.759613e+01 3.232003e+01 0.000000e+00
         vertex 2.800985e+01 3.273375e+01 3.175000e+00
         vertex 2.759613e+01 3.232003e+01 3.175000e+00
      endloop
   endfacet
   facet normal 9.659259e-01 -2.588186e-01 0.000000e+00
      outer loop
         vertex 2.759613e+01 3.232003e+01 0.000000e+00
         vertex 2.759613e+01 3.232003e+01 3.175000e+00
         vertex 2.744470e+01 3.175488e+01 0.000000e+00
      endloop
   endfacet
   facet normal 9.659259e-01 -2.588186e-01 0.000000e+00
      outer loop
         vertex 2.744470e+01 3.175488e+01 0.000000e+00
         vertex 2.759613e+01 3.232003e+01 3.175000e+00
         vertex 2.744470e+01 3.175488e+01 3.175000e+00
      endloop
   endfacet
   facet normal 9.659260e-01 2.588182e-01 -0.000000e+00
      outer loop
         vertex 2.744470e+01 3.175488e+01 0.000000e+00
         vertex 2.744470e+01 3.175488e+01 3.175000e+00
         vertex 2.759613e+01 3.118973e+01 0.000000e+00
      endloop
   endfacet
   facet normal 9.659260e-01 2.588182e-01 -0.000000e+00
      outer loop
         vertex 2.759613e+01 3.118973e+01 0.000000e+00
         vertex 2.744470e+01 3.175488e+01 3.175000e+00
         vertex 2.759613e+01 3.118973e+01 3.175000e+00
      endloop
   endfacet
   facet normal 7.071060e-01 7.071076e-01 -0.000000e+00
      outer loop
         vertex 2.759613e+01 3.118973e+01 0.000000e+00
         vertex 2.759613e+01 3.118973e+01 3.175000e+00
         vertex 2.800985e+01 3.077601e+01 0.000000e+00
      endloop
   endfacet
   facet normal 7.071060e-01 7.071076e-01 -0.000000e+00
      outer loop
         vertex 2.800985e+01 3.077601e+01 0.000000e+00
         vertex 2.759613e+01 3.118973e+01 3.175000e+00
         vertex 2.800985e+01 3.077601e+01 3.175000e+00
      endloop
   endfacet
   facet normal 2.588186e-01 9.659259e-01 -0.000000e+00
      outer loop
         vertex 2.800985e+01 3.077601e+01 0.000000e+00
         vertex 2.800985e+01 3.077601e+01 3.175000e+00
         vertex 2.857500e+01 3.062458e+01 0.000000e+00
      endloop
   endfacet
   facet normal 2.588186e-01 9.659259e-01 -0.000000e+00
      outer loop
         vertex 2.857500e+01 3.062458e+01 0.000000e+00
         vertex 2.800985e+01 3.077601e+01 3.175000e+00
         vertex 2.857500e+01 3.062458e+01 3.175000e+00
      endloop
   endfacet
   facet normal -2.588182e-01 9.659260e-01 0.000000e+00
      outer loop
         vertex 2.857500e+01 3.062458e+01 0.000000e+00
         vertex 2.857500e+01 3.062458e+01 3.175000e+00
         vertex 2.914015e+01 3.077601e+01 0.000000e+00
      endloop
   endfacet
   facet normal -2.588182e-01 9.659260e-01 0.000000e+00
      outer loop
         vertex 2.914015e+01 3.077601e+01 0.000000e+00
         vertex 2.857500e+01 3.062458e+01 3.175000e+00
         vertex 2.914015e+01 3.077601e+01 3.175000e+00
      endloop
   endfacet
   facet normal -7.071060e-01 7.071076e-01 0.000000e+00
      outer loop
         vertex 2.914015e+01 3.077601e+01 0.000000e+00
         vertex 2.914015e+01 3.077601e+01 3.175000e+00
         vertex 2.955387e+01 3.118973e+01 0.000000e+00
      endloop
   endfacet
   facet normal -7.071060e-01 7.071076e-01 0.000000e+00
      outer loop
         vertex 2.955387e+01 3.118973e+01 0.000000e+00
         vertex 2.914015e+01 3.077601e+01 3.175000e+00
         vertex 2.955387e+01 3.118973e+01 3.175000e+00
      endloop
   endfacet
   facet normal -9.659260e-01 2.588182e-01 0.000000e+00
      outer loop
         vertex 2.955387e+01 3.118973e+01 0.000000e+00
         vertex 2.955387e+01 3.118973e+01 3.175000e+00
         vertex 2.970530e+01 3.175488e+01 0.000000e+00
      endloop
   endfacet
   facet normal -9.659260e-01 2.588182e-01 0.000000e+00
      outer loop
         vertex 2.970530e+01 3.175488e+01 0.000000e+00
         vertex 2.955387e+01 3.118973e+01 3.175000e+00
         vertex 2.970530e+01 3.175488e+01 3.175000e+00
      endloop
   endfacet
   facet normal -9.659260e-01 -2.588182e-01 0.000000e+00
      outer loop
         vertex 2.970530e+01 5.675488e+01 0.000000e+00
         vertex 2.970530e+01 5.675488e+01 3.175000e+00
         vertex 2.955387e+01 5.732003e+01 0.000000e+00
      endloop
   endfacet
   facet normal -9.659260e-01 -2.588182e-01 0.000000e+00
      outer loop
         vertex 2.955387e+01 5.732003e+01 0.000000e+00
         vertex 2.970530e+01 5.675488e+01 3.175000e+00
         vertex 2.955387e+01 5.732003e+01 3.175000e+00
      endloop
   endfacet
   facet normal -7.071068e-01 -7.071068e-01 0.000000e+00
      outer loop
         vertex 2.955387e+01 5.732003e+01 0.000000e+00
         vertex 2.955387e+01 5.732003e+01 3.175000e+00
         vertex 2.914015e+01 5.773375e+01 0.000000e+00
      endloop
   endfacet
   facet normal -7.071068e-01 -7.071068e-01 0.000000e+00
      outer loop
         vertex 2.914015e+01 5.773375e+01 0.000000e+00
         vertex 2.955387e+01 5.732003e+01 3.175000e+00
         vertex 2.914015e+01 5.773375e+01 3.175000e+00
      endloop
   endfacet
   facet normal -2.588182e-01 -9.659260e-01 0.000000e+00
      outer loop
         vertex 2.914015e+01 5.773375e+01 0.000000e+00
         vertex 2.914015e+01 5.773375e+01 3.175000e+00
         vertex 2.857500e+01 5.788518e+01 0.000000e+00
      endloop
   endfacet
   facet normal -2.588182e-01 -9.659260e-01 0.000000e+00
      outer loop
         vertex 2.857500e+01 5.788518e+01 0.000000e+00
         vertex 2.914015e+01 5.773375e+01 3.175000e+00
         vertex 2.857500e+01 5.788518e+01 3.175000e+00
      endloop
   endfacet
   facet normal 2.588186e-01 -9.659259e-01 0.000000e+00
      outer loop
         vertex 2.857500e+01 5.788518e+01 0.000000e+00
         vertex 2.857500e+01 5.788518e+01 3.175000e+00
         vertex 2.800985e+01 5.773375e+01 0.000000e+00
      endloop
   endfacet
   facet normal 2.588186e-01 -9.659259e-01 0.000000e+00
      outer loop
         vertex 2.800985e+01 5.773375e+01 0.000000e+00
         vertex 2.857500e+01 5.788518e+01 3.175000e+00
         vertex 2.800985e+01 5.773375e+01 3.175000e+00
      endloop
   endfacet
   facet normal 7.071068e-01 -7.071068e-01 0.000000e+00
      outer loop
         vertex 2.800985e+01 5.773375e+01 0.000000e+00
         vertex 2.800985e+01 5.773375e+01 3.175000e+00
         vertex 2.759613e+01 5.732003e+01 0.000000e+00
      endloop
   endfacet
   facet normal 7.071068e-01 -7.071068e-01 0.000000e+00
      outer loop
         vertex 2.759613e+01 5.732003e+01 0.000000e+00
         vertex 2.800985e+01 5.773375e+01 3.175000e+00
         vertex 2.759613e+01 5.732003e+01 3.175000e+00
      endloop
   endfacet
   facet normal 9.659260e-01 -2.588182e-01 0.000000e+00
      outer loop
         vertex 2.759613e+01 5.732003e+01 0.000000e+00
         vertex 2.759613e+01 5.732003e+01 3.175000e+00
         vertex 2.744470e+01 5.675488e+01 0.000000e+00
      endloop
   endfacet
   facet normal 9.659260e-01 -2.588182e-01 0.000000e+00
      outer loop
         vertex 2.744470e+01 5.675488e+01 0.000000e+00
         vertex 2.759613e+01 5.732003e+01 3.175000e+00
         vertex 2.744470e+01 5.675488e+01 3.175000e+00
      endloop
   endfacet
   facet normal 9.659259e-01 2.588186e-01 -0.000000e+00
      outer loop
         vertex 2.744470e+01 5.675488e+01 0.000000e+00
         vertex 2.744470e+01 5.675488e+01 3.175000e+00
         vertex 2.759613e+01 5.618973e+01 0.000000e+00
      endloop
   endfacet
   facet normal 9.659259e-01 2.588186e-01 -0.000000e+00
      outer loop
         vertex 2.759613e+01 5.618973e+01 0.000000e+00
         vertex 2.744470e+01 5.675488e+01 3.175000e+00
         vertex 2.759613e+01 5.618973e+01 3.175000e+00
      endloop
   endfacet
   facet normal 7.071068e-01 7.071068e-01 -0.000000e+00
      outer loop
         vertex 2.759613e+01 5.618973e+01 0.000000e+00
         vertex 2.759613e+01 5.618973e+01 3.175000e+00
         vertex 2.800985e+01 5.577601e+01 0.000000e+00
      endloop
   endfacet
   facet normal 7.071068e-01 7.071068e-01 -0.000000e+00
      outer loop
         vertex 2.800985e+01 5.577601e+01 0.000000e+00
         vertex 2.759613e+01 5.618973e+01 3.175000e+00
         vertex 2.800985e+01 5.577601e+01 3.175000e+00
      endloop
   endfacet
   facet normal 2.588186e-01 9.659259e-01 -0.000000e+00
      outer loop
         vertex 2.800985e+01 5.577601e+01 0.000000e+00
         vertex 2.800985e+01 5.577601e+01 3.175000e+00
         vertex 2.857500e+01 5.562458e+01 0.000000e+00
      endloop
   endfacet
   facet normal 2.588186e-01 9.659259e-01 -0.000000e+00
      outer loop
         vertex 2.857500e+01 5.562458e+01 0.000000e+00
         vertex 2.800985e+01 5.577601e+01 3.175000e+00
         vertex 2.857500e+01 5.562458e+01 3.175000e+00
      endloop
   endfacet
   facet normal -2.588182e-01 9.659260e-01 0.000000e+00
      outer loop
         vertex 2.857500e+01 5.562458e+01 0.000000e+00
         vertex 2.857500e+01 5.562458e+01 3.175000e+00
         vertex 2.914015e+01 5.577601e+01 0.000000e+00
      endloop
   endfacet
   facet normal -2.588182e-01 9.659260e-01 0.000000e+00
      outer loop
         vertex 2.914015e+01 5.577601e+01 0.000000e+00
         vertex 2.857500e+01 5.562458e+01 3.175000e+00
         vertex 2.914015e+01 5.577601e+01 3.175000e+00
      endloop
   endfacet
   facet normal -7.071068e-01 7.071068e-01 0.000000e+00
      outer loop
         vertex 2.914015e+01 5.577601e+01 0.000000e+00
         vertex 2.914015e+01 5.577601e+01 3.175000e+00
         vertex 2.955387e+01 5.618973e+01 0.000000e+00
      endloop
   endfacet
   facet normal -7.071068e-01 7.071068e-01 0.000000e+00
      outer loop
         vertex 2.955387e+01 5.618973e+01 0.000000e+00
         vertex 2.914015e+01 5.577601e+01 3.175000e+00
         vertex 2.955387e+01 5.618973e+01 3.175000e+00
      endloop
   endfacet
   facet normal -9.659259e-01 2.588186e-01 0.000000e+00
      outer loop
         vertex 2.955387e+01 5.618973e+01 0.000000e+00
         vertex 2.955387e+01 5.618973e+01 3.175000e+00
         vertex 2.970530e+01 5.675488e+01 0.000000e+00
      endloop
   endfacet
   facet normal -9.659259e-01 2.588186e-01 0.000000e+00
      outer loop
         vertex 2.970530e+01 5.675488e+01 0.000000e+00
         vertex 2.955387e+01 5.618973e+01 3.175000e+00
         vertex 2.970530e+01 5.675488e+01 3.175000e+00
      endloop
   endfacet
   facet normal -9.807853e-01 -1.950904e-01 0.000000e+00
      outer loop
         vertex 3.307500e+01 4.425488e+01 0.000000e+00
         vertex 3.307500e+01 4.425488e+01 3.175000e+00
         vertex 3.273246e+01 4.597695e+01 0.000000e+00
      endloop
   endfacet
   facet normal -9.807853e-01 -1.950904e-01 0.000000e+00
      outer loop
         vertex 3.273246e+01 4.597695e+01 0.000000e+00
         vertex 3.307500e+01 4.425488e+01 3.175000e+00
         vertex 3.273246e+01 4.597695e+01 3.175000e+00
      endloop
   endfacet
   facet normal -8.314696e-01 -5.555703e-01 0.000000e+00
      outer loop
         vertex 3.273246e+01 4.597695e+01 0.000000e+00
         vertex 3.273246e+01 4.597695e+01 3.175000e+00
         vertex 3.175698e+01 4.743686e+01 0.000000e+00
      endloop
   endfacet
   facet normal -8.314696e-01 -5.555703e-01 0.000000e+00
      outer loop
         vertex 3.175698e+01 4.743686e+01 0.000000e+00
         vertex 3.273246e+01 4.597695e+01 3.175000e+00
         vertex 3.175698e+01 4.743686e+01 3.175000e+00
      endloop
   endfacet
   facet normal -5.555703e-01 -8.314696e-01 0.000000e+00
      outer loop
         vertex 3.175698e+01 4.743686e+01 0.000000e+00
         vertex 3.175698e+01 4.743686e+01 3.175000e+00
         vertex 3.029708e+01 4.841234e+01 0.000000e+00
      endloop
   endfacet
   facet normal -5.555703e-01 -8.314696e-01 0.000000e+00
      outer loop
         vertex 3.029708e+01 4.841234e+01 0.000000e+00
         vertex 3.175698e+01 4.743686e+01 3.175000e+00
         vertex 3.029708e+01 4.841234e+01 3.175000e+00
      endloop
   endfacet
   facet normal -1.950902e-01 -9.807853e-01 0.000000e+00
      outer loop
         vertex 3.029708e+01 4.841234e+01 0.000000e+00
         vertex 3.029708e+01 4.841234e+01 3.175000e+00
         vertex 2.857500e+01 4.875488e+01 0.000000e+00
      endloop
   endfacet
   facet normal -1.950902e-01 -9.807853e-01 0.000000e+00
      outer loop
         vertex 2.857500e+01 4.875488e+01 0.000000e+00
         vertex 3.029708e+01 4.841234e+01 3.175000e+00
         vertex 2.857500e+01 4.875488e+01 3.175000e+00
      endloop
   endfacet
   facet normal 1.950903e-01 -9.807853e-01 0.000000e+00
      outer loop
         vertex 2.857500e+01 4.875488e+01 0.000000e+00
         vertex 2.857500e+01 4.875488e+01 3.175000e+00
         vertex 2.685293e+01 4.841234e+01 0.000000e+00
      endloop
   endfacet
   facet normal 1.950903e-01 -9.807853e-01 0.000000e+00
      outer loop
         vertex 2.685293e+01 4.841234e+01 0.000000e+00
         vertex 2.857500e+01 4.875488e+01 3.175000e+00
         vertex 2.685293e+01 4.841234e+01 3.175000e+00
      endloop
   endfacet
   facet normal 5.555703e-01 -8.314696e-01 0.000000e+00
      outer loop
         vertex 2.685293e+01 4.841234e+01 0.000000e+00
         vertex 2.685293e+01 4.841234e+01 3.175000e+00
         vertex 2.539302e+01 4.743686e+01 0.000000e+00
      endloop
   endfacet
   facet normal 5.555703e-01 -8.314696e-01 0.000000e+00
      outer loop
         vertex 2.539302e+01 4.743686e+01 0.000000e+00
         vertex 2.685293e+01 4.841234e+01 3.175000e+00
         vertex 2.539302e+01 4.743686e+01 3.175000e+00
      endloop
   endfacet
   facet normal 8.314696e-01 -5.555703e-01 0.000000e+00
      outer loop
         vertex 2.539302e+01 4.743686e+01 0.000000e+00
         vertex 2.539302e+01 4.743686e+01 3.175000e+00
         vertex 2.441754e+01 4.597695e+01 0.000000e+00
      endloop
   endfacet
   facet normal 8.314696e-01 -5.555703e-01 0.000000e+00
      outer loop
         vertex 2.441754e+01 4.597695e+01 0.000000e+00
         vertex 2.539302e+01 4.743686e+01 3.175000e+00
         vertex 2.441754e+01 4.597695e+01 3.175000e+00
      endloop
   endfacet
   facet normal 9.807853e-01 -1.950902e-01 0.000000e+00
      outer loop
         vertex 2.441754e+01 4.597695e+01 0.000000e+00
         vertex 2.441754e+01 4.597695e+01 3.175000e+00
         vertex 2.407500e+01 4.425488e+01 0.000000e+00
      endloop
   endfacet
   facet normal 9.807853e-01 -1.950902e-01 0.000000e+00
      outer loop
         vertex 2.407500e+01 4.425488e+01 0.000000e+00
         vertex 2.441754e+01 4.597695e+01 3.175000e+00
         vertex 2.407500e+01 4.425488e+01 3.175000e+00
      endloop
   endfacet
   facet normal 9.807853e-01 1.950901e-01 -0.000000e+00
      outer loop
         vertex 2.407500e+01 4.425488e+01 0.000000e+00
         vertex 2.407500e+01 4.425488e+01 3.175000e+00
         vertex 2.441754e+01 4.253280e+01 0.000000e+00
      endloop
   endfacet
   facet normal 9.807853e-01 1.950901e-01 -0.000000e+00
      outer loop
         vertex 2.441754e+01 4.253280e+01 0.000000e+00
         vertex 2.407500e+01 4.425488e+01 3.175000e+00
         vertex 2.441754e+01 4.253280e+01 3.175000e+00
      endloop
   endfacet
   facet normal 8.314696e-01 5.555703e-01 -0.000000e+00
      outer loop
         vertex 2.441754e+01 4.253280e+01 0.000000e+00
         vertex 2.441754e+01 4.253280e+01 3.175000e+00
         vertex 2.539302e+01 4.107290e+01 0.000000e+00
      endloop
   endfacet
   facet normal 8.314696e-01 5.555703e-01 -0.000000e+00
      outer loop
         vertex 2.539302e+01 4.107290e+01 0.000000e+00
         vertex 2.441754e+01 4.253280e+01 3.175000e+00
         vertex 2.539302e+01 4.107290e+01 3.175000e+00
      endloop
   endfacet
   facet normal 5.555703e-01 8.314696e-01 -0.000000e+00
      outer loop
         vertex 2.539302e+01 4.107290e+01 0.000000e+00
         vertex 2.539302e+01 4.107290e+01 3.175000e+00
         vertex 2.685293e+01 4.009742e+01 0.000000e+00
      endloop
   endfacet
   facet normal 5.555703e-01 8.314696e-01 -0.000000e+00
      outer loop
         vertex 2.685293e+01 4.009742e+01 0.000000e+00
         vertex 2.539302e+01 4.107290e+01 3.175000e+00
         vertex 2.685293e+01 4.009742e+01 3.175000e+00
      endloop
   endfacet
   facet normal 1.950902e-01 9.807853e-01 -0.000000e+00
      outer loop
         vertex 2.685293e+01 4.009742e+01 0.000000e+00
         vertex 2.685293e+01 4.009742e+01 3.175000e+00
         vertex 2.857500e+01 3.975488e+01 0.000000e+00
      endloop
   endfacet
   facet normal 1.950902e-01 9.807853e-01 -0.000000e+00
      outer loop
         vertex 2.857500e+01 3.975488e+01 0.000000e+00
         vertex 2.685293e+01 4.009742e+01 3.175000e+00
         vertex 2.857500e+01 3.975488e+01 3.175000e+00
      endloop
   endfacet
   facet normal -1.950901e-01 9.807853e-01 0.000000e+00
      outer loop
         vertex 2.857500e+01 3.975488e+01 0.000000e+00
         vertex 2.857500e+01 3.975488e+01 3.175000e+00
         vertex 3.029708e+01 4.009742e+01 0.000000e+00
      endloop
   endfacet
   facet normal -1.950901e-01 9.807853e-01 0.000000e+00
      outer loop
         vertex 3.029708e+01 4.009742e+01 0.000000e+00
         vertex 2.857500e+01 3.975488e+01 3.175000e+00
         vertex 3.029708e+01 4.009742e+01 3.175000e+00
      endloop
   endfacet
   facet normal -5.555703e-01 8.314696e-01 0.000000e+00
      outer loop
         vertex 3.029708e+01 4.009742e+01 0.000000e+00
         vertex 3.029708e+01 4.009742e+01 3.175000e+00
         vertex 3.175698e+01 4.107290e+01 0.000000e+00
      endloop
   endfacet
   facet normal -5.555703e-01 8.314696e-01 0.000000e+00
      outer loop
         vertex 3.175698e+01 4.107290e+01 0.000000e+00
         vertex 3.029708e+01 4.009742e+01 3.175000e+00
         vertex 3.175698e+01 4.107290e+01 3.175000e+00
      endloop
   endfacet
   facet normal -8.314696e-01 5.555703e-01 0.000000e+00
      outer loop
         vertex 3.175698e+01 4.107290e+01 0.000000e+00
         vertex 3.175698e+01 4.107290e+01 3.175000e+00
         vertex 3.273246e+01 4.253280e+01 0.000000e+00
      endloop
   endfacet
   facet normal -8.314696e-01 5.555703e-01 0.000000e+00
      outer loop
         vertex 3.273246e+01 4.253280e+01 0.000000e+00
         vertex 3.175698e+01 4.107290e+01 3.175000e+00
         vertex 3.273246e+01 4.253280e+01 3.175000e+00
      endloop
   endfacet
   facet normal -9.807853e-01 1.950904e-01 0.000000e+00
      outer loop
         vertex 3.273246e+01 4.253280e+01 0.000000e+00
         vertex 3.273246e+01 4.253280e+01 3.175000e+00
         vertex 3.307500e+01 4.425488e+01 0.000000e+00
      endloop
   endfacet
   facet normal -9.807853e-01 1.950904e-01 0.000000e+00
      outer loop
         vertex 3.307500e+01 4.425488e+01 0.000000e+00
         vertex 3.273246e+01 4.253280e+01 3.175000e+00
         vertex 3.307500e+01 4.425488e+01 3.175000e+00
      endloop
   endfacet
endsolid